<svg width="50" height="47" viewBox="0 0 50 47" fill="none" xmlns="http://www.w3.org/2000/svg">
<mask id="mask0_605_4001" style="mask-type:luminance" maskUnits="userSpaceOnUse" x="8" y="2" width="42" height="36">
<path d="M8.10791 2.48438H49.2553V37.1594H8.10791V2.48438Z" fill="white"/>
</mask>
<g mask="url(#mask0_605_4001)">
<path d="M10.1638 15.85V6.35566C10.1638 5.87277 10.3585 5.43661 10.6778 5.11727C10.9972 4.79794 11.4333 4.60322 11.9162 4.60322H45.5554C46.0383 4.60322 46.4744 4.79794 46.7938 5.11727C47.1131 5.43661 47.3078 5.87277 47.3078 6.35566V33.3978C47.3078 33.8807 47.1131 34.3169 46.7938 34.6362C46.4744 34.9556 46.0383 35.1503 45.5554 35.1503H30.7569C30.5856 35.8357 30.3675 36.5055 30.1027 37.1597H45.5554C46.5912 37.1597 47.5337 36.7392 48.2113 36.0538C48.8967 35.3761 49.3173 34.4337 49.3173 33.3978V6.35566C49.3173 5.31978 48.8967 4.37735 48.2113 3.69974C47.5337 3.01434 46.5912 2.59375 45.5554 2.59375H11.9162C10.8803 2.59375 9.9379 3.01434 9.26028 3.69974C8.57488 4.37735 8.1543 5.31978 8.1543 6.35566V16.6522C8.80075 16.3407 9.47058 16.0681 10.1638 15.85Z" fill=""/>
</g>
<mask id="mask1_605_4001" style="mask-type:luminance" maskUnits="userSpaceOnUse" x="8" y="10" width="42" height="4">
<path d="M8.10791 10.9766H49.2553V13.0717H8.10791V10.9766Z" fill="white"/>
</mask>
<g mask="url(#mask1_605_4001)">
<path d="M9.15952 11.0391C8.60653 11.0391 8.15479 11.4908 8.15479 12.0438C8.15479 12.5968 8.60653 13.0485 9.15952 13.0485H48.313C48.8738 13.0485 49.3178 12.5968 49.3178 12.0438C49.3178 11.4908 48.8738 11.0391 48.313 11.0391H9.15952Z" fill=""/>
</g>
<mask id="mask2_605_4001" style="mask-type:luminance" maskUnits="userSpaceOnUse" x="12" y="0" width="5" height="8">
<path d="M12.9995 0H16.9873V7.25123H12.9995V0Z" fill="white"/>
</mask>
<g mask="url(#mask2_605_4001)">
<path d="M16.6916 1.00473C16.6916 0.451741 16.2399 0 15.6869 0C15.1261 0 14.6821 0.451741 14.6821 1.00473V6.02841C14.6821 6.5814 15.1261 7.03314 15.6869 7.03314C16.2399 7.03314 16.6916 6.5814 16.6916 6.02841V1.00473Z" fill=""/>
</g>
<mask id="mask3_605_4001" style="mask-type:luminance" maskUnits="userSpaceOnUse" x="22" y="0" width="5" height="8">
<path d="M22.9688 0H26.9565V7.25123H22.9688V0Z" fill="white"/>
</mask>
<g mask="url(#mask3_605_4001)">
<path d="M25.3908 1.00473C25.3908 0.451741 24.9391 0 24.3861 0C23.8331 0 23.3813 0.451741 23.3813 1.00473V6.02841C23.3813 6.5814 23.8331 7.03314 24.3861 7.03314C24.9391 7.03314 25.3908 6.5814 25.3908 6.02841V1.00473Z" fill=""/>
</g>
<mask id="mask4_605_4001" style="mask-type:luminance" maskUnits="userSpaceOnUse" x="30" y="0" width="5" height="8">
<path d="M30.9448 0H34.9326V7.25123H30.9448V0Z" fill="white"/>
</mask>
<g mask="url(#mask4_605_4001)">
<path d="M34.091 1.00473C34.091 0.451741 33.6393 0 33.0863 0C32.5333 0 32.0815 0.451741 32.0815 1.00473V6.02841C32.0815 6.5814 32.5333 7.03314 33.0863 7.03314C33.6393 7.03314 34.091 6.5814 34.091 6.02841V1.00473Z" fill=""/>
</g>
<mask id="mask5_605_4001" style="mask-type:luminance" maskUnits="userSpaceOnUse" x="38" y="0" width="5" height="8">
<path d="M38.9199 0H42.9077V7.25123H38.9199V0Z" fill="white"/>
</mask>
<g mask="url(#mask5_605_4001)">
<path d="M42.7907 1.00473C42.7907 0.451741 42.3468 0 41.786 0C41.233 0 40.7891 0.451741 40.7891 1.00473V6.02841C40.7891 6.5814 41.233 7.03314 41.786 7.03314C42.3468 7.03314 42.7907 6.5814 42.7907 6.02841V1.00473Z" fill=""/>
</g>
<mask id="mask6_605_4001" style="mask-type:luminance" maskUnits="userSpaceOnUse" x="0" y="15" width="31" height="32">
<path d="M0 15.9375H30.329V46.2743H0V15.9375Z" fill="white"/>
</mask>
<g mask="url(#mask6_605_4001)">
<path d="M15.1255 16.0547C19.3003 16.0547 23.0777 17.7448 25.8116 20.4864C28.5532 23.2202 30.2433 26.9977 30.2433 31.1724C30.2433 35.3472 28.5532 39.1324 25.8116 41.8662C23.0777 44.6001 19.3003 46.298 15.1255 46.298V44.2885C18.7395 44.2885 22.0185 42.8165 24.394 40.4487C26.7696 38.0732 28.2338 34.7942 28.2338 31.1724C28.2338 27.5507 26.7696 24.2795 24.394 21.904C22.0185 19.5284 18.7395 18.0642 15.1255 18.0642V16.0547ZM15.1255 16.0547V18.0642C11.5038 18.0642 8.22481 19.5284 5.84927 21.904C3.47373 24.2795 2.00947 27.5507 2.00947 31.1724C2.00947 34.7942 3.47373 38.0732 5.84927 40.4487C8.22481 42.8165 11.5038 44.2885 15.1255 44.2885V46.298C10.943 46.298 7.16555 44.6001 4.43174 41.8662C1.69014 39.1324 0 35.3472 0 31.1724C0 26.9977 1.69014 23.2202 4.43174 20.4864C7.16555 17.7448 10.943 16.0547 15.1255 16.0547Z" fill=""/>
</g>
<path d="M42.1051 15.0391H44.1146C44.3872 15.0391 44.6131 15.2649 44.6131 15.5453V19.6733C44.6131 19.9459 44.3872 20.1718 44.1146 20.1718H42.1051V19.167H43.6083V16.0438H42.1051V15.0391ZM40.0956 15.0391H42.1051V16.0438H40.6019V19.167H42.1051V20.1718H40.0956C39.823 20.1718 39.5972 19.9459 39.5972 19.6733V15.5453C39.5972 15.2649 39.823 15.0391 40.0956 15.0391Z" fill=""/>
<path d="M34.2618 15.0391H36.2635C36.5439 15.0391 36.7698 15.2649 36.7698 15.5453V19.6733C36.7698 19.9459 36.5439 20.1718 36.2635 20.1718H34.2618V19.167H35.765V16.0438H34.2618V15.0391ZM32.2524 15.0391H34.2618V16.0438H32.7508V19.167H34.2618V20.1718H32.2524C31.972 20.1718 31.7461 19.9459 31.7461 19.6733V15.5453C31.7461 15.2649 31.972 15.0391 32.2524 15.0391Z" fill=""/>
<path d="M42.1051 21.4531H44.1146C44.3872 21.4531 44.6131 21.679 44.6131 21.9594V26.0874C44.6131 26.36 44.3872 26.5858 44.1146 26.5858H42.1051V25.5811H43.6083V22.4579H42.1051V21.4531ZM40.0956 21.4531H42.1051V22.4579H40.6019V25.5811H42.1051V26.5858H40.0956C39.823 26.5858 39.5972 26.36 39.5972 26.0874V21.9594C39.5972 21.679 39.823 21.4531 40.0956 21.4531Z" fill=""/>
<path d="M34.2618 21.4531H36.2635C36.5439 21.4531 36.7698 21.679 36.7698 21.9594V26.0874C36.7698 26.36 36.5439 26.5858 36.2635 26.5858H34.2618V25.5811H35.765V22.4579H34.2618V21.4531ZM32.2524 21.4531H34.2618V22.4579H32.7508V25.5811H34.2618V26.5858H32.2524C31.972 26.5858 31.7461 26.36 31.7461 26.0874V21.9594C31.7461 21.679 31.972 21.4531 32.2524 21.4531Z" fill=""/>
<path d="M42.1051 27.8828H44.1146C44.3872 27.8828 44.6131 28.1087 44.6131 28.3813V32.5171C44.6131 32.7897 44.3872 33.0155 44.1146 33.0155H42.1051V32.0108H43.6083V28.8875H42.1051V27.8828ZM40.0956 27.8828H42.1051V28.8875H40.6019V32.0108H42.1051V33.0155H40.0956C39.823 33.0155 39.5972 32.7897 39.5972 32.5171V28.3813C39.5972 28.1087 39.823 27.8828 40.0956 27.8828Z" fill=""/>
<path d="M34.2618 27.8828H36.2635C36.5439 27.8828 36.7698 28.1087 36.7698 28.3813V32.5171C36.7698 32.7897 36.5439 33.0155 36.2635 33.0155H34.2618V32.0108H35.765V28.8875H34.2618V27.8828ZM32.2524 27.8828H34.2618V28.8875H32.7508V32.0108H34.2618V33.0155H32.2524C31.972 33.0155 31.7461 32.7897 31.7461 32.5171V28.3813C31.7461 28.1087 31.972 27.8828 32.2524 27.8828Z" fill=""/>
<path d="M16.1848 21.0751C16.1848 20.5221 15.733 20.0781 15.18 20.0781C14.627 20.0781 14.1753 20.5221 14.1753 21.0751V31.1224C14.1753 31.6754 14.627 32.1272 15.18 32.1272C15.733 32.1272 16.1848 31.6754 16.1848 31.1224V21.0751Z" fill=""/>
<path d="M15.8115 30.3513C15.3831 30.0008 14.7522 30.0631 14.4095 30.4992C14.059 30.9276 14.1213 31.5585 14.5497 31.9012L20.0096 36.3329C20.4379 36.6756 21.0688 36.6133 21.4193 36.185C21.7698 35.7566 21.6997 35.1257 21.2713 34.7752L15.8115 30.3513Z" fill=""/>
</svg>
