<svg width="11" height="11" viewBox="0 0 11 11" fill="none" xmlns="http://www.w3.org/2000/svg">
<mask id="mask0_1057_5336" style="mask-type:luminance" maskUnits="userSpaceOnUse" x="0" y="0" width="11" height="11">
<path d="M0 0H11V11H0V0Z" fill="white"/>
</mask>
<g mask="url(#mask0_1057_5336)">
<path d="M5.37268 0.512879C2.69351 0.512879 0.512879 2.69351 0.512879 5.37268C0.512879 8.05543 2.69351 10.2361 5.37268 10.2361C8.05543 10.2361 10.2325 8.05543 10.2325 5.37268C10.2325 2.69351 8.05543 0.512879 5.37268 0.512879ZM5.37268 10.7489C2.41017 10.7489 0 8.33877 0 5.37268C0 2.41017 2.41017 0 5.37268 0C8.33518 0 10.7454 2.41017 10.7454 5.37268C10.7454 8.33877 8.33518 10.7489 5.37268 10.7489Z" fill="#0F1738"/>
</g>
<path d="M6.85765 7.11455C6.79309 7.11455 6.72853 7.08945 6.67832 7.03924L5.19348 5.5544C5.14327 5.50777 5.11816 5.43963 5.11816 5.37148V2.39105C5.11816 2.24758 5.23293 2.13281 5.37281 2.13281C5.51627 2.13281 5.63104 2.24758 5.63104 2.39105V5.26747L7.04056 6.67699C7.14099 6.77742 7.14099 6.93881 7.04056 7.03924C6.99035 7.08945 6.92579 7.11455 6.85765 7.11455Z" fill="#0F1738"/>
<path d="M7.69345 1.86887L7.73649 1.79355C7.80822 1.67161 7.76518 1.5138 7.64324 1.44565C7.5213 1.37392 7.36349 1.41696 7.29176 1.5389L7.24872 1.61422C7.18057 1.73617 7.22003 1.89397 7.34556 1.96212C7.38501 1.98723 7.42805 1.99799 7.47109 1.99799C7.56075 1.99799 7.64683 1.95136 7.69345 1.86887ZM3.45413 9.21057L3.49717 9.13525C3.5689 9.01331 3.52586 8.8555 3.40392 8.78736C3.28198 8.71562 3.12417 8.75866 3.05244 8.88061L3.01298 8.95592C2.94125 9.07787 2.98429 9.23568 3.10623 9.30382C3.14569 9.32893 3.18873 9.33969 3.23176 9.33969C3.32143 9.33969 3.40751 9.29306 3.45413 9.21057ZM9.13525 3.50076L9.21057 3.45772C9.33251 3.38599 9.37555 3.22818 9.30382 3.10623C9.23209 2.98429 9.07787 2.94125 8.95234 3.01298L8.88061 3.05602C8.75508 3.12417 8.71562 3.28198 8.78377 3.40392C8.83398 3.48641 8.92006 3.53304 9.00972 3.53304C9.05276 3.53304 9.0958 3.52228 9.13525 3.50076ZM1.79355 7.73649L1.86887 7.69345C1.99081 7.62531 2.03385 7.4675 1.96212 7.34556C1.89397 7.22003 1.73617 7.18057 1.61422 7.24872L1.5389 7.29176C1.41696 7.36349 1.37392 7.5213 1.44565 7.64324C1.49228 7.72573 1.57836 7.77236 1.66802 7.77236C1.71106 7.77236 1.7541 7.7616 1.79355 7.73649ZM9.91354 5.37294C9.91354 5.23307 9.79877 5.1183 9.6553 5.1183H9.56923C9.42935 5.1183 9.31458 5.23307 9.31458 5.37294C9.31458 5.51641 9.42935 5.63118 9.56923 5.63118H9.6553C9.79877 5.63118 9.91354 5.51641 9.91354 5.37294ZM1.43489 5.37294C1.43489 5.23307 1.32012 5.1183 1.18025 5.1183H1.09417C0.950708 5.1183 0.835938 5.23307 0.835938 5.37294C0.835938 5.51641 0.950708 5.63118 1.09417 5.63118H1.18025C1.32012 5.63118 1.43489 5.51641 1.43489 5.37294ZM9.30382 7.64324C9.37555 7.5213 9.33251 7.36349 9.21057 7.29176L9.13525 7.24872C9.01331 7.18057 8.8555 7.22003 8.78377 7.34556C8.71562 7.4675 8.75508 7.62531 8.88061 7.69345L8.95234 7.73649C8.99538 7.7616 9.03842 7.77236 9.08145 7.77236C9.17112 7.77236 9.2572 7.72573 9.30382 7.64324ZM1.96212 3.40392C2.03385 3.28198 1.99081 3.12417 1.86887 3.05602L1.79355 3.01298C1.67161 2.94125 1.5138 2.98429 1.44565 3.10623C1.37392 3.22818 1.41696 3.38599 1.5389 3.45772L1.61422 3.50076C1.65367 3.52228 1.69671 3.53304 1.73975 3.53304C1.82942 3.53304 1.91549 3.48641 1.96212 3.40392ZM7.64324 9.30382C7.76518 9.23568 7.80822 9.07787 7.73649 8.95592L7.69345 8.88061C7.62531 8.75866 7.4675 8.71562 7.34556 8.78736C7.22003 8.8555 7.18057 9.01331 7.24872 9.13525L7.29176 9.21057C7.34197 9.29306 7.42805 9.33969 7.51412 9.33969C7.55716 9.33969 7.60379 9.32893 7.64324 9.30382ZM3.40392 1.96212C3.52586 1.89397 3.5689 1.73617 3.49717 1.61422L3.45413 1.5389C3.38599 1.41696 3.22818 1.37392 3.10623 1.44565C2.98429 1.5138 2.94125 1.67161 3.0094 1.79355L3.05244 1.86887C3.10265 1.95136 3.18873 1.99799 3.27839 1.99799C3.32143 1.99799 3.36447 1.98723 3.40392 1.96212ZM5.63118 9.6553V9.56923C5.63118 9.42935 5.51641 9.31458 5.37294 9.31458C5.23307 9.31458 5.1183 9.42935 5.1183 9.56923V9.6553C5.1183 9.79877 5.23307 9.91354 5.37294 9.91354C5.51641 9.91354 5.63118 9.79877 5.63118 9.6553ZM5.37294 1.43489C5.23307 1.43489 5.1183 1.32012 5.1183 1.18025V1.09417C5.1183 0.950708 5.23307 0.835938 5.37294 0.835938C5.51641 0.835938 5.63118 0.950708 5.63118 1.09417V1.18025C5.63118 1.32012 5.51641 1.43489 5.37294 1.43489Z" fill="#0F1738"/>
</svg>
