<svg width="12" height="11" viewBox="0 0 12 11" fill="none" xmlns="http://www.w3.org/2000/svg">
<path d="M8.15625 8.43747C8.15625 8.33449 8.07175 8.25 7.96878 8.25H4.03377C3.9308 8.25 3.84668 8.33449 3.84668 8.43747C3.84668 8.54045 3.9308 8.62456 4.03377 8.62456H7.96878C8.07175 8.62456 8.15625 8.54045 8.15625 8.43747Z" fill="#0F1738"/>
<path d="M11.0608 3.94511C11.0234 3.88891 10.9672 3.85156 10.9016 3.85156C10.836 3.85156 10.7703 3.88891 10.7424 3.94511L10.3958 4.55392C10.3486 4.64747 10.3769 4.75987 10.4614 4.80665C10.555 4.8538 10.6674 4.82551 10.7141 4.74139L10.9016 4.4136L11.0891 4.74139C11.1359 4.82551 11.2577 4.86285 11.3418 4.80665C11.4357 4.75987 11.4636 4.63841 11.4074 4.55392L11.0608 3.94511Z" fill="#0F1738"/>
<path d="M1.28902 4.74139C1.3358 4.82551 1.45763 4.86285 1.54213 4.80665C1.63568 4.75987 1.66397 4.63841 1.60776 4.55392L1.26111 3.94511C1.22339 3.88891 1.16719 3.85156 1.10193 3.85156C1.0363 3.85156 0.970663 3.88891 0.942372 3.94511L0.595721 4.55392C0.548947 4.64747 0.577238 4.75987 0.661355 4.80665C0.755279 4.8538 0.867686 4.82551 0.914459 4.74139L1.10193 4.4136L1.28902 4.74139Z" fill="#0F1738"/>
<path d="M8.71843 5.44162C8.82141 5.44162 8.9059 5.35713 8.9059 5.25415V4.86072C8.9059 4.79547 8.87761 4.73926 8.82141 4.70154L6.1044 2.84758C6.03914 2.80081 5.95465 2.80081 5.88902 2.84758L3.17201 4.70154C3.12523 4.73926 3.08789 4.79547 3.08789 4.86072V5.25415C3.08789 5.35713 3.17201 5.44162 3.27536 5.44162H3.55638V7.50154H3.27536C3.17201 7.50154 3.08789 7.58603 3.08789 7.68901C3.08789 7.79198 3.17201 7.8761 3.27536 7.8761H8.709C8.81198 7.8761 8.89647 7.79198 8.89647 7.68901C8.89647 7.58603 8.81198 7.50154 8.709 7.50154H8.42798V5.44162H8.71843ZM4.68988 7.50154H3.94037V5.44162H4.68988V7.50154ZM5.81395 7.50154H5.06482V5.44162H5.81395V7.50154ZM5.90788 4.50502C5.8049 4.50502 5.7204 4.4209 5.7204 4.31755C5.7204 4.21457 5.8049 4.13045 5.90788 4.13045H6.09535C6.19832 4.13045 6.28244 4.21457 6.28244 4.31755C6.28244 4.4209 6.19832 4.50502 6.09535 4.50502H5.90788ZM6.9384 7.50154H6.18889V5.44162H6.9384V7.50154ZM8.06247 7.50154H7.31296V5.44162H8.06247V7.50154Z" fill="#0F1738"/>
<mask id="mask0_1057_5910" style="mask-type:luminance" maskUnits="userSpaceOnUse" x="0" y="0" width="4" height="4">
<path d="M0 0H3.79204V3.54158H0V0Z" fill="white"/>
</mask>
<g mask="url(#mask0_1057_5910)">
<path d="M3.56592 1.88618C3.6689 1.88618 3.75301 1.80169 3.75301 1.69871V1.43656C3.75301 1.38035 3.7251 1.32415 3.67833 1.28681L1.99184 0.0507051C1.92621 0.00393164 1.83266 0.00393164 1.76703 0.0507051L0.080546 1.28681C0.0337725 1.32415 0.00585938 1.38035 0.00585938 1.43656V1.69871C0.00585938 1.80169 0.0899761 1.88618 0.192953 1.88618H0.567895V3.10343H0.192953C0.0899761 3.10343 0.00585938 3.18792 0.00585938 3.2909C0.00585938 3.39387 0.0899761 3.47799 0.192953 3.47799H3.56592C3.6689 3.47799 3.75301 3.39387 3.75301 3.2909C3.75301 3.18792 3.6689 3.10343 3.56592 3.10343H3.19098V1.88618H3.56592ZM1.3174 3.10343H0.94246V1.88618H1.3174V3.10343ZM2.06691 3.10343H1.69197V1.88618H2.06691V3.10343ZM1.87944 1.2306C1.77646 1.2306 1.69197 1.14611 1.69197 1.04313C1.69197 0.940154 1.77646 0.856038 1.87944 0.856038C1.98241 0.856038 2.06691 0.940154 2.06691 1.04313C2.06691 1.14611 1.98241 1.2306 1.87944 1.2306ZM2.81641 3.10343H2.44147V1.88618H2.81641V3.10343Z" fill="#0F1738"/>
</g>
<mask id="mask1_1057_5910" style="mask-type:luminance" maskUnits="userSpaceOnUse" x="8" y="0" width="4" height="4">
<path d="M8.23438 0H12.0004V3.54158H8.23438V0Z" fill="white"/>
</mask>
<g mask="url(#mask1_1057_5910)">
<path d="M11.811 1.88618C11.914 1.88618 11.9985 1.80169 11.9985 1.69871V1.43656C11.9985 1.38035 11.9702 1.32415 11.9234 1.28681L10.237 0.0507051C10.1717 0.00393164 10.0778 0.00393164 10.0121 0.0507051L8.32604 1.28681C8.27927 1.32415 8.25098 1.38035 8.25098 1.43656V1.69871C8.25098 1.80169 8.33547 1.88618 8.43845 1.88618H8.81301V3.10343H8.43845C8.33547 3.10343 8.25098 3.18792 8.25098 3.2909C8.25098 3.39387 8.33547 3.47799 8.43845 3.47799H11.811C11.914 3.47799 11.9985 3.39387 11.9985 3.2909C11.9985 3.18792 11.914 3.10343 11.811 3.10343H11.4365V1.88618H11.811ZM9.56252 3.10343H9.18795V1.88618H9.56252V3.10343ZM10.312 3.10343H9.93746V1.88618H10.312V3.10343ZM10.1246 1.2306C10.0216 1.2306 9.93746 1.14611 9.93746 1.04313C9.93746 0.940154 10.0216 0.856038 10.1246 0.856038C10.2279 0.856038 10.312 0.940154 10.312 1.04313C10.312 1.14611 10.2279 1.2306 10.1246 1.2306ZM11.0615 3.10343H10.687V1.88618H11.0615V3.10343Z" fill="#0F1738"/>
</g>
<path d="M1.31732 5.07028C1.31732 5.0948 1.31242 5.11894 1.30299 5.14195C1.29356 5.16458 1.27998 5.18495 1.26225 5.20268C1.2449 5.22003 1.22453 5.23361 1.20152 5.24304C1.17851 5.25247 1.15475 5.25738 1.12985 5.25738C1.10496 5.25738 1.08119 5.25247 1.05818 5.24304C1.03518 5.23361 1.01481 5.22003 0.997455 5.20268C0.979726 5.18495 0.966147 5.16458 0.956717 5.14195C0.947286 5.11894 0.942383 5.0948 0.942383 5.07028C0.942383 5.04539 0.947286 5.02125 0.956717 4.99861C0.966147 4.9756 0.979726 4.95524 0.997455 4.93751C1.01481 4.92016 1.03518 4.90658 1.05818 4.89715C1.08119 4.88772 1.10496 4.88281 1.12985 4.88281C1.15475 4.88281 1.17851 4.88772 1.20152 4.89715C1.22453 4.90658 1.2449 4.92016 1.26225 4.93751C1.27998 4.95524 1.29356 4.9756 1.30299 4.99861C1.31242 5.02125 1.31732 5.04539 1.31732 5.07028Z" fill="#0F1738"/>
<path d="M1.37299 5.83553C1.37299 5.86043 1.36808 5.88419 1.35865 5.9072C1.34922 5.93021 1.33565 5.95058 1.31792 5.96793C1.30057 5.98566 1.2802 5.99924 1.25719 6.00867C1.23418 6.0181 1.21041 6.023 1.18552 6.023C1.16062 6.023 1.13686 6.0181 1.11385 6.00867C1.09084 5.99924 1.07047 5.98566 1.05312 5.96793C1.03539 5.95058 1.02181 5.93021 1.01238 5.9072C1.00295 5.88419 0.998047 5.86043 0.998047 5.83553C0.998047 5.81064 1.00295 5.78687 1.01238 5.76386C1.02181 5.74085 1.03539 5.72086 1.05312 5.70313C1.07047 5.68578 1.09084 5.6722 1.11385 5.66277C1.13686 5.65296 1.16062 5.64844 1.18552 5.64844C1.21041 5.64844 1.23418 5.65296 1.25719 5.66277C1.2802 5.6722 1.30057 5.68578 1.31792 5.70313C1.33565 5.72086 1.34922 5.74085 1.35865 5.76386C1.36808 5.78687 1.37299 5.81064 1.37299 5.83553Z" fill="#0F1738"/>
<path d="M1.56147 6.58553C1.56147 6.61043 1.55656 6.63457 1.54713 6.6572C1.5377 6.68021 1.52412 6.70058 1.50639 6.71793C1.48866 6.73566 1.46867 6.74924 1.44566 6.75867C1.42265 6.7681 1.39889 6.773 1.37399 6.773C1.3491 6.773 1.32533 6.7681 1.30233 6.75867C1.27932 6.74924 1.25895 6.73566 1.2416 6.71793C1.22387 6.70058 1.21029 6.68021 1.20086 6.6572C1.19143 6.63457 1.18652 6.61043 1.18652 6.58553C1.18652 6.56064 1.19143 6.53687 1.20086 6.51386C1.21029 6.49085 1.22387 6.47086 1.2416 6.45313C1.25895 6.43578 1.27932 6.4222 1.30233 6.41277C1.32533 6.40296 1.3491 6.39844 1.37399 6.39844C1.39889 6.39844 1.42265 6.40296 1.44566 6.41277C1.46867 6.4222 1.48866 6.43578 1.50639 6.45313C1.52412 6.47086 1.5377 6.49085 1.54713 6.51386C1.55656 6.53687 1.56147 6.56064 1.56147 6.58553Z" fill="#0F1738"/>
<path d="M1.85113 7.28866C1.85113 7.31355 1.8466 7.33732 1.83717 7.36033C1.82736 7.38333 1.81416 7.4037 1.79643 7.42106C1.7787 7.43878 1.75871 7.45236 1.7357 7.46179C1.71269 7.47122 1.68893 7.47613 1.66403 7.47613C1.63914 7.47613 1.61537 7.47122 1.59236 7.46179C1.56935 7.45236 1.54899 7.43878 1.53163 7.42106C1.51391 7.4037 1.50033 7.38333 1.4909 7.36033C1.48147 7.33732 1.47656 7.31355 1.47656 7.28866C1.47656 7.26376 1.48147 7.24 1.4909 7.21699C1.50033 7.19398 1.51391 7.17399 1.53163 7.15626C1.54899 7.13891 1.56935 7.12533 1.59236 7.1159C1.61537 7.10609 1.63914 7.10156 1.66403 7.10156C1.68893 7.10156 1.71269 7.10609 1.7357 7.1159C1.75871 7.12533 1.7787 7.13891 1.79643 7.15626C1.81416 7.17399 1.82736 7.19398 1.83717 7.21699C1.8466 7.24 1.85113 7.26376 1.85113 7.28866Z" fill="#0F1738"/>
<path d="M2.25445 7.93709C2.25445 7.96199 2.24992 7.98575 2.24049 8.00876C2.23068 8.03177 2.21748 8.05214 2.19975 8.06949C2.18202 8.08722 2.16203 8.1008 2.13902 8.11023C2.11601 8.11966 2.09225 8.12456 2.06735 8.12456C2.04246 8.12456 2.01832 8.11966 1.99568 8.11023C1.97268 8.1008 1.95231 8.08722 1.93458 8.06949C1.91723 8.05214 1.90365 8.03177 1.89422 8.00876C1.88479 7.98575 1.87988 7.96199 1.87988 7.93709C1.87988 7.9122 1.88479 7.88843 1.89422 7.86542C1.90365 7.84242 1.91723 7.82242 1.93458 7.80469C1.95231 7.78734 1.97268 7.77376 1.99568 7.76433C2.01832 7.75453 2.04246 7.75 2.06735 7.75C2.09225 7.75 2.11601 7.75453 2.13902 7.76433C2.16203 7.77376 2.18202 7.78734 2.19975 7.80469C2.21748 7.82242 2.23068 7.84242 2.24049 7.86542C2.24992 7.88843 2.25445 7.9122 2.25445 7.93709Z" fill="#0F1738"/>
<path d="M2.74994 8.51522C2.74994 8.54011 2.74504 8.56426 2.73561 8.58689C2.72618 8.6099 2.7126 8.63027 2.69487 8.64799C2.67752 8.66535 2.65715 8.67893 2.63414 8.68836C2.61113 8.69779 2.58737 8.70269 2.56247 8.70269C2.53758 8.70269 2.51381 8.69779 2.4908 8.68836C2.46779 8.67893 2.44742 8.66535 2.43007 8.64799C2.41234 8.63027 2.39876 8.6099 2.38933 8.58689C2.3799 8.56426 2.375 8.54011 2.375 8.51522C2.375 8.4907 2.3799 8.46656 2.38933 8.44355C2.39876 8.42092 2.41234 8.40055 2.43007 8.38282C2.44742 8.36547 2.46779 8.35189 2.4908 8.34246C2.51381 8.33303 2.53758 8.32812 2.56247 8.32812C2.58737 8.32812 2.61113 8.33303 2.63414 8.34246C2.65715 8.35189 2.67752 8.36547 2.69487 8.38282C2.7126 8.40055 2.72618 8.42092 2.73561 8.44355C2.74504 8.46656 2.74994 8.4907 2.74994 8.51522Z" fill="#0F1738"/>
<path d="M3.331 9.01522C3.331 9.04011 3.32609 9.06388 3.31666 9.08689C3.30723 9.1099 3.29365 9.13027 3.27592 9.14762C3.25857 9.16535 3.2382 9.17893 3.21519 9.18836C3.19219 9.19779 3.16842 9.20269 3.14353 9.20269C3.11863 9.20269 3.09487 9.19779 3.07186 9.18836C3.04885 9.17893 3.02848 9.16535 3.01113 9.14762C2.9934 9.13027 2.97982 9.1099 2.97039 9.08689C2.96096 9.06388 2.95605 9.04011 2.95605 9.01522C2.95605 8.99032 2.96096 8.96656 2.97039 8.94355C2.97982 8.92054 2.9934 8.90055 3.01113 8.88282C3.02848 8.86547 3.04885 8.85189 3.07186 8.84246C3.09487 8.83265 3.11863 8.82812 3.14353 8.82812C3.16842 8.82812 3.19219 8.83265 3.21519 8.84246C3.2382 8.85189 3.25857 8.86547 3.27592 8.88282C3.29365 8.90055 3.30723 8.92054 3.31666 8.94355C3.32609 8.96656 3.331 8.99032 3.331 9.01522Z" fill="#0F1738"/>
<path d="M3.97808 9.41403C3.97808 9.43893 3.97355 9.46269 3.96412 9.4857C3.95432 9.50871 3.94111 9.5287 3.92339 9.54643C3.90566 9.56378 3.88567 9.57736 3.86266 9.58679C3.83965 9.5966 3.81588 9.60113 3.79099 9.60113C3.76609 9.60113 3.74195 9.5966 3.71932 9.58679C3.69631 9.57736 3.67594 9.56378 3.65821 9.54643C3.64086 9.5287 3.62728 9.50871 3.61785 9.4857C3.60842 9.46269 3.60352 9.43893 3.60352 9.41403C3.60352 9.38914 3.60842 9.36537 3.61785 9.34236C3.62728 9.31935 3.64086 9.29899 3.65821 9.28163C3.67594 9.26391 3.69631 9.25033 3.71932 9.2409C3.74195 9.23147 3.76609 9.22656 3.79099 9.22656C3.81588 9.22656 3.83965 9.23147 3.86266 9.2409C3.88567 9.25033 3.90566 9.26391 3.92339 9.28163C3.94111 9.29899 3.95432 9.31935 3.96412 9.34236C3.97355 9.36537 3.97808 9.38914 3.97808 9.41403Z" fill="#0F1738"/>
<path d="M4.68999 9.70272C4.68999 9.72761 4.68509 9.75176 4.67566 9.77439C4.66623 9.7974 4.65265 9.81777 4.6353 9.83512C4.61757 9.85285 4.5972 9.86643 4.57419 9.87586C4.55156 9.88529 4.52742 9.89019 4.50252 9.89019C4.47763 9.89019 4.45386 9.88529 4.43085 9.87586C4.40784 9.86643 4.38785 9.85285 4.37012 9.83512C4.3524 9.81777 4.33919 9.7974 4.32939 9.77439C4.31996 9.75176 4.31543 9.72761 4.31543 9.70272C4.31543 9.6782 4.31996 9.65406 4.32939 9.63105C4.33919 9.60842 4.3524 9.58805 4.37012 9.57032C4.38785 9.55297 4.40784 9.53939 4.43085 9.52996C4.45386 9.52015 4.47763 9.51562 4.50252 9.51562C4.52742 9.51562 4.55156 9.52015 4.57419 9.52996C4.5972 9.53939 4.61757 9.55297 4.6353 9.57032C4.65265 9.58805 4.66623 9.60842 4.67566 9.63105C4.68509 9.65406 4.68999 9.6782 4.68999 9.70272Z" fill="#0F1738"/>
<path d="M5.43023 9.88241C5.43023 9.9073 5.4257 9.93107 5.41589 9.95408C5.40646 9.97708 5.39289 9.99745 5.37553 10.0148C5.35781 10.0325 5.33744 10.0461 5.31443 10.0555C5.29179 10.065 5.26765 10.0699 5.24276 10.0699C5.21824 10.0699 5.1941 10.065 5.17109 10.0555C5.14808 10.0461 5.12809 10.0325 5.11036 10.0148C5.09301 9.99745 5.07943 9.97708 5.06962 9.95408C5.06019 9.93107 5.05566 9.9073 5.05566 9.88241C5.05566 9.85751 5.06019 9.83375 5.06962 9.81074C5.07943 9.78773 5.09301 9.76774 5.11036 9.75001C5.12809 9.73228 5.14808 9.71908 5.17109 9.70927C5.1941 9.69984 5.21824 9.69531 5.24276 9.69531C5.26765 9.69531 5.29179 9.69984 5.31443 9.70927C5.33744 9.71908 5.35781 9.73228 5.37553 9.75001C5.39289 9.76774 5.40646 9.78773 5.41589 9.81074C5.4257 9.83375 5.43023 9.85751 5.43023 9.88241Z" fill="#0F1738"/>
<mask id="mask2_1057_5910" style="mask-type:luminance" maskUnits="userSpaceOnUse" x="5" y="9" width="2" height="2">
<path d="M5.72363 9.71875H6.20646V10.1201H5.72363V9.71875Z" fill="white"/>
</mask>
<g mask="url(#mask2_1057_5910)">
<path d="M6.18842 9.92966C6.18842 9.95455 6.18351 9.97832 6.17408 10.0013C6.16465 10.0243 6.15108 10.0447 6.13335 10.0621C6.11599 10.0798 6.09563 10.0934 6.07262 10.1028C6.04961 10.1122 6.02584 10.1171 6.00095 10.1171C5.97605 10.1171 5.95229 10.1122 5.92928 10.1028C5.90627 10.0934 5.88628 10.0798 5.86855 10.0621C5.85082 10.0447 5.83724 10.0243 5.82781 10.0013C5.81838 9.97832 5.81348 9.95455 5.81348 9.92966C5.81348 9.90476 5.81838 9.881 5.82781 9.85799C5.83724 9.83498 5.85082 9.81461 5.86855 9.79726C5.88628 9.77953 5.90627 9.76595 5.92928 9.75652C5.95229 9.74709 5.97605 9.74219 6.00095 9.74219C6.02584 9.74219 6.04961 9.74709 6.07262 9.75652C6.09563 9.76595 6.11599 9.77953 6.13335 9.79726C6.15108 9.81461 6.16465 9.83498 6.17408 9.85799C6.18351 9.881 6.18842 9.90476 6.18842 9.92966Z" fill="#0F1738"/>
</g>
<path d="M6.95697 9.88241C6.95697 9.9073 6.95207 9.93107 6.94264 9.95408C6.93321 9.97708 6.91963 9.99745 6.9019 10.0148C6.88417 10.0325 6.86418 10.0461 6.84117 10.0555C6.81816 10.065 6.7944 10.0699 6.7695 10.0699C6.74461 10.0699 6.72084 10.065 6.69783 10.0555C6.67482 10.0461 6.65445 10.0325 6.6371 10.0148C6.61937 9.99745 6.6058 9.97708 6.59637 9.95408C6.58693 9.93107 6.58203 9.9073 6.58203 9.88241C6.58203 9.85751 6.58693 9.83375 6.59637 9.81074C6.6058 9.78773 6.61937 9.76774 6.6371 9.75001C6.65445 9.73228 6.67482 9.71908 6.69783 9.70927C6.72084 9.69984 6.74461 9.69531 6.7695 9.69531C6.7944 9.69531 6.81816 9.69984 6.84117 9.70927C6.86418 9.71908 6.88417 9.73228 6.9019 9.75001C6.91963 9.76774 6.93321 9.78773 6.94264 9.81074C6.95207 9.83375 6.95697 9.85751 6.95697 9.88241Z" fill="#0F1738"/>
<path d="M7.69721 9.70272C7.69721 9.72761 7.6923 9.75176 7.68287 9.77439C7.67344 9.7974 7.65986 9.81777 7.64214 9.83512C7.62478 9.85285 7.60441 9.86643 7.58141 9.87586C7.5584 9.88529 7.53463 9.89019 7.50974 9.89019C7.48484 9.89019 7.46108 9.88529 7.43807 9.87586C7.41506 9.86643 7.39469 9.85285 7.37734 9.83512C7.35961 9.81777 7.34603 9.7974 7.3366 9.77439C7.32717 9.75176 7.32227 9.72761 7.32227 9.70272C7.32227 9.6782 7.32717 9.65406 7.3366 9.63105C7.34603 9.60842 7.35961 9.58805 7.37734 9.57032C7.39469 9.55297 7.41506 9.53939 7.43807 9.52996C7.46108 9.52015 7.48484 9.51562 7.50974 9.51562C7.53463 9.51562 7.5584 9.52015 7.58141 9.52996C7.60441 9.53939 7.62478 9.55297 7.64214 9.57032C7.65986 9.58805 7.67344 9.60842 7.68287 9.63105C7.6923 9.65406 7.69721 9.6782 7.69721 9.70272Z" fill="#0F1738"/>
<path d="M8.39996 9.40622C8.39996 9.43112 8.39543 9.45488 8.386 9.47789C8.37619 9.5009 8.36261 9.52089 8.34526 9.53862C8.32753 9.55635 8.30754 9.56955 8.28453 9.57936C8.26152 9.58879 8.23776 9.59331 8.21286 9.59331C8.18797 9.59331 8.16382 9.58879 8.14119 9.57936C8.11818 9.56955 8.09781 9.55635 8.08009 9.53862C8.06273 9.52089 8.04915 9.5009 8.03972 9.47789C8.03029 9.45488 8.02539 9.43112 8.02539 9.40622C8.02539 9.38133 8.03029 9.35756 8.03972 9.33455C8.04915 9.31154 8.06273 9.29117 8.08009 9.27382C8.09781 9.25609 8.11818 9.24251 8.14119 9.23308C8.16382 9.22365 8.18797 9.21875 8.21286 9.21875C8.23776 9.21875 8.26152 9.22365 8.28453 9.23308C8.30754 9.24251 8.32753 9.25609 8.34526 9.27382C8.36261 9.29117 8.37619 9.31154 8.386 9.33455C8.39543 9.35756 8.39996 9.38133 8.39996 9.40622Z" fill="#0F1738"/>
<path d="M9.05523 9.01522C9.05523 9.04011 9.05032 9.06388 9.04089 9.08689C9.03146 9.1099 9.01789 9.13027 9.00016 9.14762C8.98281 9.16535 8.96244 9.17893 8.93943 9.18836C8.91642 9.19779 8.89265 9.20269 8.86776 9.20269C8.84286 9.20269 8.8191 9.19779 8.79609 9.18836C8.77308 9.17893 8.75309 9.16535 8.73536 9.14762C8.71763 9.13027 8.70443 9.1099 8.69462 9.08689C8.68519 9.06388 8.68066 9.04011 8.68066 9.01522C8.68066 8.99032 8.68519 8.96656 8.69462 8.94355C8.70443 8.92054 8.71763 8.90055 8.73536 8.88282C8.75309 8.86547 8.77308 8.85189 8.79609 8.84246C8.8191 8.83265 8.84286 8.82812 8.86776 8.82812C8.89265 8.82812 8.91642 8.83265 8.93943 8.84246C8.96244 8.85189 8.98281 8.86547 9.00016 8.88282C9.01789 8.90055 9.03146 8.92054 9.04089 8.94355C9.05032 8.96656 9.05523 8.99032 9.05523 9.01522Z" fill="#0F1738"/>
<path d="M9.63666 8.51522C9.63666 8.54011 9.63176 8.56426 9.62233 8.58689C9.6129 8.6099 9.59932 8.63027 9.58159 8.64799C9.56424 8.66535 9.54387 8.67893 9.52086 8.68836C9.49785 8.69779 9.47409 8.70269 9.44919 8.70269C9.42429 8.70269 9.40053 8.69779 9.37752 8.68836C9.35451 8.67893 9.33414 8.66535 9.31679 8.64799C9.29906 8.63027 9.28548 8.6099 9.27605 8.58689C9.26662 8.56426 9.26172 8.54011 9.26172 8.51522C9.26172 8.4907 9.26662 8.46656 9.27605 8.44355C9.28548 8.42092 9.29906 8.40055 9.31679 8.38282C9.33414 8.36547 9.35451 8.35189 9.37752 8.34246C9.40053 8.33303 9.42429 8.32812 9.44919 8.32812C9.47409 8.32812 9.49785 8.33303 9.52086 8.34246C9.54387 8.35189 9.56424 8.36547 9.58159 8.38282C9.59932 8.40055 9.6129 8.42092 9.62233 8.44355C9.63176 8.46656 9.63666 8.4907 9.63666 8.51522Z" fill="#0F1738"/>
<path d="M10.1324 7.93709C10.1324 7.96199 10.1279 7.98575 10.118 8.00876C10.1086 8.03177 10.095 8.05214 10.0777 8.06949C10.06 8.08722 10.0396 8.1008 10.017 8.11023C9.99394 8.11966 9.9698 8.12456 9.94491 8.12456C9.92039 8.12456 9.89625 8.11966 9.87324 8.11023C9.8506 8.1008 9.83024 8.08722 9.81251 8.06949C9.79516 8.05214 9.78158 8.03177 9.77215 8.00876C9.76234 7.98575 9.75781 7.96199 9.75781 7.93709C9.75781 7.9122 9.76234 7.88843 9.77215 7.86542C9.78158 7.84242 9.79516 7.82242 9.81251 7.80469C9.83024 7.78734 9.8506 7.77376 9.87324 7.76433C9.89625 7.75453 9.92039 7.75 9.94491 7.75C9.9698 7.75 9.99394 7.75453 10.017 7.76433C10.0396 7.77376 10.06 7.78734 10.0777 7.80469C10.095 7.82242 10.1086 7.84242 10.118 7.86542C10.1279 7.88843 10.1324 7.9122 10.1324 7.93709Z" fill="#0F1738"/>
<path d="M10.5269 7.28084C10.5269 7.30574 10.5224 7.32988 10.513 7.35251C10.5031 7.37552 10.4896 7.39589 10.4722 7.41362C10.4545 7.43097 10.4345 7.44455 10.4115 7.45398C10.3885 7.46341 10.3643 7.46831 10.3398 7.46831C10.3149 7.46831 10.2908 7.46341 10.2681 7.45398C10.2451 7.44455 10.2248 7.43097 10.207 7.41362C10.1897 7.39589 10.1761 7.37552 10.1667 7.35251C10.1569 7.32988 10.1523 7.30574 10.1523 7.28084C10.1523 7.25633 10.1569 7.23218 10.1667 7.20917C10.1761 7.18654 10.1897 7.16617 10.207 7.14844C10.2248 7.13109 10.2451 7.11751 10.2681 7.10808C10.2908 7.09865 10.3149 7.09375 10.3398 7.09375C10.3643 7.09375 10.3885 7.09865 10.4115 7.10808C10.4345 7.11751 10.4545 7.13109 10.4722 7.14844C10.4896 7.16617 10.5031 7.18654 10.513 7.20917C10.5224 7.23218 10.5269 7.25633 10.5269 7.28084Z" fill="#0F1738"/>
<path d="M10.8267 6.5781C10.8267 6.60261 10.8222 6.62676 10.8124 6.64976C10.8029 6.6724 10.7894 6.69277 10.772 6.71049C10.7543 6.72785 10.7339 6.74143 10.7109 6.75086C10.6883 6.76029 10.6641 6.76519 10.6392 6.76519C10.6147 6.76519 10.5906 6.76029 10.5676 6.75086C10.5446 6.74143 10.5246 6.72785 10.5068 6.71049C10.4895 6.69277 10.4759 6.6724 10.4661 6.64976C10.4567 6.62676 10.4521 6.60261 10.4521 6.5781C10.4521 6.5532 10.4567 6.52906 10.4661 6.50605C10.4759 6.48342 10.4895 6.46305 10.5068 6.44532C10.5246 6.42797 10.5446 6.41439 10.5676 6.40496C10.5906 6.39553 10.6147 6.39062 10.6392 6.39062C10.6641 6.39062 10.6883 6.39553 10.7109 6.40496C10.7339 6.41439 10.7543 6.42797 10.772 6.44532C10.7894 6.46305 10.8029 6.48342 10.8124 6.50605C10.8222 6.52906 10.8267 6.5532 10.8267 6.5781Z" fill="#0F1738"/>
<path d="M11.0044 5.82772C11.0044 5.85261 10.9995 5.87676 10.9901 5.89939C10.9807 5.9224 10.9671 5.94277 10.9498 5.96049C10.932 5.97785 10.9117 5.99143 10.8886 6.00086C10.866 6.01029 10.8419 6.01519 10.817 6.01519C10.7921 6.01519 10.7683 6.01029 10.7453 6.00086C10.7223 5.99143 10.7023 5.97785 10.6846 5.96049C10.6668 5.94277 10.6536 5.9224 10.6438 5.89939C10.6344 5.87676 10.6299 5.85261 10.6299 5.82772C10.6299 5.8032 10.6344 5.77906 10.6438 5.75605C10.6536 5.73342 10.6668 5.71305 10.6846 5.69532C10.7023 5.67797 10.7223 5.66439 10.7453 5.65496C10.7683 5.64553 10.7921 5.64062 10.817 5.64062C10.8419 5.64062 10.866 5.64553 10.8886 5.65496C10.9117 5.66439 10.932 5.67797 10.9498 5.69532C10.9671 5.71305 10.9807 5.73342 10.9901 5.75605C10.9995 5.77906 11.0044 5.8032 11.0044 5.82772Z" fill="#0F1738"/>
<path d="M11.0601 5.07028C11.0601 5.0948 11.0552 5.11894 11.0458 5.14195C11.0363 5.16458 11.0228 5.18495 11.0054 5.20268C10.9877 5.22003 10.9673 5.23361 10.9443 5.24304C10.9217 5.25247 10.8975 5.25738 10.8726 5.25738C10.8477 5.25738 10.824 5.25247 10.801 5.24304C10.778 5.23361 10.758 5.22003 10.7402 5.20268C10.7225 5.18495 10.7093 5.16458 10.6995 5.14195C10.6901 5.11894 10.6855 5.0948 10.6855 5.07028C10.6855 5.04539 10.6901 5.02125 10.6995 4.99861C10.7093 4.9756 10.7225 4.95524 10.7402 4.93751C10.758 4.92016 10.778 4.90658 10.801 4.89715C10.824 4.88772 10.8477 4.88281 10.8726 4.88281C10.8975 4.88281 10.9217 4.88772 10.9443 4.89715C10.9673 4.90658 10.9877 4.92016 11.0054 4.93751C11.0228 4.95524 11.0363 4.9756 11.0458 4.99861C11.0552 5.02125 11.0601 5.04539 11.0601 5.07028Z" fill="#0F1738"/>
</svg>
