<svg width="10" height="10" viewBox="0 0 10 10" fill="none" xmlns="http://www.w3.org/2000/svg">
<path d="M1.57467 5.78853H2.35976C2.4686 5.78853 2.55683 5.69965 2.55683 5.58952V4.79993C2.55683 4.69044 2.4686 4.60156 2.35976 4.60156H1.57467C1.46519 4.60156 1.37695 4.69044 1.37695 4.79993V5.58952C1.37695 5.69965 1.46519 5.78853 1.57467 5.78853Z" fill="#0F1738"/>
<path d="M1.57467 7.42134H2.35976C2.4686 7.42134 2.55683 7.33246 2.55683 7.22233V6.43274C2.55683 6.32325 2.4686 6.23438 2.35976 6.23438H1.57467C1.46519 6.23438 1.37695 6.32325 1.37695 6.43274V7.22233C1.37695 7.33246 1.46519 7.42134 1.57467 7.42134Z" fill="#0F1738"/>
<path d="M1.57467 9.05415H2.35976C2.4686 9.05415 2.55683 8.96527 2.55683 8.85579V8.06555C2.55683 7.95606 2.4686 7.86719 2.35976 7.86719H1.57467C1.46519 7.86719 1.37695 7.95606 1.37695 8.06555V8.85579C1.37695 8.96527 1.46519 9.05415 1.57467 9.05415Z" fill="#0F1738"/>
<path d="M3.55547 5.78853H4.34056C4.4494 5.78853 4.53828 5.69965 4.53828 5.58952V4.79993C4.53828 4.69044 4.4494 4.60156 4.34056 4.60156H3.55547C3.44663 4.60156 3.3584 4.69044 3.3584 4.79993V5.58952C3.3584 5.69965 3.44663 5.78853 3.55547 5.78853Z" fill="#0F1738"/>
<path d="M3.55547 7.42134H4.34056C4.4494 7.42134 4.53828 7.33246 4.53828 7.22233V6.43274C4.53828 6.32325 4.4494 6.23438 4.34056 6.23438H3.55547C3.44663 6.23438 3.3584 6.32325 3.3584 6.43274V7.22233C3.3584 7.33246 3.44663 7.42134 3.55547 7.42134Z" fill="#0F1738"/>
<path d="M3.55547 9.05415H4.34056C4.4494 9.05415 4.53828 8.96527 4.53828 8.85579V8.06555C4.53828 7.95606 4.4494 7.86719 4.34056 7.86719H3.55547C3.44663 7.86719 3.3584 7.95606 3.3584 8.06555V8.85579C3.3584 8.96527 3.44663 9.05415 3.55547 9.05415Z" fill="#0F1738"/>
<path d="M5.53594 5.78853H6.32167C6.43051 5.78853 6.51875 5.69965 6.51875 5.58952V4.79993C6.51875 4.69044 6.43051 4.60156 6.32167 4.60156H5.53594C5.4271 4.60156 5.33887 4.69044 5.33887 4.79993V5.58952C5.33887 5.69965 5.4271 5.78853 5.53594 5.78853Z" fill="#0F1738"/>
<path d="M6.32167 7.86719H5.53594C5.4271 7.86719 5.33887 7.95606 5.33887 8.06555V8.85579C5.33887 8.96527 5.4271 9.05415 5.53594 9.05415H6.32167C6.43051 9.05415 6.51875 8.96527 6.51875 8.85579V8.06555C6.51875 7.95606 6.43051 7.86719 6.32167 7.86719Z" fill="#0F1738"/>
<path d="M7.51544 5.78853H8.30116C8.41001 5.78853 8.49824 5.69965 8.49824 5.58952V4.79993C8.49824 4.69044 8.41001 4.60156 8.30116 4.60156H7.51544C7.40659 4.60156 7.31836 4.69044 7.31836 4.79993V5.58952C7.31836 5.69965 7.40659 5.78853 7.51544 5.78853Z" fill="#0F1738"/>
<path d="M7.51544 7.42134H8.30116C8.41001 7.42134 8.49824 7.33246 8.49824 7.22233V6.43274C8.49824 6.32325 8.41001 6.23438 8.30116 6.23438H7.51544C7.40659 6.23438 7.31836 6.32325 7.31836 6.43274V7.22233C7.31836 7.33246 7.40659 7.42134 7.51544 7.42134Z" fill="#0F1738"/>
<mask id="mask0_1057_5986" style="mask-type:luminance" maskUnits="userSpaceOnUse" x="0" y="0" width="10" height="10">
<path d="M0 0H9.87634V10H0V0Z" fill="white"/>
</mask>
<g mask="url(#mask0_1057_5986)">
<path d="M7.55973 0C7.3749 0 7.22483 0.150705 7.22483 0.336833V1.01372H2.6689V0.336833C2.6689 0.150705 2.51884 0 2.334 0C2.14852 0 1.99845 0.150705 1.99845 0.336833V1.01372H0.942874C0.423134 1.01372 0 1.43943 0 1.96239V9.0494C0 9.57236 0.423134 9.99807 0.942874 9.99807H8.93283C9.45321 9.99807 9.87634 9.57236 9.87634 9.0494V1.96239C9.87634 1.43943 9.45321 1.01372 8.93283 1.01372H7.89464V0.336833C7.89464 0.150705 7.74457 0 7.55973 0ZM1.99845 1.49675V1.91537C1.99845 2.1015 2.14852 2.25221 2.334 2.25221C2.51884 2.25221 2.6689 2.1015 2.6689 1.91537V1.49675C2.78998 1.59529 2.86791 1.74599 2.86791 1.91537C2.86791 2.21228 2.62832 2.4525 2.33335 2.4525C2.03903 2.4525 1.79945 2.21228 1.79945 1.91537C1.79945 1.74599 1.87737 1.59529 1.99845 1.49675ZM9.41135 9.0494C9.41135 9.31474 9.19688 9.5305 8.93283 9.5305H0.942874C0.679461 9.5305 0.464352 9.31474 0.464352 9.0494V4.12443H9.41135V9.0494ZM8.09364 1.91537C8.09364 2.21228 7.8547 2.4525 7.55973 2.4525C7.26476 2.4525 7.02583 2.21228 7.02583 1.91537C7.02583 1.74599 7.10311 1.59529 7.22483 1.49675V1.91537C7.22483 2.1015 7.3749 2.25221 7.55973 2.25221C7.74457 2.25221 7.89464 2.1015 7.89464 1.91537V1.49675C8.01571 1.59529 8.09364 1.74599 8.09364 1.91537Z" fill="#0F1738"/>
</g>
<path d="M5.8656 7.52807L6.80203 6.58648C6.89284 6.49567 6.89284 6.34754 6.80203 6.25609C6.71122 6.16464 6.56374 6.16464 6.47293 6.25609L5.8656 6.86728L5.62215 6.6219C5.53134 6.53045 5.38386 6.53045 5.29369 6.6219C5.20288 6.71271 5.20288 6.86084 5.29369 6.9523L5.8656 7.52807Z" fill="#0F1738"/>
</svg>
