<svg width="10" height="8" viewBox="0 0 10 8" fill="none" xmlns="http://www.w3.org/2000/svg">
<mask id="mask0_1346_6711" style="mask-type:luminance" maskUnits="userSpaceOnUse" x="0" y="3" width="10" height="3">
<path d="M9.05469 3.29688H0.86378V5.19278H9.05469V3.29688Z" fill="white"/>
</mask>
<g mask="url(#mask0_1346_6711)">
<path d="M1.18675 4.27338H8.78519C8.86295 4.27338 8.9296 4.24375 8.98514 4.18821C9.04069 4.13267 9.07031 4.06601 9.07031 3.98825C9.07031 3.91049 9.04069 3.84013 8.98514 3.78459C8.9296 3.72905 8.86295 3.70312 8.78519 3.70312H1.18675C1.10528 3.70312 1.03863 3.72905 0.983088 3.78459C0.927544 3.84013 0.901623 3.91049 0.901623 3.98825C0.901623 4.06601 0.927544 4.13267 0.983088 4.18821C1.03863 4.24375 1.10528 4.27338 1.18675 4.27338Z" fill="white"/>
</g>
<mask id="mask1_1346_6711" style="mask-type:luminance" maskUnits="userSpaceOnUse" x="4" y="0" width="6" height="8">
<path d="M9.05469 0.632812H4.65559V7.02039H9.05469V0.632812Z" fill="white"/>
</mask>
<g mask="url(#mask1_1346_6711)">
<path d="M5.74507 7.29851C5.82283 7.29851 5.88949 7.26889 5.94503 7.21335L8.98514 4.17323C9.04069 4.11769 9.07031 4.05103 9.07031 3.97327C9.07031 3.89551 9.04069 3.82886 8.98514 3.76961L5.94503 0.733199C5.89319 0.673951 5.82283 0.640625 5.74137 0.640625C5.6636 0.640625 5.59325 0.666546 5.53771 0.725793C5.47846 0.781337 5.45254 0.851693 5.45254 0.929454C5.45624 1.01092 5.48586 1.07757 5.54511 1.13312L8.38157 3.97327L5.54511 6.80973C5.45254 6.9023 5.43402 7.00598 5.48216 7.12077C5.5303 7.23927 5.61917 7.29851 5.74507 7.29851Z" fill="white"/>
</g>
</svg>
