<svg width="14" height="11" viewBox="0 0 14 11" fill="none" xmlns="http://www.w3.org/2000/svg">
<mask id="mask0_1346_6679" style="mask-type:luminance" maskUnits="userSpaceOnUse" x="0" y="4" width="14" height="4">
<path d="M0.697266 4.90625H13.4387V7.85544H0.697266V4.90625Z" fill="white"/>
</mask>
<g mask="url(#mask0_1346_6679)">
<path d="M12.9313 6.41831H1.1115C0.990537 6.41831 0.886853 6.37223 0.800452 6.28583C0.714049 6.19942 0.667969 6.09574 0.667969 5.97478C0.667969 5.85382 0.714049 5.74437 0.800452 5.65797C0.886853 5.57157 0.990537 5.53125 1.1115 5.53125H12.9313C13.058 5.53125 13.1617 5.57157 13.2481 5.65797C13.3345 5.74437 13.3748 5.85382 13.3748 5.97478C13.3748 6.09574 13.3345 6.19942 13.2481 6.28583C13.1617 6.37223 13.058 6.41831 12.9313 6.41831Z" fill="white"/>
</g>
<mask id="mask1_1346_6679" style="mask-type:luminance" maskUnits="userSpaceOnUse" x="0" y="0" width="8" height="11">
<path d="M0.697266 0.765625H7.5403V10.7019H0.697266V0.765625Z" fill="white"/>
</mask>
<g mask="url(#mask1_1346_6679)">
<path d="M5.84057 11.138C5.7196 11.138 5.61592 11.0919 5.52952 11.0055L0.800452 6.27642C0.714049 6.19001 0.667969 6.08633 0.667969 5.96537C0.667969 5.84441 0.714049 5.74072 0.800452 5.64856L5.52952 0.925253C5.61016 0.833091 5.7196 0.78125 5.84633 0.78125C5.96729 0.78125 6.07673 0.821571 6.16313 0.913733C6.2553 1.00014 6.29562 1.10958 6.29562 1.23054C6.28986 1.35726 6.24378 1.46095 6.15161 1.54735L1.73935 5.96537L6.15161 10.3776C6.29562 10.5216 6.32442 10.6829 6.24954 10.8615C6.17465 11.0458 6.03641 11.138 5.84057 11.138Z" fill="white"/>
</g>
</svg>
