<svg width="51" height="52" viewBox="0 0 51 52" fill="none" xmlns="http://www.w3.org/2000/svg">
<mask id="mask0_705_12847" style="mask-type:luminance" maskUnits="userSpaceOnUse" x="0" y="0" width="51" height="52">
<path d="M0 0H50.0522V51.4073H0V0Z" fill="white"/>
</mask>
<g mask="url(#mask0_705_12847)">
<mask id="mask1_705_12847" style="mask-type:luminance" maskUnits="userSpaceOnUse" x="1" y="-2" width="48" height="56">
<path d="M1.79199 -1.45312H48.7191V53.2135H1.79199V-1.45312Z" fill="white"/>
</mask>
<g mask="url(#mask1_705_12847)">
<path d="M25.3961 -1.20312C19.5836 -1.20312 14.87 3.51042 14.8648 9.32292V9.32812C14.8648 15.1406 19.5836 19.8542 25.3961 19.8542C31.2138 19.8542 35.9273 15.1406 35.9273 9.32812C35.9273 3.51042 31.2138 -1.20312 25.4013 -1.20312H25.3961ZM25.8544 1.42708C26.2086 1.41667 26.5055 1.69271 26.5159 2.04688C26.5159 2.05208 26.5159 2.0625 26.5159 2.06771V3.14062C27.0055 3.26562 27.4742 3.46875 27.8961 3.74479C28.6513 4.23958 29.2398 4.95312 29.5888 5.78646C29.7919 6.27604 29.5575 6.83854 29.068 7.03646H29.0627L28.7607 7.16146C28.2763 7.35938 27.719 7.13021 27.5159 6.64062C27.3492 6.23438 27.0367 5.85938 26.6669 5.61458C26.2607 5.34896 25.7398 5.21875 25.2711 5.27083C24.8075 5.31771 24.3388 5.54688 24.0419 5.88021C23.818 6.125 23.6669 6.44792 23.6409 6.72396C23.6148 6.99479 23.7086 7.29688 23.8492 7.46354C23.995 7.64062 24.3075 7.83333 24.7346 7.98438C25.0211 8.08333 25.3127 8.16667 25.6096 8.22396C26.0211 8.30208 26.4273 8.41667 26.818 8.55729C27.4169 8.77083 28.1305 9.09896 28.6773 9.76042C29.2398 10.4427 29.469 11.3073 29.3857 12.1406C29.3075 12.9635 28.9377 13.7031 28.4169 14.276C27.9013 14.849 27.2398 15.25 26.5159 15.4688V16.25C26.5159 16.5208 26.344 16.7604 26.0888 16.849L25.1357 17.1875C24.8023 17.3021 24.4325 17.1302 24.3127 16.7969C24.2919 16.7292 24.2763 16.6562 24.2763 16.5833V15.5104C23.7867 15.3906 23.3232 15.1875 22.8961 14.9115C22.1461 14.4167 21.5523 13.7031 21.2086 12.8698C21.0055 12.3802 21.2346 11.8177 21.7242 11.6146H21.7294L22.0367 11.4896C22.5211 11.2917 23.0732 11.526 23.2763 12.0104C23.4482 12.4219 23.7555 12.7917 24.1252 13.0365C24.5315 13.3073 25.0523 13.4323 25.5211 13.3854C25.9846 13.3385 26.4534 13.1042 26.7555 12.7708C26.9794 12.526 27.1252 12.2031 27.1513 11.9271C27.1773 11.6562 27.0888 11.3542 26.9482 11.1875C26.8023 11.0104 26.4846 10.8177 26.0627 10.6667C25.7763 10.5677 25.4794 10.4844 25.1825 10.4271C24.7711 10.349 24.37 10.2396 23.9742 10.0938C23.3752 9.88021 22.6617 9.55208 22.1148 8.89062C21.5523 8.20833 21.3284 7.34375 21.4117 6.51042C21.4898 5.6875 21.8544 4.94792 22.3752 4.375C22.8909 3.80208 23.5523 3.40104 24.2763 3.1875V2.40625C24.2763 2.13542 24.4482 1.89062 24.7086 1.80208L25.6617 1.46875C25.7242 1.44271 25.7919 1.43229 25.8544 1.42708ZM25.3961 22.1042C24.8492 22.1042 24.4117 22.5469 24.4117 23.099V26.276H10.7867C8.80233 26.276 7.18254 27.8802 7.18254 29.8698V34.1667C7.18254 34.7188 7.62524 35.1562 8.17212 35.1562C8.7242 35.1562 9.1617 34.7188 9.1617 34.1667V29.8698C9.1617 28.9375 9.85441 28.25 10.7867 28.25H24.4117V34.1354C24.4117 34.6875 24.8492 35.125 25.3961 35.125C25.9482 35.125 26.3857 34.6875 26.3857 34.1354V28.25H40.0107C40.943 28.25 41.6409 28.9375 41.6409 29.8698V31.0885C41.6409 31.0938 41.6409 31.0938 41.6409 31.0938C41.6357 31.1615 41.6305 31.1719 41.6305 31.125V34.1667C41.6305 34.7188 42.0732 35.1562 42.62 35.1562C43.1721 35.1562 43.6096 34.7188 43.6096 34.1667V29.8698C43.6096 27.8802 42.0002 26.276 40.0107 26.276H26.3857V23.099C26.3857 22.5469 25.9482 22.1042 25.3961 22.1042ZM8.58879 36.5781C8.17212 36.5573 7.74504 36.625 7.35441 36.8021C7.1565 36.8906 6.97941 37.0156 6.81274 37.1615C6.62004 37.1875 6.42733 37.2396 6.25545 37.3281C5.87004 37.526 5.56795 37.8594 5.39608 38.25C5.19295 38.7031 5.1617 39.1823 5.15649 39.625C5.14608 39.9635 5.16691 40.3021 5.18254 40.6354C5.15649 40.651 5.13566 40.6615 5.10962 40.6823C5.04191 40.7396 4.92212 40.8385 4.85441 41.0052C4.79191 41.1562 4.79712 41.2969 4.79712 41.3698C4.80233 41.5312 4.81795 41.6979 4.84399 41.8646C4.89087 42.2083 4.98983 42.5885 5.25545 42.9167C5.33358 43.0156 5.42733 43.0938 5.52629 43.1615C5.60962 43.4688 5.7242 43.7812 5.9117 44.0729C6.27629 44.6302 6.82837 45.0365 7.45337 45.2448C7.76066 45.3438 8.07837 45.401 8.40649 45.401C8.73462 45.401 9.05233 45.3438 9.35962 45.2448C9.98462 45.0365 10.5367 44.6302 10.9013 44.0729C11.0784 43.8021 11.1825 43.5104 11.2711 43.224C11.4065 43.1406 11.5419 43.0469 11.6513 42.9115C11.9169 42.5885 12.0107 42.2083 12.0627 41.8646C12.0888 41.6979 12.1044 41.5312 12.1096 41.3646C12.1096 41.2969 12.1148 41.1562 12.0523 41.0052C11.9846 40.8385 11.8596 40.7344 11.7919 40.6823C11.7867 40.6771 11.7815 40.6719 11.7763 40.6667C11.7867 40.599 11.8023 40.5312 11.8127 40.4583C11.8544 40.0573 11.87 39.6406 11.8075 39.224C11.745 38.8021 11.6096 38.3854 11.3648 38.0208C10.9846 37.4531 10.3857 37.0781 9.77629 36.8438C9.40129 36.6979 9.00024 36.599 8.58879 36.5781ZM42.9482 36.9792C42.9273 36.9792 42.9065 36.9844 42.8909 36.9896C42.6565 36.9948 42.4169 37.0208 42.1877 37.0938C41.9221 37.1719 41.6773 37.3073 41.4534 37.4635C41.1513 37.4375 40.8388 37.4583 40.5471 37.5521C39.9221 37.7448 39.4013 38.2135 39.0784 38.7812C38.7502 39.349 38.6096 40 38.5888 40.651C38.5523 41.7135 38.8232 42.7552 38.8909 43.8073C38.9325 44.4479 38.8857 45.0938 38.7763 45.7292C38.6721 45.7396 38.568 45.7448 38.4742 45.7552C37.4482 45.8385 36.5784 46.5312 36.2555 47.5052C36.2398 47.5469 36.2294 47.5885 36.219 47.6354C36.1148 47.9635 36.0263 48.2969 35.9534 48.6406C35.9065 48.8542 35.87 49.0781 35.8284 49.2969C35.7971 49.4635 35.7867 49.6354 35.7867 49.8073C35.7867 51.0312 36.6565 52.0885 37.8544 52.3281C39.1669 52.651 40.7867 52.8385 42.4117 52.8385H42.4169C44.0471 52.8385 45.6669 52.651 46.9794 52.3281C48.1773 52.0938 49.0471 51.0312 49.0471 49.8073C49.0471 49.6354 49.0367 49.4635 49.0002 49.2969C48.969 49.0781 48.9273 48.8542 48.8805 48.6406C48.8075 48.2969 48.719 47.9635 48.6148 47.6354C48.6044 47.5938 48.5888 47.5521 48.5784 47.5052C48.2659 46.5573 47.4273 45.8906 46.443 45.7708C46.2138 45.0521 46.0732 44.3021 46.0367 43.5417C45.9794 42.2448 46.2086 40.9219 45.9065 39.651C45.7659 39.0781 45.5159 38.526 45.1461 38.0677C44.7711 37.6146 44.2763 37.2552 43.7086 37.0833C43.4586 37.0104 43.2034 36.9792 42.9482 36.9792ZM25.7294 37.0938C25.219 37.1042 24.7034 37.1875 24.2398 37.3906C23.7346 37.6094 23.2867 37.9635 22.9482 38.401C22.6096 38.8333 22.3805 39.349 22.245 39.8802C22.1721 40.1823 22.1409 40.4896 22.1357 40.7969C22.0888 40.8229 22.0419 40.8438 22.0002 40.875C21.9482 40.9167 21.8805 40.974 21.844 41.0625C21.8075 41.1458 21.8127 41.224 21.8127 41.2812C21.818 41.401 21.8284 41.5208 21.844 41.6458C21.8805 41.8958 21.9534 42.1615 22.1305 42.3802C22.2242 42.5 22.344 42.5938 22.4794 42.6615L22.4898 42.6354C22.5367 42.7448 22.5732 42.8594 22.6252 42.9635C22.719 43.1354 22.8023 43.3073 22.8805 43.4896C22.9898 43.7448 23.068 44.0104 23.1305 44.2812C23.1773 44.4948 23.2086 44.7135 23.2138 44.9323C23.1982 45.1823 23.0836 45.4219 22.8961 45.5938C22.5419 45.8698 22.12 46.0417 21.6877 46.1719C21.2346 46.3021 20.7711 46.3958 20.3232 46.5521C20.0471 46.651 19.7815 46.7708 19.5367 46.9375C19.2971 47.099 19.0784 47.3073 18.9273 47.5573C18.6773 47.974 18.62 48.4688 18.5732 48.9479C18.5211 49.5365 18.4846 50.125 18.4638 50.7188C18.4586 50.75 18.4638 50.7865 18.4638 50.8177C18.4638 51.5365 19.0211 52.1354 19.7346 52.1875C21.5784 52.3698 23.4794 52.4688 25.3961 52.4688C27.318 52.4688 29.2294 52.3646 31.0732 52.1875C31.0836 52.1875 31.0888 52.1875 31.0992 52.1875C31.7971 52.1146 32.3336 51.526 32.3336 50.8177C32.3336 50.7812 32.3336 50.7448 32.3284 50.7083C32.3075 50.1198 32.2763 49.5312 32.219 48.9479C32.1721 48.4688 32.1148 47.974 31.8648 47.5573C31.7138 47.3073 31.5002 47.099 31.2555 46.9375C31.0159 46.7708 30.745 46.651 30.469 46.5521C30.0211 46.3958 29.5627 46.3021 29.1044 46.1719C28.7086 46.0521 28.3127 45.8958 27.9742 45.651C27.7398 45.4635 27.6044 45.1771 27.6044 44.875C27.6044 44.849 27.6044 44.8177 27.6096 44.7917C27.62 44.6198 27.6513 44.4479 27.6877 44.2812C27.7502 44.0104 27.8284 43.7448 27.9377 43.4896C28.0627 43.1927 28.219 42.9167 28.3544 42.6354C28.4742 42.5677 28.5836 42.4896 28.6721 42.3854C28.8492 42.1667 28.9221 41.8958 28.9586 41.6458C28.9742 41.526 28.9846 41.401 28.9898 41.2812C28.9898 41.224 28.995 41.151 28.9586 41.0625C28.9221 40.974 28.8544 40.9167 28.8023 40.875C28.7555 40.8385 28.693 40.8177 28.6409 40.7812C28.6252 40.6406 28.6148 40.5 28.5992 40.3594C28.5732 39.9948 28.594 39.6302 28.5575 39.276C28.5107 38.8646 28.3752 38.4479 28.0732 38.1667C27.8857 37.9844 27.6513 37.8698 27.4013 37.776C27.1565 37.6875 26.9013 37.6198 26.6513 37.5208C26.5002 37.4583 26.344 37.3802 26.2242 37.2656C26.1825 37.2292 26.1565 37.1979 26.1148 37.1719C26.0627 37.1302 25.995 37.1094 25.9273 37.099C25.8648 37.0885 25.8023 37.0885 25.7294 37.0938ZM40.8648 38.9792C41.0575 38.974 41.2502 39.0208 41.4221 39.1042C41.5627 39.1719 41.6877 39.2656 41.8232 39.3542C41.9586 39.4427 42.0992 39.5312 42.2555 39.5729C42.4846 39.6406 42.719 39.6198 42.9482 39.5833C43.1825 39.5521 43.4065 39.5104 43.6357 39.5312C43.8596 39.5521 44.0784 39.6406 44.2555 39.7708C44.4377 39.9062 44.5888 40.0938 44.6773 40.3021C44.7242 40.4115 44.7502 40.5312 44.7659 40.6615C44.7659 40.6719 44.7711 40.6823 44.7711 40.6927H44.7763C44.7763 40.7083 44.7763 40.7188 44.7763 40.7344C44.7763 40.7292 44.7763 40.7396 44.7763 40.7552L44.7815 40.7604C44.7867 40.8177 44.7919 40.8646 44.7971 40.9167C44.8023 41 44.8752 41.0677 44.9638 41.0625C45.0523 41.0521 45.1357 41.0677 45.2086 41.1094C45.3127 41.1667 45.3961 41.2656 45.4377 41.3802C45.4846 41.4948 45.4898 41.625 45.469 41.7448C45.4325 41.9896 45.2971 42.2031 45.1565 42.4167C45.0159 42.625 44.8752 42.8229 44.7294 43.026C44.7034 43.0469 44.6877 43.0729 44.6773 43.1042C44.5992 43.3906 44.4846 43.6667 44.3284 43.9167C44.1669 44.1667 43.9638 44.3854 43.7242 44.5625C43.6825 44.5938 43.6565 44.651 43.6617 44.7031C43.7034 45.2292 43.745 45.7604 44.0523 46.1094C44.1773 46.25 44.3492 46.3542 44.5367 46.4375C44.495 46.5208 44.4586 46.6042 44.4117 46.6771C44.1565 47.0729 43.87 47.4479 43.5523 47.7865C43.2242 48.151 42.8648 48.4792 42.4794 48.776H42.3596C41.969 48.4792 41.6096 48.151 41.2815 47.7865C40.9638 47.4479 40.6773 47.0729 40.4273 46.6771C40.3648 46.5885 40.3284 46.4844 40.2711 46.3906C40.4169 46.3125 40.5523 46.2292 40.6565 46.1146C40.9638 45.7656 41.0055 45.2396 41.0471 44.7135C41.0523 44.6615 41.0263 44.6094 40.9846 44.5781C40.7398 44.3958 40.5263 44.1719 40.3648 43.9167C40.2086 43.6667 40.094 43.3854 40.0107 43.0938C40.0055 43.0781 40.0002 43.0625 39.9898 43.0469C39.8388 42.8385 39.6877 42.625 39.5471 42.4167C39.4065 42.2031 39.2711 41.9896 39.2294 41.7448C39.2138 41.6198 39.219 41.4948 39.2607 41.3802C39.3075 41.2656 39.3857 41.1667 39.495 41.1094C39.568 41.0677 39.6513 41.0521 39.7346 41.0573C39.8232 41.0625 39.8961 41 39.9013 40.9167C39.9169 40.7656 39.9273 40.6146 39.943 40.474C39.943 40.4635 39.9482 40.4583 39.9482 40.4479C39.9638 40.3177 39.9794 40.1823 39.995 40.0521C40.0263 39.8021 40.0732 39.5521 40.2034 39.349C40.2971 39.2083 40.4117 39.1042 40.5836 39.0365C40.5888 39.0312 40.5992 39.0312 40.6044 39.026C40.6096 39.026 40.6096 39.0208 40.6148 39.0208C40.6252 39.0208 40.62 39.0208 40.6252 39.0208C40.6305 39.0208 40.6305 39.0156 40.6357 39.0156C40.6565 39.0104 40.6669 39.0052 40.6721 39.0052C40.6773 39.0052 40.6773 39 40.6773 39C40.7346 38.9896 40.7971 38.9792 40.8648 38.9792ZM5.89087 45.6823C5.4117 45.7135 4.93774 45.7448 4.47941 45.7917C3.45337 45.8802 2.57316 46.5781 2.25024 47.5573C2.23983 47.599 2.2242 47.6406 2.21379 47.6875C2.10962 48.0156 2.01587 48.3542 1.94816 48.6979C1.90128 48.9167 1.85962 49.1354 1.82316 49.3542C1.7867 49.526 1.78149 49.7031 1.78149 49.875C1.78149 51.1042 2.65129 52.1719 3.85962 52.4115C5.18254 52.7292 6.81274 52.9219 8.45337 52.9219C10.094 52.9219 11.7242 52.7292 13.0471 52.4115C14.2555 52.1719 15.1252 51.1042 15.1252 49.875C15.1252 49.7031 15.1148 49.526 15.0836 49.3542C15.0471 49.1354 15.0055 48.9167 14.9586 48.6979C14.8857 48.3542 14.7971 48.0156 14.693 47.6875C14.6825 47.6406 14.6669 47.599 14.6565 47.5573C14.3336 46.5781 13.4534 45.8802 12.4273 45.7917C11.969 45.7448 11.495 45.7135 11.0159 45.6823C10.8544 46.0417 10.6721 46.3906 10.4586 46.724C10.2034 47.1198 9.91691 47.4948 9.5992 47.8438C9.44816 48 9.29712 48.151 9.14087 48.2969L8.89087 47.0104L9.17212 46.6823C9.31795 46.5104 9.30233 46.2552 9.13045 46.1094C9.05754 46.0469 8.96379 46.0104 8.86483 46.0104H8.04191C7.81274 46.0104 7.63045 46.1927 7.63566 46.4167C7.63566 46.5156 7.67212 46.6094 7.73462 46.6823L8.01587 47.0104L7.76587 48.2969C7.60962 48.151 7.45337 48 7.30754 47.8438C6.98983 47.4948 6.70337 47.1198 6.44816 46.724C6.23462 46.3906 6.05233 46.0417 5.89087 45.6823Z" fill="#0F1738"/>
</g>
</g>
</svg>
