<svg width="47" height="47" viewBox="0 0 47 47" fill="none" xmlns="http://www.w3.org/2000/svg">
<mask id="mask0_1101_3732" style="mask-type:luminance" maskUnits="userSpaceOnUse" x="0" y="0" width="47" height="47">
<path d="M0 0H47V47H0V0Z" fill="white"/>
</mask>
<g mask="url(#mask0_1101_3732)">
<path d="M47 23.4993C47 24.2688 46.9616 25.0368 46.8863 25.8034C46.8109 26.5685 46.6987 27.3292 46.548 28.0839C46.3974 28.8387 46.2113 29.5846 45.9868 30.3216C45.7637 31.0571 45.5053 31.7823 45.2099 32.4928C44.9159 33.2032 44.588 33.8989 44.2247 34.5769C43.8614 35.2563 43.467 35.915 43.0387 36.556C42.6118 37.1956 42.1539 37.813 41.665 38.4082C41.1776 39.0035 40.6607 39.5721 40.1171 40.1171C39.5721 40.6607 39.002 41.1776 38.4082 41.665C37.813 42.1539 37.1956 42.6118 36.556 43.0387C35.915 43.467 35.2563 43.8614 34.5769 44.2247C33.8989 44.588 33.2032 44.9159 32.4928 45.2113C31.7809 45.5053 31.0571 45.7637 30.3216 45.9882C29.5846 46.2113 28.8387 46.3974 28.0839 46.548C27.3292 46.6987 26.5685 46.8109 25.8034 46.8863C25.0368 46.9616 24.2688 47 23.4993 47C22.7297 47 21.9617 46.9616 21.1966 46.8863C20.43 46.8109 19.6694 46.6987 18.9146 46.548C18.1599 46.3974 17.414 46.2113 16.6784 45.9882C15.9414 45.7637 15.2177 45.5053 14.5072 45.2113C13.7953 44.9159 13.1011 44.588 12.4217 44.2247C11.7437 43.8614 11.0835 43.467 10.444 43.0387C9.80441 42.6118 9.18702 42.1539 8.59178 41.665C7.99654 41.1776 7.42642 40.6607 6.88288 40.1171C6.33786 39.5721 5.82238 39.0035 5.33349 38.4082C4.84608 37.813 4.3882 37.1956 3.95987 36.556C3.53301 35.915 3.13717 35.2563 2.77383 34.5769C2.41196 33.8989 2.08259 33.2032 1.78866 32.4928C1.49474 31.7823 1.23478 31.0571 1.01175 30.3216C0.788724 29.5846 0.601144 28.8387 0.451966 28.0839C0.30131 27.3292 0.187581 26.5685 0.112253 25.8034C0.0369252 25.0368 0 24.2688 0 23.4993C0 22.7297 0.0369252 21.9617 0.112253 21.1966C0.187581 20.43 0.30131 19.6694 0.451966 18.9146C0.601144 18.1599 0.788724 17.414 1.01175 16.6784C1.23478 15.9414 1.49474 15.2177 1.78866 14.5072C2.08259 13.7953 2.41196 13.1011 2.77383 12.4217C3.13717 11.7437 3.53301 11.0835 3.95987 10.444C4.3882 9.80441 4.84608 9.18702 5.33349 8.59178C5.82238 7.99654 6.33786 7.42642 6.88288 6.88288C7.42642 6.33786 7.99654 5.82238 8.59178 5.33349C9.18702 4.84608 9.80441 4.3882 10.444 3.95987C11.0835 3.53301 11.7437 3.13717 12.4217 2.77531C13.1011 2.41196 13.7953 2.08259 14.5072 1.78866C15.2177 1.49474 15.9414 1.23478 16.6784 1.01175C17.414 0.788725 18.1599 0.601144 18.9146 0.451966C19.6694 0.301311 20.43 0.189058 21.1966 0.11373C21.9617 0.0369253 22.7297 0 23.4993 0C24.2688 0 25.0368 0.0369253 25.8034 0.11373C26.5685 0.189058 27.3292 0.301311 28.0839 0.451966C28.8387 0.601144 29.5846 0.788725 30.3216 1.01175C31.0571 1.23478 31.7809 1.49474 32.4928 1.78866C33.2032 2.08259 33.8989 2.41196 34.5769 2.77531C35.2563 3.13717 35.915 3.53301 36.556 3.95987C37.1956 4.3882 37.813 4.84608 38.4082 5.33349C39.002 5.82238 39.5721 6.33786 40.1171 6.88288C40.6607 7.42642 41.1776 7.99654 41.665 8.59178C42.1539 9.18702 42.6118 9.80441 43.0387 10.444C43.467 11.0835 43.8614 11.7437 44.2247 12.4217C44.588 13.1011 44.9159 13.7953 45.2099 14.5072C45.5053 15.2177 45.7637 15.9414 45.9868 16.6784C46.2113 17.414 46.3974 18.1599 46.548 18.9146C46.6987 19.6694 46.8109 20.43 46.8863 21.1966C46.9616 21.9617 47 22.7297 47 23.4993Z" fill="#0F1738"/>
</g>
<path d="M31.3649 15.9375H15.6318C15.5048 15.9375 15.3778 15.9508 15.2522 15.9744C15.1267 15.9995 15.0041 16.0365 14.8859 16.0867C14.7677 16.1354 14.6555 16.1945 14.5491 16.2669C14.4413 16.3378 14.3438 16.419 14.2523 16.5091C14.1622 16.5992 14.0809 16.6982 14.01 16.8045C13.9391 16.9109 13.8786 17.0231 13.8298 17.1413C13.7811 17.2594 13.7442 17.382 13.7191 17.5076C13.694 17.6331 13.6807 17.7601 13.6807 17.8886V26.668C13.6807 26.795 13.694 26.922 13.7191 27.0476C13.7442 27.1731 13.7811 27.2957 13.8298 27.4139C13.8786 27.532 13.9391 27.6443 14.01 27.7506C14.0809 27.857 14.1622 27.9559 14.2523 28.046C14.3438 28.1361 14.4428 28.2174 14.5491 28.2883C14.6555 28.3606 14.7677 28.4197 14.8859 28.4685C15.0041 28.5187 15.1267 28.5556 15.2522 28.5792C15.3778 28.6044 15.5048 28.6176 15.6318 28.6176H31.3649C31.4934 28.6176 31.6205 28.6044 31.746 28.5792C31.8715 28.5556 31.9927 28.5172 32.1123 28.4685C32.2305 28.4197 32.3427 28.3592 32.4491 28.2883C32.5554 28.2174 32.6544 28.1361 32.7445 28.046C32.8346 27.9559 32.9158 27.857 32.9867 27.7506C33.0591 27.6443 33.1181 27.532 33.1669 27.4124C33.2171 27.2942 33.254 27.1731 33.2791 27.0476C33.3028 26.922 33.3161 26.795 33.3161 26.6665V17.8886C33.3161 17.7601 33.3028 17.6331 33.2791 17.5076C33.254 17.382 33.2171 17.2594 33.1669 17.1413C33.1181 17.0231 33.0576 16.9109 32.9867 16.8045C32.9158 16.6982 32.8346 16.5992 32.7445 16.5091C32.6544 16.419 32.5554 16.3378 32.4491 16.2669C32.3427 16.1945 32.2305 16.1354 32.1108 16.0867C31.9927 16.0365 31.8715 15.9995 31.746 15.9744C31.6205 15.9508 31.4934 15.9375 31.3649 15.9375ZM16.5594 20.1027C16.5594 19.9624 16.5741 19.822 16.6007 19.6847C16.6288 19.5458 16.6701 19.4114 16.7233 19.2815C16.778 19.1515 16.8429 19.0274 16.9212 18.9107C16.9995 18.794 17.0896 18.6847 17.1886 18.5858C17.2875 18.4853 17.3968 18.3967 17.5135 18.3184C17.6317 18.2402 17.7543 18.1737 17.8842 18.1205C18.0142 18.0674 18.1486 18.026 18.2875 17.9979C18.4248 17.9713 18.5651 17.9566 18.7055 17.9566C18.8473 17.9581 18.9861 17.9713 19.1249 17.9979C19.2623 18.026 19.3967 18.0674 19.5267 18.1205C19.6567 18.1752 19.7807 18.2402 19.8974 18.3184C20.0156 18.3967 20.1234 18.4868 20.2224 18.5858C20.3228 18.6862 20.4114 18.794 20.4897 18.9107C20.568 19.0289 20.6344 19.1515 20.6876 19.2829C20.7423 19.4129 20.7821 19.5473 20.8102 19.6847C20.8368 19.8235 20.8516 19.9624 20.8516 20.1042C20.8516 20.2445 20.8368 20.3833 20.8102 20.5221C20.7821 20.6595 20.7423 20.7939 20.6876 20.9239C20.633 21.0553 20.568 21.1779 20.4897 21.2961C20.4114 21.4128 20.3213 21.5206 20.2224 21.621C20.1219 21.72 20.0141 21.8086 19.8974 21.8869C19.7792 21.9652 19.6567 22.0317 19.5252 22.0848C19.3952 22.1395 19.2608 22.1794 19.1235 22.2074C18.9846 22.2355 18.8458 22.2488 18.704 22.2488C18.5637 22.2488 18.4248 22.234 18.286 22.2059C18.1486 22.1794 18.0142 22.138 17.8842 22.0833C17.7543 22.0302 17.6317 21.9637 17.5135 21.8854C17.3968 21.8071 17.289 21.7185 17.19 21.6181C17.0896 21.5191 17.001 21.4113 16.9227 21.2931C16.8444 21.1765 16.7794 21.0524 16.7248 20.9224C16.6716 20.7924 16.6303 20.6595 16.6022 20.5207C16.5756 20.3833 16.5608 20.243 16.5608 20.1027H16.5594ZM28.275 25.1393C28.1185 25.2958 27.9545 25.4436 27.7832 25.5839C27.6118 25.7242 27.4346 25.8556 27.2515 25.9782C27.0668 26.1008 26.8778 26.2146 26.6828 26.3179C26.4864 26.4228 26.287 26.5173 26.0831 26.6015C25.8778 26.6857 25.671 26.7596 25.4584 26.8246C25.2471 26.8881 25.033 26.9427 24.8159 26.9855C24.5987 27.0284 24.3801 27.0609 24.1601 27.083C23.94 27.1037 23.7199 27.114 23.4984 27.114C23.2768 27.114 23.0567 27.1037 22.8367 27.083C22.6166 27.0609 22.398 27.0284 22.1809 26.9855C21.9637 26.9427 21.7496 26.8881 21.5384 26.8246C21.3272 26.7596 21.1189 26.6857 20.9151 26.6015C20.7098 26.5173 20.5104 26.4228 20.3154 26.3179C20.1204 26.2146 19.9299 26.1008 19.7468 25.9782C19.5621 25.8556 19.3849 25.7242 19.2136 25.5839C19.0422 25.4436 18.8797 25.2958 18.7232 25.1393C18.6877 25.1038 18.6597 25.064 18.6405 25.0167C18.6227 24.9709 18.6124 24.9236 18.6124 24.8734C18.6124 24.8232 18.6227 24.7759 18.6405 24.7302C18.6597 24.6844 18.6877 24.643 18.7232 24.6076L19.8176 23.5131C19.8531 23.4776 19.893 23.4496 19.9402 23.4319C19.986 23.4127 20.0333 23.4023 20.0835 23.4023C20.1337 23.4023 20.181 23.4127 20.2268 23.4319C20.2726 23.4496 20.3139 23.4776 20.3494 23.5131C20.5562 23.7184 20.7807 23.903 21.0244 24.0655C21.2681 24.228 21.5236 24.3639 21.7939 24.4761C22.0642 24.5884 22.3433 24.6725 22.6299 24.7287C22.9164 24.7863 23.2059 24.8143 23.4984 24.8143C23.7908 24.8143 24.0803 24.7863 24.3668 24.7287C24.6534 24.6725 24.9311 24.5884 25.2014 24.4761C25.4717 24.3639 25.7287 24.228 25.9724 24.0655C26.2146 23.903 26.4406 23.7184 26.6474 23.5131C26.6828 23.4776 26.7227 23.4496 26.7685 23.4319C26.8157 23.4127 26.863 23.4023 26.9132 23.4023C26.9634 23.4023 27.0107 23.4127 27.0565 23.4319C27.1023 23.4496 27.1436 23.4776 27.1791 23.5131L28.2735 24.6076C28.309 24.643 28.3356 24.6844 28.3548 24.7302C28.374 24.7759 28.3843 24.8232 28.3843 24.8734C28.3843 24.9236 28.374 24.9709 28.3548 25.0167C28.3356 25.064 28.309 25.1038 28.2735 25.1393H28.275ZM28.6221 22.2502C28.4818 22.2502 28.3415 22.237 28.2041 22.2089C28.0653 22.1823 27.9324 22.141 27.8009 22.0878C27.6709 22.0331 27.5483 21.9667 27.4302 21.8899C27.3135 21.8116 27.2057 21.7215 27.1052 21.6225C27.0063 21.5221 26.9162 21.4143 26.8379 21.2976C26.7596 21.1794 26.6946 21.0568 26.64 20.9268C26.5868 20.7954 26.5454 20.6625 26.5189 20.5236C26.4908 20.3863 26.4775 20.2459 26.4775 20.1056C26.4775 19.9638 26.4908 19.825 26.5189 19.6862C26.5454 19.5488 26.5868 19.4144 26.64 19.2844C26.6946 19.1544 26.7596 19.0304 26.8379 18.9137C26.9162 18.7955 27.0063 18.6877 27.1052 18.5887C27.2057 18.4883 27.3135 18.3997 27.4302 18.3214C27.5483 18.2431 27.6709 18.1767 27.8009 18.1235C27.9324 18.0688 28.0653 18.0289 28.2041 18.0009C28.3415 17.9728 28.4818 17.9595 28.6221 17.9595C28.7639 17.9595 28.9028 17.9728 29.0416 18.0009C29.179 18.0289 29.3134 18.0688 29.4433 18.1235C29.5733 18.1767 29.6974 18.2431 29.8141 18.3214C29.9322 18.3997 30.0401 18.4883 30.139 18.5887C30.2394 18.6877 30.3281 18.7955 30.4063 18.9137C30.4846 19.0304 30.5511 19.1544 30.6043 19.2844C30.6589 19.4144 30.6988 19.5488 30.7269 19.6862C30.7549 19.825 30.7682 19.9638 30.7682 20.1056C30.7682 20.2459 30.7534 20.3848 30.7254 20.5236C30.6988 20.661 30.6574 20.7954 30.6028 20.9254C30.5496 21.0553 30.4832 21.1794 30.4049 21.2961C30.3266 21.4128 30.238 21.5206 30.1375 21.621C30.0386 21.72 29.9293 21.8086 29.8126 21.8869C29.6959 21.9652 29.5718 22.0317 29.4419 22.0848C29.3119 22.1395 29.1775 22.1794 29.0401 22.2074C28.9013 22.234 28.7624 22.2488 28.6221 22.2488V22.2502Z" fill="#FFFDFD"/>
<path d="M24.3663 13.1328V15.1962H22.6338V13.1328C23.2113 13.3219 23.7888 13.3219 24.3663 13.1328Z" fill="#FFFDFD"/>
<path d="M25.5266 10.4874C25.5266 10.6218 25.5133 10.7533 25.4882 10.8832C25.4616 11.0147 25.4232 11.1402 25.3715 11.2643C25.3213 11.3869 25.2592 11.5036 25.1854 11.6144C25.1115 11.7251 25.0273 11.827 24.9328 11.9216C24.8383 12.0161 24.7364 12.1003 24.6256 12.1741C24.5148 12.248 24.3981 12.31 24.2755 12.3617C24.1515 12.4119 24.0245 12.4503 23.8945 12.4769C23.7645 12.502 23.6316 12.5153 23.4986 12.5153C23.3657 12.5153 23.2343 12.502 23.1028 12.4769C22.9728 12.4503 22.8458 12.4119 22.7232 12.3617C22.6006 12.31 22.4825 12.248 22.3732 12.1741C22.2624 12.1003 22.159 12.0161 22.0659 11.9216C21.9714 11.827 21.8872 11.7251 21.8134 11.6144C21.7395 11.5036 21.676 11.3869 21.6258 11.2643C21.5741 11.1402 21.5357 11.0147 21.5106 10.8832C21.484 10.7533 21.4707 10.6218 21.4707 10.4874C21.4707 10.3545 21.484 10.223 21.5106 10.093C21.5357 9.96158 21.5741 9.83456 21.6258 9.71197C21.676 9.58937 21.7395 9.47269 21.8134 9.36191C21.8872 9.25114 21.9714 9.14775 22.0659 9.0547C22.159 8.96017 22.2624 8.87598 22.3732 8.80213C22.4825 8.72828 22.6006 8.66624 22.7232 8.61455C22.8458 8.56433 22.9728 8.52593 23.1028 8.49934C23.2343 8.47275 23.3657 8.46094 23.4986 8.46094C23.6316 8.46094 23.7645 8.47275 23.8945 8.49934C24.0245 8.52593 24.1515 8.56433 24.2755 8.61455C24.3981 8.66624 24.5148 8.72828 24.6256 8.80213C24.7364 8.87598 24.8383 8.96017 24.9328 9.0547C25.0273 9.14775 25.1115 9.25114 25.1854 9.36191C25.2592 9.47269 25.3213 9.58937 25.3715 9.71197C25.4232 9.83456 25.4616 9.96158 25.4882 10.093C25.5133 10.223 25.5266 10.3545 25.5266 10.4874Z" fill="#FFFDFD"/>
<path d="M20.458 29.3828H26.5403V30.3473H20.458V29.3828Z" fill="#FFFDFD"/>
<path d="M13.4656 31.0938H33.5323C33.6549 31.0938 33.7775 31.1056 33.8971 31.1292C34.0182 31.1528 34.1349 31.1883 34.2487 31.2355C34.3624 31.2828 34.4702 31.3404 34.5736 31.4084C34.6755 31.4778 34.77 31.5546 34.8572 31.6417C34.9443 31.7289 35.0211 31.8234 35.0906 31.9253C35.1585 32.0287 35.2161 32.1365 35.2634 32.2503C35.3106 32.364 35.3461 32.4807 35.3697 32.6003C35.3933 32.7214 35.4052 32.844 35.4052 32.9666V38.5394H11.5928V32.9666C11.5928 32.844 11.6046 32.7214 11.6282 32.6003C11.6533 32.4807 11.6888 32.364 11.736 32.2503C11.7818 32.1365 11.8409 32.0287 11.9089 31.9253C11.9768 31.8234 12.0551 31.7289 12.1422 31.6417C12.2279 31.5546 12.3224 31.4778 12.4258 31.4084C12.5277 31.3404 12.6355 31.2828 12.7493 31.2355C12.863 31.1883 12.9797 31.1528 13.1008 31.1292C13.2219 31.1056 13.343 31.0938 13.4656 31.0938Z" fill="#FFFDFD"/>
</svg>
