<svg width="19" height="19" viewBox="0 0 19 19" fill="none" xmlns="http://www.w3.org/2000/svg">
<path d="M7.90842 18.0342C7.43342 18.0342 6.98217 17.7967 6.67342 17.3771L5.72343 16.1104C5.72343 16.1183 5.68384 16.0946 5.66801 16.0946H5.3751C2.6676 16.0946 0.989258 15.3583 0.989258 11.7088V8.54209C0.989258 5.20917 3.02385 4.33834 4.73385 4.18792C4.92385 4.16417 5.14551 4.15625 5.3751 4.15625H10.4418C13.3076 4.15625 14.8276 5.67626 14.8276 8.54209V11.7088C14.8276 11.9383 14.8197 12.16 14.788 12.3738C14.6455 14.06 13.7747 16.0946 10.4418 16.0946H10.1251L9.14342 17.3771C8.83466 17.7967 8.38342 18.0342 7.90842 18.0342ZM5.3751 5.34375C5.19301 5.34375 5.01885 5.35167 4.8526 5.3675C3.01593 5.52583 2.17676 6.53126 2.17676 8.54209V11.7088C2.17676 14.4242 3.01593 14.9071 5.3751 14.9071H5.69176C6.04801 14.9071 6.45175 15.105 6.67342 15.39L7.62343 16.6646C7.7976 16.9021 8.01926 16.9021 8.19343 16.6646L9.14342 15.3979C9.373 15.0892 9.73718 14.9071 10.1251 14.9071H10.4418C12.4526 14.9071 13.458 14.06 13.6084 12.255C13.6322 12.065 13.6401 11.8908 13.6401 11.7088V8.54209C13.6401 6.33334 12.6505 5.34375 10.4418 5.34375H5.3751Z" fill="#F7F7F7"/>
<path d="M7.90885 11.2318C7.46552 11.2318 7.11719 10.8755 7.11719 10.4401C7.11719 10.0047 7.47344 9.64844 7.90885 9.64844C8.34427 9.64844 8.70052 10.0047 8.70052 10.4401C8.70052 10.8755 8.35219 11.2318 7.90885 11.2318Z" fill="#F7F7F7"/>
<path d="M10.4421 11.2318C9.99872 11.2318 9.65039 10.8755 9.65039 10.4401C9.65039 10.0047 10.0066 9.64844 10.4421 9.64844C10.8775 9.64844 11.2337 10.0047 11.2337 10.4401C11.2337 10.8755 10.8775 11.2318 10.4421 11.2318Z" fill="#F7F7F7"/>
<path d="M5.38346 11.2318C4.94013 11.2318 4.5918 10.8755 4.5918 10.4401C4.5918 10.0047 4.94805 9.64844 5.38346 9.64844C5.81888 9.64844 6.17513 10.0047 6.17513 10.4401C6.17513 10.8755 5.81888 11.2318 5.38346 11.2318Z" fill="#F7F7F7"/>
<path d="M14.2022 12.8989C14.0439 12.8989 13.8855 12.8355 13.7747 12.7168C13.648 12.5901 13.5926 12.408 13.6164 12.2339C13.6401 12.0676 13.648 11.8934 13.648 11.7114V8.54469C13.648 6.33594 12.6585 5.34635 10.4497 5.34635H5.38304C5.20096 5.34635 5.02681 5.35427 4.86056 5.3701C4.6864 5.39385 4.5043 5.33051 4.37763 5.21176C4.25097 5.08509 4.17971 4.91095 4.19554 4.73678C4.33804 3.02678 5.21679 0.992188 8.54971 0.992188H13.6164C16.4822 0.992188 18.0022 2.51219 18.0022 5.37803V8.54469C18.0022 11.8776 15.9676 12.7484 14.2576 12.8989C14.2339 12.8989 14.2181 12.8989 14.2022 12.8989ZM5.47806 4.15885H10.4418C13.3076 4.15885 14.8276 5.67886 14.8276 8.54469V11.6084C16.1735 11.2759 16.8068 10.2864 16.8068 8.54469V5.37803C16.8068 3.16928 15.8172 2.17969 13.6085 2.17969H8.54181C6.80014 2.17969 5.81848 2.81302 5.47806 4.15885Z" fill="#F7F7F7"/>
</svg>
