<svg width="32" height="33" viewBox="0 0 32 33" fill="none" xmlns="http://www.w3.org/2000/svg">
<mask id="mask0_778_5532" style="mask-type:luminance" maskUnits="userSpaceOnUse" x="0" y="0" width="32" height="33">
<path d="M0 0H31.9531V32.9427H0V0Z" fill="white"/>
</mask>
<g mask="url(#mask0_778_5532)">
<path d="M32.2348 23.1548L29.391 17.0715V7.17566C29.391 7.0142 29.3337 6.87879 29.2192 6.7642L24.0577 1.59754C23.9431 1.48295 23.8077 1.43087 23.6462 1.43087H20.4379L19.6462 0.946495C19.5056 0.863162 19.3598 0.842328 19.2035 0.883995L18.4535 1.06629L15.615 0.0350364C15.4639 -0.0170463 15.3129 -0.0118383 15.1671 0.0558697L12.2296 1.43087H7.16707C7.00561 1.43087 6.86499 1.48816 6.7504 1.60274C6.63582 1.71733 6.57853 1.85274 6.57853 2.0142V3.98816L3.40145 4.76941C3.2452 4.80587 3.1202 4.89441 3.03686 5.03504C2.95353 5.17045 2.9327 5.3215 2.96915 5.47775L3.03165 5.72775L0.422279 6.9465C0.276446 7.0142 0.177487 7.12358 0.120196 7.27983C0.0629041 7.43087 0.0733214 7.5767 0.141029 7.72254L6.57853 21.5038V29.9257C6.57853 30.0871 6.63582 30.2277 6.7504 30.3423C6.86499 30.4569 7.00561 30.5142 7.16707 30.5142H9.1254L9.55249 32.2486C9.59415 32.4048 9.6827 32.5246 9.81811 32.608C9.95874 32.6913 10.1046 32.7121 10.2608 32.6757L11.641 32.3371L11.8129 32.7017C11.8806 32.8475 11.99 32.9465 12.141 33.0038C12.2921 33.0611 12.4431 33.0507 12.5889 32.983L16.5629 31.1288L19.0577 30.5142H28.8077C28.9692 30.5142 29.1046 30.4569 29.2192 30.3423C29.3337 30.2277 29.391 30.0923 29.391 29.9309V27.9725L31.016 27.5715C31.1723 27.5298 31.2973 27.4413 31.3806 27.3059C31.4639 27.1652 31.4848 27.0194 31.4483 26.8632L30.8546 24.4465L31.9535 23.9309C32.0994 23.8632 32.2035 23.7538 32.2556 23.6027C32.3129 23.4517 32.3077 23.3007 32.24 23.1548H32.2348ZM24.2296 3.42566L27.391 6.59233H24.2296V3.42566ZM15.4431 1.21733L16.0212 1.43087H14.99L15.4431 1.21733ZM6.57853 5.19129V15.2538L4.2452 5.7642L6.57853 5.19129ZM3.31811 6.8892L5.84415 17.1705L1.44832 7.759L3.31811 6.8892ZM10.3337 30.5142H14.1567L10.5525 31.3996L10.3337 30.5142ZM7.7504 29.3423V2.60275H23.0577V7.17566C23.0577 7.33712 23.115 7.47774 23.2296 7.59233C23.3442 7.70691 23.4848 7.7642 23.6462 7.7642H28.2192V29.3423H7.7504ZM29.391 26.7642V23.41L30.1723 26.5715L29.391 26.7642ZM30.5681 23.285L30.0785 21.3059L30.9275 23.1184L30.5681 23.285ZM9.5004 7.62879C9.5004 7.46733 9.5577 7.3267 9.67228 7.21212C9.78686 7.09754 9.92749 7.04025 10.0889 7.04025H15.0577C15.2192 7.04545 15.3546 7.10274 15.4639 7.21733C15.5733 7.33191 15.6306 7.46733 15.6306 7.62879C15.6306 7.78504 15.5733 7.92045 15.4639 8.03504C15.3546 8.14962 15.2192 8.20691 15.0577 8.21212H10.0889C9.92749 8.21212 9.78686 8.15483 9.67749 8.04025C9.56291 7.92566 9.50561 7.79025 9.5004 7.62879ZM9.5004 10.0402C9.5004 9.87879 9.5577 9.74337 9.67228 9.62879C9.78686 9.5142 9.92749 9.45691 10.0889 9.45691H19.0629C19.2296 9.45691 19.365 9.5142 19.4796 9.62879C19.5942 9.74337 19.6514 9.87879 19.6514 10.0402C19.6514 10.2017 19.5942 10.3423 19.4796 10.4569C19.365 10.5715 19.2296 10.6288 19.0629 10.6288H10.0889C9.92749 10.6288 9.78686 10.5715 9.67228 10.4569C9.5577 10.3423 9.5004 10.2017 9.5004 10.0402ZM26.4692 13.285C26.4692 13.4465 26.4119 13.5819 26.2973 13.6965C26.1827 13.8111 26.0473 13.8684 25.8806 13.8684H10.0889C9.92749 13.8684 9.78686 13.8111 9.67228 13.6965C9.5577 13.5819 9.5004 13.4413 9.5004 13.2798C9.5004 13.1184 9.5577 12.983 9.67228 12.8684C9.78686 12.7538 9.92749 12.6965 10.0889 12.6965H25.8858C26.0473 12.6965 26.1827 12.7538 26.2973 12.8684C26.4119 12.983 26.4692 13.1236 26.4692 13.285ZM26.4692 15.9673C26.4692 16.1288 26.4119 16.2694 26.2973 16.384C26.1827 16.4986 26.0473 16.5559 25.8858 16.5559H10.0889C9.92749 16.5559 9.78686 16.4986 9.67228 16.384C9.5577 16.2694 9.5004 16.1288 9.5004 15.9673C9.5004 15.8059 9.5577 15.6705 9.67228 15.5559C9.78686 15.4413 9.92749 15.384 10.0889 15.384H25.8858C26.0473 15.384 26.1827 15.4413 26.2973 15.5559C26.4119 15.6705 26.4692 15.8059 26.4692 15.9673ZM26.4692 18.6496C26.4692 18.8111 26.4119 18.9517 26.2973 19.0663C26.1827 19.1757 26.0473 19.233 25.8806 19.233H10.0889C9.92749 19.233 9.78686 19.1809 9.67228 19.0663C9.5577 18.9517 9.5004 18.8111 9.5004 18.6496C9.5004 18.4882 9.5577 18.3475 9.67228 18.233C9.78686 18.1184 9.92749 18.0611 10.0889 18.0611H25.8858C26.0473 18.0611 26.1827 18.1184 26.2973 18.233C26.4119 18.3527 26.4692 18.4882 26.4692 18.6496ZM26.4692 21.3319C26.4692 21.4934 26.4119 21.634 26.2973 21.7486C26.1827 21.8632 26.0473 21.9205 25.8806 21.9205H10.0889C9.92749 21.9205 9.78686 21.8632 9.67228 21.7486C9.5577 21.634 9.5004 21.4934 9.5004 21.3319C9.5004 21.1705 9.5577 21.035 9.67228 20.9205C9.78686 20.8059 9.92749 20.7486 10.0889 20.7486H25.8858C26.0473 20.7486 26.1827 20.8059 26.2973 20.9205C26.4119 21.035 26.4692 21.1757 26.4692 21.3371V21.3319ZM26.4692 24.0194C26.4692 24.1809 26.4119 24.3163 26.2973 24.4309C26.1827 24.5455 26.0473 24.6027 25.8806 24.6027H20.8181C20.6567 24.6027 20.516 24.5455 20.4014 24.4309C20.2869 24.3163 20.2296 24.1809 20.2296 24.0142C20.2296 23.8527 20.2869 23.7173 20.4014 23.6027C20.516 23.4882 20.6567 23.4309 20.8181 23.4309H25.8858C26.0473 23.4309 26.1827 23.4882 26.2973 23.6027C26.4119 23.7173 26.4692 23.858 26.4692 24.0194Z" fill="#0F1738"/>
</g>
</svg>
