<svg width="54" height="51" viewBox="0 0 54 51" fill="none" xmlns="http://www.w3.org/2000/svg">
<mask id="mask0_605_4136" style="mask-type:luminance" maskUnits="userSpaceOnUse" x="0" y="31" width="44" height="4">
<path d="M0 31.2188H43.6522V34.5206H0V31.2188Z" fill="white"/>
</mask>
<g mask="url(#mask0_605_4136)">
<path d="M41.4532 33.8675H0.664231C0.296646 33.8675 0 33.5709 0 33.2033C0 32.8357 0.296646 32.5391 0.664231 32.5391H41.4532C41.8207 32.5391 42.1174 32.8357 42.1174 33.2033C42.1174 33.5709 41.8207 33.8675 41.4532 33.8675Z" fill=""/>
</g>
<path d="M29.9805 22.921C28.4199 22.921 26.8528 22.36 25.6017 21.2314C22.9383 18.8131 22.732 14.6794 25.1503 12.0096C26.324 10.7198 27.9233 9.95883 29.6645 9.875C31.4057 9.79116 33.0759 10.3845 34.3721 11.5581C35.6619 12.7254 36.4229 14.3311 36.5067 16.0723C36.5905 17.8135 35.9908 19.4838 34.8236 20.78C33.5338 22.1987 31.7604 22.921 29.9805 22.921ZM29.9934 11.1906C29.9031 11.1906 29.8193 11.1906 29.729 11.197C28.3425 11.2679 27.0656 11.8677 26.1305 12.8995C24.2023 15.0276 24.3635 18.323 26.4917 20.2512C28.6198 22.1729 31.9151 22.0117 33.8433 19.89C34.772 18.8582 35.2492 17.5298 35.1847 16.1368C35.1138 14.7503 34.5076 13.4734 33.4822 12.5384C32.5149 11.6613 31.2832 11.1906 29.9934 11.1906Z" fill=""/>
<path d="M27.2782 18.1427C27.0461 18.1427 26.8139 18.0589 26.6269 17.8912C26.4334 17.7171 26.3173 17.472 26.3044 17.2141C26.2915 16.9561 26.3818 16.7046 26.5559 16.5112C26.7301 16.3177 26.9751 16.2016 27.2331 16.1887C27.491 16.1758 27.7425 16.2661 27.936 16.4402C28.3358 16.8014 28.3681 17.4204 28.0069 17.8203C27.8135 18.0331 27.5491 18.1427 27.2782 18.1427ZM27.0461 17.4269C27.117 17.4849 27.2073 17.5172 27.2976 17.5107C27.3878 17.5107 27.4781 17.4656 27.5362 17.4011C27.6007 17.3302 27.6329 17.2399 27.6264 17.1496C27.62 17.0593 27.5813 16.969 27.5168 16.911C27.3749 16.782 27.1492 16.7885 27.0203 16.9303C26.8913 17.0722 26.9042 17.2979 27.0461 17.4269Z" fill=""/>
<path d="M30.4837 14.6115C30.2451 14.6115 30.013 14.5212 29.8324 14.3535C29.4326 13.9924 29.4003 13.3733 29.7615 12.9799C29.9356 12.7864 30.1806 12.6704 30.4386 12.6575C30.6965 12.6446 30.948 12.7348 31.1415 12.909C31.5413 13.2701 31.5736 13.8892 31.2124 14.289C31.0319 14.4825 30.7933 14.5986 30.5353 14.6115C30.516 14.6115 30.5031 14.6115 30.4837 14.6115ZM30.2516 13.8892C30.3225 13.9537 30.4128 13.9859 30.5031 13.9795C30.5934 13.973 30.6836 13.9343 30.7417 13.8634C30.8062 13.7989 30.8384 13.7086 30.832 13.6183C30.832 13.5216 30.7868 13.4378 30.7223 13.3733C30.6514 13.3152 30.5611 13.283 30.4708 13.283C30.3805 13.2895 30.2903 13.3346 30.2258 13.3991C30.0968 13.541 30.1097 13.7602 30.2516 13.8892Z" fill=""/>
<path d="M30.4123 20.7185C30.1801 20.7185 29.9544 20.5959 29.8319 20.3767C29.3353 19.4867 29.6835 18.1002 30.6702 17.0104C31.6633 15.9205 33.0047 15.4433 33.9398 15.8431C34.2751 15.9915 34.4299 16.3784 34.2816 16.7137C34.1397 17.0491 33.7463 17.2038 33.411 17.062C33.1272 16.9394 32.3663 17.12 31.6504 17.9003C30.9411 18.6871 30.8379 19.4609 30.9862 19.7382C31.1668 20.0542 31.0507 20.4605 30.7283 20.6346C30.6315 20.6927 30.5219 20.7185 30.4123 20.7185Z" fill=""/>
<mask id="mask1_605_4136" style="mask-type:luminance" maskUnits="userSpaceOnUse" x="13" y="0" width="34" height="32">
<path d="M13.9355 0H46.9536V31.2317H13.9355V0Z" fill="white"/>
</mask>
<g mask="url(#mask1_605_4136)">
<path d="M29.7803 30.5943H25.5628C25.4016 30.5943 25.2403 30.5363 25.1178 30.4266L14.187 20.5083C14.0516 20.3922 13.9742 20.231 13.9678 20.0505C13.9613 19.8763 14.0194 19.7087 14.1354 19.5732L31.5989 0.310542C31.844 0.0396899 32.2631 0.0203434 32.534 0.2654L45.7864 12.2731C46.0572 12.5182 46.0766 12.9374 45.8315 13.2082L30.2704 30.375C30.1479 30.5169 29.9674 30.5943 29.7803 30.5943ZM25.8207 29.2723H29.4901L44.4063 12.8084L32.1406 1.69059L15.5671 19.9731L25.8207 29.2723Z" fill=""/>
</g>
<mask id="mask2_605_4136" style="mask-type:luminance" maskUnits="userSpaceOnUse" x="0" y="22" width="54" height="29">
<path d="M0 22.9688H53.1514V50.673H0V22.9688Z" fill="white"/>
</mask>
<g mask="url(#mask2_605_4136)">
<path d="M52.5129 50.7403H0.664231C0.296646 50.7403 0 50.4436 0 50.0825V33.1994C0 33.0704 0.0386926 32.9479 0.10963 32.8383L5.69433 24.2484C5.81686 24.0614 6.02967 23.9453 6.24893 23.9453H19.7012C19.8624 23.9453 20.0237 24.0098 20.1462 24.1194L25.8212 29.2656H29.4906L34.1079 24.1646C34.2369 24.0291 34.411 23.9453 34.598 23.9453H46.9218C47.1475 23.9453 47.3539 24.0614 47.4764 24.2484L53.0675 32.8383C53.132 32.9479 53.1707 33.0704 53.1707 33.1994V50.0825C53.1707 50.4436 52.8741 50.7403 52.5129 50.7403ZM1.32201 49.4182H51.8487V33.3993L46.5606 25.2738H34.8947L30.2709 30.3684C30.1483 30.5102 29.9678 30.5876 29.7808 30.5876H25.5632C25.402 30.5876 25.2408 30.5296 25.1182 30.42L19.4433 25.2738H6.61006L1.32201 33.3993V49.4182Z" fill=""/>
</g>
<path d="M25.563 30.5926H18.0695C17.8438 30.5926 17.6374 30.483 17.5149 30.296C17.3924 30.109 17.373 29.8768 17.4568 29.6704L18.45 27.336C18.5532 27.0909 18.7918 26.9297 19.0562 26.9297H22.9835C23.1512 26.9297 23.3059 26.9942 23.4285 27.1038L26.008 29.4383C26.2144 29.6253 26.2789 29.9155 26.1821 30.167C26.0854 30.425 25.8403 30.5926 25.563 30.5926ZM19.0691 29.2706H23.8477L22.732 28.2581H19.4947L19.0691 29.2706Z" fill=""/>
<path d="M37.9194 30.5926H29.781C29.523 30.5926 29.2844 30.4379 29.1748 30.1993C29.0716 29.9606 29.1168 29.6833 29.2909 29.4899L31.4125 27.1489C31.5351 27.0071 31.7156 26.9297 31.9027 26.9297H36.9263C37.1907 26.9297 37.4358 27.0909 37.5389 27.336L38.5256 29.6704C38.6159 29.8768 38.5966 30.109 38.474 30.296C38.3515 30.483 38.1387 30.5926 37.9194 30.5926ZM31.2771 29.2706H36.9199L36.4878 28.2581H32.1929L31.2771 29.2706Z" fill=""/>
</svg>
