<svg width="166" height="167" viewBox="0 0 166 167" fill="none" xmlns="http://www.w3.org/2000/svg">
<mask id="mask0_1148_3602" style="mask-type:luminance" maskUnits="userSpaceOnUse" x="0" y="35" width="132" height="132">
<path d="M0 35.6406H131.161V166.406H0V35.6406Z" fill="white"/>
</mask>
<g mask="url(#mask0_1148_3602)">
<path d="M130.219 142.734C130.219 143.505 130.182 144.281 130.104 145.052C130.031 145.823 129.917 146.589 129.766 147.349C129.615 148.109 129.427 148.865 129.203 149.604C128.974 150.349 128.714 151.078 128.417 151.792C128.12 152.51 127.792 153.208 127.427 153.891C127.057 154.578 126.661 155.24 126.229 155.885C125.797 156.531 125.339 157.151 124.844 157.75C124.354 158.349 123.833 158.927 123.286 159.474C122.74 160.021 122.161 160.542 121.562 161.031C120.964 161.526 120.344 161.99 119.698 162.417C119.052 162.849 118.391 163.245 117.703 163.615C117.021 163.979 116.323 164.307 115.604 164.604C114.891 164.901 114.161 165.161 113.417 165.391C112.677 165.615 111.922 165.802 111.161 165.953C110.401 166.104 109.635 166.219 108.865 166.292C108.094 166.37 107.318 166.406 106.542 166.406H23.6771C22.901 166.406 22.1302 166.37 21.3594 166.292C20.5833 166.219 19.8177 166.104 19.0573 165.953C18.2969 165.802 17.5469 165.615 16.8021 165.391C16.0625 165.161 15.3333 164.901 14.6146 164.604C13.901 164.307 13.1979 163.979 12.5156 163.615C11.8333 163.245 11.1667 162.849 10.526 162.417C9.88021 161.99 9.25521 161.526 8.65625 161.031C8.05729 160.542 7.48438 160.021 6.9375 159.474C6.38542 158.927 5.86979 158.349 5.375 157.75C4.88542 157.151 4.42187 156.531 3.98958 155.885C3.5625 155.24 3.16146 154.578 2.79688 153.891C2.43229 153.208 2.09896 152.51 1.80208 151.792C1.50521 151.078 1.24479 150.349 1.02083 149.604C0.796875 148.865 0.609376 148.109 0.458333 147.349C0.307292 146.589 0.192709 145.823 0.114583 145.052C0.041666 144.281 0 143.505 0 142.734V59.8646C0 59.0885 0.041666 58.3177 0.114583 57.5469C0.192709 56.7708 0.307292 56.0052 0.458333 55.2448C0.609376 54.4844 0.796875 53.7344 1.02083 52.9948C1.24479 52.25 1.50521 51.5208 1.80208 50.8073C2.09896 50.0885 2.43229 49.3906 2.79688 48.7031C3.16146 48.0208 3.5625 47.3542 3.98958 46.7135C4.42187 46.0677 4.88542 45.4427 5.375 44.8438C5.86979 44.2448 6.38542 43.6719 6.9375 43.125C7.48438 42.5729 8.05729 42.0573 8.65625 41.5625C9.25521 41.0729 9.88021 40.6094 10.526 40.1771C11.1667 39.75 11.8333 39.349 12.5156 38.9844C13.1979 38.6198 13.901 38.2865 14.6146 37.9896C15.3333 37.6927 16.0625 37.4323 16.8021 37.2083C17.5469 36.9844 18.2969 36.7969 19.0573 36.6458C19.8177 36.4948 20.5833 36.3802 21.3594 36.3021C22.1302 36.2292 22.901 36.1875 23.6771 36.1875V48.026C22.901 48.026 22.1302 48.1042 21.3698 48.2552C20.6042 48.4062 19.8646 48.6302 19.1458 48.9271C18.4271 49.224 17.7448 49.5885 17.099 50.0208C16.4531 50.4531 15.8542 50.9427 15.3073 51.4948C14.7552 52.0417 14.2656 52.6406 13.8333 53.2865C13.401 53.9323 13.0365 54.6146 12.7396 55.3333C12.4427 56.0521 12.2188 56.7917 12.0677 57.5573C11.9167 58.3177 11.8385 59.0885 11.8385 59.8646V142.734C11.8385 143.51 11.9167 144.281 12.0677 145.042C12.2188 145.802 12.4427 146.542 12.7396 147.26C13.0365 147.979 13.401 148.661 13.8333 149.307C14.2656 149.953 14.7552 150.552 15.3073 151.104C15.8542 151.651 16.4531 152.141 17.099 152.573C17.7448 153.005 18.4271 153.37 19.1458 153.667C19.8646 153.969 20.6042 154.193 21.3698 154.344C22.1302 154.495 22.901 154.568 23.6771 154.568H106.542C107.323 154.568 108.094 154.495 108.854 154.344C109.615 154.193 110.354 153.969 111.073 153.667C111.792 153.37 112.474 153.005 113.12 152.573C113.766 152.141 114.365 151.651 114.917 151.104C115.464 150.552 115.953 149.953 116.385 149.307C116.818 148.661 117.182 147.979 117.479 147.26C117.776 146.542 118.005 145.802 118.156 145.042C118.307 144.281 118.38 143.51 118.38 142.734H130.219Z" fill="#0F1738"/>
</g>
<mask id="mask1_1148_3602" style="mask-type:luminance" maskUnits="userSpaceOnUse" x="35" y="0" width="131" height="132">
<path d="M35.1621 0.679688H165.735V131.643H35.1621V0.679688Z" fill="white"/>
</mask>
<g mask="url(#mask1_1148_3602)">
<path d="M59.1937 12.5182C58.4176 12.5182 57.6468 12.5911 56.8812 12.7422C56.1208 12.8932 55.3812 13.1172 54.6624 13.4193C53.9437 13.7161 53.2614 14.0807 52.6156 14.513C51.9697 14.9401 51.3708 15.4349 50.8239 15.9818C50.2718 16.5339 49.7822 17.1328 49.3499 17.7786C48.9176 18.4245 48.5531 19.1068 48.2562 19.8255C47.9593 20.5391 47.7354 21.2839 47.5843 22.0443C47.4281 22.8047 47.3551 23.5755 47.3551 24.3516V107.221C47.3551 107.997 47.4281 108.768 47.5843 109.529C47.7354 110.294 47.9593 111.034 48.2562 111.753C48.5531 112.466 48.9176 113.148 49.3499 113.799C49.7822 114.445 50.2718 115.039 50.8239 115.591C51.3708 116.143 51.9697 116.633 52.6156 117.065C53.2614 117.497 53.9437 117.862 54.6624 118.159C55.3812 118.456 56.1208 118.68 56.8812 118.831C57.6468 118.982 58.4176 119.06 59.1937 119.06H142.058C142.834 119.06 143.605 118.982 144.371 118.831C145.131 118.68 145.871 118.456 146.59 118.159C147.308 117.862 147.991 117.497 148.636 117.065C149.282 116.633 149.881 116.143 150.428 115.591C150.98 115.039 151.47 114.445 151.902 113.799C152.334 113.148 152.699 112.466 152.996 111.753C153.293 111.034 153.517 110.294 153.668 109.529C153.824 108.768 153.897 107.997 153.897 107.221V24.3516C153.897 23.5755 153.824 22.8047 153.668 22.0443C153.517 21.2839 153.293 20.5391 152.996 19.8255C152.699 19.1068 152.334 18.4245 151.902 17.7786C151.47 17.1328 150.98 16.5339 150.428 15.9818C149.881 15.4349 149.282 14.9401 148.636 14.513C147.991 14.0807 147.308 13.7161 146.59 13.4193C145.871 13.1172 145.131 12.8932 144.371 12.7422C143.605 12.5911 142.834 12.5182 142.058 12.5182H59.1937ZM59.1937 0.679688H142.058C142.834 0.679688 143.61 0.716146 144.381 0.789062C145.152 0.867188 145.918 0.98177 146.678 1.13281C147.438 1.28385 148.188 1.47136 148.933 1.69531C149.673 1.92448 150.402 2.1849 151.121 2.48177C151.834 2.77865 152.537 3.10677 153.22 3.47135C153.902 3.84115 154.569 4.23698 155.215 4.66927C155.86 5.09635 156.48 5.5599 157.079 6.04948C157.678 6.54427 158.251 7.0651 158.803 7.61198C159.35 8.15886 159.871 8.73177 160.36 9.33594C160.855 9.9349 161.313 10.5547 161.746 11.2005C162.178 11.8464 162.574 12.5078 162.938 13.1953C163.303 13.8776 163.636 14.5755 163.933 15.2943C164.23 16.0078 164.491 16.737 164.715 17.4818C164.938 18.2214 165.131 18.9766 165.282 19.737C165.433 20.4974 165.548 21.263 165.621 22.0339C165.699 22.8047 165.735 23.5807 165.735 24.3516V107.221C165.735 107.997 165.699 108.768 165.621 109.539C165.548 110.315 165.433 111.081 165.282 111.841C165.131 112.602 164.938 113.352 164.715 114.091C164.491 114.836 164.23 115.565 163.933 116.279C163.636 116.997 163.303 117.695 162.938 118.383C162.574 119.065 162.178 119.732 161.746 120.372C161.313 121.018 160.855 121.643 160.36 122.242C159.871 122.841 159.35 123.414 158.803 123.961C158.251 124.508 157.678 125.029 157.079 125.523C156.48 126.013 155.86 126.477 155.215 126.909C154.569 127.336 153.902 127.737 153.22 128.102C152.537 128.466 151.834 128.799 151.121 129.096C150.402 129.393 149.673 129.654 148.933 129.878C148.188 130.102 147.438 130.289 146.678 130.44C145.918 130.591 145.152 130.706 144.381 130.784C143.61 130.857 142.834 130.898 142.058 130.898H59.1937C58.4176 130.898 57.6416 130.857 56.8708 130.784C56.0999 130.706 55.3343 130.591 54.5739 130.44C53.8135 130.289 53.0635 130.102 52.3187 129.878C51.5791 129.654 50.8499 129.393 50.1312 129.096C49.4176 128.799 48.7145 128.466 48.0322 128.102C47.3499 127.737 46.6833 127.336 46.0374 126.909C45.3916 126.477 44.7718 126.013 44.1729 125.523C43.5739 125.029 43.001 124.508 42.4489 123.961C41.902 123.414 41.3812 122.841 40.8916 122.242C40.3968 121.643 39.9385 121.018 39.5062 120.372C39.0739 119.732 38.6781 119.065 38.3135 118.383C37.9489 117.695 37.6156 116.997 37.3187 116.279C37.0218 115.565 36.7614 114.836 36.5374 114.091C36.3135 113.352 36.1208 112.602 35.9697 111.841C35.8187 111.081 35.7041 110.315 35.6312 109.539C35.5531 108.768 35.5166 107.997 35.5166 107.221V24.3516C35.5166 23.5807 35.5531 22.8047 35.6312 22.0339C35.7041 21.263 35.8187 20.4974 35.9697 19.737C36.1208 18.9766 36.3135 18.2214 36.5374 17.4818C36.7614 16.737 37.0218 16.0078 37.3187 15.2943C37.6156 14.5755 37.9489 13.8776 38.3135 13.1953C38.6781 12.5078 39.0739 11.8464 39.5062 11.2005C39.9385 10.5547 40.3968 9.9349 40.8916 9.33594C41.3812 8.73177 41.902 8.15886 42.4489 7.61198C43.001 7.0651 43.5739 6.54427 44.1729 6.04948C44.7718 5.5599 45.3916 5.09635 46.0374 4.66927C46.6833 4.23698 47.3499 3.84115 48.0322 3.47135C48.7145 3.10677 49.4176 2.77865 50.1312 2.48177C50.8499 2.1849 51.5791 1.92448 52.3187 1.69531C53.0635 1.47136 53.8135 1.28385 54.5739 1.13281C55.3343 0.98177 56.0999 0.867188 56.8708 0.789062C57.6416 0.716146 58.4176 0.679688 59.1937 0.679688Z" fill="#0F1738"/>
</g>
</svg>
