<svg width="12" height="13" viewBox="0 0 12 13" fill="none" xmlns="http://www.w3.org/2000/svg">
<path d="M4.79688 5.22656C4.73437 5.60156 4.69271 6.01823 4.6875 6.46094H7.23438C7.22396 6.01823 7.1875 5.60156 7.125 5.22656C6.75521 5.34115 6.35937 5.39844 5.95833 5.39844C5.55729 5.39844 5.16667 5.34115 4.79688 5.22656Z" fill="#0F1738"/>
<path d="M5.95833 7.95312C6.35937 7.95312 6.75521 8.01042 7.125 8.11979C7.1875 7.74479 7.22396 7.33333 7.23438 6.89062H4.6875C4.69271 7.33333 4.73437 7.74479 4.79688 8.11979C5.16667 8.01042 5.55729 7.95312 5.95833 7.95312Z" fill="#0F1738"/>
<path d="M5.95833 10.2865C6.36458 10.2865 6.80208 9.61979 7.04688 8.53646C6.69792 8.42708 6.33333 8.375 5.95833 8.375C5.58854 8.375 5.22396 8.42708 4.875 8.53646C5.11979 9.61979 5.55729 10.2865 5.95833 10.2865Z" fill="#0F1738"/>
<path d="M7.44792 8.6875C7.38021 8.96354 7.30208 9.22396 7.21354 9.45833C7.09896 9.74479 6.96875 9.98958 6.82812 10.1823C7.42708 10.0365 7.96875 9.73438 8.41146 9.32812C8.11979 9.0625 7.79688 8.84896 7.44792 8.6875Z" fill="#0F1738"/>
<path d="M2.34863 6.89062C2.39551 7.70312 2.71322 8.44792 3.21322 9.03125C3.56217 8.70312 3.95801 8.44792 4.3903 8.26562C4.31217 7.83333 4.27051 7.36979 4.26009 6.89062H2.34863Z" fill="#0F1738"/>
<path d="M3.21322 4.32031C2.71322 4.90365 2.39551 5.64844 2.34863 6.46094H4.26009C4.27051 5.98177 4.31217 5.51302 4.3903 5.08073C3.95801 4.90365 3.56217 4.64323 3.21322 4.32031Z" fill="#0F1738"/>
<path d="M9.57292 6.89062H7.66146C7.65104 7.36979 7.60417 7.83333 7.53125 8.26562C7.95833 8.44792 8.35937 8.70312 8.70833 9.03125C9.20833 8.44792 9.52604 7.70312 9.57292 6.89062Z" fill="#0F1738"/>
<path d="M4.4738 8.6875C4.12484 8.84896 3.79671 9.0625 3.51025 9.32812C3.95296 9.73438 4.49463 10.0365 5.09359 10.1823C4.95296 9.98958 4.82275 9.74479 4.70817 9.45833C4.61963 9.22396 4.5415 8.96354 4.4738 8.6875Z" fill="#0F1738"/>
<mask id="mask0_818_18708" style="mask-type:luminance" maskUnits="userSpaceOnUse" x="0" y="9" width="6" height="4">
<path d="M0 9.40625H5.18229V12.0729H0V9.40625Z" fill="white"/>
</mask>
<g mask="url(#mask0_818_18708)">
<path d="M1.27604 10.9297H1.73958C1.82812 10.6797 2.0625 10.5026 2.34375 10.5026C2.61979 10.5026 2.85417 10.6797 2.94271 10.9297H3.40625V11.3568H2.94271C2.85417 11.6016 2.61979 11.7839 2.34375 11.7839C2.0625 11.7839 1.82812 11.6016 1.73958 11.3568H1.27604V10.9297ZM0.640625 10.6797V11.6068C0.822917 11.6693 0.963542 11.8151 1.03125 11.9922H3.65625C3.71875 11.8151 3.86458 11.6693 4.04688 11.6068V10.2891H1.03125C0.963542 10.4714 0.822917 10.6172 0.640625 10.6797Z" fill="#0F1738"/>
</g>
<mask id="mask1_818_18708" style="mask-type:luminance" maskUnits="userSpaceOnUse" x="0" y="9" width="6" height="4">
<path d="M0 9.40625H5.18229V12.6979H0V9.40625Z" fill="white"/>
</mask>
<g mask="url(#mask1_818_18708)">
<path d="M4.46875 11.7865C4.46875 11.901 4.375 11.9948 4.26042 11.9948C4.14062 11.9948 4.04688 12.0938 4.04688 12.2083C4.04688 12.3281 3.94792 12.4219 3.83333 12.4219H0.854167C0.734375 12.4219 0.640625 12.3281 0.640625 12.2083C0.640625 12.0938 0.546875 11.9948 0.427083 11.9948C0.307291 11.9948 0.213542 11.901 0.213542 11.7865V10.5052C0.213542 10.3906 0.307291 10.2917 0.427083 10.2917C0.546875 10.2917 0.640625 10.1979 0.640625 10.0833C0.640625 9.96354 0.734375 9.86979 0.854167 9.86979H3.47917C3.39583 9.80208 3.3125 9.72917 3.22917 9.65625H0V12.6354H4.68229V10.5104C4.60937 10.4896 4.54167 10.4635 4.46875 10.4375V11.7865Z" fill="#0F1738"/>
</g>
<path d="M8.70833 4.32031C8.35937 4.64323 7.95833 4.90365 7.53125 5.08073C7.60417 5.51302 7.65104 5.98177 7.66146 6.46094H9.57292C9.52604 5.64844 9.20833 4.90365 8.70833 4.32031Z" fill="#0F1738"/>
<path d="M2.34342 11.3568C2.45801 11.3568 2.55697 11.2578 2.55697 11.1432C2.55697 11.0234 2.45801 10.9297 2.34342 10.9297C2.22363 10.9297 2.12988 11.0234 2.12988 11.1432C2.12988 11.2578 2.22363 11.3568 2.34342 11.3568Z" fill="#0F1738"/>
<mask id="mask2_818_18708" style="mask-type:luminance" maskUnits="userSpaceOnUse" x="0" y="0" width="7" height="10">
<path d="M0 0.71875H6.51562V9.40625H0V0.71875Z" fill="white"/>
</mask>
<g mask="url(#mask2_818_18708)">
<path d="M0.854004 8.79948C0.921713 8.79948 0.984212 8.76823 1.02067 8.71615L1.6613 7.86719L1.32275 7.61198L1.06755 7.95052V6.2474C1.06755 3.78385 3.07275 1.77865 5.5363 1.77865H6.38525V1.35156H5.5363C2.83317 1.35156 0.640462 3.54948 0.640462 6.2474V7.95052L0.385254 7.61198L0.0415039 7.86719L0.682129 8.71615C0.723796 8.76823 0.786296 8.79948 0.854004 8.79948Z" fill="#0F1738"/>
</g>
<mask id="mask3_818_18708" style="mask-type:luminance" maskUnits="userSpaceOnUse" x="5" y="4" width="7" height="9">
<path d="M5.18213 4.07031H11.9842V12.0703H5.18213V4.07031Z" fill="white"/>
</mask>
<g mask="url(#mask3_818_18708)">
<path d="M11.0674 4.54688C10.9997 4.54688 10.9372 4.57812 10.8955 4.63542L10.2601 5.48438L10.5986 5.73958L10.8538 5.40104V7.10417C10.8538 9.56771 8.84863 11.5729 6.38509 11.5729H5.53613V11.9948H6.38509C9.08301 11.9948 11.2809 9.80208 11.2809 7.10417V5.40104L11.5361 5.73958L11.8747 5.48438L11.2393 4.63542C11.1976 4.57812 11.1351 4.54688 11.0674 4.54688Z" fill="#0F1738"/>
</g>
</svg>
