<svg width="32" height="32" viewBox="0 0 32 32" fill="none" xmlns="http://www.w3.org/2000/svg">
<mask id="mask0_781_10358" style="mask-type:luminance" maskUnits="userSpaceOnUse" x="0" y="0" width="32" height="32">
<path d="M0.515625 0.867188H31.4635V31.8203H0.515625V0.867188Z" fill="white"/>
</mask>
<g mask="url(#mask0_781_10358)">
<path d="M31.328 6.01302C31.2811 5.41406 31.1353 4.84115 30.8853 4.29427C30.6353 3.7474 30.2967 3.26302 29.8696 2.83594C29.4478 2.41406 28.9634 2.07552 28.4165 1.82552C27.8696 1.57552 27.2967 1.42448 26.6978 1.38281C19.6821 0.882812 12.6717 0.882812 5.65609 1.38281C5.05713 1.42448 4.48421 1.57552 3.93734 1.82552C3.39567 2.07552 2.90609 2.41406 2.48421 2.83594C2.05713 3.26302 1.71859 3.7474 1.46859 4.29427C1.21859 4.84115 1.07275 5.41406 1.02588 6.01302C0.531087 13.0234 0.531087 20.0391 1.02588 27.0495C1.07275 27.6484 1.21859 28.2214 1.46859 28.7682C1.71859 29.3151 2.05713 29.7995 2.48421 30.2266C2.90609 30.6484 3.39567 30.987 3.93734 31.237C4.48421 31.487 5.05713 31.638 5.65609 31.6797C12.6717 32.1797 19.6821 32.1797 26.6978 31.6797C27.2967 31.638 27.8696 31.487 28.4165 31.237C28.9634 30.987 29.4478 30.6484 29.8696 30.2266C30.2967 29.7995 30.6353 29.3151 30.8853 28.7682C31.1353 28.2214 31.2811 27.6484 31.328 27.0495C31.8228 20.0391 31.8228 13.0234 31.328 6.01302ZM10.5207 11.8672L15.4738 6.90885C15.6717 6.72135 15.9061 6.6224 16.1769 6.6224C16.4478 6.6224 16.6821 6.72135 16.88 6.90885L21.8332 11.8672C22.0259 12.0599 22.1248 12.2943 22.1248 12.5651C22.1248 12.8411 22.0259 13.0755 21.8332 13.2682C21.6405 13.4557 21.4061 13.5495 21.1353 13.5495C20.8592 13.5495 20.63 13.4557 20.4321 13.2682L17.1665 10.0026V21.487C17.1665 21.763 17.0728 21.9974 16.88 22.1901C16.6873 22.3828 16.453 22.4766 16.1769 22.4766C15.9061 22.4766 15.6717 22.3828 15.479 22.1901C15.2811 21.9974 15.1873 21.763 15.1873 21.487V10.0026L11.9217 13.2682C11.729 13.4557 11.4946 13.5495 11.2238 13.5443C10.953 13.5443 10.7238 13.4453 10.5311 13.2526C10.3436 13.0651 10.2446 12.8307 10.2394 12.5651C10.2394 12.2943 10.3332 12.0599 10.5207 11.8672ZM23.1144 26.4453H9.23942C8.96338 26.4453 8.729 26.3464 8.5363 26.1536C8.34359 25.9609 8.24463 25.7266 8.24984 25.4505C8.24463 25.1797 8.34359 24.9453 8.5363 24.7526C8.729 24.5599 8.96338 24.4609 9.23942 24.4609H23.1144C23.3905 24.4609 23.6248 24.5599 23.8175 24.7526C24.0103 24.9453 24.1092 25.1797 24.1092 25.4505C24.1092 25.7266 24.0103 25.9609 23.8175 26.1536C23.6248 26.3464 23.3905 26.4453 23.1144 26.4453Z" fill="#0F1738"/>
</g>
</svg>
