<svg width="51" height="52" viewBox="0 0 51 52" fill="none" xmlns="http://www.w3.org/2000/svg">
<mask id="mask0_605_3933" style="mask-type:luminance" maskUnits="userSpaceOnUse" x="0" y="0" width="51" height="52">
<path d="M0 0H50.0522V51.4073H0V0Z" fill="white"/>
</mask>
<g mask="url(#mask0_605_3933)">
<path d="M48.2035 27.6447H47.3213V21.2223C47.3213 20.9612 47.2719 20.7071 47.1731 20.4672C47.0743 20.2202 46.9261 20.0084 46.7426 19.8179C46.5591 19.6344 46.3403 19.4932 46.1003 19.3944C45.8604 19.2886 45.6063 19.2392 45.3452 19.2392H43.5808V11.5817C43.5808 11.3559 43.5031 11.1653 43.3479 11.003L32.9733 0.437798C32.8109 0.247245 32.5992 0.155495 32.3522 0.148438H6.91672C6.69088 0.148438 6.49327 0.233128 6.338 0.395452C6.17568 0.557775 6.09099 0.748331 6.09099 0.974173V19.2533H4.30543C4.0443 19.2533 3.79022 19.3027 3.54321 19.4085C3.30325 19.5073 3.09153 19.6485 2.90097 19.832C2.71747 20.0225 2.57632 20.2343 2.47046 20.4742C2.37165 20.7212 2.32225 20.9753 2.32225 21.2364V30.3195H2.00466C1.74353 30.3195 1.48946 30.3689 1.2495 30.4748C1.00249 30.5736 0.79076 30.7148 0.607262 30.8982C0.416708 31.0888 0.275556 31.3005 0.176751 31.5405C0.077944 31.7875 0.0214844 32.0416 0.0214844 32.3027C0.0214844 32.3027 0.0214844 32.3733 0.0214844 32.4156L2.30814 49.3961C2.32931 49.9325 2.53398 50.3842 2.91509 50.7512C3.29619 51.1182 3.75493 51.3087 4.29131 51.3087H45.3522C45.8886 51.3087 46.3473 51.1252 46.7284 50.7512C47.1096 50.3842 47.3142 49.9325 47.3354 49.4032L50.1796 29.7337C50.1866 29.6914 50.1866 29.6561 50.1796 29.6138C50.1796 29.3526 50.1302 29.0986 50.0243 28.8586C49.9255 28.6187 49.7844 28.4069 49.5938 28.2234C49.4103 28.0399 49.1986 27.8988 48.9586 27.7929C48.7116 27.6941 48.4646 27.6447 48.2035 27.6447ZM3.95961 30.3195V21.2223C3.96666 21.0177 4.07253 20.9118 4.2772 20.9047H6.06982V30.3195H3.95961ZM28.1388 28.0329L26.7344 30.3195H7.74246V1.79991H31.5476V11.5817C31.5547 11.8005 31.6394 11.984 31.7946 12.1392C31.9499 12.2945 32.1334 12.3721 32.3522 12.3792H41.9152V27.6447H28.8728C28.5623 27.6447 28.3294 27.7717 28.1671 28.0329H28.1388ZM43.5808 27.6447V20.9047H45.3663C45.5781 20.9118 45.6839 21.0177 45.6839 21.2223V27.6447H43.5808Z" fill=""/>
</g>
</svg>
