<svg width="21" height="21" viewBox="0 0 21 21" fill="none" xmlns="http://www.w3.org/2000/svg">
<mask id="mask0_818_21862" style="mask-type:luminance" maskUnits="userSpaceOnUse" x="0" y="0" width="21" height="21">
<path d="M0.0576172 0.390625H20.0264V20.3385H0.0576172V0.390625Z" fill="white"/>
</mask>
<g mask="url(#mask0_818_21862)">
<path d="M0.0576172 16.901V14.6979C0.0576172 14.0885 0.55241 13.599 1.15658 13.599C1.76595 13.599 2.26074 14.0885 2.26074 14.6979V16.901C2.26074 17.5052 2.75033 18 3.3597 18H16.568C17.1774 18 17.667 17.5052 17.667 16.901V14.6979C17.667 14.0885 18.1618 13.599 18.7712 13.599C19.3753 13.599 19.8701 14.0885 19.8701 14.6979V16.901C19.8701 18.7188 18.391 20.2031 16.568 20.2031H3.3597C1.53678 20.2031 0.0576172 18.7188 0.0576172 16.901ZM3.68262 6.21354C3.25033 6.64583 3.25033 7.33854 3.68262 7.77083L9.18783 13.276C9.40137 13.4896 9.68262 13.599 9.96387 13.599C10.2451 13.599 10.5264 13.4896 10.7399 13.276L16.2451 7.77083C16.6774 7.33854 16.6774 6.64583 16.2451 6.21354C15.8128 5.78646 15.1201 5.78646 14.6878 6.21354L11.0628 9.83854V1.48958C11.0628 0.880209 10.5732 0.390625 9.96387 0.390625C9.35449 0.390625 8.86491 0.880209 8.86491 1.48958V9.83854L5.23991 6.21354C4.80762 5.78646 4.1097 5.78646 3.68262 6.21354Z" fill="#B1E94F"/>
</g>
</svg>
