<svg width="31" height="31" viewBox="0 0 31 31" fill="none" xmlns="http://www.w3.org/2000/svg">
<path d="M19.2728 28.1028H11.0381C4.83684 28.1028 2.18457 25.4505 2.18457 19.2492V19.0851C2.18457 13.4774 4.3948 10.7746 9.34571 10.3073C9.8509 10.2694 10.3308 10.6483 10.3814 11.1661C10.4319 11.684 10.053 12.1513 9.52252 12.2018C5.55675 12.568 4.07905 14.4373 4.07905 19.0977V19.2619C4.07905 24.4022 5.89775 26.2209 11.0381 26.2209H19.2728C24.4131 26.2209 26.2318 24.4022 26.2318 19.2619V19.0977C26.2318 14.412 24.7289 12.5428 20.6873 12.2018C20.1695 12.1513 19.778 11.6966 19.8285 11.1788C19.879 10.6609 20.3211 10.2694 20.8515 10.3199C25.8782 10.7493 28.1263 13.4648 28.1263 19.1103V19.2745C28.1263 25.4505 25.474 28.1028 19.2728 28.1028Z" fill="#FEFEFE"/>
<path d="M15.1562 19.7399C14.6384 19.7399 14.209 19.3105 14.209 18.7926V2.52537C14.209 2.00754 14.6384 1.57812 15.1562 1.57812C15.674 1.57812 16.1035 2.00754 16.1035 2.52537V18.7926C16.1035 19.3231 15.674 19.7399 15.1562 19.7399Z" fill="#FEFEFE"/>
<path d="M15.1556 21.1536C14.9156 21.1536 14.6756 21.0652 14.4862 20.8757L10.2552 16.6447C9.8889 16.2785 9.8889 15.6722 10.2552 15.3059C10.6214 14.9397 11.2277 14.9397 11.5939 15.3059L15.1556 18.8676L18.7172 15.3059C19.0834 14.9397 19.6897 14.9397 20.0559 15.3059C20.4222 15.6722 20.4222 16.2785 20.0559 16.6447L15.8249 20.8757C15.6355 21.0652 15.3955 21.1536 15.1556 21.1536Z" fill="#FEFEFE"/>
</svg>
