<svg width="48" height="33" viewBox="0 0 48 33" fill="none" xmlns="http://www.w3.org/2000/svg">
<mask id="mask0_778_6047" style="mask-type:luminance" maskUnits="userSpaceOnUse" x="0" y="0" width="48" height="33">
<path d="M0.15625 0.65625H47.0781V32.6042H0.15625V0.65625Z" fill="white"/>
</mask>
<g mask="url(#mask0_778_6047)">
<path d="M5.21875 0.65625C2.44271 0.65625 0.171875 2.92708 0.171875 5.70312V27.9167C0.171875 30.6927 2.44271 32.9635 5.21875 32.9635H41.5677C44.3438 32.9635 46.6146 30.6927 46.6146 27.9167V5.70312C46.6146 2.92708 44.3438 0.65625 41.5677 0.65625H5.21875ZM5.21875 2.67708H41.5677C43.25 2.67708 44.5938 4.02083 44.5938 5.70312V27.9167C44.5938 29.599 43.25 30.9427 41.5677 30.9427H5.21875C3.53646 30.9427 2.19271 29.599 2.19271 27.9167V5.70312C2.19271 4.02083 3.53646 2.67708 5.21875 2.67708ZM21.375 3.6875C20.8177 3.6875 20.3646 4.14063 20.3646 4.69271C20.3646 5.25 20.8177 5.70312 21.375 5.70312C21.9271 5.70312 22.3802 5.25 22.3802 4.69271C22.3802 4.14063 21.9271 3.6875 21.375 3.6875ZM11.7188 5.70312C9.15625 5.70312 8.20312 7.69792 8.94271 9.39583C8.84896 9.45313 8.71354 9.63021 8.75521 9.96354C8.82292 10.5833 9.06771 10.7396 9.22396 10.7552C9.28646 11.3333 9.65625 12.0365 9.85938 12.1406C9.85938 12.5573 9.86458 12.8542 9.82812 13.3073C9.34896 14.6302 6.38021 14.2604 6.22917 16.8125H16.3229C16.1771 14.2604 12.9896 14.6302 12.5052 13.3073C12.4688 12.8542 12.474 12.5573 12.474 12.1406C12.6771 12.0365 13.0469 11.3333 13.1094 10.7552C13.2656 10.7396 13.5104 10.5833 13.5781 9.96354C13.6198 9.63021 13.4844 9.43229 13.3594 9.39583C13.8333 8.77604 13.7552 6.27083 11.9688 6.27083L11.7188 5.70312ZM21.375 6.71354C20.8177 6.71354 20.3646 7.16667 20.3646 7.72396C20.3646 8.28125 20.8177 8.73438 21.375 8.73438C21.9271 8.73438 22.3802 8.28125 22.3802 7.72396C22.3802 7.16667 21.9271 6.71354 21.375 6.71354ZM21.375 9.74479C20.8177 9.74479 20.3646 10.1979 20.3646 10.7552C20.3646 11.3073 20.8177 11.7604 21.375 11.7604C21.9271 11.7604 22.3802 11.3073 22.3802 10.7552C22.3802 10.1979 21.9271 9.74479 21.375 9.74479ZM26.2344 9.74479C25.6771 9.79688 25.2656 10.2917 25.3177 10.849C25.3698 11.401 25.8646 11.8125 26.4219 11.7604H39.5469C39.9062 11.7656 40.25 11.5781 40.4323 11.2604C40.6146 10.9479 40.6146 10.5573 40.4323 10.2448C40.25 9.92708 39.9062 9.73958 39.5469 9.74479H26.4219C26.3906 9.74479 26.3594 9.74479 26.3281 9.74479C26.2969 9.74479 26.2656 9.74479 26.2344 9.74479ZM21.375 12.7708C20.8177 12.7708 20.3646 13.224 20.3646 13.7812C20.3646 14.3385 20.8177 14.7917 21.375 14.7917C21.9271 14.7917 22.3802 14.3385 22.3802 13.7812C22.3802 13.224 21.9271 12.7708 21.375 12.7708ZM26.2344 13.7812C25.6771 13.8333 25.2656 14.3281 25.3177 14.8854C25.3698 15.4427 25.8646 15.8542 26.4219 15.8021H36.5156C36.8802 15.8021 37.2188 15.6146 37.4062 15.3021C37.5833 14.9844 37.5833 14.599 37.4062 14.2812C37.2188 13.9688 36.8802 13.776 36.5156 13.7812H26.4219C26.3906 13.7812 26.3594 13.7812 26.3281 13.7812C26.2969 13.7812 26.2656 13.7812 26.2344 13.7812ZM21.375 15.8021C20.8177 15.8021 20.3646 16.2552 20.3646 16.8125C20.3646 17.3646 20.8177 17.8177 21.375 17.8177C21.9271 17.8177 22.3802 17.3646 22.3802 16.8125C22.3802 16.2552 21.9271 15.8021 21.375 15.8021ZM26.2344 17.8177C25.6771 17.8698 25.2656 18.3698 25.3177 18.9219C25.3698 19.4792 25.8646 19.8906 26.4219 19.8385H39.5469C39.9062 19.8438 40.25 19.6562 40.4323 19.3385C40.6146 19.0208 40.6146 18.6354 40.4323 18.3229C40.25 18.0052 39.9062 17.8177 39.5469 17.8177H26.4219C26.3906 17.8177 26.3594 17.8177 26.3281 17.8177C26.2969 17.8177 26.2656 17.8177 26.2344 17.8177ZM8.97396 18.8281C8.10938 18.8281 7.32292 19.3958 7.04688 20.2188L6.29167 22.5521L6.22917 22.7083V27.4115C6.22917 27.6927 6.45312 27.9167 6.73438 27.9167H7.74479C8.02083 27.9167 8.25 27.6927 8.25 27.4115V26.9062H14.3073V27.4115C14.3073 27.6927 14.5312 27.9167 14.8125 27.9167H15.8177C16.099 27.9167 16.3229 27.6927 16.3229 27.4115V22.7083L16.2604 22.5521L15.5052 20.2188C15.2344 19.3958 14.4427 18.8281 13.5781 18.8281H8.97396ZM21.375 18.8281C20.8177 18.8281 20.3646 19.2812 20.3646 19.8385C20.3646 20.3958 20.8177 20.849 21.375 20.849C21.9271 20.849 22.3802 20.3958 22.3802 19.8385C22.3802 19.2812 21.9271 18.8281 21.375 18.8281ZM8.97396 20.849H13.5781L14.276 22.8698H8.28125L8.97396 20.849ZM21.375 21.8594C20.8177 21.8594 20.3646 22.3125 20.3646 22.8698C20.3646 23.4219 20.8177 23.875 21.375 23.875C21.9271 23.875 22.3802 23.4219 22.3802 22.8698C22.3802 22.3125 21.9271 21.8594 21.375 21.8594ZM26.2344 21.8594C25.6771 21.9115 25.2656 22.4062 25.3177 22.9635C25.3698 23.5208 25.8646 23.9271 26.4219 23.875H36.5156C36.8802 23.8802 37.2188 23.6927 37.4062 23.375C37.5833 23.0625 37.5833 22.6771 37.4062 22.3594C37.2188 22.0417 36.8802 21.8542 36.5156 21.8594H26.4219C26.3906 21.8594 26.3594 21.8594 26.3281 21.8594C26.2969 21.8594 26.2656 21.8594 26.2344 21.8594ZM8.25 23.875C8.80208 23.875 9.26042 24.3333 9.26042 24.8854C9.26042 25.4427 8.80208 25.8958 8.25 25.8958C7.69271 25.8958 7.23958 25.4427 7.23958 24.8854C7.23958 24.3333 7.69271 23.875 8.25 23.875ZM14.3073 23.875C14.8594 23.875 15.3177 24.3333 15.3177 24.8854C15.3177 25.4427 14.8594 25.8958 14.3073 25.8958C13.75 25.8958 13.2969 25.4427 13.2969 24.8854C13.2969 24.3333 13.75 23.875 14.3073 23.875ZM21.375 24.8854C20.8177 24.8854 20.3646 25.3385 20.3646 25.8958C20.3646 26.4531 20.8177 26.9062 21.375 26.9062C21.9271 26.9062 22.3802 26.4531 22.3802 25.8958C22.3802 25.3385 21.9271 24.8854 21.375 24.8854ZM21.375 27.9167C20.8177 27.9167 20.3646 28.3698 20.3646 28.9271C20.3646 29.4792 20.8177 29.9375 21.375 29.9375C21.9271 29.9375 22.3802 29.4792 22.3802 28.9271C22.3802 28.3698 21.9271 27.9167 21.375 27.9167Z" fill="#0F1738"/>
</g>
</svg>
