<svg width="11" height="11" viewBox="0 0 11 11" fill="none" xmlns="http://www.w3.org/2000/svg">
<mask id="mask0_818_18739" style="mask-type:luminance" maskUnits="userSpaceOnUse" x="0" y="0" width="11" height="11">
<path d="M0.8125 0.09375H10.7969V10.0781H0.8125V0.09375Z" fill="white"/>
</mask>
<g mask="url(#mask0_818_18739)">
<path d="M5.95833 0.09375C3.11979 0.09375 0.8125 2.39583 0.8125 5.23958C0.8125 8.08333 3.11979 10.3906 5.95833 10.3906C8.80208 10.3906 11.1094 8.08333 11.1094 5.23958C11.1094 2.39583 8.80208 0.09375 5.95833 0.09375ZM5.95833 0.666667C8.49479 0.666667 10.5365 2.70833 10.5365 5.23958C10.5365 7.77604 8.49479 9.81771 5.95833 9.81771C3.42708 9.81771 1.38542 7.77604 1.38542 5.23958C1.38542 2.70833 3.42708 0.666667 5.95833 0.666667ZM5.67188 2.09375V2.72396C5.21875 2.78125 4.38542 3.18229 4.38542 4.15104C4.38542 5.98438 7.04688 5.04167 7.04688 6.41146C7.04688 6.86979 6.84896 7.29688 5.95833 7.29688C5.07292 7.29688 4.81771 6.61458 4.81771 6.23958H4.24479C4.32812 7.46875 5.1875 7.75521 5.67188 7.84375V8.38542H6.24479V7.84375C6.67708 7.8125 7.67708 7.5 7.67708 6.35417C7.67708 5.41146 6.90104 5.15625 6.16146 4.98438C5.55729 4.83854 5.01562 4.69792 5.01562 4.09896C5.01562 3.83854 5.13021 3.26562 5.98958 3.26562C6.58854 3.26562 6.875 3.64062 6.96354 4.09896H7.53125C7.35937 3.46875 7.07292 2.89583 6.24479 2.75V2.09375H5.67188Z" fill="#0F1738"/>
</g>
</svg>
