<svg width="31" height="31" viewBox="0 0 31 31" fill="none" xmlns="http://www.w3.org/2000/svg">
<path d="M19.2728 28.1028H11.0381C4.83684 28.1028 2.18457 25.4505 2.18457 19.2492V19.0851C2.18457 13.4774 4.3948 10.7746 9.34571 10.3073C9.8509 10.2694 10.3308 10.6483 10.3814 11.1661C10.4319 11.684 10.053 12.1513 9.52252 12.2018C5.55675 12.568 4.07905 14.4373 4.07905 19.0977V19.2619C4.07905 24.4022 5.89775 26.2209 11.0381 26.2209H19.2728C24.4131 26.2209 26.2318 24.4022 26.2318 19.2619V19.0977C26.2318 14.412 24.7289 12.5428 20.6873 12.2018C20.1695 12.1513 19.778 11.6966 19.8285 11.1788C19.879 10.6609 20.3211 10.2694 20.8515 10.3199C25.8782 10.7493 28.1263 13.4648 28.1263 19.1103V19.2745C28.1263 25.4505 25.474 28.1028 19.2728 28.1028Z" fill="#FEFEFE"/>
<path d="M15.1562 19.8923C14.6384 19.8923 14.209 19.4629 14.209 18.945V4.57224C14.209 4.05442 14.6384 3.625 15.1562 3.625C15.674 3.625 16.1035 4.05442 16.1035 4.57224V18.945C16.1035 19.4629 15.674 19.8923 15.1562 19.8923Z" fill="#FEFEFE"/>
<path d="M19.3866 8.33327C19.1466 8.33327 18.9066 8.24486 18.7172 8.05541L15.1556 4.49379L11.5939 8.05541C11.2277 8.42168 10.6214 8.42168 10.2552 8.05541C9.8889 7.68914 9.8889 7.08291 10.2552 6.71664L14.4862 2.48564C14.8524 2.11937 15.4587 2.11937 15.8249 2.48564L20.0559 6.71664C20.4222 7.08291 20.4222 7.68914 20.0559 8.05541C19.8791 8.24486 19.6265 8.33327 19.3866 8.33327Z" fill="#FEFEFE"/>
</svg>
