<svg width="38" height="24" viewBox="0 0 38 24" fill="none" xmlns="http://www.w3.org/2000/svg">
<mask id="mask0_778_5499" style="mask-type:luminance" maskUnits="userSpaceOnUse" x="5" y="3" width="33" height="21">
<path d="M5.53125 3.86719H37.9375V23.9609H5.53125V3.86719Z" fill="white"/>
</mask>
<g mask="url(#mask0_778_5499)">
<path fill-rule="evenodd" clip-rule="evenodd" d="M36.6979 24.1302H6.82812C6.23438 24.1302 5.75 23.6458 5.75 23.0469V5.39583C5.75 4.80208 6.23438 4.3125 6.82812 4.3125H36.6979C37.2969 4.3125 37.7812 4.80208 37.7812 5.39583V23.0469C37.7812 23.6458 37.2969 24.1302 36.6979 24.1302ZM6.82812 5.19792C6.72396 5.19792 6.63542 5.29167 6.63542 5.39583V23.0469C6.63542 23.151 6.72396 23.2448 6.82812 23.2448H36.6979C36.8073 23.2448 36.8958 23.151 36.8958 23.0469V5.39583C36.8958 5.29167 36.8073 5.19792 36.6979 5.19792H6.82812Z" fill="#0F1738"/>
</g>
<mask id="mask1_778_5499" style="mask-type:luminance" maskUnits="userSpaceOnUse" x="0" y="0" width="33" height="20">
<path d="M0 0H32.1979V19.8646H0V0Z" fill="white"/>
</mask>
<g mask="url(#mask1_778_5499)">
<path fill-rule="evenodd" clip-rule="evenodd" d="M6.19303 19.8177H1.07845C0.484701 19.8177 -0.00488281 19.3281 -0.00488281 18.7344V1.08333C-0.00488281 0.489584 0.484701 0 1.07845 0H30.9482C31.5472 0 32.0316 0.489584 32.0316 1.08333V4.75521C32.0316 5 31.8337 5.19792 31.5889 5.19792C31.3441 5.19792 31.1462 5 31.1462 4.75521V1.08333C31.1462 0.979168 31.0576 0.885417 30.9482 0.885417H1.07845C0.974284 0.885417 0.885742 0.979168 0.885742 1.08333V18.7344C0.885742 18.8385 0.974284 18.9323 1.07845 18.9323H6.19303C6.43783 18.9323 6.63574 19.1302 6.63574 19.375C6.63574 19.6146 6.43783 19.8177 6.19303 19.8177Z" fill="#0F1738"/>
</g>
<path fill-rule="evenodd" clip-rule="evenodd" d="M20.1094 20.4953H9.28646C9.04167 20.4953 8.84375 20.2922 8.84375 20.0526V19.7609C8.84375 17.6568 9.98958 15.6984 11.8333 14.6568C12.0313 14.5474 12.2865 14.6047 12.4167 14.7922C12.9323 15.5422 13.7865 15.9901 14.6979 15.9901C15.6042 15.9901 16.4583 15.5422 16.9792 14.7922C17.1094 14.6047 17.3594 14.5474 17.5573 14.6568C19.4063 15.6984 20.5521 17.6568 20.5521 19.7609V20.0526C20.5521 20.2922 20.3542 20.4953 20.1094 20.4953ZM9.72917 19.6047H19.6615C19.6146 18.0057 18.7812 16.5213 17.4479 15.6307C16.7552 16.4172 15.7552 16.8755 14.6979 16.8755C13.6354 16.8755 12.6354 16.4172 11.9479 15.6307C10.6094 16.5213 9.78125 18.0057 9.72917 19.6047Z" fill="#0F1738"/>
<path fill-rule="evenodd" clip-rule="evenodd" d="M14.6768 14.7734C12.7965 14.7734 11.2705 13.2474 11.2705 11.3672C11.2705 9.48698 12.7965 7.96094 14.6768 7.96094C16.557 7.96094 18.083 9.48698 18.083 11.3672C18.083 13.2474 16.557 14.7734 14.6768 14.7734ZM14.6768 8.84635C13.2861 8.84635 12.1559 9.97656 12.1559 11.3672C12.1559 12.7578 13.2861 13.888 14.6768 13.888C16.0674 13.888 17.1976 12.7578 17.1976 11.3672C17.1976 9.97656 16.0674 8.84635 14.6768 8.84635Z" fill="#0F1738"/>
<path fill-rule="evenodd" clip-rule="evenodd" d="M34.2445 11.1042H23.3538C23.1143 11.1042 22.9111 10.9063 22.9111 10.6615C22.9111 10.4167 23.1143 10.2188 23.3538 10.2188H34.2445C34.4893 10.2188 34.6872 10.4167 34.6872 10.6615C34.6872 10.9063 34.4893 11.1042 34.2445 11.1042Z" fill="#0F1738"/>
<path fill-rule="evenodd" clip-rule="evenodd" d="M34.2445 14.6667H23.3538C23.1143 14.6667 22.9111 14.4688 22.9111 14.224C22.9111 13.9792 23.1143 13.7812 23.3538 13.7812H34.2445C34.4893 13.7812 34.6872 13.9792 34.6872 14.224C34.6872 14.4688 34.4893 14.6667 34.2445 14.6667Z" fill="#0F1738"/>
<path fill-rule="evenodd" clip-rule="evenodd" d="M34.2445 18.2292H23.3538C23.1143 18.2292 22.9111 18.0313 22.9111 17.7865C22.9111 17.5417 23.1143 17.3438 23.3538 17.3438H34.2445C34.4893 17.3438 34.6872 17.5417 34.6872 17.7865C34.6872 18.0313 34.4893 18.2292 34.2445 18.2292Z" fill="#0F1738"/>
</svg>
