<svg width="26" height="27" viewBox="0 0 26 27" fill="none" xmlns="http://www.w3.org/2000/svg">
<mask id="mask0_778_5516" style="mask-type:luminance" maskUnits="userSpaceOnUse" x="0" y="8" width="26" height="19">
<path d="M0 8.57812H25.9583V26.9583H0V8.57812Z" fill="white"/>
</mask>
<g mask="url(#mask0_778_5516)">
<path d="M22.6201 9.25781H19.8285C19.4899 9.94531 19.0472 10.5859 18.5107 11.1328H22.6201C23.4222 11.1328 24.0785 11.7839 24.0785 12.5859V23.888C24.0785 24.6901 23.4222 25.3411 22.6201 25.3411H3.33887C2.53678 25.3411 1.88574 24.6901 1.88574 23.888V12.5911C1.88574 11.7891 2.53678 11.1328 3.33887 11.1328H7.44824C6.91699 10.5859 6.47949 9.94531 6.14095 9.25781H3.33887C1.50033 9.25781 0.0107422 10.763 0.0107422 12.5911V23.8932C0.0107422 25.7266 1.50033 27.2266 3.33887 27.2266H22.6201C24.4587 27.2266 25.9535 25.7266 25.9535 23.8932V12.5911C25.9482 10.7578 24.4587 9.25781 22.6201 9.25781Z" fill="#0F1738"/>
</g>
<path d="M4.09961 21.7135V22.8646C4.09961 23.0104 4.21419 23.125 4.36003 23.125H12.1517C12.2975 23.125 12.4121 23.0104 12.4121 22.8646V21.7135C12.4121 20.3281 11.2871 19.2031 9.90169 19.2031H6.61003C5.2194 19.2031 4.09961 20.3281 4.09961 21.7135Z" fill="#0F1738"/>
<path d="M10.765 15.8542C10.765 14.4688 9.63997 13.3438 8.25456 13.3438C6.86393 13.3438 5.74414 14.4688 5.74414 15.8542C5.74414 17.2396 6.86393 18.3646 8.25456 18.3646C9.63997 18.3646 10.765 17.2396 10.765 15.8542Z" fill="#0F1738"/>
<path d="M21.8698 14.3385C21.8698 13.8229 21.4479 13.4062 20.9323 13.4062H15.1042C14.5885 13.4062 14.1719 13.8229 14.1719 14.3385C14.1719 14.8542 14.5885 15.2708 15.1042 15.2708H20.9323C21.4479 15.2708 21.8698 14.8542 21.8698 14.3385Z" fill="#0F1738"/>
<path d="M20.9323 17.3047H15.1042C14.5885 17.3047 14.1719 17.7214 14.1719 18.237C14.1719 18.7526 14.5885 19.1745 15.1042 19.1745H20.9323C21.4479 19.1745 21.8646 18.7526 21.8646 18.237C21.8646 17.7214 21.4479 17.3047 20.9323 17.3047Z" fill="#0F1738"/>
<path d="M20.9323 21.2031H15.1042C14.5885 21.2031 14.1719 21.6198 14.1719 22.1354C14.1719 22.651 14.5885 23.0729 15.1042 23.0729H20.9323C21.4479 23.0729 21.8646 22.651 21.8646 22.1354C21.8698 21.6198 21.4479 21.2031 20.9323 21.2031Z" fill="#0F1738"/>
<mask id="mask1_778_5516" style="mask-type:luminance" maskUnits="userSpaceOnUse" x="6" y="0" width="15" height="13">
<path d="M6.82812 0H20.1615V12.5781H6.82812V0Z" fill="white"/>
</mask>
<g mask="url(#mask1_778_5516)">
<path d="M12.9792 11.7708C16.2344 11.7708 18.8646 9.13542 18.8646 5.89062C18.8698 2.63542 16.2344 0 12.9792 0C9.72917 0 7.09375 2.63542 7.09375 5.88542C7.09375 9.13542 9.73438 11.7708 12.9792 11.7708ZM10.1094 5.19792C10.4323 4.89583 10.9479 4.91146 11.25 5.23958L12.3333 6.40104L14.7083 3.84896C15.0156 3.52083 15.526 3.50521 15.8542 3.80729C16.1823 4.11458 16.1979 4.625 15.8958 4.95312L12.9271 8.14062C12.776 8.30208 12.5573 8.39583 12.3333 8.39583C12.1146 8.39583 11.8958 8.30208 11.7448 8.14062L10.0677 6.33854C9.76562 6.01563 9.78125 5.5 10.1094 5.19792Z" fill="#0F1738"/>
</g>
</svg>
