<svg width="38" height="35" viewBox="0 0 38 35" fill="none" xmlns="http://www.w3.org/2000/svg">
<path d="M27.7655 21.8542C28.1144 22.0521 28.5571 21.9375 28.755 21.5885C28.953 21.2396 28.8332 20.7969 28.4894 20.599L22.1769 16.9531V8.94792C22.1769 8.54688 21.854 8.21875 21.453 8.21875C21.0519 8.21875 20.729 8.54688 20.729 8.94792V17.7917L27.7655 21.8542Z" fill="#0F1738"/>
<mask id="mask0_884_5819" style="mask-type:luminance" maskUnits="userSpaceOnUse" x="0" y="0" width="39" height="35">
<path d="M0.224121 0.851562H38.0002V34.1849H0.224121V0.851562Z" fill="white"/>
</mask>
<g mask="url(#mask0_884_5819)">
<path d="M13.3804 17.4752H8.50016C8.50016 10.272 14.3387 4.42828 21.5418 4.42828C28.745 4.42828 34.5835 10.272 34.5835 17.4752C34.5835 24.6731 28.745 30.5168 21.5418 30.5168C20.0991 30.5168 18.6668 30.2772 17.3022 29.8033C16.521 29.5377 15.672 29.9491 15.4012 30.7356C15.1356 31.5116 15.5522 32.3658 16.3283 32.6314C24.7033 35.5116 33.8283 31.0585 36.7033 22.6835C39.5835 14.3137 35.1304 5.19391 26.7606 2.3137C18.3856 -0.566508 9.26579 3.88662 6.38558 12.2616C5.80746 13.9387 5.51058 15.6991 5.51058 17.4752H0.635579C0.406414 17.4752 0.224121 17.6574 0.224121 17.8814C0.224121 17.9856 0.265788 18.0845 0.333496 18.1627L6.7085 25.0377C6.85954 25.2043 7.11995 25.2147 7.28662 25.0585C7.29183 25.0533 7.30225 25.0481 7.30745 25.0377L13.6825 18.1627C13.8387 17.996 13.8283 17.7356 13.6616 17.5845C13.5835 17.5116 13.4845 17.4752 13.3804 17.4752Z" fill="#0F1738"/>
</g>
</svg>
