<svg width="50" height="44" viewBox="0 0 50 44" fill="none" xmlns="http://www.w3.org/2000/svg">
<path d="M36.353 28.4664C36.8136 28.7277 37.3979 28.5696 37.6592 28.109C37.9273 27.6484 37.7692 27.0709 37.3086 26.8028L28.9834 21.9974V11.4243C28.9834 10.895 28.5503 10.4688 28.021 10.4688C27.4917 10.4688 27.0654 10.895 27.0654 11.4243V23.1043L36.353 28.4664Z" fill=""/>
<mask id="mask0_605_3953" style="mask-type:luminance" maskUnits="userSpaceOnUse" x="0" y="0" width="50" height="44">
<path d="M0 0H49.8064V43.9974H0V0Z" fill="white"/>
</mask>
<g mask="url(#mask0_605_3953)">
<path d="M17.3652 22.6685H10.9237C10.9237 13.1609 18.637 5.45448 28.1446 5.45448C37.6453 5.45448 45.3586 13.1609 45.3586 22.6685C45.3586 32.176 37.6453 39.8824 28.1446 39.8824C26.2403 39.8824 24.3498 39.5662 22.5418 38.9475C21.5175 38.59 20.39 39.14 20.0326 40.1712C19.682 41.2024 20.2319 42.3229 21.2631 42.6804C32.3106 46.4752 44.3549 40.5974 48.1497 29.5499C51.9513 18.4956 46.0804 6.45817 35.0261 2.65652C23.9717 -1.14513 11.9343 4.73264 8.13264 15.787C7.36957 18.0006 6.98459 20.3242 6.98459 22.6685H0.543093C0.240613 22.6685 0 22.9091 0 23.2115C0 23.349 0.0549972 23.4797 0.144366 23.5759L8.55887 32.6572C8.75823 32.8772 9.10884 32.891 9.32195 32.6847C9.3357 32.671 9.34257 32.6641 9.34945 32.6572L17.7639 23.5759C17.9702 23.3628 17.9564 23.0122 17.7365 22.8128C17.6333 22.7235 17.5027 22.6685 17.3652 22.6685Z" fill=""/>
</g>
</svg>
