<svg width="35" height="35" viewBox="0 0 35 35" fill="none" xmlns="http://www.w3.org/2000/svg">
<path d="M17.3125 0C7.75 0 0 7.75 0 17.3125C0 26.875 7.75 34.625 17.3125 34.625C26.875 34.625 34.625 26.875 34.625 17.3125C34.625 7.75 26.8698 0 17.3125 0ZM26.151 27.1094C26.151 27.3125 26.1146 27.5052 26.0365 27.6927C25.9583 27.8802 25.849 28.0469 25.7083 28.1875C25.5677 28.3333 25.401 28.4427 25.2135 28.5208C25.0313 28.599 24.8333 28.6354 24.6354 28.6406L20.9271 28.6562C20.724 28.6562 20.526 28.6198 20.3385 28.5417C20.151 28.4688 19.9844 28.3542 19.8385 28.2135C19.6979 28.0677 19.5833 27.9062 19.5052 27.7188C19.4271 27.5312 19.3906 27.3333 19.3906 27.1302V22.3438C19.3906 22.1406 19.3542 21.9479 19.276 21.7604C19.0938 21.3281 18.8073 20.9844 18.4062 20.7292C18.0104 20.4792 17.5781 20.3594 17.1094 20.3854C16.6354 20.4062 16.2135 20.5625 15.8438 20.849C15.474 21.1354 15.2188 21.5052 15.0781 21.9583C15.0313 22.099 15.0104 22.25 15.0104 22.401V27.0417C15.0104 27.2448 14.974 27.4375 14.8958 27.625C14.8177 27.8125 14.7083 27.9792 14.5677 28.1198C14.4219 28.2604 14.2604 28.375 14.0729 28.4531C13.8854 28.5312 13.6927 28.5677 13.4896 28.5677L9.78646 28.5885C9.58333 28.5885 9.39062 28.5521 9.19792 28.474C9.01042 28.3958 8.84375 28.2865 8.70312 28.1406C8.55729 28 8.44792 27.8333 8.36979 27.6458C8.29167 27.4531 8.25521 27.2604 8.25521 27.0573C8.26042 24.4688 8.27083 21.8802 8.28125 19.2917C8.28125 18.849 8.44792 18.474 8.77604 18.1719L16.1875 11.3594C16.4792 11.0938 16.8229 10.9583 17.2188 10.9583C17.6146 10.9583 17.9583 11.0885 18.25 11.3542C20.7188 13.6042 23.1823 15.8542 25.651 18.1042C25.9844 18.4062 26.151 18.7812 26.151 19.2292V27.1094ZM28.4896 19.0312C28.0938 19.0312 27.7604 18.8906 27.4792 18.6146L18.2188 9.35417C18.0885 9.21875 17.9323 9.11979 17.7552 9.04688C17.5833 8.97396 17.401 8.9375 17.2135 8.9375C17.0208 8.9375 16.8385 8.97396 16.6667 9.04688C16.4896 9.11979 16.3385 9.21875 16.2031 9.35417L6.92708 18.6146C6.65104 18.8958 6.3125 19.0312 5.92188 19.0312C4.65104 19.0312 4.01562 17.5 4.91146 16.6042L16.2292 5.23958C16.3646 5.10938 16.5156 5.00521 16.6927 4.93229C16.8698 4.85937 17.0521 4.82292 17.2396 4.82292C17.4323 4.82292 17.6146 4.85937 17.7865 4.93229C17.9635 5.00521 18.1146 5.10938 18.25 5.23958L22.5625 9.59375V7.21354C22.5625 6.91667 22.6667 6.66146 22.875 6.45312C23.0885 6.24479 23.3385 6.13542 23.6354 6.13542H24.3438C24.6406 6.13542 24.8958 6.24479 25.1042 6.45312C25.3125 6.66146 25.4219 6.91667 25.4167 7.21354V12.4844L29.5052 16.6042C30.3958 17.5052 29.7552 19.0312 28.4896 19.0312Z" fill="#0F1738"/>
</svg>
