<svg width="58" height="38" viewBox="0 0 58 38" fill="none" xmlns="http://www.w3.org/2000/svg">
<path d="M51.5736 15.5547H25.5632C25.3809 15.5547 25.2402 15.4089 25.2402 15.2318C25.2402 15.0495 25.3809 14.9089 25.5632 14.9089H51.5736C51.7559 14.9089 51.9017 15.0495 51.9017 15.2318C51.9017 15.4089 51.7559 15.5547 51.5736 15.5547ZM51.5736 19.3203H25.5632C25.3809 19.3203 25.2402 19.1745 25.2402 18.9974C25.2402 18.8151 25.3809 18.6693 25.5632 18.6693H51.5736C51.7559 18.6693 51.9017 18.8151 51.9017 18.9974C51.9017 19.1745 51.7559 19.3203 51.5736 19.3203ZM51.5736 23.0859H25.5632C25.3809 23.0859 25.2402 22.9401 25.2402 22.763C25.2402 22.5807 25.3809 22.4349 25.5632 22.4349H51.5736C51.7559 22.4349 51.9017 22.5807 51.9017 22.763C51.9017 22.9401 51.7559 23.0859 51.5736 23.0859ZM51.6673 32.4974H50.8652V26.5599H51.6673V32.4974ZM50.4746 32.4974H49.6725V26.5599H50.4746V32.4974ZM48.4746 32.4974H47.6725V26.5599H48.4746V32.4974ZM46.5892 32.4974H45.3548V26.5599H46.5892V32.4974ZM44.7767 32.4974H44.3757V26.5599H44.7767V32.4974ZM43.1309 32.4974H42.3704V26.5599H43.1309V32.4974ZM40.8288 32.4974H40.0632V26.5599H40.8288V32.4974ZM38.1257 32.4974H35.9694V26.5599H38.1257V32.4974ZM35.2038 32.4974H33.0684V26.5599H35.2038V32.4974ZM32.5632 32.4974H32.1621V26.5599H32.5632V32.4974ZM30.3965 32.4974H28.7142V26.5599H30.3965V32.4974ZM28.2715 32.4974H27.4694V26.5599H28.2715V32.4974ZM26.2715 32.4974H25.4746V26.5599H26.2715V32.4974ZM20.7246 32.4974H5.50586V28.0859C5.97461 27.1172 7.00065 25.8828 9.25586 25.2161C9.36003 25.1849 9.47982 25.1641 9.58398 25.1328L9.57357 25.0964C9.94857 24.112 10.0892 23.9714 10.0892 23.9714C10.0892 23.9714 10.1934 23.8932 10.2767 23.9714V23.7214C9.67253 23.0911 9.13607 22.3047 8.78711 21.4245C8.41732 21.4714 8.02148 21.0547 7.88086 20.4609C7.74023 19.8464 7.93815 19.2734 8.32357 19.1849L8.38607 19.1745C8.13607 18.2214 7.97982 17.237 8.07357 16.5703C7.10482 16.0651 6.99023 15.3099 6.97982 15.2266V15.2057C6.97982 15.2057 7.39648 15.3932 8.14128 15.1432C8.68815 14.9609 9.42774 14.4505 10.2142 13.9401C10.4277 13.8047 10.6517 13.6797 10.8809 13.5651L10.9225 13.5391C11.1517 13.4245 11.3861 13.3307 11.6257 13.2422L11.6725 13.2214C11.9121 13.138 12.1569 13.0651 12.4017 13.0078L12.4538 12.9974C12.6986 12.9453 12.9434 12.9036 13.1934 12.8776L13.235 12.8672H13.2559C14.4277 12.7682 15.6204 13.0078 16.6361 13.7474C17.8079 14.5755 17.4017 15.5651 17.4017 15.5651C17.4017 15.5651 18.1152 15.5339 18.3079 16.4245C18.4486 17.0911 18.2819 18.1693 18.0111 19.2057C18.36 19.3359 18.5319 19.8724 18.3965 20.4609C18.2611 21.0443 17.8757 21.4557 17.5059 21.4245C17.1673 22.3359 16.6204 23.138 16.0059 23.7786V23.9714C16.084 23.8932 16.1934 23.9714 16.1934 23.9714C16.1934 23.9714 16.334 24.112 16.709 25.0964L16.6934 25.1328C19.0788 25.7422 20.2038 26.9766 20.7246 27.9714V32.4974ZM19.2819 6.95052C19.2819 6.21615 19.8861 5.61198 20.6204 5.61198H37.7663C38.5007 5.61198 39.1048 6.21615 39.1048 6.95052V7.3776C39.1048 8.11198 38.5007 8.71094 37.7663 8.71094H20.6204C19.8861 8.71094 19.2819 8.11198 19.2819 7.3776V6.95052ZM55.0788 0.679688H3.30273C1.82878 0.679688 0.630859 1.8776 0.630859 3.34635V35.2839C0.630859 36.7578 1.82878 37.9557 3.30273 37.9557H55.0788C56.5527 37.9557 57.7559 36.7578 57.7559 35.2839V3.34635C57.7559 1.8776 56.5527 0.679688 55.0788 0.679688Z" fill="#0F1738"/>
</svg>
