<svg width="52" height="34" viewBox="0 0 52 34" fill="none" xmlns="http://www.w3.org/2000/svg">
<mask id="mask0_977_969" style="mask-type:luminance" maskUnits="userSpaceOnUse" x="0" y="-1" width="52" height="35">
<path d="M0.677734 -0.00390625H51.4198V33.0772H0.677734V-0.00390625Z" fill="white"/>
</mask>
<g mask="url(#mask0_977_969)">
<path d="M44.605 -0.00390625H7.4918C3.74431 -0.00390625 0.691406 3.04226 0.691406 6.78975V26.2835C0.691406 30.0276 3.74094 33.0772 7.4918 33.0772H44.605C48.3531 33.0772 51.4054 30.031 51.4054 26.2835V6.78975C51.4054 3.04563 48.3559 -0.00390625 44.605 -0.00390625ZM49.4368 26.2835C49.4368 28.9445 47.2688 31.1108 44.605 31.1108H7.4918C4.82802 31.1108 2.66004 28.9445 2.66004 26.2835V6.78975C2.66004 4.12877 4.82802 1.96305 7.4918 1.96305H44.605C47.2688 1.96305 49.4368 4.12877 49.4368 6.78975V26.2835Z" fill="#F4F4FF" fill-opacity="0.3"/>
</g>
<path d="M17.4671 16.9805C16.7187 17.3696 15.8674 17.5919 14.9662 17.5919C14.065 17.5919 13.2137 17.373 12.4653 16.9805C9.73858 17.994 7.79297 20.6185 7.79297 23.6978V24.7612C7.79297 25.5951 8.47127 26.2728 9.30623 26.2728H20.6262C21.4611 26.2728 22.1394 25.5951 22.1394 24.7612V23.6978C22.1394 20.6185 20.1938 17.994 17.4671 16.9805Z" fill="#F4F4FF" fill-opacity="0.3"/>
<path d="M19.3369 12.1704C19.3369 12.313 19.3302 12.4556 19.3161 12.5983C19.3021 12.7403 19.2813 12.8818 19.2533 13.0216C19.2252 13.162 19.1904 13.3007 19.1488 13.4371C19.1073 13.5742 19.0595 13.7084 19.0045 13.8409C18.9495 13.9728 18.8888 14.102 18.8209 14.2277C18.7535 14.3541 18.68 14.4765 18.6008 14.5955C18.5211 14.714 18.4363 14.8291 18.3453 14.9392C18.2543 15.0498 18.1583 15.1559 18.0573 15.257C17.9562 15.3581 17.8501 15.4541 17.7394 15.5445C17.6288 15.6354 17.5143 15.7202 17.3952 15.8C17.2762 15.8791 17.1532 15.9527 17.0275 16.0201C16.9011 16.0875 16.772 16.1487 16.6395 16.2031C16.5075 16.2576 16.3727 16.3059 16.2357 16.3474C16.0987 16.389 15.96 16.4238 15.8197 16.4513C15.6793 16.4794 15.5383 16.5002 15.3957 16.5142C15.2531 16.5282 15.1105 16.5355 14.9673 16.5355C14.8241 16.5355 14.6815 16.5282 14.5389 16.5142C14.3968 16.5002 14.2553 16.4794 14.1149 16.4513C13.9745 16.4238 13.8359 16.389 13.6988 16.3474C13.5618 16.3059 13.4276 16.2576 13.2951 16.2031C13.1632 16.1487 13.0335 16.0875 12.9077 16.0201C12.7813 15.9527 12.6589 15.8791 12.5399 15.8C12.4209 15.7202 12.3058 15.6354 12.1951 15.5445C12.0845 15.4541 11.979 15.3581 11.8773 15.257C11.7763 15.1559 11.6802 15.0498 11.5893 14.9392C11.4989 14.8291 11.4135 14.714 11.3338 14.5955C11.2546 14.4765 11.1811 14.3541 11.1137 14.2277C11.0463 14.102 10.9851 13.9728 10.9301 13.8409C10.8756 13.7084 10.8273 13.5742 10.7858 13.4371C10.7442 13.3007 10.7094 13.162 10.6813 13.0216C10.6538 12.8818 10.6325 12.7403 10.6184 12.5983C10.6044 12.4556 10.5977 12.313 10.5977 12.1704C10.5977 12.0272 10.6044 11.8846 10.6184 11.7425C10.6325 11.5999 10.6538 11.459 10.6813 11.3186C10.7094 11.1782 10.7442 11.0401 10.7858 10.9031C10.8273 10.7661 10.8756 10.6319 10.9301 10.4999C10.9851 10.3674 11.0463 10.2383 11.1137 10.1125C11.1811 9.98614 11.2546 9.86373 11.3338 9.74525C11.4135 9.62621 11.4989 9.51166 11.5893 9.40105C11.6802 9.29043 11.7763 9.18487 11.8773 9.08323C11.979 8.98216 12.0845 8.88671 12.1951 8.79574C12.3058 8.70534 12.4209 8.61999 12.5399 8.54082C12.6589 8.46109 12.7813 8.38753 12.9077 8.32015C13.0335 8.25277 13.1632 8.19213 13.2951 8.1371C13.4276 8.08263 13.5618 8.03434 13.6988 7.99279C13.8359 7.95124 13.9745 7.91699 14.1149 7.88891C14.2553 7.86084 14.3968 7.84006 14.5389 7.82602C14.6815 7.81199 14.8241 7.80525 14.9673 7.80469C15.1105 7.80525 15.2531 7.81199 15.3957 7.82602C15.5383 7.84006 15.6793 7.86084 15.8197 7.88891C15.96 7.91699 16.0987 7.95124 16.2357 7.99279C16.3727 8.03434 16.5075 8.08263 16.6395 8.1371C16.772 8.19213 16.9011 8.25277 17.0275 8.32015C17.1532 8.38753 17.2762 8.46109 17.3952 8.54082C17.5143 8.61999 17.6288 8.70534 17.7394 8.79574C17.8501 8.88671 17.9562 8.98216 18.0573 9.08323C18.1583 9.18487 18.2543 9.29043 18.3453 9.40105C18.4363 9.51166 18.5211 9.62621 18.6008 9.74525C18.68 9.86373 18.7535 9.98614 18.8209 10.1125C18.8888 10.2383 18.9495 10.3674 19.0045 10.4999C19.0595 10.6319 19.1073 10.7661 19.1488 10.9031C19.1904 11.0401 19.2252 11.1782 19.2533 11.3186C19.2813 11.459 19.3021 11.5999 19.3161 11.7425C19.3302 11.8846 19.3369 12.0272 19.3369 12.1704Z" fill="#F4F4FF" fill-opacity="0.3"/>
<path d="M43.4489 10.0625H28.2079C27.679 10.0625 27.25 10.4909 27.25 11.0193C27.25 11.5471 27.679 11.9761 28.2079 11.9761H43.4489C43.9772 11.9761 44.4062 11.5471 44.4062 11.0193C44.4062 10.4909 43.9772 10.0625 43.4489 10.0625Z" fill="#F4F4FF" fill-opacity="0.3"/>
<path d="M43.4489 15.418H28.2079C27.679 15.418 27.25 15.8464 27.25 16.3748C27.25 16.9031 27.679 17.3316 28.2079 17.3316H43.4489C43.9772 17.3316 44.4062 16.9031 44.4062 16.3748C44.4062 15.8464 43.9772 15.418 43.4489 15.418Z" fill="#F4F4FF" fill-opacity="0.3"/>
<path d="M43.4489 20.7734H28.2079C27.679 20.7734 27.25 21.2019 27.25 21.7302C27.25 22.2586 27.679 22.687 28.2079 22.687H43.4489C43.9772 22.687 44.4062 22.2586 44.4062 21.7302C44.4062 21.2019 43.9772 20.7734 43.4489 20.7734Z" fill="#F4F4FF" fill-opacity="0.3"/>
</svg>
