<svg width="52" height="37" viewBox="0 0 52 37" fill="none" xmlns="http://www.w3.org/2000/svg">
<mask id="mask0_778_6013" style="mask-type:luminance" maskUnits="userSpaceOnUse" x="0" y="0" width="52" height="37">
<path d="M0.890625 0.203125H51.8073V36.1458H0.890625V0.203125Z" fill="white"/>
</mask>
<g mask="url(#mask0_778_6013)">
<path d="M47.5319 0.203125H5.35482C2.90169 0.203125 0.912109 2.19271 0.912109 4.64062V31.2812C0.912109 33.7292 2.90169 35.724 5.35482 35.724H47.5319C49.9798 35.724 51.9746 33.7292 51.9746 31.2812V4.64062C51.9746 2.19271 49.9798 0.203125 47.5319 0.203125ZM7.57357 27.9531C7.83919 23.4844 13.5944 24.1354 14.4538 21.8125C14.5267 21.0208 14.4538 20.4688 14.4538 19.7448C14.0944 19.5573 13.0892 18.5365 12.9329 17.401C12.9329 17.401 12.1204 17.0104 12.0736 15.7917C12.0527 15.1406 12.5059 14.6823 12.5059 14.6823C11.6621 11.4271 12.0267 8.05208 16.3809 7.97396C17.4694 7.97396 18.2923 8.5 18.6152 9.07292C21.6465 9.07292 20.86 13.3021 20.4017 14.6823C20.5684 14.8542 20.7819 15.3229 20.7819 15.9531C20.7819 16.8594 19.9225 17.401 19.9225 17.401C19.7611 18.5521 18.9486 19.5052 18.4486 19.7448C18.4486 20.4688 18.3809 21.026 18.4486 21.8177C19.3132 24.1354 25.0632 23.4844 25.334 27.9531H7.57357ZM44.2038 24.6198H30.8809C30.2715 24.6198 29.7715 24.125 29.7715 23.5104C29.7715 22.8958 30.2715 22.401 30.8809 22.401H44.2038C44.8184 22.401 45.3132 22.8958 45.3132 23.5104C45.3132 24.125 44.8184 24.6198 44.2038 24.6198ZM44.2038 19.0729H30.8809C30.2715 19.0729 29.7715 18.5729 29.7715 17.9635C29.7715 17.349 30.2715 16.8542 30.8809 16.8542H44.2038C44.8184 16.8542 45.3132 17.349 45.3132 17.9635C45.3132 18.5729 44.8184 19.0729 44.2038 19.0729ZM44.2038 13.5208H30.8809C30.2715 13.5208 29.7715 13.026 29.7715 12.4115C29.7715 11.7969 30.2715 11.3021 30.8809 11.3021H44.2038C44.8184 11.3021 45.3132 11.7969 45.3132 12.4115C45.3132 13.026 44.8184 13.5208 44.2038 13.5208Z" fill="#0F1738"/>
</g>
</svg>
