<svg width="56" height="39" viewBox="0 0 56 39" fill="none" xmlns="http://www.w3.org/2000/svg">
<mask id="mask0_781_7596" style="mask-type:luminance" maskUnits="userSpaceOnUse" x="0" y="0" width="56" height="39">
<path d="M0.537109 0.960938H55.4486V38.9036H0.537109V0.960938Z" fill="white"/>
</mask>
<g mask="url(#mask0_781_7596)">
<path d="M50.5208 0.960938H5.32292C2.69792 0.960938 0.5625 3.09635 0.5625 5.72135V34.2682C0.5625 36.8932 2.69792 39.0286 5.32292 39.0286H50.5208C53.1458 39.0286 55.2812 36.8932 55.2812 34.2682V5.72135C55.2812 3.09635 53.1458 0.960938 50.5208 0.960938ZM7.69792 30.7005C7.98958 25.9089 14.151 26.6068 15.0729 24.1224C15.151 23.2734 15.0729 22.6797 15.0729 21.9036C14.6875 21.7005 13.6146 20.6068 13.4479 19.3932C13.4479 19.3932 12.5729 18.9766 12.526 17.6693C12.5 16.9714 12.9896 16.4818 12.9896 16.4818C12.0781 12.9922 12.474 9.3724 17.1406 9.28906C18.3073 9.28906 19.1875 9.85156 19.5365 10.4714C22.7812 10.4714 21.9375 15.0026 21.4479 16.4818C21.6302 16.6641 21.8542 17.1641 21.8542 17.8411C21.8542 18.8099 20.9323 19.3932 20.9323 19.3932C20.7604 20.6276 19.8906 21.6484 19.3594 21.9036C19.3594 22.6797 19.2812 23.2734 19.3594 24.1224C20.2812 26.6068 26.4427 25.9089 26.7344 30.7005H7.69792ZM46.9531 27.1328H32.6771C32.0208 27.1328 31.4896 26.6016 31.4896 25.9401C31.4896 25.2839 32.0208 24.7526 32.6771 24.7526H46.9531C47.6094 24.7526 48.1406 25.2839 48.1406 25.9401C48.1406 26.6016 47.6094 27.1328 46.9531 27.1328ZM46.9531 21.1849H32.6771C32.0208 21.1849 31.4896 20.6536 31.4896 19.9922C31.4896 19.3359 32.0208 18.8047 32.6771 18.8047H46.9531C47.6094 18.8047 48.1406 19.3359 48.1406 19.9922C48.1406 20.6536 47.6094 21.1849 46.9531 21.1849ZM46.9531 15.237H32.6771C32.0208 15.237 31.4896 14.7057 31.4896 14.0495C31.4896 13.3932 32.0208 12.8568 32.6771 12.8568H46.9531C47.6094 12.8568 48.1406 13.3932 48.1406 14.0495C48.1406 14.7057 47.6094 15.237 46.9531 15.237Z" fill="#0F1738"/>
</g>
</svg>
