<svg width="119" height="103" viewBox="0 0 119 103" fill="none" xmlns="http://www.w3.org/2000/svg">
<path d="M57.3747 23.781C57.3018 23.781 57.2289 23.781 57.1612 23.7706C56.7445 23.7237 56.1507 23.505 55.6612 22.7341C54.7966 21.3643 55.458 19.88 55.8955 18.9008C56.3174 17.9477 56.5101 17.5154 56.1143 16.6977C55.5987 15.6456 54.7393 15.3487 53.6507 14.9789C53.2237 14.8279 52.7809 14.6768 52.333 14.4685C51.4112 14.0362 50.5466 13.0935 50.708 11.9737C50.9059 10.6039 52.4112 10.0206 53.6403 9.93726C54.3174 9.8956 54.9893 9.91643 55.6455 9.93726C56.5205 9.96851 57.3487 9.99976 58.1612 9.87476C59.9528 9.59872 61.5101 8.60914 63.1559 7.56226C64.333 6.81747 65.5466 6.04664 66.8799 5.53622C68.2653 4.99976 69.7862 4.76018 71.2705 4.8331C71.958 4.86435 72.6247 5.04143 73.1403 5.3331C73.8487 5.72893 74.2653 6.32789 74.307 7.0206C74.3539 7.7706 73.958 8.39039 73.6664 8.84351L71.5987 12.0571C71.5153 12.1925 71.3695 12.4216 71.1091 12.5571C70.7966 12.7237 70.4789 12.6873 70.2914 12.6612L68.083 12.4008C68.5518 12.7341 69.057 13.1508 69.1664 13.8383C69.3018 14.7081 68.682 15.4008 68.3539 15.7706L66.1351 18.2498C65.8591 18.5571 65.5466 18.906 65.1455 19.1664C64.8278 19.3696 64.4945 19.4998 64.1768 19.6196C64.1247 19.6404 64.0726 19.6612 64.0205 19.6768C62.5726 20.2394 61.2289 21.1143 60.1299 22.2081C59.3851 22.9529 58.4112 23.781 57.3747 23.781ZM54.4893 11.1508C54.2341 11.1508 53.9789 11.156 53.7237 11.1768C52.9216 11.2289 52.0205 11.5571 51.9372 12.1456C51.8695 12.6196 52.3487 13.1091 52.8591 13.3435C53.2445 13.5258 53.6559 13.6664 54.057 13.8071C55.2497 14.2133 56.4893 14.6404 57.2289 16.156C57.8799 17.4893 57.4841 18.3748 57.0257 19.4008C56.5726 20.4216 56.2341 21.3227 56.708 22.0727C56.9789 22.505 57.2185 22.531 57.2966 22.5414C57.7445 22.5883 58.4007 22.1821 59.2549 21.3331C60.4737 20.1196 61.9684 19.1456 63.5726 18.5258C63.6247 18.505 63.682 18.4841 63.7341 18.4633C64.0049 18.3591 64.2653 18.2602 64.4737 18.1248C64.7341 17.9529 64.9684 17.6977 65.208 17.4268L67.4268 14.9425C67.7184 14.6196 67.9841 14.2862 67.9424 14.031C67.9007 13.781 67.5622 13.5466 67.2028 13.3018C66.6716 12.9321 66.0101 12.4789 65.9528 11.6404C65.9372 11.4581 66.0101 11.2758 66.1455 11.1508C66.2757 11.0258 66.458 10.9633 66.6455 10.9841L70.4372 11.4321C70.458 11.4373 70.4893 11.4425 70.5257 11.4425C70.5362 11.4216 70.5466 11.406 70.557 11.3904L72.6247 8.17164C72.8799 7.77581 73.0935 7.41643 73.0726 7.09872C73.031 6.48935 72.083 6.11435 71.208 6.06747C69.8955 6.00497 68.5518 6.21851 67.3226 6.69247C66.1091 7.15602 64.9476 7.8956 63.8226 8.60914C62.1403 9.67685 60.3955 10.781 58.3487 11.0987C57.4216 11.2393 56.4945 11.2081 55.6039 11.1768C55.2237 11.1664 54.8539 11.1508 54.4893 11.1508Z" fill="#D4F0A3"/>
<path d="M103.552 58.0312H102.094C100.224 58.0312 98.6978 56.5104 98.6978 54.6354C98.6978 54.2917 98.979 54.0156 99.3175 54.0156C99.6613 54.0156 99.9373 54.2917 99.9373 54.6354C99.9373 55.8229 100.906 56.7917 102.094 56.7917H103.552C104.745 56.7917 105.708 55.8229 105.708 54.6354C105.708 53.4479 104.745 52.4792 103.552 52.4792H102.094C100.224 52.4792 98.6978 50.9531 98.6978 49.0833C98.6978 47.2083 100.224 45.6875 102.094 45.6875H103.552C105.427 45.6875 106.948 47.2083 106.948 49.0833C106.948 49.4271 106.672 49.7031 106.328 49.7031C105.989 49.7031 105.708 49.4271 105.708 49.0833C105.708 47.8958 104.745 46.9271 103.552 46.9271H102.094C100.906 46.9271 99.9373 47.8958 99.9373 49.0833C99.9373 50.2708 100.906 51.2396 102.094 51.2396H103.552C105.427 51.2396 106.948 52.7656 106.948 54.6354C106.948 56.5104 105.427 58.0312 103.552 58.0312Z" fill="#D4F0A3"/>
<path d="M102.823 59.224C102.484 59.224 102.203 58.9479 102.203 58.6042V45.1667C102.203 44.8229 102.484 44.5469 102.823 44.5469C103.167 44.5469 103.443 44.8229 103.443 45.1667V58.6042C103.443 58.9479 103.167 59.224 102.823 59.224Z" fill="#D4F0A3"/>
<mask id="mask0_533_6032" style="mask-type:luminance" maskUnits="userSpaceOnUse" x="86" y="35" width="33" height="34">
<path d="M86.5361 35H119V68.3333H86.5361V35Z" fill="white"/>
</mask>
<g mask="url(#mask0_533_6032)">
<path d="M102.823 68.1328C93.8642 68.1328 86.5725 60.8464 86.5725 51.8828C86.5725 42.9245 93.8642 35.6328 102.823 35.6328C111.786 35.6328 119.073 42.9245 119.073 51.8828C119.073 60.8464 111.786 68.1328 102.823 68.1328ZM102.823 36.8724C94.5465 36.8724 87.8121 43.6068 87.8121 51.8828C87.8121 60.1589 94.5465 66.8932 102.823 66.8932C111.104 66.8932 117.838 60.1589 117.838 51.8828C117.838 43.6068 111.104 36.8724 102.823 36.8724Z" fill="#D4F0A3"/>
</g>
<path d="M87.5205 80.9989C85.8903 80.9989 84.2809 80.2958 83.6976 78.7698C83.5361 78.3427 83.4788 77.9208 83.4267 77.5093C83.4111 77.3948 83.3955 77.2802 83.3747 77.1708C83.208 76.0823 82.8122 75.0041 82.2705 74.1239C81.8017 73.3687 81.5726 72.5093 81.609 71.6395C81.7757 67.2333 81.6142 62.775 81.1247 58.3948C81.1142 58.3114 81.0882 58.0823 81.0413 58.0354C81.0361 58.025 80.9736 57.9625 80.6195 57.9573C79.8695 57.9468 79.1299 58.0458 78.3486 58.1552C77.7184 58.2385 77.0622 58.327 76.4059 58.3531C74.2236 58.4364 72.1507 57.8479 70.1403 57.2802C69.3538 57.0562 68.5413 56.8271 67.7913 56.3791C65.9372 55.2802 64.807 52.9521 64.9059 50.4416C64.9997 48.051 66.0726 45.9 66.9997 44.2906C69.0413 40.7333 70.8382 39.5302 72.0101 38.9312C74.7861 37.5198 78.083 37.8427 80.7288 38.1031C80.9632 38.1239 81.2549 38.1552 81.5465 38.275C81.859 38.4052 82.0882 38.6031 82.2965 38.7802L82.3382 38.8166C83.1663 39.5198 84.083 40.1135 85.0622 40.577C85.4684 40.7645 85.9007 40.9416 86.3017 40.9156C86.5882 40.8948 86.9007 40.7698 87.2288 40.6395L87.333 40.5979C88.1715 40.2645 90.2965 39.5927 91.8695 40.525C92.0309 40.6239 92.1403 40.7906 92.1663 40.9781C92.1924 41.1656 92.1299 41.3531 91.9997 41.4885C89.2965 44.2958 87.8122 47.9885 87.8122 51.8843C87.8122 58.2229 91.8226 63.9052 97.7861 66.0302C98.0153 66.1135 98.1768 66.3218 98.1976 66.5614C98.2965 67.7906 98.3122 69.2229 97.6559 70.5198C97.2601 71.3062 96.6715 71.926 96.1038 72.5302C95.6559 73.0041 95.2288 73.4573 94.9111 73.9677C94.609 74.4573 94.4007 75.0145 94.182 75.5979C94.0153 76.0354 93.8486 76.4833 93.6351 76.9156C92.7549 78.702 91.1715 80.0823 89.2913 80.7177C88.7288 80.9052 88.1247 80.9989 87.5205 80.9989ZM80.4892 56.7177C80.5413 56.7177 80.5882 56.7177 80.6403 56.7177C80.8851 56.7229 81.5465 56.7333 81.9684 57.2125C82.2757 57.5562 82.3226 57.9937 82.3538 58.2593C82.8538 62.7021 83.0205 67.2177 82.8434 71.6864C82.8226 72.3114 82.984 72.9312 83.3226 73.4729C83.9528 74.4885 84.4059 75.7281 84.5986 76.9729C84.6195 77.0979 84.6351 77.2229 84.6559 77.3427C84.7028 77.7021 84.7497 78.0354 84.859 78.327C85.3747 79.6864 87.3642 80.0562 88.8955 79.5406C90.4476 79.0198 91.8017 77.8375 92.5257 76.3687C92.708 75.9885 92.859 75.5875 93.0205 75.1656C93.2497 74.5458 93.4892 73.9104 93.859 73.3166C94.2392 72.6968 94.7288 72.1812 95.2028 71.676C95.734 71.1187 96.234 70.5875 96.5517 69.9625C97.0049 69.0614 97.0465 68.0458 96.9893 67.0562C90.7445 64.65 86.5726 58.6083 86.5726 51.8843C86.5726 47.9833 87.9528 44.2698 90.4684 41.327C89.734 41.2125 88.7913 41.3531 87.7913 41.7489L87.6872 41.7906C87.3017 41.9468 86.8642 42.1187 86.3799 42.15C85.6976 42.1916 85.0622 41.9468 84.5361 41.6968C83.4528 41.1864 82.4424 40.5354 81.5361 39.7593L81.4892 39.7229C81.3434 39.5927 81.2028 39.4729 81.0726 39.4208C80.9528 39.3687 80.7861 39.3531 80.609 39.3375C78.1195 39.0927 75.0257 38.7854 72.5726 40.0354C71.5413 40.5614 69.9528 41.6395 68.0726 44.9052C67.2184 46.3948 66.2236 48.3687 66.1403 50.4937C66.0622 52.551 66.958 54.4468 68.4215 55.3166C69.0361 55.676 69.7705 55.8843 70.4788 56.0875C72.3955 56.6291 74.3747 57.1916 76.3538 57.1135C76.958 57.0927 77.5517 57.0093 78.182 56.926C78.9267 56.8218 79.7028 56.7177 80.4892 56.7177Z" fill="#D4F0A3"/>
<path d="M13.4165 64.7682C13.2811 64.7682 13.1457 64.7214 13.0363 64.6328L3.9634 57.5339C3.71861 57.3411 3.65611 57.0026 3.80715 56.7318L4.69778 55.2057C4.7134 55.1745 4.72903 55.1536 4.74986 55.1276C5.82798 53.7786 7.44257 53.0078 9.17173 53.0078H11.9426C12.2759 53.0078 12.5467 53.2682 12.5572 53.6016C12.6822 57.1172 13.1717 60.612 14.0207 63.9974C14.0832 64.2526 13.979 64.5234 13.7551 64.6693C13.6509 64.7318 13.5363 64.7682 13.4165 64.7682ZM5.1509 56.888L12.4165 62.5755C11.8332 59.8464 11.4738 57.0495 11.3436 54.2422H9.17173C7.83319 54.2422 6.5884 54.8359 5.74465 55.8672L5.1509 56.888Z" fill="#D4F0A3"/>
<path d="M93.5988 39.8892C93.4165 39.8892 93.2342 39.8059 93.1092 39.6496C92.6456 39.0559 92.0936 38.5611 91.4634 38.1705C90.6665 37.6705 89.4581 36.9153 89.7394 35.6705C89.9686 34.6757 90.9321 34.3944 91.7029 34.1705C92.3331 33.9882 92.7498 33.8528 92.8279 33.5767C92.8852 33.384 92.6821 33.0924 92.4165 32.9882C92.1092 32.8684 91.6925 32.8944 91.1717 33.0611C90.5727 33.2538 89.9894 33.5559 89.3696 33.8736C88.0363 34.5559 86.6561 35.259 85.104 34.884C84.7029 34.7851 84.3436 34.6236 83.9998 34.4726C83.8175 34.3892 83.6456 34.3111 83.4738 34.2434C82.8748 34.0194 82.1977 33.9101 81.5415 33.8111L79.7029 33.5246C79.2915 33.4621 78.9009 33.4049 78.5259 33.4257C77.4061 33.4882 76.4425 34.2694 75.4269 35.0976C75.2394 35.2486 75.0467 35.4101 74.8592 35.5559C74.1977 36.0767 73.3019 36.6653 72.2706 36.5976C71.63 36.5611 70.9842 36.1757 70.6248 35.6184C70.3279 35.1549 70.2602 34.6184 70.4425 34.1444C70.6769 33.5299 71.2394 33.1809 71.6873 32.8996C72.0884 32.6496 72.354 32.4674 72.3644 32.2799C72.3644 32.2278 72.354 32.1496 72.3384 32.0663C72.3175 31.9517 72.2967 31.8267 72.2915 31.6809C72.2811 30.9309 72.7915 30.358 73.0988 30.0194C74.3956 28.5663 75.9477 27.0194 77.9842 27.0194H77.9894C78.6665 27.0194 79.2863 27.1965 79.8904 27.3684C80.0779 27.4205 80.255 27.4726 80.4321 27.5142C81.2498 27.7226 82.0884 27.8163 82.9321 27.7903C83.8748 27.7642 84.5571 27.5663 85.0102 27.1913C85.4373 26.8371 85.7029 26.1288 85.4113 25.6705C85.2915 25.4882 85.0779 25.3267 84.854 25.1549C84.6092 24.9674 84.3331 24.759 84.1092 24.4726C83.729 23.9882 83.5779 23.3319 83.6873 22.6705C83.8071 21.9726 84.1925 21.3684 84.755 21.0038C85.8227 20.3215 87.3436 20.5559 88.2186 21.5403C88.3644 21.7017 88.479 21.8684 88.5936 22.0299C88.7706 22.2799 88.9217 22.4986 89.104 22.5976C89.38 22.7538 89.8227 22.6809 90.255 22.5767C93.63 21.7799 96.7915 20.108 99.3852 17.7486C99.505 17.634 99.6665 17.5767 99.8331 17.5871C99.9946 17.5976 100.151 17.6705 100.26 17.7903C105.531 23.6601 109.416 30.7642 111.495 38.3319C111.562 38.5767 111.474 38.8371 111.271 38.9934C111.068 39.1444 110.791 39.1601 110.578 39.0299C108.245 37.6184 105.562 36.8736 102.823 36.8736C99.6144 36.8736 96.5467 37.8736 93.9634 39.7694C93.854 39.8476 93.7238 39.8892 93.5988 39.8892ZM91.979 31.6757C92.3019 31.6757 92.5936 31.7278 92.8696 31.8319C93.7342 32.1705 94.255 33.108 94.0206 33.9205C93.7498 34.8684 92.8071 35.1444 92.0467 35.3632C91.4217 35.5455 91.0102 35.6809 90.9477 35.9465C90.8592 36.3319 91.6196 36.8059 92.1196 37.1184C92.7029 37.483 93.2342 37.9257 93.7029 38.4361C96.4009 36.6028 99.5415 35.634 102.823 35.634C105.281 35.634 107.698 36.1861 109.89 37.2486C107.844 30.5871 104.359 24.3476 99.7498 19.0819C97.0936 21.3632 93.9217 22.983 90.5415 23.7851C89.8644 23.9465 89.1509 24.0455 88.4998 23.6809C88.0675 23.4413 87.8071 23.0715 87.5779 22.7434C87.4842 22.6028 87.3904 22.4726 87.2915 22.3632C86.8279 21.8371 85.9738 21.6965 85.4269 22.0507C85.1613 22.2174 84.9686 22.5299 84.9113 22.8788C84.8592 23.1965 84.9217 23.4986 85.0884 23.7121C85.2134 23.8684 85.4009 24.0142 85.604 24.1705C85.8904 24.384 86.2134 24.634 86.4529 24.9986C86.9894 25.8319 86.8956 27.2382 85.8019 28.1444C85.1248 28.7069 84.1977 28.9934 82.9634 29.0299C82.0102 29.0559 81.0571 28.9517 80.13 28.7174C79.9321 28.6653 79.7394 28.6132 79.5519 28.5611C79.0102 28.4049 78.4946 28.259 77.9894 28.259H77.9842C76.4581 28.259 75.1925 29.5351 74.0206 30.8424C73.7706 31.1236 73.5311 31.4153 73.5311 31.6601C73.5311 31.7069 73.5467 31.7799 73.5571 31.858C73.5831 31.9882 73.6092 32.1549 73.5988 32.3371C73.5623 33.1913 72.8852 33.6132 72.3436 33.9517C72.0206 34.1496 71.6873 34.358 71.5988 34.5871C71.5519 34.7226 71.6092 34.858 71.6665 34.9517C71.8123 35.1757 72.0936 35.3476 72.3488 35.3632C72.9686 35.3996 73.604 34.9674 74.0936 34.5819C74.2759 34.4413 74.4581 34.2955 74.6456 34.1392C75.7186 33.2642 76.9321 32.2746 78.4581 32.1861C78.9581 32.1601 79.4321 32.233 79.8904 32.3007L81.729 32.5871C82.4477 32.6965 83.1925 32.8111 83.9165 33.0871C84.1248 33.1653 84.3175 33.2538 84.5102 33.3424C84.8175 33.4778 85.1092 33.608 85.3956 33.6809C86.505 33.9465 87.6248 33.3736 88.8071 32.7694C89.4425 32.4413 90.0988 32.108 90.7863 31.884C91.2186 31.7434 91.6196 31.6757 91.9842 31.6757H91.979Z" fill="#D4F0A3"/>
<path d="M102.823 64.6797C95.7707 64.6797 90.0259 58.9401 90.0259 51.8828C90.0259 44.8255 95.7707 39.0859 102.823 39.0859C109.88 39.0859 115.62 44.8255 115.62 51.8828C115.62 58.9401 109.88 64.6797 102.823 64.6797ZM102.823 40.3255C96.453 40.3255 91.2655 45.513 91.2655 51.8828C91.2655 58.2578 96.453 63.4401 102.823 63.4401C109.198 63.4401 114.38 58.2578 114.38 51.8828C114.38 45.513 109.198 40.3255 102.823 40.3255Z" fill="#D4F0A3"/>
<mask id="mask1_533_6032" style="mask-type:luminance" maskUnits="userSpaceOnUse" x="0" y="35" width="64" height="26">
<path d="M0 35H63.8698V60.3333H0V35Z" fill="white"/>
</mask>
<g mask="url(#mask1_533_6032)">
<path d="M51.3126 59.5329C51.2292 59.5329 51.1511 59.5173 51.073 59.486C50.8438 59.3871 50.6928 59.1631 50.6928 58.9131V54.2412H9.17193C7.47402 54.2412 5.95318 55.1891 5.20318 56.71L4.9011 57.3194C4.78652 57.5433 4.54693 57.6787 4.29173 57.6579C4.04173 57.6371 3.82818 57.4652 3.75006 57.2204L0.6511 46.9391C5.75781e-05 44.7829 1.15631 42.5121 3.28131 41.7673C5.17714 41.111 7.16152 40.7725 9.17193 40.7725H50.6928V36.3766C50.6928 36.1266 50.8438 35.8975 51.073 35.8037C51.3074 35.71 51.573 35.7621 51.7501 35.9391L63.0157 47.2048C63.1355 47.3246 63.198 47.4808 63.198 47.6423C63.198 47.8089 63.1355 47.9652 63.0157 48.0798L51.7501 59.3506C51.6303 59.4704 51.474 59.5329 51.3126 59.5329ZM9.17193 53.0069H51.3126C51.6511 53.0069 51.9324 53.2829 51.9324 53.6266V57.4183L61.7032 47.6423L51.9324 37.8714V41.3923C51.9324 41.736 51.6511 42.0121 51.3126 42.0121H9.17193C7.29693 42.0121 5.45318 42.3246 3.69277 42.9391C2.19277 43.46 1.37506 45.0589 1.83339 46.5798L4.51048 55.4444C5.55735 53.9235 7.2761 53.0069 9.17193 53.0069Z" fill="#D4F0A3"/>
</g>
<mask id="mask2_533_6032" style="mask-type:luminance" maskUnits="userSpaceOnUse" x="10" y="0" width="102" height="103">
<path d="M10.5361 0.8125H111.869V102.812H10.5361V0.8125Z" fill="white"/>
</mask>
<g mask="url(#mask2_533_6032)">
<path d="M62.3017 102.872C48.984 102.872 36.3851 97.7734 26.8226 88.513C22.1715 84.013 18.4632 78.7474 15.8069 72.8776C13.0622 66.8099 11.5517 60.3411 11.3226 53.6484C11.3174 53.4766 11.3799 53.3151 11.4944 53.1953C11.609 53.0755 11.7705 53.0078 11.9424 53.0078H51.3121C51.6507 53.0078 51.9319 53.2839 51.9319 53.6276V57.4193L61.7028 47.6432L51.9319 37.8724V41.3932C51.9319 41.737 51.6507 42.013 51.3121 42.013H12.9997C12.8122 42.013 12.6351 41.9297 12.5153 41.7839C12.4007 41.638 12.3538 41.4505 12.3903 41.2682C13.5934 35.5807 15.7497 30.1745 18.7965 25.2109C21.7861 20.3411 25.5465 16.0339 29.9736 12.4036C34.4372 8.74219 39.4371 5.88802 44.833 3.91927C50.4215 1.88281 56.2965 0.851562 62.3017 0.851562C68.0465 0.851562 73.6819 1.79948 79.0621 3.66927C84.2601 5.47656 89.109 8.11198 93.484 11.4922C97.8069 14.8359 101.552 18.8307 104.609 23.362C107.713 27.9609 110.031 32.9974 111.494 38.3307C111.562 38.5755 111.474 38.8359 111.27 38.9922C111.067 39.1432 110.791 39.1589 110.578 39.0286C108.244 37.6172 105.562 36.8724 102.823 36.8724C94.5465 36.8724 87.8121 43.6068 87.8121 51.8828C87.8121 60.1589 94.5465 66.8932 102.823 66.8932C105.557 66.8932 108.234 66.1536 110.562 64.7474C110.781 64.6172 111.057 64.6328 111.255 64.7839C111.458 64.9401 111.547 65.2005 111.479 65.4453C110.01 70.7734 107.692 75.8047 104.588 80.3984C101.531 84.9193 97.7861 88.9089 93.4632 92.2526C89.0934 95.6276 84.2444 98.2526 79.0465 100.06C73.6767 101.924 68.0413 102.872 62.3017 102.872ZM12.583 54.2422C12.8799 60.5495 14.3434 66.638 16.9319 72.362C19.5257 78.0964 23.1455 83.2318 27.6819 87.6224C37.0153 96.6589 49.3069 101.633 62.3017 101.633C67.9007 101.633 73.4007 100.711 78.6403 98.888C83.708 97.1276 88.4424 94.5651 92.7028 91.2682C96.9215 88.0078 100.578 84.1172 103.562 79.7005C106.317 75.6276 108.437 71.2057 109.875 66.5286C107.687 67.5807 105.276 68.1328 102.823 68.1328C93.8642 68.1328 86.5726 60.8464 86.5726 51.8828C86.5726 42.9245 93.8642 35.6328 102.823 35.6328C105.281 35.6328 107.698 36.1901 109.89 37.2474C108.453 32.5651 106.338 28.1328 103.583 24.0547C100.599 19.6328 96.9476 15.737 92.7236 12.4714C88.458 9.16927 83.7236 6.60677 78.6559 4.84115C73.4111 3.01823 67.9059 2.09115 62.3017 2.09115C56.4424 2.09115 50.708 3.09635 45.2601 5.08594C39.9944 7.0026 35.1142 9.78906 30.7601 13.362C26.4424 16.9036 22.7705 21.1068 19.8538 25.862C17.0153 30.487 14.9684 35.5026 13.7705 40.7734H50.6924V36.3776C50.6924 36.1276 50.8434 35.8984 51.0726 35.8047C51.3069 35.7109 51.5726 35.763 51.7496 35.9401L63.0153 47.2057C63.1351 47.3255 63.1976 47.4818 63.1976 47.6432C63.1976 47.8099 63.1351 47.9661 63.0153 48.0859L51.7496 59.3516C51.5726 59.5286 51.3069 59.5807 51.0726 59.487C50.8434 59.388 50.6924 59.1641 50.6924 58.9141V54.2474H12.583V54.2422Z" fill="#D4F0A3"/>
</g>
<path d="M41.5778 93.638C41.2497 93.638 40.9267 93.5443 40.6247 93.3568C39.7601 92.8151 39.2549 91.5807 39.0726 90.6068C38.1872 85.9036 37.609 81.0911 37.3486 76.3099C37.3278 75.8359 37.2913 75.3568 37.2445 74.888C37.1142 73.5911 36.3903 72.4036 35.3017 71.7214C34.1351 70.9922 33.2497 70.3099 32.5153 69.5807C30.9215 67.9974 30.0413 66.112 30.0309 64.263C30.0205 62.7839 30.5674 61.3932 31.0465 60.1641L33.4163 54.1172C33.5153 53.8724 33.6195 53.6068 33.7445 53.3516C33.8486 53.138 34.0674 53.0078 34.3017 53.0078H41.3278C41.4424 53.0078 41.5517 53.0391 41.6507 53.0964C43.9372 54.4818 45.6351 56.6745 46.3174 59.112L46.3486 59.2266C46.4319 59.5286 46.5101 59.8151 46.6611 59.9714C46.8434 60.1693 47.1976 60.2474 47.609 60.3307L56.9476 62.1224C57.1559 62.1589 57.3278 62.3047 57.4059 62.5026C58.0413 64.112 57.2497 65.5911 56.484 67.0234C56.1611 67.6328 55.8278 68.2578 55.6299 68.8568C55.5153 69.2057 55.4372 69.5807 55.359 69.9714C55.208 70.6901 55.0517 71.4349 54.6403 72.1172C54.109 72.9974 53.2861 73.5495 52.4945 74.0755C52.182 74.2891 51.8851 74.4818 51.609 74.7005C50.7184 75.3984 49.9892 76.3359 49.2809 77.2474C46.1194 81.3255 43.3017 85.3568 43.5622 89.8724C43.6247 90.9193 43.7497 93.1068 42.0674 93.5703C41.9007 93.6172 41.7392 93.638 41.5778 93.638ZM34.7028 54.2422C34.6559 54.3516 34.609 54.4661 34.5674 54.5703L32.2028 60.612C31.7392 61.7943 31.2601 63.0182 31.2705 64.2578C31.2705 65.1328 31.5569 66.8776 33.3903 68.7005C34.057 69.3672 34.8747 69.9922 35.958 70.6745C37.3695 71.5599 38.3122 73.0859 38.4736 74.7682C38.5257 75.2526 38.5622 75.7474 38.5882 76.2474C38.8434 80.9714 39.4163 85.7266 40.2913 90.3776C40.4528 91.2526 40.8642 92.0443 41.2809 92.3047C41.4319 92.3984 41.5726 92.4193 41.734 92.3776C42.3694 92.2005 42.3903 91.0495 42.3278 89.9401C42.0413 85.0026 44.9944 80.7578 48.3017 76.487C49.0569 75.5182 49.833 74.5182 50.8486 73.7214C51.1611 73.4818 51.4892 73.2578 51.807 73.0495C52.5205 72.5703 53.1924 72.1224 53.583 71.4766C53.8851 70.9766 54.0101 70.3672 54.1455 69.7214C54.2288 69.3099 54.3174 68.888 54.4528 68.4714C54.682 67.7682 55.0465 67.0911 55.3955 66.4401C56.0153 65.2734 56.5674 64.2474 56.3486 63.2682L47.3747 61.5443C46.9163 61.4557 46.2288 61.3255 45.7549 60.8203C45.3955 60.4349 45.2653 59.9661 45.1507 59.5547L45.1247 59.4453C44.5413 57.362 43.0986 55.4714 41.1507 54.2422H34.7028Z" fill="#D4F0A3"/>
<path d="M32.4739 42.0172H12.9999C12.8124 42.0172 12.6354 41.9338 12.5208 41.788C12.401 41.6422 12.3541 41.4547 12.3958 41.2724C14.3072 32.2151 18.6718 23.8401 25.0208 17.0484C25.1874 16.8713 25.4427 16.8036 25.677 16.887C26.2812 17.0953 26.8854 17.3349 27.4687 17.5641C27.7447 17.6734 28.026 17.788 28.302 17.8922C30.3801 18.6891 32.4427 18.6943 34.6249 18.6943C35.5572 18.6943 36.5156 18.6943 37.4739 18.762C38.2083 18.8141 38.8124 19.3036 39.0208 20.0068C39.2343 20.7099 38.9895 21.4495 38.4062 21.8922C37.8229 22.3349 37.2239 22.7776 36.6197 23.2099C36.0729 23.6005 35.9322 24.3453 36.2916 24.9078C36.6666 25.4859 36.9687 26.1057 37.2031 26.7516C37.3437 27.1318 37.6458 27.4182 38.0312 27.538C38.4114 27.6526 38.8072 27.5849 39.1249 27.3505C39.5729 27.0172 40.0104 26.6057 40.4687 26.163C41.6458 25.0484 42.8593 23.8922 44.5156 23.887C44.5208 23.887 44.526 23.887 44.5312 23.887C45.8281 23.887 47.1458 24.6995 47.9635 26.012C48.2656 26.4964 48.5208 27.0536 48.7291 27.7099C48.9218 28.3036 48.8541 28.9547 48.5364 29.4963C48.2239 30.0328 47.6927 30.413 47.0833 30.538C46.5885 30.637 46.177 30.788 45.8385 30.9911C45.3749 31.2776 45.0051 31.7724 44.901 32.2568C44.7083 33.137 44.0312 33.8036 43.1718 33.9651C38.9322 34.7411 35.0416 37.6995 33.026 41.6786C32.9218 41.887 32.7083 42.0172 32.4739 42.0172ZM13.7708 40.7776H32.0989C34.3333 36.6318 38.4583 33.5693 42.9479 32.7463C43.3124 32.6786 43.6041 32.387 43.6874 31.9963C43.8645 31.1734 44.4322 30.4026 45.1979 29.9338C45.6614 29.6526 46.1979 29.4547 46.8385 29.3245C47.1041 29.2672 47.3281 29.1057 47.4687 28.8713C47.6093 28.6318 47.6354 28.3557 47.552 28.0901C47.3697 27.5328 47.1614 27.0641 46.9166 26.6682C46.4479 25.9234 45.5781 25.1266 44.5312 25.1266C44.526 25.1266 44.526 25.1266 44.5208 25.1266C43.3541 25.1318 42.3697 26.0693 41.3229 27.0641C40.8541 27.5068 40.3697 27.9703 39.8645 28.3453C39.2291 28.8141 38.4322 28.9547 37.6718 28.7255C36.9062 28.4911 36.3124 27.9234 36.0364 27.1682C35.8385 26.6109 35.5729 26.0797 35.2499 25.5797C34.5312 24.4599 34.8176 22.9755 35.901 22.1995C36.4895 21.7776 37.0833 21.3453 37.6562 20.9078C37.9166 20.7099 37.8593 20.4391 37.8333 20.3609C37.8124 20.2828 37.7083 20.0224 37.3854 20.0016C36.4739 19.9338 35.5364 19.9338 34.6249 19.9338C32.427 19.9338 30.151 19.9286 27.8593 19.0484C27.5781 18.9391 27.2916 18.8297 27.0104 18.7151C26.5624 18.538 26.1093 18.3557 25.651 18.1891C19.7812 24.5797 15.6874 32.3661 13.7708 40.7776Z" fill="#D4F0A3"/>
<path d="M27.9371 55.6589C27.6351 55.6589 27.3278 55.5859 27.0309 55.4401C26.708 55.2786 26.3955 55.0859 26.0986 54.8672C25.7496 54.6172 25.4163 54.3359 25.1403 54.0911C24.9476 53.9245 24.8746 53.6484 24.9684 53.4089C25.0569 53.1641 25.2861 53.0078 25.5465 53.0078H29.3174C29.6559 53.0078 29.9267 53.2786 29.9371 53.612C29.9476 54.3047 29.583 54.9714 28.9788 55.3516C28.6559 55.5599 28.3017 55.6589 27.9371 55.6589ZM27.4163 54.2422C27.4736 54.2734 27.5309 54.3047 27.583 54.3307C27.9059 54.4922 28.1611 54.4036 28.3174 54.3047C28.3486 54.2891 28.3746 54.2682 28.4059 54.2422H27.4163Z" fill="#D4F0A3"/>
</svg>
