<svg width="49" height="42" viewBox="0 0 49 42" fill="none" xmlns="http://www.w3.org/2000/svg">
<g filter="url(#filter0_d_966_4352)">
<mask id="mask0_966_4352" style="mask-type:luminance" maskUnits="userSpaceOnUse" x="4" y="0" width="41" height="34">
<path d="M4 0H44.2367V34H4V0Z" fill="white"/>
</mask>
<g mask="url(#mask0_966_4352)">
<path d="M25.3757 13.8523C23.9874 13.8523 22.8609 12.7249 22.8609 11.3333V10.7036C22.8609 9.31312 23.9874 8.18565 25.3757 8.18565C26.7652 8.18565 27.8905 9.31312 27.8905 10.7036V11.3333C27.8905 12.7249 26.7652 13.8523 25.3757 13.8523ZM29.7766 17C29.7766 15.2616 28.3694 13.8523 26.6331 13.8523H24.1183C22.3821 13.8523 20.9749 15.2616 20.9749 17V18.2595H29.7766V17ZM32.9201 12.7301C32.6047 12.0071 32.1772 11.3449 31.6627 10.7602V18.2595C31.6627 19.301 30.8171 20.1487 29.7766 20.1487H19.8893C20.2225 20.6098 20.605 21.0321 21.0314 21.4072H29.7766C31.5097 21.4072 32.9201 19.9947 32.9201 18.2595V12.7301ZM44.2367 32.2197C44.2367 33.2026 43.4403 34 42.4585 34C41.987 34 41.5343 33.8124 41.2011 33.4782L32.6414 24.9069C30.7763 26.2639 28.4867 27.0738 26.0044 27.0738C21.8184 27.0738 18.1719 24.7917 16.2146 21.4072H7.14349C5.41038 21.4072 4 19.9947 4 18.2595V3.14873C4 1.41247 5.41038 0 7.14349 0H29.7766C31.5097 0 32.9201 1.41247 32.9201 3.14873V6.78365C35.5931 8.85626 37.321 12.093 37.321 15.7405C37.321 18.227 36.5121 20.5197 35.1562 22.3879L43.7159 30.9602C44.0491 31.2935 44.2367 31.7472 44.2367 32.2197ZM15.5754 20.1487C15.0043 18.7939 14.6879 17.3039 14.6879 15.7405C14.6879 9.48182 19.7541 4.40717 26.0044 4.40717C28.0687 4.40717 29.9967 4.96986 31.6627 5.93596V3.14873C31.6627 2.10719 30.8171 1.25949 29.7766 1.25949H7.14349C6.103 1.25949 5.2574 2.10719 5.2574 3.14873V18.2595C5.2574 19.301 6.103 20.1487 7.14349 20.1487H15.5754ZM26.0044 25.1856C31.2048 25.1856 35.4349 20.9482 35.4349 15.7405C35.4349 10.5328 31.2048 6.29641 26.0044 6.29641C20.8041 6.29641 16.574 10.5328 16.574 15.7405C16.574 20.9482 20.8041 25.1856 26.0044 25.1856ZM12.8018 16.3703H7.14349C6.79561 16.3703 6.51479 16.6521 6.51479 17C6.51479 17.3479 6.79561 17.6297 7.14349 17.6297H12.8018C13.1497 17.6297 13.4305 17.3479 13.4305 17C13.4305 16.6521 13.1497 16.3703 12.8018 16.3703ZM12.8018 12.5928H7.14349C6.79561 12.5928 6.51479 12.8747 6.51479 13.2226C6.51479 13.5705 6.79561 13.8523 7.14349 13.8523H12.8018C13.1497 13.8523 13.4305 13.5705 13.4305 13.2226C13.4305 12.8747 13.1497 12.5928 12.8018 12.5928ZM13.4305 8.18565H7.14349C6.79561 8.18565 6.51479 8.46752 6.51479 8.8154C6.51479 9.16223 6.79561 9.44409 7.14349 9.44409H13.4305C13.7784 9.44409 14.0592 9.16223 14.0592 8.8154C14.0592 8.46752 13.7784 8.18565 13.4305 8.18565ZM7.14349 5.03692H9.65828C10.0062 5.03692 10.287 4.75505 10.287 4.40717C10.287 4.05929 10.0062 3.77743 9.65828 3.77743H7.14349C6.79561 3.77743 6.51479 4.05929 6.51479 4.40717C6.51479 4.75505 6.79561 5.03692 7.14349 5.03692ZM12.1731 5.03692H14.6879C15.0357 5.03692 15.3166 4.75505 15.3166 4.40717C15.3166 4.05929 15.0357 3.77743 14.6879 3.77743H12.1731C11.8252 3.77743 11.5444 4.05929 11.5444 4.40717C11.5444 4.75505 11.8252 5.03692 12.1731 5.03692ZM17.2027 5.03692H18.4601C18.8079 5.03692 19.0888 4.75505 19.0888 4.40717C19.0888 4.05929 18.8079 3.77743 18.4601 3.77743H17.2027C16.8548 3.77743 16.574 4.05929 16.574 4.40717C16.574 4.75505 16.8548 5.03692 17.2027 5.03692Z" fill="white" fill-opacity="0.3"/>
</g>
</g>
<defs>
<filter id="filter0_d_966_4352" x="0" y="0" width="48.2363" height="42" filterUnits="userSpaceOnUse" color-interpolation-filters="sRGB">
<feFlood flood-opacity="0" result="BackgroundImageFix"/>
<feColorMatrix in="SourceAlpha" type="matrix" values="0 0 0 0 0 0 0 0 0 0 0 0 0 0 0 0 0 0 127 0" result="hardAlpha"/>
<feOffset dy="4"/>
<feGaussianBlur stdDeviation="2"/>
<feComposite in2="hardAlpha" operator="out"/>
<feColorMatrix type="matrix" values="0 0 0 0 0 0 0 0 0 0 0 0 0 0 0 0 0 0 0.25 0"/>
<feBlend mode="normal" in2="BackgroundImageFix" result="effect1_dropShadow_966_4352"/>
<feBlend mode="normal" in="SourceGraphic" in2="effect1_dropShadow_966_4352" result="shape"/>
</filter>
</defs>
</svg>
