<svg width="44" height="31" viewBox="0 0 44 31" fill="none" xmlns="http://www.w3.org/2000/svg">
<path d="M5.51658 0.832031C2.96562 0.832031 0.878906 2.91874 0.878906 5.4697V25.8821C0.878906 28.4331 2.96562 30.5198 5.51658 30.5198H38.9183C41.4693 30.5198 43.556 28.4331 43.556 25.8821V5.4697C43.556 2.91874 41.4693 0.832031 38.9183 0.832031H5.51658ZM5.51658 2.68901H38.9183C40.4642 2.68901 41.699 3.92381 41.699 5.4697V25.8821C41.699 27.428 40.4642 28.6628 38.9183 28.6628H5.51658C3.97069 28.6628 2.73589 27.428 2.73589 25.8821V5.4697C2.73589 3.92381 3.97069 2.68901 5.51658 2.68901ZM20.3629 3.6175C19.8508 3.6175 19.4344 4.03389 19.4344 4.54121C19.4344 5.05332 19.8508 5.4697 20.3629 5.4697C20.8702 5.4697 21.2866 5.05332 21.2866 4.54121C21.2866 4.03389 20.8702 3.6175 20.3629 3.6175ZM11.4895 5.4697C9.13482 5.4697 8.25897 7.30275 8.93859 8.863C8.85244 8.91565 8.72801 9.07837 8.76629 9.38468C8.82851 9.95422 9.05346 10.0978 9.19704 10.1122C9.25447 10.6434 9.59428 11.2895 9.78093 11.3852C9.78093 11.7681 9.78572 12.0409 9.75222 12.4573C9.3119 13.673 6.58386 13.3332 6.44507 15.6783H15.7204C15.5864 13.3332 12.6573 13.673 12.2122 12.4573C12.1787 12.0409 12.1835 11.7681 12.1835 11.3852C12.3702 11.2895 12.71 10.6434 12.7674 10.1122C12.911 10.0978 13.1359 9.95422 13.1982 9.38468C13.2365 9.07837 13.112 8.8965 12.9972 8.863C13.4327 8.29346 13.3609 5.99138 11.7193 5.99138L11.4895 5.4697ZM20.3629 6.39819C19.8508 6.39819 19.4344 6.81458 19.4344 7.32668C19.4344 7.83879 19.8508 8.25517 20.3629 8.25517C20.8702 8.25517 21.2866 7.83879 21.2866 7.32668C21.2866 6.81458 20.8702 6.39819 20.3629 6.39819ZM20.3629 9.18366C19.8508 9.18366 19.4344 9.60005 19.4344 10.1122C19.4344 10.6195 19.8508 11.0359 20.3629 11.0359C20.8702 11.0359 21.2866 10.6195 21.2866 10.1122C21.2866 9.60005 20.8702 9.18366 20.3629 9.18366ZM24.8282 9.18366C24.3161 9.23153 23.938 9.6862 23.9859 10.1983C24.0337 10.7056 24.4884 11.0837 25.0005 11.0359H37.0613C37.3916 11.0406 37.7075 10.8683 37.875 10.5764C38.0425 10.2892 38.0425 9.93029 37.875 9.64312C37.7075 9.35118 37.3916 9.17888 37.0613 9.18366H25.0005C24.9718 9.18366 24.9431 9.18366 24.9144 9.18366C24.8857 9.18366 24.8569 9.18366 24.8282 9.18366ZM20.3629 11.9644C19.8508 11.9644 19.4344 12.3807 19.4344 12.8928C19.4344 13.4049 19.8508 13.8213 20.3629 13.8213C20.8702 13.8213 21.2866 13.4049 21.2866 12.8928C21.2866 12.3807 20.8702 11.9644 20.3629 11.9644ZM24.8282 12.8928C24.3161 12.9407 23.938 13.3954 23.9859 13.9075C24.0337 14.4196 24.4884 14.7977 25.0005 14.7498H34.2759C34.6109 14.7498 34.922 14.5775 35.0943 14.2904C35.257 13.9984 35.257 13.6443 35.0943 13.3523C34.922 13.0651 34.6109 12.8881 34.2759 12.8928H25.0005C24.9718 12.8928 24.9431 12.8928 24.9144 12.8928C24.8857 12.8928 24.8569 12.8928 24.8282 12.8928ZM20.3629 14.7498C19.8508 14.7498 19.4344 15.1662 19.4344 15.6783C19.4344 16.1856 19.8508 16.602 20.3629 16.602C20.8702 16.602 21.2866 16.1856 21.2866 15.6783C21.2866 15.1662 20.8702 14.7498 20.3629 14.7498ZM24.8282 16.602C24.3161 16.6499 23.938 17.1093 23.9859 17.6167C24.0337 18.1288 24.4884 18.5069 25.0005 18.459H37.0613C37.3916 18.4638 37.7075 18.2915 37.875 17.9995C38.0425 17.7076 38.0425 17.3534 37.875 17.0663C37.7075 16.7743 37.3916 16.602 37.0613 16.602H25.0005C24.9718 16.602 24.9431 16.602 24.9144 16.602C24.8857 16.602 24.8569 16.602 24.8282 16.602ZM8.96731 17.5305C8.17283 17.5305 7.45013 18.0522 7.19647 18.8084L6.5025 20.9525L6.44507 21.0961V25.4179C6.44507 25.6763 6.65087 25.8821 6.90931 25.8821H7.8378C8.09146 25.8821 8.30205 25.6763 8.30205 25.4179V24.9537H13.8682V25.4179C13.8682 25.6763 14.074 25.8821 14.3325 25.8821H15.2562C15.5146 25.8821 15.7204 25.6763 15.7204 25.4179V21.0961L15.663 20.9525L14.969 18.8084C14.7201 18.0522 13.9926 17.5305 13.1982 17.5305H8.96731ZM20.3629 17.5305C19.8508 17.5305 19.4344 17.9469 19.4344 18.459C19.4344 18.9711 19.8508 19.3875 20.3629 19.3875C20.8702 19.3875 21.2866 18.9711 21.2866 18.459C21.2866 17.9469 20.8702 17.5305 20.3629 17.5305ZM8.96731 19.3875H13.1982L13.8395 21.2445H8.33076L8.96731 19.3875ZM20.3629 20.316C19.8508 20.316 19.4344 20.7324 19.4344 21.2445C19.4344 21.7518 19.8508 22.1682 20.3629 22.1682C20.8702 22.1682 21.2866 21.7518 21.2866 21.2445C21.2866 20.7324 20.8702 20.316 20.3629 20.316ZM24.8282 20.316C24.3161 20.3638 23.938 20.8185 23.9859 21.3306C24.0337 21.8427 24.4884 22.216 25.0005 22.1682H34.2759C34.6109 22.173 34.922 22.0007 35.0943 21.7087C35.257 21.4216 35.257 21.0674 35.0943 20.7754C34.922 20.4835 34.6109 20.3112 34.2759 20.316H25.0005C24.9718 20.316 24.9431 20.316 24.9144 20.316C24.8857 20.316 24.8569 20.316 24.8282 20.316ZM8.30205 22.1682C8.80937 22.1682 9.23054 22.5894 9.23054 23.0967C9.23054 23.6088 8.80937 24.0252 8.30205 24.0252C7.78994 24.0252 7.37356 23.6088 7.37356 23.0967C7.37356 22.5894 7.78994 22.1682 8.30205 22.1682ZM13.8682 22.1682C14.3755 22.1682 14.7967 22.5894 14.7967 23.0967C14.7967 23.6088 14.3755 24.0252 13.8682 24.0252C13.3561 24.0252 12.9397 23.6088 12.9397 23.0967C12.9397 22.5894 13.3561 22.1682 13.8682 22.1682ZM20.3629 23.0967C19.8508 23.0967 19.4344 23.5131 19.4344 24.0252C19.4344 24.5373 19.8508 24.9537 20.3629 24.9537C20.8702 24.9537 21.2866 24.5373 21.2866 24.0252C21.2866 23.5131 20.8702 23.0967 20.3629 23.0967ZM20.3629 25.8821C19.8508 25.8821 19.4344 26.2985 19.4344 26.8106C19.4344 27.318 19.8508 27.7391 20.3629 27.7391C20.8702 27.7391 21.2866 27.318 21.2866 26.8106C21.2866 26.2985 20.8702 25.8821 20.3629 25.8821Z" fill="#F4F4FF" fill-opacity="0.3"/>
</svg>
