<svg width="23" height="23" viewBox="0 0 23 23" fill="none" xmlns="http://www.w3.org/2000/svg">
<path fill-rule="evenodd" clip-rule="evenodd" d="M17.1419 4.45912L18.2451 2.92969L18.5543 3.19713C19.6575 4.18332 20.5517 5.38681 21.1786 6.72402C21.8639 8.17824 22.2065 9.75781 22.2065 11.3708C22.2065 14.2876 21.0616 17.054 18.9972 19.1183C16.9329 21.1826 14.1666 22.3276 11.2498 22.3276C8.333 22.3276 5.55829 21.1826 3.49397 19.1183C1.43801 17.054 0.284668 14.2876 0.284668 11.3708C0.284668 9.75781 0.635684 8.17824 1.32101 6.72402C1.95618 5.36174 2.86715 4.14989 3.99542 3.15534L4.25451 2.92969L5.58336 4.25854L5.29085 4.51762C4.33808 5.35338 3.56083 6.373 3.02595 7.52634C2.45763 8.72983 2.17348 10.042 2.17348 11.3708C2.17348 13.7862 3.12624 16.0761 4.83118 17.7894C6.53612 19.4944 8.83445 20.4471 11.2498 20.4471C13.6651 20.4471 15.9551 19.4944 17.6684 17.7894C19.3733 16.0761 20.3261 13.7862 20.3261 11.3708C20.3261 10.042 20.0419 8.72983 19.4736 7.52634C18.9722 6.44822 18.2534 5.47874 17.3842 4.67642L17.1419 4.45912Z" fill="#F7F7F7"/>
<path fill-rule="evenodd" clip-rule="evenodd" d="M10.3057 0.15625H12.1945V12.0073H10.3057V0.15625Z" fill="#F7F7F7"/>
</svg>
