<svg width="35" height="35" viewBox="0 0 35 35" fill="none" xmlns="http://www.w3.org/2000/svg">
<path d="M29.4437 5.04797C30.246 5.85029 30.9648 6.71948 31.5916 7.66388C32.2184 8.59993 32.7533 9.59448 33.1879 10.6475C33.6225 11.6922 33.9484 12.7703 34.1657 13.8819C34.3913 14.9935 34.5 16.1134 34.5 17.2416C34.5 18.3783 34.3913 19.4982 34.1657 20.6097C33.9484 21.7213 33.6225 22.7994 33.1879 23.8441C32.7533 24.8972 32.2184 25.8834 31.5916 26.8278C30.9648 27.7722 30.246 28.6414 29.4437 29.4437C28.6497 30.246 27.7722 30.9564 26.8361 31.5916C25.8917 32.2184 24.8972 32.7449 23.8525 33.1795C22.8078 33.6141 21.7213 33.94 20.6181 34.1657C19.5065 34.383 18.3783 34.4916 17.25 34.4916C16.1134 34.4916 14.9935 34.383 13.8819 34.1657C12.7703 33.94 11.6922 33.6141 10.6475 33.1795C9.60283 32.7533 8.60828 32.2184 7.66388 31.5916C6.72783 30.9564 5.85029 30.246 5.04797 29.4437C4.254 28.6414 3.53525 27.7722 2.90843 26.8278C2.27326 25.8917 1.74673 24.8972 1.31214 23.8441C0.877544 22.7994 0.551598 21.7213 0.334302 20.6097C0.108648 19.4982 0 18.3783 0 17.25C0 16.1134 0.108648 14.9935 0.334302 13.8819C0.551598 12.7703 0.877544 11.6922 1.31214 10.6475C1.74673 9.59448 2.27326 8.60829 2.90843 7.66388C3.53525 6.71948 4.254 5.85029 5.04797 5.04797C5.85029 4.24564 6.71948 3.53525 7.66388 2.90007C8.60828 2.27326 9.60283 1.74673 10.6475 1.31214C11.6922 0.877544 12.7703 0.551599 13.8819 0.325945C14.9935 0.108649 16.1134 0 17.25 0C18.3783 0 19.5065 0.108649 20.6181 0.325945C21.7213 0.551599 22.7994 0.877544 23.8525 1.31214C24.8972 1.73837 25.8917 2.27326 26.8361 2.90007C27.7722 3.53525 28.6414 4.24564 29.4437 5.04797Z" fill="#2A4738"/>
<path fill-rule="evenodd" clip-rule="evenodd" d="M23.1424 10.4591L24.2456 8.92969L24.5548 9.19713C25.658 10.1833 26.5522 11.3868 27.1791 12.724C27.8644 14.1782 28.207 15.7578 28.207 17.3708C28.207 20.2876 27.062 23.054 24.9977 25.1183C22.9334 27.1826 20.1671 28.3276 17.2503 28.3276C14.3335 28.3276 11.5588 27.1826 9.49446 25.1183C7.4385 23.054 6.28516 20.2876 6.28516 17.3708C6.28516 15.7578 6.63617 14.1782 7.32149 12.724C7.95667 11.3617 8.86764 10.1499 9.99591 9.15534L10.255 8.92969L11.5838 10.2585L11.2913 10.5176C10.3386 11.3534 9.56132 12.373 9.02644 13.5263C8.45812 14.7298 8.17396 16.042 8.17396 17.3708C8.17396 19.7862 9.12673 22.0761 10.8317 23.7894C12.5366 25.4944 14.8349 26.4471 17.2503 26.4471C19.6656 26.4471 21.9556 25.4944 23.6689 23.7894C25.3738 22.0761 26.3266 19.7862 26.3266 17.3708C26.3266 16.042 26.0424 14.7298 25.4741 13.5263C24.9727 12.4482 24.2539 11.4787 23.3847 10.6764L23.1424 10.4591Z" fill="#F7F7F7"/>
<path fill-rule="evenodd" clip-rule="evenodd" d="M16.3066 6.15625H18.1954V18.0073H16.3066V6.15625Z" fill="#F7F7F7"/>
</svg>
