<svg width="35" height="35" viewBox="0 0 35 35" fill="none" xmlns="http://www.w3.org/2000/svg">
<path d="M29.4437 5.04797C30.246 5.85029 30.9648 6.71948 31.5916 7.66388C32.2184 8.59993 32.7533 9.59448 33.1879 10.6475C33.6225 11.6922 33.9484 12.7703 34.1657 13.8819C34.3913 14.9935 34.5 16.1134 34.5 17.2416C34.5 18.3783 34.3913 19.4982 34.1657 20.6097C33.9484 21.7213 33.6225 22.7994 33.1879 23.8441C32.7533 24.8972 32.2184 25.8834 31.5916 26.8278C30.9648 27.7722 30.246 28.6414 29.4437 29.4437C28.6497 30.246 27.7722 30.9564 26.8361 31.5916C25.8917 32.2184 24.8972 32.7449 23.8525 33.1795C22.8078 33.6141 21.7213 33.94 20.6181 34.1657C19.5065 34.383 18.3783 34.4916 17.25 34.4916C16.1134 34.4916 14.9935 34.383 13.8819 34.1657C12.7703 33.94 11.6922 33.6141 10.6475 33.1795C9.60283 32.7533 8.60828 32.2184 7.66388 31.5916C6.72783 30.9564 5.85029 30.246 5.04797 29.4437C4.254 28.6414 3.53525 27.7722 2.90843 26.8278C2.27326 25.8917 1.74673 24.8972 1.31214 23.8441C0.877544 22.7994 0.551598 21.7213 0.334302 20.6097C0.108648 19.4982 0 18.3783 0 17.25C0 16.1134 0.108648 14.9935 0.334302 13.8819C0.551598 12.7703 0.877544 11.6922 1.31214 10.6475C1.74673 9.59448 2.27326 8.60829 2.90843 7.66388C3.53525 6.71948 4.254 5.85029 5.04797 5.04797C5.85029 4.24564 6.71948 3.53525 7.66388 2.90007C8.60828 2.27326 9.60283 1.74673 10.6475 1.31214C11.6922 0.877544 12.7703 0.551599 13.8819 0.325945C14.9935 0.108649 16.1134 0 17.25 0C18.3783 0 19.5065 0.108649 20.6181 0.325945C21.7213 0.551599 22.7994 0.877544 23.8525 1.31214C24.8972 1.73837 25.8917 2.27326 26.8361 2.90007C27.7722 3.53525 28.6414 4.24564 29.4437 5.04797Z" fill="#0F1738"/>
</svg>
