<svg width="11" height="11" viewBox="0 0 11 11" fill="none" xmlns="http://www.w3.org/2000/svg">
<mask id="mask0_818_18673" style="mask-type:luminance" maskUnits="userSpaceOnUse" x="0" y="0" width="11" height="11">
<path d="M0.734375 0.359375H10.7188V10.3438H0.734375V0.359375Z" fill="white"/>
</mask>
<g mask="url(#mask0_818_18673)">
<path d="M3.09873 3.20573C3.09873 2.83073 3.17165 2.46615 3.31227 2.1224C3.45811 1.77344 3.66123 1.46615 3.92686 1.20052C4.19769 0.934897 4.49977 0.726563 4.84873 0.585938C5.19769 0.440104 5.55706 0.367188 5.93206 0.367188C9.68206 0.502605 9.69248 5.89844 5.94248 6.04427C5.56748 6.04427 5.2029 5.97135 4.85394 5.83073C4.50498 5.6849 4.19769 5.48177 3.93206 5.21615C3.66644 4.95052 3.45811 4.64323 3.31748 4.29427C3.17165 3.94531 3.09873 3.58073 3.09873 3.20573ZM8.80706 6.04427C8.63519 5.9401 8.46852 5.94531 8.30706 6.05469C7.96332 6.33073 7.58831 6.54427 7.17165 6.6901C6.76019 6.83594 6.33311 6.90885 5.8904 6.90365C5.4529 6.89844 5.02581 6.82552 4.61436 6.67448C4.2029 6.51823 3.8279 6.30469 3.48936 6.02344C3.35394 5.96094 3.21852 5.96615 3.08831 6.04427C2.37998 6.51823 1.82269 7.1276 1.41644 7.88281C1.0154 8.63802 0.812272 9.4401 0.81748 10.2995C0.81748 10.4193 0.859147 10.5182 0.94248 10.6068C1.03102 10.6901 1.12998 10.7318 1.24977 10.7318H10.63C10.7498 10.7318 10.8539 10.6901 10.9425 10.6068C11.0258 10.5182 11.0675 10.4193 11.0675 10.2995C11.0675 9.44531 10.8644 8.64323 10.4685 7.88802C10.0675 7.13802 9.51019 6.52344 8.80706 6.04427Z" fill="#0F1738"/>
</g>
</svg>
