<svg width="40" height="48" viewBox="0 0 40 48" fill="none" xmlns="http://www.w3.org/2000/svg">
<mask id="mask0_705_12822" style="mask-type:luminance" maskUnits="userSpaceOnUse" x="0" y="0" width="32" height="42">
<path d="M0.484375 0.976562H31.3333V41.2109H0.484375V0.976562Z" fill="white"/>
</mask>
<g mask="url(#mask0_705_12822)">
<path d="M29.026 25.8802C29.4895 25.8802 29.9478 25.9062 30.401 25.9583V11.3802L30.1978 11.1823H22.8801C21.2551 11.1823 19.927 9.85938 19.927 8.22917V1.31771L19.7291 1.125H2.71867C1.49471 1.125 0.505127 2.11458 0.505127 3.33854V38.7708C0.505127 39.9948 1.49471 40.9844 2.71867 40.9844H17.4322C17.1718 39.9948 17.026 38.9531 17.026 37.875C17.026 31.25 22.3958 25.8802 29.026 25.8802ZM4.44784 13.7812H26.5676C26.9478 13.7812 27.2551 14.0938 27.2551 14.474C27.2551 14.8542 26.9478 15.1667 26.5676 15.1667H4.44784C4.06763 15.1667 3.75513 14.8542 3.75513 14.474C3.75513 14.0938 4.06763 13.7812 4.44784 13.7812ZM4.44784 17.4115H26.5676C26.9478 17.4115 27.2551 17.7188 27.2551 18.1042C27.2551 18.4844 26.9478 18.7917 26.5676 18.7917H4.44784C4.06763 18.7917 3.75513 18.4844 3.75513 18.1042C3.75513 17.7188 4.06763 17.4115 4.44784 17.4115ZM4.44784 20.8646H26.5676C26.9478 20.8646 27.2551 21.1771 27.2551 21.5573C27.2551 21.9427 26.9478 22.25 26.5676 22.25H4.44784C4.06763 22.25 3.75513 21.9427 3.75513 21.5573C3.75513 21.1771 4.06763 20.8646 4.44784 20.8646ZM4.44784 24.4948H26.5676C26.9478 24.4948 27.2551 24.8073 27.2551 25.1875C27.2551 25.5677 26.9478 25.8802 26.5676 25.8802H4.44784C4.06763 25.8802 3.75513 25.5677 3.75513 25.1875C3.75513 24.8073 4.06763 24.4948 4.44784 24.4948ZM16.026 29.5052H4.44784C4.06763 29.5052 3.75513 29.1979 3.75513 28.8177C3.75513 28.4323 4.06763 28.125 4.44784 28.125H16.026C16.4062 28.125 16.7187 28.4323 16.7187 28.8177C16.7187 29.1979 16.4062 29.5052 16.026 29.5052Z" fill="#0F1738"/>
</g>
<path d="M22.8802 9.6276H29.2552L21.4844 2.16406V8.23177C21.4844 9.0026 22.1094 9.6276 22.8802 9.6276Z" fill="#0F1738"/>
<mask id="mask1_705_12822" style="mask-type:luminance" maskUnits="userSpaceOnUse" x="18" y="26" width="22" height="22">
<path d="M18 26.5469H39.3333V47.9062H18V26.5469Z" fill="white"/>
</mask>
<g mask="url(#mask1_705_12822)">
<path d="M30.4011 27.9141C29.9428 27.8516 29.474 27.8047 28.9949 27.8047C23.422 27.8047 18.9011 32.3255 18.9011 37.8984C18.9011 38.9766 19.0782 40.013 19.3907 40.987C20.6928 45.0495 24.5001 47.9922 28.9949 47.9922C34.5678 47.9922 39.0886 43.4714 39.0886 37.8984C39.0886 32.7995 35.3074 28.6016 30.4011 27.9141ZM34.1824 39.4609H30.599V43.0443C30.599 43.9245 29.8855 44.638 29.0053 44.638C28.1251 44.638 27.4167 43.9245 27.4167 43.0443V39.4609H23.8282C22.948 39.4609 22.2345 38.7474 22.2345 37.8672C22.2345 36.987 22.948 36.2786 23.8282 36.2786H27.4167V32.6901C27.4167 31.8099 28.1251 31.0964 29.0053 31.0964C29.6147 31.0964 30.1355 31.4401 30.4011 31.9401C30.5209 32.1641 30.599 32.4141 30.599 32.6901V36.2786H34.1824C35.0626 36.2786 35.7761 36.987 35.7761 37.8672C35.7761 38.7474 35.0626 39.4609 34.1824 39.4609Z" fill="#0F1738"/>
</g>
</svg>
