<svg width="39" height="47" viewBox="0 0 39 47" fill="none" xmlns="http://www.w3.org/2000/svg">
<mask id="mask0_1092_7671" style="mask-type:luminance" maskUnits="userSpaceOnUse" x="0" y="0" width="31" height="41">
<path d="M0 0H30.849V40.5417H0V0Z" fill="white"/>
</mask>
<g mask="url(#mask0_1092_7671)">
<path d="M28.5413 24.8958C29.0049 24.8958 29.4632 24.9271 29.9163 24.9792V10.3958L29.7132 10.1979H22.3955C20.7705 10.1979 19.4424 8.875 19.4424 7.24479V0.333333L19.2445 0.140625H2.23405C1.01009 0.140625 0.0205078 1.13021 0.0205078 2.35417V37.7917C0.0205078 39.0104 1.01009 40.0052 2.23405 40.0052H16.9476C16.6872 39.0104 16.5413 37.9688 16.5413 36.8958C16.5413 30.2656 21.9111 24.8958 28.5413 24.8958ZM3.96322 12.8021H26.083C26.4632 12.8021 26.7705 13.1094 26.7705 13.4896C26.7705 13.875 26.4632 14.1823 26.083 14.1823H3.96322C3.58301 14.1823 3.27051 13.875 3.27051 13.4896C3.27051 13.1094 3.58301 12.8021 3.96322 12.8021ZM3.96322 16.4271H26.083C26.4632 16.4271 26.7705 16.7396 26.7705 17.1198C26.7705 17.5 26.4632 17.8125 26.083 17.8125H3.96322C3.58301 17.8125 3.27051 17.5 3.27051 17.1198C3.27051 16.7396 3.58301 16.4271 3.96322 16.4271ZM3.96322 19.8854H26.083C26.4632 19.8854 26.7705 20.1927 26.7705 20.5781C26.7705 20.9583 26.4632 21.2656 26.083 21.2656H3.96322C3.58301 21.2656 3.27051 20.9583 3.27051 20.5781C3.27051 20.1927 3.58301 19.8854 3.96322 19.8854ZM3.96322 23.5156H26.083C26.4632 23.5156 26.7705 23.8229 26.7705 24.2031C26.7705 24.5885 26.4632 24.8958 26.083 24.8958H3.96322C3.58301 24.8958 3.27051 24.5885 3.27051 24.2031C3.27051 23.8229 3.58301 23.5156 3.96322 23.5156ZM15.5413 28.526H3.96322C3.58301 28.526 3.27051 28.2135 3.27051 27.8333C3.27051 27.4531 3.58301 27.1406 3.96322 27.1406H15.5413C15.9216 27.1406 16.2341 27.4531 16.2341 27.8333C16.2341 28.2135 15.9216 28.526 15.5413 28.526Z" fill="#0F1738"/>
</g>
<path d="M22.3958 8.64844H28.7708L21 1.17969V7.2474C21 8.01823 21.625 8.64844 22.3958 8.64844Z" fill="#0F1738"/>
<mask id="mask1_1092_7671" style="mask-type:luminance" maskUnits="userSpaceOnUse" x="17" y="25" width="22" height="22">
<path d="M17.5156 25.875H38.849V46.9219H17.5156V25.875Z" fill="white"/>
</mask>
<g mask="url(#mask1_1092_7671)">
<path d="M29.917 26.9297C29.4587 26.8672 28.9899 26.8203 28.5107 26.8203C22.9378 26.8203 18.417 31.3411 18.417 36.9141C18.417 37.9922 18.5941 39.0286 18.9066 40.0078C20.2087 44.0651 24.016 47.0078 28.5107 47.0078C34.0837 47.0078 38.6045 42.487 38.6045 36.9141C38.6045 31.8203 34.8232 27.6172 29.917 26.9297ZM33.6982 38.4766H30.1149V42.0651C30.1149 42.9453 29.4014 43.6536 28.5212 43.6536C27.641 43.6536 26.9326 42.9453 26.9326 42.0651V38.4766H23.3441C22.4639 38.4766 21.7503 37.763 21.7503 36.888C21.7503 36.0078 22.4639 35.2943 23.3441 35.2943H26.9326V31.7057C26.9326 30.8255 27.641 30.1172 28.5212 30.1172C29.1305 30.1172 29.6514 30.4609 29.917 30.9609C30.0368 31.1849 30.1149 31.4349 30.1149 31.7057V35.2943H33.6982C34.5785 35.2943 35.292 36.0078 35.292 36.888C35.292 37.763 34.5785 38.4766 33.6982 38.4766Z" fill="#0F1738"/>
</g>
</svg>
