<svg width="54" height="60" viewBox="0 0 54 60" fill="none" xmlns="http://www.w3.org/2000/svg">
<mask id="mask0_605_4055" style="mask-type:luminance" maskUnits="userSpaceOnUse" x="19" y="53" width="16" height="7">
<path d="M19.9316 53H34.576V59.5131H19.9316V53Z" fill="white"/>
</mask>
<g mask="url(#mask0_605_4055)">
<path d="M33.7918 54.2116C33.6529 54.0154 33.3914 53.8847 33.2197 53.9092L20.8145 53.9827C20.8145 53.9827 20.3732 54.1053 20.2507 54.2933C20.1281 54.4894 20.1036 54.7264 20.2016 54.9307C21.3784 57.6357 24.0588 59.3763 27.009 59.3763C29.9999 59.3763 32.6804 57.603 33.849 54.849C33.9307 54.6283 33.9062 54.3914 33.7918 54.2116Z" fill=""/>
</g>
<mask id="mask1_605_4055" style="mask-type:luminance" maskUnits="userSpaceOnUse" x="0" y="0" width="54" height="54">
<path d="M0 0H53.2656V53.0123H0V0Z" fill="white"/>
</mask>
<g mask="url(#mask1_605_4055)">
<path d="M53.519 47.5693L45.9108 41.2196V24.3034C45.9108 15.7309 40.1576 8.48226 32.3206 6.16956C32.3614 5.91623 32.4023 5.66289 32.4023 5.40139C32.4023 2.41857 29.9915 0.0078125 27.0087 0.0078125C24.0259 0.0078125 21.607 2.41857 21.607 5.40139C21.607 5.66289 21.656 5.91623 21.6969 6.16956C13.8517 8.48226 8.1067 15.7146 8.1067 24.3034V41.2196L0.482153 47.5693C0.171615 47.8227 0 48.2067 0 48.599V49.9474C0 50.6911 0.604734 51.2958 1.34839 51.2958H52.6527C53.3964 51.2958 54.0011 50.6911 54.0011 49.9474V48.599C54.0011 48.2067 53.8213 47.8227 53.519 47.5693ZM24.3283 5.62203C24.3283 5.54848 24.3038 5.47493 24.3038 5.40139C24.3038 3.91407 25.5132 2.69643 27.0087 2.69643C28.496 2.69643 29.6973 3.91407 29.6973 5.40139C29.6973 5.47493 29.6892 5.54848 29.6728 5.62203C28.7984 5.49945 27.9077 5.40139 26.9924 5.40139C26.0853 5.40139 25.2027 5.48311 24.3283 5.62203Z" fill=""/>
</g>
</svg>
