<svg width="47" height="43" viewBox="0 0 47 43" fill="none" xmlns="http://www.w3.org/2000/svg">
<g filter="url(#filter0_d_966_4332)">
<mask id="mask0_966_4332" style="mask-type:luminance" maskUnits="userSpaceOnUse" x="4" y="12" width="39" height="24">
<path d="M4 12.8828H42.1078V35.002H4V12.8828Z" fill="white"/>
</mask>
<g mask="url(#mask0_966_4332)">
<path d="M37.2613 13.9339C36.9191 13.1876 36.032 12.8645 35.2907 13.2068L31.228 15.067C30.4807 15.4083 30.1506 16.2944 30.4928 17.0417L30.7085 17.5166C29.4913 17.7951 28.2498 17.7445 27.1339 17.3394C25.4104 16.7187 23.6231 16.6052 22.4251 16.6174C22.4251 16.6174 22.3684 16.6174 22.2104 16.6366L22.0261 16.6559C21.4307 16.7126 19.8844 16.8959 18.3381 17.3202C16.7594 17.7505 15.1624 17.7566 13.6738 17.3516L13.7498 17.0032C13.927 16.2002 13.4197 15.4022 12.6156 15.225L8.2491 14.2701C7.86227 14.1871 7.46329 14.2569 7.12709 14.4726C6.79089 14.6873 6.55697 15.0164 6.47394 15.4022L4.07195 26.3125C3.90182 27.1165 4.40814 27.9074 5.21319 28.0846L9.57971 29.0405C9.68705 29.0658 9.79541 29.078 9.90275 29.078C10.1812 29.078 10.4546 28.996 10.7017 28.8441C11.0369 28.6294 11.2658 28.3003 11.3539 27.9074L11.4997 27.2309L12.6663 27.1732C12.5133 27.4334 12.4313 27.7302 12.4506 28.0339C12.4759 28.4967 12.7037 28.92 13.0713 29.1985L13.1979 29.2937C13.4774 29.5023 13.8004 29.6035 14.1295 29.6035C14.2126 29.6035 14.2946 29.5914 14.3766 29.5782C14.3958 29.8759 14.5103 30.1737 14.7128 30.439C14.9984 30.7995 15.4287 31.0091 15.8915 31.0091H15.9047C15.9735 31.0091 16.0434 30.9959 16.1133 30.9838C16.1447 31.2552 16.253 31.5276 16.4434 31.7686C16.728 32.1291 17.1594 32.3377 17.6221 32.3377H17.6343C17.7163 32.3377 17.7993 32.3184 17.8814 32.3063C17.9259 32.5463 18.0272 32.7873 18.1862 33.002C18.4707 33.3878 18.9082 33.6096 19.377 33.6096H19.3831C19.4408 33.6096 19.4975 33.5974 19.5482 33.5903C19.5796 33.8688 19.6879 34.1473 19.8844 34.3944C20.1689 34.7549 20.6003 34.9645 21.0631 34.9645H21.0752C21.5441 34.9574 21.9694 34.7427 22.254 34.369L23.1096 33.243L24.2124 34.0025C24.5294 34.2111 24.897 34.3245 25.2777 34.3245C25.6514 34.3245 26.0119 34.2171 26.3106 34.0146C26.665 33.7807 26.9182 33.4455 27.0519 33.0526C27.3364 33.2298 27.6665 33.3311 28.021 33.3311C28.4777 33.3311 28.9212 33.1599 29.2503 32.8562C29.4984 32.6354 29.6625 32.3508 29.7637 32.04C29.948 32.1159 30.1506 32.1544 30.3531 32.1544C30.8037 32.1544 31.2219 31.9833 31.5389 31.6602C31.8305 31.3696 31.9946 30.9706 32.0138 30.5595C32.4634 30.5149 32.8756 30.3256 33.1986 30.0025C33.9591 29.243 33.953 28.0026 33.1986 27.2431L33.1865 27.2309C33.7951 27.2178 34.4097 27.0972 34.992 26.8512H35.0052L35.1571 27.1924C35.3221 27.5529 35.6198 27.8253 35.9935 27.9651C36.1646 28.0279 36.3358 28.0593 36.513 28.0593C36.7226 28.0593 36.9383 28.0157 37.1348 27.9205L41.1965 26.0593C41.9448 25.718 42.2739 24.832 41.9317 24.0856L37.2613 13.9339ZM15.2009 27.2431L14.3452 28.2365C14.25 28.3509 14.0789 28.3701 13.9584 28.281L13.8318 28.1858C13.7366 28.117 13.7184 28.0218 13.7184 27.9712C13.7113 27.9205 13.7245 27.8253 13.8065 27.7433L14.7888 26.8441C14.8455 26.7935 14.9153 26.7681 14.9852 26.7681C15.049 26.7681 15.1118 26.7874 15.1624 26.8319C15.2455 26.9018 15.2647 26.9838 15.2708 27.0284C15.2708 27.0719 15.2708 27.161 15.2009 27.2431ZM16.9629 28.4836L16.0758 29.6542C16.012 29.7301 15.9361 29.7433 15.8915 29.7433C15.8541 29.7433 15.771 29.7301 15.6829 29.6167C15.613 29.5276 15.613 29.4142 15.6829 29.3311L16.5882 28.2182C16.5953 28.2112 16.6014 28.199 16.6146 28.1929C16.6581 28.1423 16.7158 28.117 16.7786 28.117C16.8292 28.117 16.8799 28.1291 16.9244 28.1676C17.0196 28.2436 17.0388 28.3823 16.9629 28.4836ZM18.6925 29.8121L17.8054 30.9838C17.7416 31.0597 17.6657 31.0719 17.6221 31.0719C17.5715 31.0719 17.5016 31.0597 17.4064 30.9453C17.3426 30.8572 17.3426 30.7428 17.4125 30.6607L18.332 29.5276C18.3755 29.4709 18.4454 29.4456 18.5092 29.4456C18.5598 29.4456 18.6105 29.4577 18.655 29.4962C18.7502 29.5722 18.7684 29.7109 18.6925 29.8121ZM20.4353 31.002L19.5482 32.2496C19.4915 32.3255 19.4216 32.3438 19.377 32.3438C19.3264 32.3438 19.2626 32.3255 19.1745 32.2111C19.0915 32.0977 19.0915 31.9326 19.1745 31.8253L20.1001 30.6162C20.1507 30.5534 20.2074 30.5342 20.2449 30.5281C20.2834 30.5281 20.334 30.5342 20.3907 30.5787C20.5051 30.6729 20.5244 30.8754 20.4353 31.002ZM22.1335 32.4389L21.2464 33.6096C21.1836 33.6855 21.1077 33.6987 21.0631 33.6987C21.0246 33.7048 20.9426 33.6855 20.8474 33.5721C20.7836 33.483 20.7836 33.3696 20.8535 33.2865L21.773 32.1544C21.8489 32.0592 21.9947 32.04 22.096 32.123C22.1912 32.1989 22.2104 32.3377 22.1335 32.4389ZM32.2994 29.1104C32.0584 29.3504 31.6462 29.3696 31.3738 29.1479L26.342 24.9464C26.0757 24.7246 25.6767 24.7621 25.4478 25.0284C25.2261 25.2937 25.2585 25.6927 25.5309 25.9206L30.5566 30.1159L30.6133 30.1666C30.7338 30.2678 30.7531 30.3944 30.7592 30.4582C30.7592 30.5281 30.7531 30.6607 30.6387 30.7681C30.4989 30.9139 30.2518 30.92 30.0999 30.7995L24.979 26.7813C24.7005 26.5595 24.3076 26.6102 24.0858 26.8826C23.8701 27.161 23.9208 27.56 24.1932 27.7747L28.3632 31.0526C28.3703 31.0526 28.3703 31.0597 28.3703 31.0597C28.5475 31.1985 28.585 31.3817 28.585 31.4769C28.5921 31.5782 28.5729 31.7686 28.3956 31.9205C28.2306 32.0784 27.9703 32.1919 27.6665 31.9458L23.6676 28.7428C23.3952 28.5281 22.9962 28.5727 22.7745 28.838C22.5517 29.1165 22.5962 29.5154 22.8686 29.7301L25.6575 31.964H25.6635C25.8154 32.0906 25.8985 32.2749 25.8924 32.4703C25.8792 32.6729 25.778 32.8501 25.6068 32.9645C25.3091 33.1599 25.0934 33.0658 24.9284 32.9574L23.382 31.9012C23.3061 31.6035 23.135 31.3311 22.8818 31.1286C22.5648 30.8754 22.1659 30.7742 21.7912 30.8126L21.7537 30.7934C21.7476 30.3509 21.5633 29.9134 21.2089 29.6167C20.898 29.3504 20.5112 29.2299 20.1061 29.2744C20.0555 29.2744 20.0049 29.2937 19.9542 29.3058C19.8712 28.996 19.7072 28.7114 19.4408 28.5028C19.0986 28.2304 18.6672 28.1423 18.2621 28.2051C18.2297 27.8132 18.0404 27.4334 17.7102 27.1732C17.368 26.9018 16.9305 26.8066 16.5254 26.8765C16.4809 26.4714 16.2784 26.1099 15.9614 25.8507C15.3974 25.395 14.5862 25.4021 14.0222 25.8446L11.7853 25.9519L13.4014 18.586C14.2186 18.8007 15.0551 18.9151 15.9108 18.9151C16.8232 18.9151 17.7548 18.7885 18.6672 18.5353C19.1107 18.4148 19.5543 18.3197 19.9725 18.2376L18.7684 20.7308C18.5214 21.2502 18.5092 21.8518 18.7371 22.3763C18.972 22.9019 19.4155 23.3008 19.9725 23.471C20.1821 23.5287 20.3725 23.5601 20.5497 23.5601C21.215 23.5601 21.8357 23.2249 22.2033 22.6679L23.5026 20.6741L31.8812 27.7241L32.2994 28.1423C32.5647 28.4076 32.5647 28.8441 32.2994 29.1104ZM30.7338 25.1044L24.3896 19.7687L23.7689 19.2503C23.699 19.1865 23.6231 19.149 23.541 19.1237C23.5157 19.1176 23.4965 19.1237 23.4712 19.1176C23.4145 19.1045 23.3507 19.0984 23.2869 19.1045H23.2686C23.2433 19.1105 23.2241 19.1237 23.1988 19.1358C23.1481 19.149 23.0975 19.1612 23.0529 19.1865C23.0145 19.2057 22.9891 19.231 22.9638 19.2563C22.9324 19.2817 22.901 19.2948 22.8818 19.3262C22.8686 19.3323 22.8686 19.3455 22.8626 19.3576C22.8504 19.3708 22.8372 19.3769 22.8312 19.3829L21.139 21.9712C21.0125 22.1738 20.7907 22.2943 20.5497 22.2943C20.493 22.2943 20.416 22.2811 20.334 22.2629C20.1375 22.1991 19.9856 22.0604 19.9036 21.87C19.8145 21.6745 19.8206 21.4649 19.9097 21.2816L21.1583 18.6933C21.3608 18.2761 21.7476 17.9784 22.1659 17.9085L22.4322 17.8832C23.535 17.8771 25.1572 17.9723 26.7035 18.5283C28.1222 19.0417 29.7202 19.0923 31.2473 18.6872L34.4725 25.6988C33.2057 26.2051 31.7789 25.9833 30.7338 25.1044Z" fill="white" fill-opacity="0.3"/>
</g>
<mask id="mask1_966_4332" style="mask-type:luminance" maskUnits="userSpaceOnUse" x="15" y="0" width="16" height="16">
<path d="M15.1445 0H30.958V15.4702H15.1445V0Z" fill="white"/>
</mask>
<g mask="url(#mask1_966_4332)">
<path d="M15.3887 7.61927C15.3887 11.841 18.8236 15.2769 23.0503 15.2769C27.2771 15.2769 30.712 11.841 30.712 7.61927C30.712 3.39857 27.2771 -0.03125 23.0503 -0.03125C18.8236 -0.03125 15.3887 3.40465 15.3887 7.61927ZM27.3338 4.56919L22.1946 11.4298C22.0741 11.5878 21.8909 11.6759 21.7005 11.682H21.6812C21.498 11.682 21.3136 11.6 21.1931 11.4552L18.7851 8.5185C18.5633 8.25217 18.6018 7.85421 18.8742 7.63244C19.1466 7.40459 19.5456 7.44915 19.7673 7.71446L21.662 10.0243L26.3202 3.80971C26.5298 3.53123 26.9227 3.47452 27.2072 3.68313C27.4867 3.89173 27.5434 4.29071 27.3338 4.56919Z" fill="white" fill-opacity="0.3"/>
</g>
</g>
<defs>
<filter id="filter0_d_966_4332" x="0.0390625" y="0" width="46.0273" height="42.9648" filterUnits="userSpaceOnUse" color-interpolation-filters="sRGB">
<feFlood flood-opacity="0" result="BackgroundImageFix"/>
<feColorMatrix in="SourceAlpha" type="matrix" values="0 0 0 0 0 0 0 0 0 0 0 0 0 0 0 0 0 0 127 0" result="hardAlpha"/>
<feOffset dy="4"/>
<feGaussianBlur stdDeviation="2"/>
<feComposite in2="hardAlpha" operator="out"/>
<feColorMatrix type="matrix" values="0 0 0 0 0 0 0 0 0 0 0 0 0 0 0 0 0 0 0.25 0"/>
<feBlend mode="normal" in2="BackgroundImageFix" result="effect1_dropShadow_966_4332"/>
<feBlend mode="normal" in="SourceGraphic" in2="effect1_dropShadow_966_4332" result="shape"/>
</filter>
</defs>
</svg>
