<svg width="39" height="35" viewBox="0 0 39 35" fill="none" xmlns="http://www.w3.org/2000/svg">
<mask id="mask0_1294_4913" style="mask-type:luminance" maskUnits="userSpaceOnUse" x="0" y="12" width="39" height="23">
<path d="M0 12.8828H38.1078V35.002H0V12.8828Z" fill="white"/>
</mask>
<g mask="url(#mask0_1294_4913)">
<path d="M33.2613 13.9339C32.9191 13.1876 32.032 12.8645 31.2907 13.2068L27.228 15.067C26.4807 15.4083 26.1506 16.2944 26.4928 17.0417L26.7085 17.5166C25.4913 17.7951 24.2498 17.7445 23.1339 17.3394C21.4104 16.7187 19.6231 16.6052 18.4251 16.6174C18.4251 16.6174 18.3684 16.6174 18.2104 16.6366L18.0261 16.6559C17.4307 16.7126 15.8844 16.8959 14.3381 17.3202C12.7594 17.7505 11.1624 17.7566 9.67383 17.3516L9.74978 17.0032C9.92699 16.2002 9.41966 15.4022 8.61562 15.225L4.2491 14.2701C3.86227 14.1871 3.46329 14.2569 3.12709 14.4726C2.79089 14.6873 2.55697 15.0164 2.47394 15.4022L0.0719454 26.3125C-0.0981787 27.1165 0.408143 27.9074 1.21319 28.0846L5.57971 29.0405C5.68705 29.0658 5.79541 29.078 5.90275 29.078C6.18122 29.078 6.45464 28.996 6.70172 28.8441C7.03691 28.6294 7.26577 28.3003 7.35387 27.9074L7.49969 27.2309L8.66625 27.1732C8.51334 27.4334 8.43132 27.7302 8.45056 28.0339C8.47588 28.4967 8.70372 28.92 9.07131 29.1985L9.19789 29.2937C9.47738 29.5023 9.80041 29.6035 10.1295 29.6035C10.2126 29.6035 10.2946 29.5914 10.3766 29.5782C10.3958 29.8759 10.5103 30.1737 10.7128 30.439C10.9984 30.7995 11.4287 31.0091 11.8915 31.0091H11.9047C11.9735 31.0091 12.0434 30.9959 12.1133 30.9838C12.1447 31.2552 12.253 31.5276 12.4434 31.7686C12.728 32.1291 13.1594 32.3377 13.6221 32.3377H13.6343C13.7163 32.3377 13.7993 32.3184 13.8814 32.3063C13.9259 32.5463 14.0272 32.7873 14.1862 33.002C14.4707 33.3878 14.9082 33.6096 15.377 33.6096H15.3831C15.4408 33.6096 15.4975 33.5974 15.5482 33.5903C15.5796 33.8688 15.6879 34.1473 15.8844 34.3944C16.1689 34.7549 16.6003 34.9645 17.0631 34.9645H17.0752C17.5441 34.9574 17.9694 34.7427 18.254 34.369L19.1096 33.243L20.2124 34.0025C20.5294 34.2111 20.897 34.3245 21.2777 34.3245C21.6514 34.3245 22.0119 34.2171 22.3106 34.0146C22.665 33.7807 22.9182 33.4455 23.0519 33.0526C23.3364 33.2298 23.6665 33.3311 24.021 33.3311C24.4777 33.3311 24.9212 33.1599 25.2503 32.8562C25.4984 32.6354 25.6625 32.3508 25.7637 32.04C25.948 32.1159 26.1506 32.1544 26.3531 32.1544C26.8037 32.1544 27.2219 31.9833 27.5389 31.6602C27.8305 31.3696 27.9946 30.9706 28.0138 30.5595C28.4634 30.5149 28.8756 30.3256 29.1986 30.0025C29.9591 29.243 29.953 28.0026 29.1986 27.2431L29.1865 27.2309C29.7951 27.2178 30.4097 27.0972 30.992 26.8512H31.0052L31.1571 27.1924C31.3221 27.5529 31.6198 27.8253 31.9935 27.9651C32.1646 28.0279 32.3358 28.0593 32.513 28.0593C32.7226 28.0593 32.9383 28.0157 33.1348 27.9205L37.1965 26.0593C37.9448 25.718 38.2739 24.832 37.9317 24.0856L33.2613 13.9339ZM11.2009 27.2431L10.3452 28.2365C10.25 28.3509 10.0789 28.3701 9.95839 28.281L9.83181 28.1858C9.73662 28.117 9.71839 28.0218 9.71839 27.9712C9.7113 27.9205 9.72447 27.8253 9.80649 27.7433L10.7888 26.8441C10.8455 26.7935 10.9153 26.7681 10.9852 26.7681C11.049 26.7681 11.1118 26.7874 11.1624 26.8319C11.2455 26.9018 11.2647 26.9838 11.2708 27.0284C11.2708 27.0719 11.2708 27.161 11.2009 27.2431ZM12.9629 28.4836L12.0758 29.6542C12.012 29.7301 11.9361 29.7433 11.8915 29.7433C11.8541 29.7433 11.771 29.7301 11.6829 29.6167C11.613 29.5276 11.613 29.4142 11.6829 29.3311L12.5882 28.2182C12.5953 28.2112 12.6014 28.199 12.6146 28.1929C12.6581 28.1423 12.7158 28.117 12.7786 28.117C12.8292 28.117 12.8799 28.1291 12.9244 28.1676C13.0196 28.2436 13.0388 28.3823 12.9629 28.4836ZM14.6925 29.8121L13.8054 30.9838C13.7416 31.0597 13.6657 31.0719 13.6221 31.0719C13.5715 31.0719 13.5016 31.0597 13.4064 30.9453C13.3426 30.8572 13.3426 30.7428 13.4125 30.6607L14.332 29.5276C14.3755 29.4709 14.4454 29.4456 14.5092 29.4456C14.5598 29.4456 14.6105 29.4577 14.655 29.4962C14.7502 29.5722 14.7684 29.7109 14.6925 29.8121ZM16.4353 31.002L15.5482 32.2496C15.4915 32.3255 15.4216 32.3438 15.377 32.3438C15.3264 32.3438 15.2626 32.3255 15.1745 32.2111C15.0915 32.0977 15.0915 31.9326 15.1745 31.8253L16.1001 30.6162C16.1507 30.5534 16.2074 30.5342 16.2449 30.5281C16.2834 30.5281 16.334 30.5342 16.3907 30.5787C16.5051 30.6729 16.5244 30.8754 16.4353 31.002ZM18.1335 32.4389L17.2464 33.6096C17.1836 33.6855 17.1077 33.6987 17.0631 33.6987C17.0246 33.7048 16.9426 33.6855 16.8474 33.5721C16.7836 33.483 16.7836 33.3696 16.8535 33.2865L17.773 32.1544C17.8489 32.0592 17.9947 32.04 18.096 32.123C18.1912 32.1989 18.2104 32.3377 18.1335 32.4389ZM28.2994 29.1104C28.0584 29.3504 27.6462 29.3696 27.3738 29.1479L22.342 24.9464C22.0757 24.7246 21.6767 24.7621 21.4478 25.0284C21.2261 25.2937 21.2585 25.6927 21.5309 25.9206L26.5566 30.1159L26.6133 30.1666C26.7338 30.2678 26.7531 30.3944 26.7592 30.4582C26.7592 30.5281 26.7531 30.6607 26.6387 30.7681C26.4989 30.9139 26.2518 30.92 26.0999 30.7995L20.979 26.7813C20.7005 26.5595 20.3076 26.6102 20.0858 26.8826C19.8701 27.161 19.9208 27.56 20.1932 27.7747L24.3632 31.0526C24.3703 31.0526 24.3703 31.0597 24.3703 31.0597C24.5475 31.1985 24.585 31.3817 24.585 31.4769C24.5921 31.5782 24.5729 31.7686 24.3956 31.9205C24.2306 32.0784 23.9703 32.1919 23.6665 31.9458L19.6676 28.7428C19.3952 28.5281 18.9962 28.5727 18.7745 28.838C18.5517 29.1165 18.5962 29.5154 18.8686 29.7301L21.6575 31.964H21.6635C21.8154 32.0906 21.8985 32.2749 21.8924 32.4703C21.8792 32.6729 21.778 32.8501 21.6068 32.9645C21.3091 33.1599 21.0934 33.0658 20.9284 32.9574L19.382 31.9012C19.3061 31.6035 19.135 31.3311 18.8818 31.1286C18.5648 30.8754 18.1659 30.7742 17.7912 30.8126L17.7537 30.7934C17.7476 30.3509 17.5633 29.9134 17.2089 29.6167C16.898 29.3504 16.5112 29.2299 16.1061 29.2744C16.0555 29.2744 16.0049 29.2937 15.9542 29.3058C15.8712 28.996 15.7072 28.7114 15.4408 28.5028C15.0986 28.2304 14.6672 28.1423 14.2621 28.2051C14.2297 27.8132 14.0404 27.4334 13.7102 27.1732C13.368 26.9018 12.9305 26.8066 12.5254 26.8765C12.4809 26.4714 12.2784 26.1099 11.9614 25.8507C11.3974 25.395 10.5862 25.4021 10.0222 25.8446L7.78525 25.9519L9.40143 18.586C10.2186 18.8007 11.0551 18.9151 11.9108 18.9151C12.8232 18.9151 13.7548 18.7885 14.6672 18.5353C15.1107 18.4148 15.5543 18.3197 15.9725 18.2376L14.7684 20.7308C14.5214 21.2502 14.5092 21.8518 14.7371 22.3763C14.972 22.9019 15.4155 23.3008 15.9725 23.471C16.1821 23.5287 16.3725 23.5601 16.5497 23.5601C17.215 23.5601 17.8357 23.2249 18.2033 22.6679L19.5026 20.6741L27.8812 27.7241L28.2994 28.1423C28.5647 28.4076 28.5647 28.8441 28.2994 29.1104ZM26.7338 25.1044L20.3896 19.7687L19.7689 19.2503C19.699 19.1865 19.6231 19.149 19.541 19.1237C19.5157 19.1176 19.4965 19.1237 19.4712 19.1176C19.4145 19.1045 19.3507 19.0984 19.2869 19.1045H19.2686C19.2433 19.1105 19.2241 19.1237 19.1988 19.1358C19.1481 19.149 19.0975 19.1612 19.0529 19.1865C19.0145 19.2057 18.9891 19.231 18.9638 19.2563C18.9324 19.2817 18.901 19.2948 18.8818 19.3262C18.8686 19.3323 18.8686 19.3455 18.8626 19.3576C18.8504 19.3708 18.8372 19.3769 18.8312 19.3829L17.139 21.9712C17.0125 22.1738 16.7907 22.2943 16.5497 22.2943C16.493 22.2943 16.416 22.2811 16.334 22.2629C16.1375 22.1991 15.9856 22.0604 15.9036 21.87C15.8145 21.6745 15.8206 21.4649 15.9097 21.2816L17.1583 18.6933C17.3608 18.2761 17.7476 17.9784 18.1659 17.9085L18.4322 17.8832C19.535 17.8771 21.1572 17.9723 22.7035 18.5283C24.1222 19.0417 25.7202 19.0923 27.2473 18.6872L30.4725 25.6988C29.2057 26.2051 27.7789 25.9833 26.7338 25.1044Z" fill="white"/>
</g>
<mask id="mask1_1294_4913" style="mask-type:luminance" maskUnits="userSpaceOnUse" x="11" y="0" width="16" height="16">
<path d="M11.1445 0H26.958V15.4702H11.1445V0Z" fill="white"/>
</mask>
<g mask="url(#mask1_1294_4913)">
<path d="M11.3887 7.61927C11.3887 11.841 14.8236 15.2769 19.0503 15.2769C23.2771 15.2769 26.712 11.841 26.712 7.61927C26.712 3.39857 23.2771 -0.03125 19.0503 -0.03125C14.8236 -0.03125 11.3887 3.40465 11.3887 7.61927ZM23.3338 4.56919L18.1946 11.4298C18.0741 11.5878 17.8909 11.6759 17.7005 11.682H17.6812C17.498 11.682 17.3136 11.6 17.1931 11.4552L14.7851 8.5185C14.5633 8.25217 14.6018 7.85421 14.8742 7.63244C15.1466 7.40459 15.5456 7.44915 15.7673 7.71446L17.662 10.0243L22.3202 3.80971C22.5298 3.53123 22.9227 3.47452 23.2072 3.68313C23.4867 3.89173 23.5434 4.29071 23.3338 4.56919Z" fill="white"/>
</g>
</svg>
