<svg width="32" height="44" viewBox="0 0 32 44" fill="none" xmlns="http://www.w3.org/2000/svg">
<mask id="mask0_778_6042" style="mask-type:luminance" maskUnits="userSpaceOnUse" x="0" y="0" width="32" height="44">
<path d="M0.572266 0.890625H31.5202V43.5885H0.572266V0.890625Z" fill="white"/>
</mask>
<g mask="url(#mask0_778_6042)">
<path d="M27.2962 5.5028H26.5618C26.7441 2.88301 24.1712 0.679883 21.6035 1.27884L1.12435 5.54967C0.801433 5.59655 0.572266 5.91426 0.572266 6.23717V39.8049C0.572266 42.0549 2.41081 43.9351 4.70247 43.9351H27.2962C29.5462 43.9351 31.4264 42.0965 31.4264 39.8049V9.63301C31.4264 7.38301 29.5931 5.5028 27.2962 5.5028ZM21.8796 2.61217C23.6243 2.19551 25.3223 3.75801 25.1816 5.5028H7.96289L21.8796 2.61217ZM30.0514 39.758C30.0514 41.2736 28.8118 42.5132 27.2962 42.5132H4.70247C3.18685 42.5132 1.94727 41.2736 1.94727 39.758V6.8778H27.2962C28.8118 6.8778 30.0514 8.11738 30.0514 9.63301V39.758ZM22.3379 16.1538C15.9993 10.784 6.08268 15.3309 6.08268 23.6851C6.17123 32.0913 15.8171 36.6799 22.291 31.3518C26.9733 27.3153 27.1556 20.1486 22.3379 16.1538ZM19.9941 22.9976C19.9473 21.5288 19.765 20.0601 19.4889 18.7736C20.3171 18.4507 21.0983 18.0393 21.7858 17.534C23.3014 18.9559 24.265 20.883 24.4473 23.0445H19.9941V22.9976ZM11.3639 30.8049C11.8223 30.482 12.3743 30.2528 12.8796 30.0236C13.1087 30.7111 13.3848 31.3518 13.6556 31.857C12.8796 31.6278 12.0983 31.2632 11.3639 30.8049ZM18.3431 31.857C19.3952 30.2528 18.4316 29.4247 20.64 30.8049C19.9004 31.2632 19.1243 31.6278 18.3431 31.857ZM15.9993 32.1799C15.4473 32.1799 14.7129 31.2632 14.2077 29.607C15.4004 29.3361 16.5983 29.3361 17.8379 29.607C17.2858 31.2632 16.5514 32.1799 15.9993 32.1799ZM13.8431 28.3257C13.6139 27.2215 13.4264 25.8882 13.3848 24.4195H18.6191C18.5723 25.8882 18.39 27.2215 18.1556 28.3257C16.6868 28.0028 15.3118 28.0028 13.8431 28.3257ZM13.3848 22.9976C13.4264 21.5288 13.5671 20.2424 13.8431 19.1382C15.265 19.4611 16.7806 19.4611 18.2025 19.1382C18.4316 20.2424 18.6191 21.5288 18.6608 22.9976H13.3848ZM11.9108 16.2476C14.3952 15.1018 13.5202 15.3726 12.8327 17.4403C12.2806 17.2111 11.7754 16.982 11.2702 16.6122C11.4993 16.4768 11.7285 16.383 11.9108 16.2476ZM15.9993 15.2372C16.5514 15.2372 17.2858 16.2007 17.791 17.857C16.5983 18.1278 15.3587 18.1278 14.1608 17.857C14.7129 16.1538 15.4473 15.2372 15.9993 15.2372ZM20.6816 16.6122C20.2233 16.9351 19.6712 17.2111 19.1243 17.4403C18.8952 16.7059 18.6191 16.1122 18.2962 15.5601C19.0775 15.6955 20.041 16.2007 20.6816 16.6122ZM10.2129 17.534C10.9473 18.0393 11.6816 18.4507 12.5098 18.7736C12.2337 20.107 12.0514 21.5757 12.0046 22.9976H7.55143C7.73372 20.8413 8.69727 18.909 10.2129 17.534ZM7.55143 24.3726H12.0046C12.0514 25.8466 12.2337 27.357 12.5098 28.6903C11.6816 29.0132 10.9473 29.4247 10.2129 29.9299C8.74414 28.508 7.73372 26.5809 7.55143 24.3726ZM21.7389 29.9299C21.0514 29.4247 20.2702 29.0132 19.4421 28.6903C19.765 27.357 19.9004 25.8466 19.9473 24.3726H24.4004C24.265 26.5809 23.3014 28.508 21.7389 29.9299ZM22.2441 35.6226H9.75456C9.38997 35.6226 9.06706 35.9455 9.06706 36.3153V39.7111C9.06706 40.0809 9.38997 40.3986 9.75456 40.3986H22.2441C22.6139 40.3986 22.9316 40.0809 22.9316 39.7111V36.3153C22.9316 35.9455 22.6139 35.6226 22.2441 35.6226ZM21.5566 39.0236H10.4421V37.0028H21.5566V39.0236Z" fill="#0F1738"/>
</g>
</svg>
