<svg width="30" height="41" viewBox="0 0 30 41" fill="none" xmlns="http://www.w3.org/2000/svg">
<path d="M25.2603 4.789H24.5854C24.753 2.38162 22.3887 0.357126 20.0291 0.907521L1.21044 4.83207C0.913711 4.87514 0.703125 5.16709 0.703125 5.46383V36.3098C0.703125 38.3774 2.3926 40.1052 4.49845 40.1052H25.2603C27.3278 40.1052 29.0556 38.4157 29.0556 36.3098V8.58432C29.0556 6.51676 27.3709 4.789 25.2603 4.789ZM20.2828 2.13275C21.8861 1.74986 23.4464 3.18567 23.3171 4.789H7.49451L20.2828 2.13275ZM27.7921 36.2668C27.7921 37.6595 26.653 38.7986 25.2603 38.7986H4.49845C3.10572 38.7986 1.96664 37.6595 1.96664 36.2668V6.05251H25.2603C26.653 6.05251 27.7921 7.19159 27.7921 8.58432V36.2668ZM20.704 14.5764C14.8794 9.64204 5.76675 13.8202 5.76675 21.497C5.84811 29.2217 14.7119 33.4382 20.6609 28.5421C24.9635 24.8329 25.1311 18.2473 20.704 14.5764ZM18.5503 20.8653C18.5072 19.5156 18.3397 18.166 18.086 16.9838C18.847 16.6871 19.5649 16.309 20.1966 15.8447C21.5894 17.1513 22.4748 18.9222 22.6423 20.9084H18.5503V20.8653ZM10.6198 28.0396C11.041 27.7428 11.5483 27.5322 12.0125 27.3217C12.2231 27.9534 12.4768 28.5421 12.7256 29.0063C12.0125 28.7958 11.2946 28.4607 10.6198 28.0396ZM17.0331 29.0063C17.9999 27.5322 17.1144 26.7713 19.1437 28.0396C18.4641 28.4607 17.751 28.7958 17.0331 29.0063ZM14.8794 29.3031C14.372 29.3031 13.6972 28.4607 13.233 26.9388C14.329 26.6899 15.4298 26.6899 16.5688 26.9388C16.0615 28.4607 15.3867 29.3031 14.8794 29.3031ZM12.8979 25.7614C12.6874 24.7468 12.5151 23.5215 12.4768 22.1719H17.2867C17.2437 23.5215 17.0762 24.7468 16.8608 25.7614C15.5111 25.4647 14.2476 25.4647 12.8979 25.7614ZM12.4768 20.8653C12.5151 19.5156 12.6443 18.3335 12.8979 17.3188C14.2045 17.6156 15.5973 17.6156 16.9039 17.3188C17.1144 18.3335 17.2867 19.5156 17.325 20.8653H12.4768ZM11.1223 14.6626C13.4053 13.6097 12.6012 13.8585 11.9695 15.7586C11.4621 15.548 10.9979 15.3374 10.5336 14.9976C10.7442 14.8732 10.9548 14.787 11.1223 14.6626ZM14.8794 13.7341C15.3867 13.7341 16.0615 14.6195 16.5258 16.1415C15.4298 16.3903 14.2907 16.3903 13.1899 16.1415C13.6972 14.5764 14.372 13.7341 14.8794 13.7341ZM19.182 14.9976C18.7608 15.2943 18.2535 15.548 17.751 15.7586C17.5404 15.0838 17.2867 14.5382 16.99 14.0308C17.7079 14.1553 18.5933 14.6195 19.182 14.9976ZM9.56208 15.8447C10.2369 16.309 10.9117 16.6871 11.6727 16.9838C11.4191 18.209 11.2515 19.5587 11.2085 20.8653H7.11641C7.28392 18.8839 8.16934 17.1083 9.56208 15.8447ZM7.11641 22.1288H11.2085C11.2515 23.4833 11.4191 24.8712 11.6727 26.0964C10.9117 26.3932 10.2369 26.7713 9.56208 27.2355C8.21241 25.9289 7.28392 24.1581 7.11641 22.1288ZM20.1536 27.2355C19.5218 26.7713 18.8039 26.3932 18.0429 26.0964C18.3397 24.8712 18.4641 23.4833 18.5072 22.1288H22.5992C22.4748 24.1581 21.5894 25.9289 20.1536 27.2355ZM20.6178 32.4666H9.14091C8.80588 32.4666 8.50915 32.7634 8.50915 33.1032V36.2237C8.50915 36.5635 8.80588 36.8554 9.14091 36.8554H20.6178C20.9576 36.8554 21.2496 36.5635 21.2496 36.2237V33.1032C21.2496 32.7634 20.9576 32.4666 20.6178 32.4666ZM19.9861 35.5919H9.77266V33.7349H19.9861V35.5919Z" fill="#F4F4FF" fill-opacity="0.3"/>
</svg>
