<svg width="25" height="34" viewBox="0 0 25 34" fill="none" xmlns="http://www.w3.org/2000/svg">
<mask id="mask0_1146_1258" style="mask-type:luminance" maskUnits="userSpaceOnUse" x="0" y="0" width="25" height="34">
<path d="M0 0H25V33.3296H0V0Z" fill="white"/>
</mask>
<g mask="url(#mask0_1146_1258)">
<path d="M21.3117 18.6338C21.3117 18.9813 21.0314 19.2392 20.6951 19.2392H7.23094C6.89462 19.2392 6.61435 18.9813 6.61435 18.6338C6.61435 18.2863 6.89462 18.0284 7.23094 18.0284H20.6951C21.0314 18.0284 21.3117 18.2863 21.3117 18.6338ZM20.6951 14.4858H7.23094C6.89462 14.4858 6.61435 14.7773 6.61435 15.1136C6.61435 15.4612 6.89462 15.7526 7.23094 15.7526H20.6951C21.0314 15.7526 21.3005 15.4612 21.3005 15.1136C21.3005 14.7773 21.0314 14.4858 20.6951 14.4858ZM3.19507 6.30197C3.09417 6.30197 2.97085 6.30197 2.9148 6.30197V7.40063C2.97085 7.42305 3.08296 7.42305 3.16144 7.42305C3.91256 7.42305 4.00224 7.12036 4.00224 6.84009C4.00224 6.68314 4.00224 6.30197 3.19507 6.30197ZM6.63677 6.30197C6.52466 6.30197 6.3565 6.30197 6.1435 6.32439V8.95892C6.3565 8.97013 6.42377 8.98134 6.60314 8.98134C7.04036 8.98134 7.34305 8.82439 7.54484 8.51049C7.69058 8.26385 7.76906 7.94995 7.76906 7.55758C7.76906 6.69435 7.41031 6.30197 6.63677 6.30197ZM13.6883 9.84457C13.6883 10.6966 13.0157 11.3804 12.1973 11.3804H1.50224C0.683859 11.3804 0 10.6966 0 9.84457V5.3939C0 4.54188 0.683859 3.85803 1.50224 3.85803H12.1973C13.0269 3.85803 13.6883 4.55309 13.6883 5.3939V9.84457ZM4.8879 6.80645C4.8879 6.40287 4.73094 6.06655 4.40583 5.81991C4.11435 5.57327 3.69955 5.44995 3.19507 5.44995C2.89238 5.44995 2.54484 5.48359 2.15247 5.55085L1.99552 5.58448V9.83336H2.9148V8.27506C2.9148 8.27506 3.02691 8.27506 3.09417 8.27506C3.62108 8.27506 4.04709 8.14054 4.3722 7.8939C4.71973 7.61363 4.8879 7.25488 4.8879 6.80645ZM8.67713 7.55758C8.67713 6.96341 8.53139 6.48134 8.25112 6.1226C7.89237 5.67417 7.35426 5.44995 6.64798 5.44995C6.42377 5.44995 6.05381 5.48359 5.43722 5.56206L5.28027 5.57327V9.72126L5.43722 9.74368C5.9417 9.79973 6.28924 9.82215 6.51345 9.82215C7.27579 9.82215 7.84754 9.58672 8.21749 9.10466C8.53139 8.71229 8.67713 8.19659 8.67713 7.55758ZM11.7489 5.46116H9.00224V9.83336H9.96637V8.06206H11.6368V7.12036H9.96637V6.34681H11.7489V5.46116ZM15.2018 0.0351562H4.45067C3.60987 0.0351562 2.97085 0.752645 2.97085 1.60466V3.14054H4.20404V2.34457C4.20404 1.77282 4.60762 1.31318 5.16816 1.31318H15.2018V8.55534C15.2018 9.40735 15.8632 10.1136 16.6928 10.1136H23.7668V27.95C23.7668 28.5217 23.296 28.9813 22.7578 28.9813H18.2623C18.2287 29.0374 18.1951 29.0935 18.1502 29.1495L17.3543 30.2033H23.4641C24.2937 30.2033 25 29.5419 25 28.6899V10.1136L15.2018 0.0351562ZM9.6861 28.9813H5.16816C4.61884 28.9813 4.21525 28.5217 4.21525 27.95V12.154H2.97085V28.6899C2.97085 29.5419 3.60987 30.2033 4.45067 30.2033H10.5942L9.79821 29.1607C9.75336 29.0935 9.71973 29.0374 9.6861 28.9813ZM17.2534 28.0396H15.6278V22.4118C15.6278 22.0307 15.3475 21.6831 14.9776 21.6831H12.9709C12.6009 21.6831 12.2982 22.0307 12.2982 22.4118V28.0396H10.6951C10.37 28.0396 10.1906 28.432 10.3812 28.6899L13.6659 33.0733C13.8117 33.2863 14.1368 33.2975 14.2937 33.0845L17.5785 28.6787C17.7578 28.432 17.5785 28.0396 17.2534 28.0396Z" fill="#FEFEFE"/>
</g>
</svg>
