<svg width="26" height="27" viewBox="0 0 26 27" fill="none" xmlns="http://www.w3.org/2000/svg">
<g filter="url(#filter0_d_1294_4800)">
<mask id="mask0_1294_4800" style="mask-type:luminance" maskUnits="userSpaceOnUse" x="4" y="0" width="16" height="19">
<path d="M4 0H19.3961V18.4219H4V0Z" fill="white"/>
</mask>
<g mask="url(#mask0_1294_4800)">
<path d="M17.6366 0.0574668C17.4721 0.107504 17.2248 0.36202 17.1714 0.541C17.1069 0.756063 17.1175 0.842185 17.2359 1.17224C17.2965 1.33342 17.3431 1.46957 17.3431 1.47679C17.3431 1.48401 17.1858 1.40847 16.9958 1.31177C16.0759 0.853251 15.1449 0.569867 14.0744 0.429859C13.5235 0.358171 12.4458 0.358171 11.8655 0.429859C9.23423 0.756063 6.87863 2.24371 5.41071 4.49875C4.7304 5.5452 4.27958 6.75716 4.07173 8.08315C3.99283 8.60325 3.98224 10.0476 4.05393 10.5388C4.36185 12.5894 5.18891 14.2704 6.59573 15.6936C7.97752 17.0951 9.72834 17.9843 11.6865 18.2816C12.542 18.411 14.046 18.3822 14.3934 18.2282C14.6474 18.1171 14.837 17.7692 14.7869 17.5041C14.7513 17.3102 14.5757 17.0668 14.4217 16.9912C14.2678 16.9162 14.225 16.9123 13.2978 16.9556C11.1963 17.0485 9.22701 16.3032 7.71627 14.8406C7.02537 14.1699 6.58851 13.5714 6.16945 12.7255C5.60027 11.5819 5.35346 10.4132 5.39628 9.10843C5.46075 7.1512 6.21997 5.39124 7.58733 4.01137C8.59673 2.99667 9.81398 2.30866 11.2035 1.96802C11.7544 1.83523 12.3062 1.77413 13.0043 1.77413C14.2072 1.77413 15.2916 2.01806 16.2654 2.50929L16.57 2.65988L16.4304 2.70607C16.3549 2.73157 16.2226 2.81769 16.1365 2.89612C15.639 3.35511 15.9613 4.17591 16.6378 4.17591C16.874 4.17591 18.9544 3.53072 19.1151 3.409C19.298 3.26899 19.3908 3.06114 19.3908 2.80326C19.3908 2.62043 19.3374 2.44819 18.9722 1.48738C18.5209 0.300917 18.4748 0.218644 18.1846 0.0858534C18.0307 0.0141655 17.8228 0.0035806 17.6366 0.0574668Z" fill="#FFC421"/>
</g>
<path d="M19.6277 4.25627C19.3804 4.38906 19.2087 4.73306 19.2587 4.98421C19.2731 5.04868 19.3804 5.26711 19.5021 5.47159C19.6205 5.67944 19.785 5.99506 19.8712 6.17067C20.0319 6.52189 20.1502 6.65805 20.3576 6.74417C20.5332 6.81923 20.6944 6.81586 20.8695 6.73359C21.149 6.60417 21.2813 6.39295 21.2813 6.07396C21.2813 5.91952 21.2419 5.81223 21.0345 5.38932C20.6766 4.66138 20.4687 4.35682 20.2719 4.26348C20.0713 4.16341 19.8067 4.16341 19.6277 4.25627Z" fill="#FFC421"/>
<path d="M12.0666 5.06025C11.8982 5.12088 11.7298 5.27147 11.6653 5.42543C11.6263 5.51877 11.6153 5.99942 11.6153 8.05335C11.6153 10.7919 11.6085 10.6952 11.8231 10.8958C11.8909 10.9603 12.5568 11.2759 13.6778 11.7705C15.1992 12.4412 15.4532 12.5413 15.611 12.5447C16.2302 12.5485 16.5309 11.7922 16.0796 11.3621C16.0012 11.2832 15.5215 11.0537 14.4972 10.6057L13.0298 9.96005L13.0115 7.74158C12.9937 5.31092 13.0048 5.43313 12.7719 5.21422C12.5679 5.0208 12.3278 4.96692 12.0666 5.06025Z" fill="#FFC421"/>
<mask id="mask1_1294_4800" style="mask-type:luminance" maskUnits="userSpaceOnUse" x="20" y="7" width="2" height="4">
<path d="M20.5059 7.99219H21.9435V10.9482H20.5059V7.99219Z" fill="white"/>
</mask>
<g mask="url(#mask1_1294_4800)">
<path d="M20.9785 8.15696C20.8134 8.23202 20.66 8.38646 20.6095 8.52262C20.5883 8.57266 20.5666 9.01722 20.5594 9.51182L20.5488 10.4115L20.6561 10.566C20.7995 10.77 20.9963 10.8672 21.2542 10.8672C21.5226 10.8633 21.7266 10.7305 21.8556 10.4726C21.9451 10.297 21.9451 10.2792 21.9451 9.45119C21.9451 8.62991 21.9412 8.60489 21.8589 8.45815C21.6727 8.13194 21.3042 8.00637 20.9785 8.15696Z" fill="#FFC421"/>
</g>
<path d="M20.2421 12.2154C20.0881 12.2765 19.9519 12.4339 19.8057 12.7317C19.7268 12.8895 19.5478 13.2119 19.4044 13.4486C19.1682 13.8431 19.1504 13.8931 19.1504 14.076C19.1538 14.4488 19.4078 14.7245 19.7768 14.75C20.1131 14.775 20.2743 14.6783 20.5216 14.2944C20.6323 14.126 20.8329 13.7714 20.9691 13.5058C21.2053 13.0435 21.2159 13.0151 21.2019 12.8178C21.173 12.4339 20.8974 12.1726 20.525 12.1798C20.4177 12.1798 20.2921 12.1976 20.2421 12.2154Z" fill="#FFC421"/>
<path d="M17.7268 15.4031C17.6734 15.4209 17.4872 15.5282 17.3149 15.6466C17.1432 15.7649 16.8497 15.9444 16.6635 16.0483C16.2627 16.2667 16.2127 16.31 16.1232 16.4856C16.0048 16.7151 16.0549 17.0875 16.2266 17.2776C16.3378 17.4031 16.5456 17.4821 16.7496 17.4821C16.9858 17.4821 17.2649 17.3459 17.9563 16.8907C18.436 16.5751 18.5288 16.4784 18.5966 16.2345C18.7294 15.7327 18.2281 15.2525 17.7268 15.4031Z" fill="#FFC421"/>
</g>
<defs>
<filter id="filter0_d_1294_4800" x="0.00585938" y="0.0234375" width="25.9375" height="26.3438" filterUnits="userSpaceOnUse" color-interpolation-filters="sRGB">
<feFlood flood-opacity="0" result="BackgroundImageFix"/>
<feColorMatrix in="SourceAlpha" type="matrix" values="0 0 0 0 0 0 0 0 0 0 0 0 0 0 0 0 0 0 127 0" result="hardAlpha"/>
<feOffset dy="4"/>
<feGaussianBlur stdDeviation="2"/>
<feComposite in2="hardAlpha" operator="out"/>
<feColorMatrix type="matrix" values="0 0 0 0 0 0 0 0 0 0 0 0 0 0 0 0 0 0 0.25 0"/>
<feBlend mode="normal" in2="BackgroundImageFix" result="effect1_dropShadow_1294_4800"/>
<feBlend mode="normal" in="SourceGraphic" in2="effect1_dropShadow_1294_4800" result="shape"/>
</filter>
</defs>
</svg>
