<svg width="20" height="24" viewBox="0 0 20 24" fill="none" xmlns="http://www.w3.org/2000/svg">
<path d="M10.9222 3.41406C8.50428 3.41406 6.53711 5.37618 6.53711 7.78799C6.53711 10.1997 8.50418 12.1618 10.9222 12.1618C13.3394 12.1618 15.306 10.1997 15.306 7.78799C15.306 5.37618 13.3394 3.41406 10.9222 3.41406ZM8.53261 10.6124C8.54788 9.66976 9.21168 9.08768 9.89791 8.83071C10.1914 9.02628 10.5436 9.14055 10.9222 9.14055C11.3004 9.14055 11.6522 9.02628 11.9454 8.83092C12.6317 9.08789 13.2954 9.67018 13.3104 10.6128C12.6647 11.1566 11.8315 11.4854 10.9222 11.4854C10.0124 11.4854 9.17861 11.1565 8.53261 10.6124ZM11.6752 8.18977C11.672 8.1923 11.6691 8.19493 11.666 8.19756C11.4635 8.36396 11.2043 8.46401 10.9222 8.46401C10.2752 8.46401 9.74868 7.93923 9.74868 7.29428C9.74868 6.65007 10.2752 6.12592 10.9222 6.12592C11.5685 6.12592 12.0944 6.65007 12.0944 7.29428C12.0944 7.6534 11.9312 7.97503 11.6752 8.18977ZM13.9 9.98781C13.7054 9.2684 13.1946 8.66948 12.4612 8.31562C12.6565 8.02295 12.7708 7.67173 12.7708 7.29428C12.7708 6.27704 11.9415 5.44937 10.9222 5.44937C9.90213 5.44937 9.07235 6.27704 9.07235 7.29428C9.07235 7.67173 9.18662 8.02284 9.38208 8.31551C8.64867 8.66937 8.13789 9.2683 7.94317 9.98749C7.48505 9.37235 7.21355 8.61124 7.21355 7.78799C7.21355 5.74921 8.8772 4.0906 10.9222 4.0906C12.9665 4.0906 14.6296 5.74921 14.6296 7.78799C14.6296 8.61134 14.3581 9.37256 13.9 9.98781Z" fill="#F5F5F5"/>
<path d="M8.54726 15.3406H13.286C13.4727 15.3406 13.6242 15.1892 13.6242 15.0023C13.6242 14.8155 13.4727 14.6641 13.286 14.6641H8.54726C8.36043 14.6641 8.20898 14.8155 8.20898 15.0023C8.20898 15.1892 8.36043 15.3406 8.54726 15.3406Z" fill="#F5F5F5"/>
<path d="M6.98671 16.9031H14.8432C15.03 16.9031 15.1814 16.7517 15.1814 16.5648C15.1814 16.378 15.03 16.2266 14.8432 16.2266H6.98671C6.79988 16.2266 6.64844 16.378 6.64844 16.5648C6.64844 16.7517 6.79988 16.9031 6.98671 16.9031Z" fill="#F5F5F5"/>
<path d="M14.8307 18.0781H6.99847C6.37248 18.0781 5.86328 18.5866 5.86328 19.2114V19.5101C5.86328 20.1342 6.37248 20.642 6.99847 20.642H14.8307C15.4567 20.642 15.9659 20.1342 15.9659 19.5101V19.2114C15.9659 18.5866 15.4567 18.0781 14.8307 18.0781ZM15.2895 19.5101C15.2895 19.7612 15.0837 19.9655 14.8307 19.9655H6.99847C6.7455 19.9655 6.53972 19.7612 6.53972 19.5101V19.2114C6.53972 18.9596 6.7455 18.7547 6.99847 18.7547H14.8307C15.0837 18.7547 15.2895 18.9596 15.2895 19.2114V19.5101Z" fill="#F5F5F5"/>
<mask id="mask0_1308_3585" style="mask-type:luminance" maskUnits="userSpaceOnUse" x="0" y="0" width="20" height="24">
<path d="M0 0H20V23.0917H0V0Z" fill="white"/>
</mask>
<g mask="url(#mask0_1308_3585)">
<path d="M19.4076 0H2.43504C2.10941 0 1.84464 0.264656 1.84464 0.589868V11.9452L0.763167 12.6993C0.371817 12.973 0.110637 13.3838 0.0275437 13.8562C-0.0551284 14.3268 0.049765 14.8001 0.32253 15.1882C0.669753 15.6848 1.22645 15.9509 1.7923 15.9509C1.80978 15.9509 1.82716 15.9503 1.84464 15.9499V22.502C1.84464 22.8272 2.10941 23.0917 2.43504 23.0917H19.4076C19.7331 23.0917 19.998 22.8272 19.998 22.502V0.589868C19.998 0.264656 19.7331 0 19.4076 0ZM0.87638 14.7998C0.707245 14.5592 0.642371 14.2656 0.693765 13.9733C0.745474 13.6792 0.907764 13.4237 1.15041 13.254L3.56664 11.5691L4.84285 13.391L2.42925 15.0744C1.92447 15.4258 1.22813 15.3028 0.87638 14.7998ZM6.00816 11.2229C6.22616 11.5338 6.46859 11.8177 6.73114 12.0738L5.39765 13.0039L4.12155 11.1822L5.45409 10.2529C5.6068 10.5892 5.79152 10.9139 6.00816 11.2229ZM5.68252 6.86873C5.9298 5.47089 6.70829 4.25292 7.87423 3.43937C8.80152 2.79263 9.8651 2.48237 10.9188 2.48237C12.6001 2.48237 14.2559 3.27276 15.29 4.74832C15.2901 4.74832 15.2901 4.74832 15.2901 4.74843C16.1045 5.90984 16.4168 7.31832 16.1699 8.71437C15.9225 10.1123 15.144 11.3302 13.9778 12.1435C13.0508 12.7899 11.9875 13.1002 10.9338 13.1002C9.25259 13.1001 7.59651 12.3098 6.56201 10.8345C5.74792 9.67284 5.43556 8.26447 5.68252 6.86873ZM19.3215 22.4152H2.52108V15.7959C2.6226 15.7507 2.72139 15.6954 2.81596 15.6297L7.25866 12.5307C8.32108 13.3478 9.62098 13.7764 10.935 13.7763C12.1219 13.7762 13.3205 13.4267 14.3647 12.6984C15.6794 11.7816 16.557 10.4086 16.836 8.83222C17.1145 7.25787 16.7622 5.66962 15.8438 4.35992L15.8439 4.36003C13.9481 1.65502 10.1995 0.993012 7.4872 2.88446C6.17276 3.80165 5.29528 5.17474 5.01641 6.75078C4.84517 7.71883 4.91278 8.69215 5.20355 9.60291L2.52108 11.4735V0.676542H19.3215V22.4152Z" fill="#F5F5F5"/>
</g>
</svg>
