<svg width="42" height="45" viewBox="0 0 42 45" fill="none" xmlns="http://www.w3.org/2000/svg">
<mask id="mask0_605_3885" style="mask-type:luminance" maskUnits="userSpaceOnUse" x="9" y="0" width="24" height="25">
<path d="M9.18262 0.078125H32.819V24.0341H9.18262V0.078125Z" fill="white"/>
</mask>
<g mask="url(#mask0_605_3885)">
<path d="M20.7594 23.7145C26.8603 23.7145 31.8248 17.2372 31.8248 11.1364C31.8248 5.04261 26.8603 0.078125 20.7594 0.078125C14.6586 0.078125 9.70117 5.04261 9.70117 11.1364C9.70117 17.2372 14.6586 23.7145 20.7594 23.7145Z" fill=""/>
</g>
<mask id="mask1_605_3885" style="mask-type:luminance" maskUnits="userSpaceOnUse" x="0" y="22" width="42" height="23">
<path d="M0.0913086 22.2109H41.9095V45.0021H0.0913086V22.2109Z" fill="white"/>
</mask>
<g mask="url(#mask1_605_3885)">
<path d="M29.0617 23.8125C26.9168 25.446 24.2393 26.419 21.3415 26.419H20.1768C17.279 26.419 14.6015 25.446 12.4566 23.8125C5.44664 24.9418 0.0986328 31.0142 0.0986328 38.3438C0.0986328 42.3636 9.34579 45.6307 20.7591 45.6307C32.1725 45.6307 41.4197 42.3636 41.4197 38.3438C41.4197 31.0142 36.0716 24.9418 29.0617 23.8125Z" fill=""/>
</g>
</svg>
