<svg width="35" height="41" viewBox="0 0 35 41" fill="none" xmlns="http://www.w3.org/2000/svg">
<g filter="url(#filter0_d_966_4366)">
<mask id="mask0_966_4366" style="mask-type:luminance" maskUnits="userSpaceOnUse" x="4" y="0" width="27" height="33">
<path d="M4 0H31V32.4767H4V0Z" fill="white"/>
</mask>
<g mask="url(#mask0_966_4366)">
<path d="M28.2878 32.486H6.70723C5.21962 32.486 4.00977 31.4456 4.00977 30.1664V2.33115C4.00977 1.05198 5.21962 0.0117188 6.70723 0.0117188H28.2878C29.7754 0.0117188 30.9854 1.05198 30.9854 2.33115V30.1664C30.9854 31.4456 29.7754 32.486 28.2878 32.486ZM6.70723 1.17137C5.96385 1.17137 5.35857 1.69187 5.35857 2.33115V30.1664C5.35857 30.8057 5.96385 31.3262 6.70723 31.3262H28.2878C29.0313 31.3262 29.6366 30.8057 29.6366 30.1664V2.33115C29.6366 1.69187 29.0313 1.17137 28.2878 1.17137H6.70723Z" fill="#F5F5F5" fill-opacity="0.3"/>
</g>
<path d="M21.541 6.96875H25.5871V8.12853H21.541V6.96875Z" fill="#F5F5F5" fill-opacity="0.3"/>
<path d="M21.541 9.28125H25.5871V10.441H21.541V9.28125Z" fill="#F5F5F5" fill-opacity="0.3"/>
<path d="M9.40039 17.9766H20.8651V19.1363H9.40039V17.9766Z" fill="#F5F5F5" fill-opacity="0.3"/>
<path d="M9.40039 23.7773H20.8651V24.9371H9.40039V23.7773Z" fill="#F5F5F5" fill-opacity="0.3"/>
<path d="M9.40039 20.8828H20.8651V22.0426H9.40039V20.8828Z" fill="#F5F5F5" fill-opacity="0.3"/>
<path d="M13.4508 14.5037C9.73202 14.5037 6.70703 11.902 6.70703 8.70501C6.70703 5.508 9.73273 2.90625 13.4508 2.90625C17.1688 2.90625 20.1945 5.508 20.1945 8.70501C20.1945 11.902 17.1688 14.5037 13.4508 14.5037ZM13.4508 4.0653C10.4762 4.0653 8.05583 6.14667 8.05583 8.7044C8.05583 11.2621 10.4762 13.3434 13.4508 13.3434C16.4253 13.3434 18.8457 11.2621 18.8457 8.7044C18.8457 6.14667 16.4253 4.0653 13.4508 4.0653Z" fill="#F5F5F5" fill-opacity="0.3"/>
<path d="M13.4475 11.6074C11.9599 11.6074 10.75 10.567 10.75 9.2878V8.12803C10.75 6.84886 11.9599 5.80859 13.4475 5.80859C14.9351 5.80859 16.1449 6.84886 16.1449 8.12803V9.2878C16.1449 10.567 14.9351 11.6074 13.4475 11.6074ZM13.4475 6.96825C12.7039 6.96825 12.0987 7.48875 12.0987 8.12803V9.2878C12.0987 9.92708 12.7039 10.4476 13.4475 10.4476C14.191 10.4476 14.7963 9.92708 14.7963 9.2878V8.12803C14.7963 7.48875 14.191 6.96825 13.4475 6.96825Z" fill="#F5F5F5" fill-opacity="0.3"/>
<path d="M16.4401 13.177C15.8558 12.2096 14.7083 11.609 13.4466 11.609C12.1849 11.609 11.0374 12.2096 10.4531 13.177L9.25586 12.6427C10.073 11.2898 11.6791 10.4492 13.4466 10.4492C15.2141 10.4492 16.8202 11.2894 17.6373 12.6427L16.4401 13.177Z" fill="#F5F5F5" fill-opacity="0.3"/>
</g>
<defs>
<filter id="filter0_d_966_4366" x="0.00976562" y="0.0117188" width="34.9766" height="40.4648" filterUnits="userSpaceOnUse" color-interpolation-filters="sRGB">
<feFlood flood-opacity="0" result="BackgroundImageFix"/>
<feColorMatrix in="SourceAlpha" type="matrix" values="0 0 0 0 0 0 0 0 0 0 0 0 0 0 0 0 0 0 127 0" result="hardAlpha"/>
<feOffset dy="4"/>
<feGaussianBlur stdDeviation="2"/>
<feComposite in2="hardAlpha" operator="out"/>
<feColorMatrix type="matrix" values="0 0 0 0 0 0 0 0 0 0 0 0 0 0 0 0 0 0 0.25 0"/>
<feBlend mode="normal" in2="BackgroundImageFix" result="effect1_dropShadow_966_4366"/>
<feBlend mode="normal" in="SourceGraphic" in2="effect1_dropShadow_966_4366" result="shape"/>
</filter>
</defs>
</svg>
