<svg xmlns="http://www.w3.org/2000/svg" xmlns:xlink="http://www.w3.org/1999/xlink" width="93" zoomAndPan="magnify" viewBox="0 0 69.75 69.749997" height="93" preserveAspectRatio="xMidYMid meet" version="1.0"><defs><clipPath id="61c498185c"><path d="M 13.179688 16 L 68.753906 16 L 68.753906 50.746094 L 13.179688 50.746094 Z M 13.179688 16 " clip-rule="nonzero"/></clipPath><clipPath id="6a60eaf944"><path d="M 0 0.21875 L 45 0.21875 L 45 68.644531 L 0 68.644531 Z M 0 0.21875 " clip-rule="nonzero"/></clipPath><clipPath id="dfd93444bf"><path d="M 61.980469 31.675781 L 64.742188 31.675781 L 64.742188 34.441406 L 61.980469 34.441406 Z M 61.980469 31.675781 " clip-rule="nonzero"/></clipPath><clipPath id="f0278ff081"><path d="M 63.359375 31.675781 C 62.597656 31.675781 61.980469 32.296875 61.980469 33.058594 C 61.980469 33.820312 62.597656 34.441406 63.359375 34.441406 C 64.125 34.441406 64.742188 33.820312 64.742188 33.058594 C 64.742188 32.296875 64.125 31.675781 63.359375 31.675781 Z M 63.359375 31.675781 " clip-rule="nonzero"/></clipPath></defs><g clip-path="url(#61c498185c)"><path fill="#ffffff" d="M 56.707031 39.355469 C 56.269531 40.25 55.609375 41.03125 54.785156 41.597656 C 54.3125 41.929688 53.789062 42.1875 53.222656 42.359375 L 53.222656 42.53125 C 53.222656 43.46875 52.460938 44.234375 51.515625 44.234375 C 50.585938 44.234375 49.816406 43.46875 49.816406 42.53125 L 49.816406 42.359375 C 49.300781 42.203125 48.8125 41.972656 48.363281 41.679688 C 47.539062 41.140625 46.855469 40.394531 46.40625 39.511719 C 45.988281 38.710938 45.636719 37.800781 46.246094 36.980469 C 46.578125 36.554688 47.070312 36.300781 47.617188 36.300781 C 48.355469 36.300781 49.035156 36.804688 49.25 37.503906 C 49.554688 38.496094 50.46875 39.210938 51.515625 39.210938 C 52.851562 39.210938 53.953125 38.066406 53.882812 36.730469 C 53.839844 35.988281 53.445312 35.3125 52.828125 34.902344 C 51.875 34.265625 50.578125 34.523438 49.53125 34.09375 C 47.585938 33.289062 46.261719 31.332031 46.261719 29.226562 C 46.261719 27.5625 47.070312 25.964844 48.410156 24.984375 C 48.835938 24.675781 49.300781 24.421875 49.816406 24.25 L 49.816406 24.050781 C 49.816406 23.113281 50.585938 22.351562 51.515625 22.351562 C 52.460938 22.351562 53.222656 23.113281 53.222656 24.050781 L 53.222656 24.25 C 53.773438 24.445312 54.289062 24.726562 54.734375 25.070312 C 55.550781 25.699219 56.167969 26.546875 56.496094 27.550781 C 56.507812 27.554688 56.511719 27.570312 56.511719 27.578125 C 56.511719 27.914062 56.632812 28.1875 56.527344 28.539062 C 56.363281 29.125 55.859375 29.601562 55.265625 29.730469 C 54.441406 29.9375 53.53125 29.460938 53.273438 28.640625 C 53.214844 28.4375 53.109375 28.265625 52.992188 28.101562 C 52.648438 27.65625 52.109375 27.367188 51.515625 27.367188 C 50.449219 27.367188 49.574219 28.339844 49.671875 29.398438 C 49.753906 30.230469 50.433594 30.90625 51.292969 31.039062 C 52.398438 31.039062 53.53125 31.328125 54.484375 31.898438 C 55.542969 32.546875 56.398438 33.519531 56.871094 34.679688 C 57.144531 35.367188 57.285156 36.105469 57.277344 36.847656 C 57.277344 37.714844 57.085938 38.582031 56.707031 39.355469 Z M 39.140625 20.1875 L 27.097656 20.1875 C 25.648438 20.1875 24.476562 21.363281 24.476562 22.808594 C 24.476562 24.257812 25.648438 25.425781 27.097656 25.425781 L 36.554688 25.425781 C 38 25.425781 39.171875 26.601562 39.171875 28.050781 C 39.171875 29.496094 38 30.667969 36.554688 30.667969 L 16.023438 30.667969 C 14.578125 30.667969 13.402344 31.84375 13.402344 33.289062 L 13.402344 33.292969 C 13.402344 34.742188 14.578125 35.914062 16.023438 35.914062 L 33.148438 35.914062 C 34.59375 35.914062 35.769531 37.089844 35.769531 38.535156 C 35.769531 39.980469 34.59375 41.15625 33.148438 41.15625 L 22.730469 41.15625 C 21.285156 41.15625 20.109375 42.328125 20.109375 43.773438 C 20.109375 45.222656 21.285156 46.394531 22.730469 46.394531 L 39.140625 46.394531 C 39.910156 46.394531 40.660156 46.640625 41.273438 47.105469 C 44.5 49.527344 48.601562 50.835938 53.023438 50.480469 C 61.46875 49.800781 68.273438 42.878906 68.8125 34.417969 C 69.449219 24.382812 61.496094 16.046875 51.59375 16.046875 C 47.722656 16.046875 44.144531 17.324219 41.269531 19.484375 C 40.65625 19.945312 39.90625 20.1875 39.140625 20.1875 " fill-opacity="1" fill-rule="nonzero"/></g><g clip-path="url(#6a60eaf944)"><path fill="#d9d9d9" d="M 25.914062 65.398438 L 18.773438 65.398438 C 17.832031 65.398438 17.074219 64.636719 17.074219 63.699219 C 17.074219 62.761719 17.832031 62 18.773438 62 L 25.914062 62 C 26.851562 62 27.613281 62.761719 27.613281 63.699219 C 27.613281 64.636719 26.851562 65.398438 25.914062 65.398438 Z M 40.121094 56.511719 L 40.121094 56.851562 C 40.121094 57.902344 39.269531 58.753906 38.21875 58.753906 L 6.46875 58.753906 C 5.417969 58.753906 4.566406 57.902344 4.566406 56.851562 L 4.566406 9.730469 C 4.566406 8.679688 5.417969 7.828125 6.46875 7.828125 L 38.21875 7.828125 C 39.269531 7.828125 40.121094 8.679688 40.121094 9.730469 L 40.121094 10.0625 C 40.121094 11.65625 41.730469 12.746094 43.210938 12.15625 C 44.101562 11.800781 44.6875 10.941406 44.6875 9.980469 L 44.6875 4.785156 C 44.6875 2.265625 42.644531 0.222656 40.121094 0.222656 L 4.566406 0.222656 C 2.042969 0.222656 0 2.265625 0 4.785156 L 0 64.078125 C 0 66.601562 2.042969 68.644531 4.566406 68.644531 L 40.121094 68.644531 C 42.644531 68.644531 44.6875 66.601562 44.6875 64.078125 L 44.6875 56.589844 C 44.6875 55.632812 44.101562 54.769531 43.210938 54.414062 C 41.726562 53.828125 40.121094 54.917969 40.121094 56.511719 " fill-opacity="1" fill-rule="nonzero"/></g><g clip-path="url(#dfd93444bf)"><g clip-path="url(#f0278ff081)"><path fill="#fefefe" d="M 61.980469 31.675781 L 64.742188 31.675781 L 64.742188 34.441406 L 61.980469 34.441406 Z M 61.980469 31.675781 " fill-opacity="1" fill-rule="nonzero"/></g></g></svg>