<svg width="50" height="40" viewBox="0 0 50 40" fill="none" xmlns="http://www.w3.org/2000/svg">
<mask id="mask0_818_20455" style="mask-type:luminance" maskUnits="userSpaceOnUse" x="16" y="0" width="20" height="20">
<path d="M16.3149 0.882812H35.4487V19.456H16.3149V0.882812Z" fill="white"/>
</mask>
<g mask="url(#mask0_818_20455)">
<path d="M21.936 18.4123L34.2459 1.11719H29.2905L18.042 16.9249C20.1945 17.2687 21.3455 17.7994 21.936 18.4123Z" fill="#0F1738"/>
</g>
<mask id="mask1_818_20455" style="mask-type:luminance" maskUnits="userSpaceOnUse" x="8" y="0" width="15" height="14">
<path d="M8.66162 0.882812H22.0552V13.7159H8.66162V0.882812Z" fill="white"/>
</mask>
<g mask="url(#mask1_818_20455)">
<path d="M15.9343 13.6255C19.4845 13.6255 21.7417 11.1964 21.7417 7.31731C21.7417 3.46815 19.4845 1.03906 15.9343 1.03906C12.3767 1.03906 10.127 3.46815 10.127 7.31731C10.127 11.1964 12.3767 13.6255 15.9343 13.6255ZM15.9343 3.90912C17.474 3.90912 18.3933 5.18719 18.3933 7.31731C18.3933 9.45491 17.474 10.7554 15.9343 10.7554C14.3872 10.7554 13.4679 9.44743 13.4679 7.31731C13.4679 5.18719 14.3872 3.90912 15.9343 3.90912Z" fill="#0F1738"/>
</g>
<path d="M30.3811 21.4919C31.846 21.2751 33.7445 21.1331 36.2184 21.0958C37.8179 20.0568 38.7446 18.1734 38.7446 15.692C38.7446 11.8353 36.4949 9.40625 32.9373 9.40625C29.3871 9.40625 27.1299 11.8353 27.1299 15.692C27.1299 18.5321 28.3407 20.595 30.3811 21.4919ZM32.9373 12.2838C34.4769 12.2838 35.3962 13.5544 35.3962 15.692C35.3962 17.8221 34.4769 19.1301 32.9373 19.1301C31.3976 19.1301 30.4783 17.8221 30.4783 15.692C30.4783 13.5544 31.3976 12.2838 32.9373 12.2838Z" fill="#0F1738"/>
<mask id="mask2_818_20455" style="mask-type:luminance" maskUnits="userSpaceOnUse" x="0" y="17" width="26" height="23">
<path d="M0.439941 17.5312H25.8818V39.5574H0.439941V17.5312Z" fill="white"/>
</mask>
<g mask="url(#mask2_818_20455)">
<path d="M21.1507 22.8881C21.1582 22.8582 21.1806 22.8283 21.1806 22.7909V19.9283C21.1806 18.0972 14.6781 17.8281 10.8065 17.8281C6.93494 17.8281 0.439941 18.0972 0.439941 19.9283V22.7909C0.439941 23.6131 1.76286 24.1213 3.57159 24.4278C3.56412 24.4651 3.54917 24.495 3.54917 24.5249V27.3875C3.54917 27.7089 3.75844 27.9854 4.10973 28.2171C3.15304 28.5161 2.54764 28.9346 2.54764 29.4877V32.3503C2.54764 32.8062 2.94377 33.1575 3.60149 33.4415C3.35484 33.6433 3.21283 33.8676 3.21283 34.1291V36.9917C3.21283 38.8229 9.70783 39.092 13.5794 39.092C17.451 39.092 23.946 38.8229 23.946 36.9917V34.1291C23.946 33.6807 23.5499 33.3219 22.8922 33.0454C23.1313 32.8436 23.2808 32.6119 23.2808 32.3503V29.4877C23.2808 29.1663 23.0715 28.8973 22.7203 28.6656C23.6769 28.3591 24.2898 27.9481 24.2898 27.3875V24.5249C24.2898 23.7028 22.9594 23.202 21.1507 22.8881ZM10.8065 19.1585C15.2536 19.1585 18.1087 19.5771 19.3195 19.9283C18.1087 20.2796 15.2536 20.6907 10.8065 20.6907C6.35943 20.6907 3.50433 20.2796 2.29352 19.9283C3.50433 19.5771 6.35943 19.1585 10.8065 19.1585ZM10.8065 24.8912C13.5196 24.8912 17.5183 24.7566 19.6708 24.0466C20.9339 24.1886 21.8682 24.368 22.4288 24.5249C21.2254 24.8762 18.3703 25.2948 13.9158 25.2948C10.3955 25.2948 7.88415 25.0332 6.38933 24.7491C7.929 24.8613 9.5135 24.8912 10.8065 24.8912ZM22.0924 34.1366C20.8891 34.4879 18.0265 34.899 13.5794 34.899C9.13233 34.899 6.27722 34.4804 5.06641 34.1366C5.23084 34.0843 5.42517 34.0395 5.64939 33.9871C7.85426 34.3683 10.7766 34.458 12.9142 34.458C15.2686 34.458 18.5945 34.3534 20.8443 33.8601C21.3674 33.9498 21.786 34.0395 22.0924 34.1366ZM21.4272 29.4877C20.2164 29.839 17.3613 30.2576 12.9142 30.2576C8.46713 30.2576 5.61202 29.839 4.40122 29.4877C4.90945 29.3382 5.72413 29.1888 6.80041 29.0542C8.98285 29.413 11.8305 29.4952 13.9158 29.4952C15.6946 29.4952 18.0265 29.4279 20.0221 29.1962C20.6126 29.2934 21.0909 29.3906 21.4272 29.4877Z" fill="#0F1738"/>
</g>
<mask id="mask3_818_20455" style="mask-type:luminance" maskUnits="userSpaceOnUse" x="23" y="21" width="27" height="19">
<path d="M23.9683 21.3594H49.1485V39.5588H23.9683V21.3594Z" fill="white"/>
</mask>
<g mask="url(#mask3_818_20455)">
<path d="M47.4448 28.0577C47.669 27.8634 47.7961 27.6391 47.7961 27.3925V24.5224C47.7961 22.6988 41.3011 22.4297 37.4295 22.4297C33.5579 22.4297 27.0629 22.6988 27.0629 24.5224V27.3925C27.0629 28.0502 27.9149 28.5061 29.193 28.82C28.9688 29.0218 28.8417 29.2386 28.8417 29.4927V32.3553C28.8417 32.4076 28.8642 32.4599 28.8716 32.5123C27.1376 32.8262 25.8745 33.3269 25.8745 34.1341V36.9967C25.8745 38.8204 32.3695 39.0969 36.2411 39.0969C40.1202 39.0969 46.6152 38.8204 46.6152 36.9967V34.1341C46.6152 34.0743 46.5853 34.022 46.5778 33.9697C48.3193 33.6558 49.5749 33.155 49.5749 32.3478V29.4852C49.5749 28.8275 48.7154 28.3716 47.4448 28.0577ZM37.4295 23.7601C41.8766 23.7601 44.7317 24.1712 45.9425 24.5224C44.7317 24.8812 41.8766 25.2923 37.4295 25.2923C32.9824 25.2923 30.1273 24.8737 28.9165 24.5224C30.1273 24.1712 32.9824 23.7601 37.4295 23.7601ZM36.2411 34.8965C31.794 34.8965 28.9389 34.4779 27.7356 34.1341C28.2886 33.9697 29.2154 33.7903 30.4711 33.6483C32.6535 34.321 36.5475 34.448 39.2083 34.448C40.6658 34.448 42.4969 34.4107 44.2085 34.2687C42.7884 34.5826 40.1202 34.8965 36.2411 34.8965ZM39.2083 30.2551C34.7612 30.2551 31.8986 29.8365 30.6953 29.4852C30.9719 29.4105 31.3381 29.3283 31.7865 29.2461C33.6775 29.4404 35.7852 29.4927 37.4295 29.4927C39.6194 29.4927 42.6464 29.403 44.8662 28.9994C46.1817 29.1414 47.1458 29.3208 47.7213 29.4852C46.5105 29.8365 43.6554 30.2551 39.2083 30.2551Z" fill="#0F1738"/>
</g>
</svg>
