<svg width="34" height="27" viewBox="0 0 34 27" fill="none" xmlns="http://www.w3.org/2000/svg">
<mask id="mask0_1172_3766" style="mask-type:luminance" maskUnits="userSpaceOnUse" x="11" y="0" width="14" height="13">
<path d="M11.0625 0H24.3958V12.9427H11.0625V0Z" fill="white"/>
</mask>
<g mask="url(#mask0_1172_3766)">
<path d="M14.9792 12.2161L23.5573 0.164062H20.1042L12.2656 11.1797C13.7656 11.4193 14.5677 11.7891 14.9792 12.2161Z" fill="#F7F7F7"/>
</g>
<mask id="mask1_1172_3766" style="mask-type:luminance" maskUnits="userSpaceOnUse" x="5" y="0" width="11" height="9">
<path d="M5.72852 0H15.0618V8.94271H5.72852V0Z" fill="white"/>
</mask>
<g mask="url(#mask1_1172_3766)">
<path d="M10.7959 8.88021C13.2699 8.88021 14.8428 7.1875 14.8428 4.48438C14.8428 1.80208 13.2699 0.109375 10.7959 0.109375C8.31673 0.109375 6.74902 1.80208 6.74902 4.48438C6.74902 7.1875 8.31673 8.88021 10.7959 8.88021ZM10.7959 2.10938C11.8688 2.10938 12.5094 3 12.5094 4.48438C12.5094 5.97396 11.8688 6.88021 10.7959 6.88021C9.71777 6.88021 9.07715 5.96875 9.07715 4.48438C9.07715 3 9.71777 2.10938 10.7959 2.10938Z" fill="#F7F7F7"/>
</g>
<path d="M20.8643 14.3672C21.8851 14.2161 23.208 14.1172 24.932 14.0911C26.0465 13.3672 26.6924 12.0547 26.6924 10.3255C26.6924 7.63802 25.1247 5.94531 22.6455 5.94531C20.1715 5.94531 18.5986 7.63802 18.5986 10.3255C18.5986 12.3047 19.4424 13.7422 20.8643 14.3672ZM22.6455 7.95052C23.7184 7.95052 24.359 8.83594 24.359 10.3255C24.359 11.8099 23.7184 12.7214 22.6455 12.7214C21.5726 12.7214 20.932 11.8099 20.932 10.3255C20.932 8.83594 21.5726 7.95052 22.6455 7.95052Z" fill="#F7F7F7"/>
<mask id="mask2_1172_3766" style="mask-type:luminance" maskUnits="userSpaceOnUse" x="0" y="11" width="18" height="16">
<path d="M0 11.6094H17.7292V26.9583H0V11.6094Z" fill="white"/>
</mask>
<g mask="url(#mask2_1172_3766)">
<path d="M14.4323 15.3385C14.4375 15.3177 14.4531 15.2969 14.4531 15.2708V13.276C14.4531 12 9.92188 11.8125 7.22396 11.8125C4.52604 11.8125 0 12 0 13.276V15.2708C0 15.8437 0.921874 16.1979 2.18229 16.4115C2.17708 16.4375 2.16667 16.4583 2.16667 16.4792V18.474C2.16667 18.6979 2.3125 18.8906 2.55729 19.0521C1.89063 19.2604 1.46875 19.5521 1.46875 19.9375V21.9323C1.46875 22.25 1.74479 22.4948 2.20313 22.6927C2.03125 22.8333 1.93229 22.9896 1.93229 23.1719V25.1667C1.93229 26.4427 6.45833 26.6302 9.15625 26.6302C11.8542 26.6302 16.3802 26.4427 16.3802 25.1667V23.1719C16.3802 22.8594 16.1042 22.6094 15.6458 22.4167C15.8125 22.276 15.9167 22.1146 15.9167 21.9323V19.9375C15.9167 19.7135 15.7708 19.526 15.526 19.3646C16.1927 19.151 16.6198 18.8646 16.6198 18.474V16.4792C16.6198 15.9062 15.6927 15.5573 14.4323 15.3385ZM7.22396 12.7396C10.3229 12.7396 12.3125 13.0312 13.1563 13.276C12.3125 13.5208 10.3229 13.8073 7.22396 13.8073C4.125 13.8073 2.13542 13.5208 1.29167 13.276C2.13542 13.0312 4.125 12.7396 7.22396 12.7396ZM7.22396 16.7344C9.11458 16.7344 11.901 16.6406 13.401 16.1458C14.2813 16.2448 14.9323 16.3698 15.3229 16.4792C14.4844 16.724 12.4948 17.0156 9.39063 17.0156C6.9375 17.0156 5.1875 16.8333 4.14583 16.6354C5.21875 16.7135 6.32292 16.7344 7.22396 16.7344ZM15.0885 23.1771C14.25 23.4219 12.2552 23.7083 9.15625 23.7083C6.05729 23.7083 4.06771 23.4167 3.22396 23.1771C3.33854 23.1406 3.47396 23.1094 3.63021 23.0729C5.16667 23.3385 7.20313 23.401 8.69271 23.401C10.3333 23.401 12.651 23.3281 14.2188 22.9844C14.5833 23.0469 14.875 23.1094 15.0885 23.1771ZM14.625 19.9375C13.7813 20.1823 11.7917 20.474 8.69271 20.474C5.59375 20.474 3.60417 20.1823 2.76042 19.9375C3.11458 19.8333 3.68229 19.7292 4.43229 19.6354C5.95313 19.8854 7.9375 19.9427 9.39063 19.9427C10.6302 19.9427 12.2552 19.8958 13.6458 19.7344C14.0573 19.8021 14.3906 19.8698 14.625 19.9375Z" fill="#F7F7F7"/>
</g>
<mask id="mask3_1172_3766" style="mask-type:luminance" maskUnits="userSpaceOnUse" x="16" y="14" width="18" height="13">
<path d="M16.3955 14.2734H33.9424V26.9557H16.3955V14.2734Z" fill="white"/>
</mask>
<g mask="url(#mask3_1172_3766)">
<path d="M32.7549 18.9375C32.9111 18.8021 32.9997 18.6458 32.9997 18.474V16.474C32.9997 15.2031 28.4736 15.0156 25.7757 15.0156C23.0778 15.0156 18.5518 15.2031 18.5518 16.474V18.474C18.5518 18.9323 19.1455 19.25 20.0361 19.4688C19.8799 19.6094 19.7913 19.7604 19.7913 19.9375V21.9323C19.7913 21.9688 19.807 22.0052 19.8122 22.0417C18.6038 22.2604 17.7236 22.6094 17.7236 23.1719V25.1667C17.7236 26.4375 22.2497 26.6302 24.9476 26.6302C27.6507 26.6302 32.1768 26.4375 32.1768 25.1667V23.1719C32.1768 23.1302 32.1559 23.0938 32.1507 23.0573C33.3643 22.8385 34.2393 22.4896 34.2393 21.9271V19.9323C34.2393 19.474 33.6403 19.1562 32.7549 18.9375ZM25.7757 15.9427C28.8747 15.9427 30.8643 16.2292 31.708 16.474C30.8643 16.724 28.8747 17.0104 25.7757 17.0104C22.6768 17.0104 20.6872 16.7188 19.8434 16.474C20.6872 16.2292 22.6768 15.9427 25.7757 15.9427ZM24.9476 23.7031C21.8486 23.7031 19.859 23.4115 19.0205 23.1719C19.4059 23.0573 20.0518 22.9323 20.9268 22.8333C22.4476 23.3021 25.1611 23.3906 27.0153 23.3906C28.0309 23.3906 29.307 23.3646 30.4997 23.2656C29.5101 23.4844 27.6507 23.7031 24.9476 23.7031ZM27.0153 20.4688C23.9163 20.4688 21.9215 20.1771 21.083 19.9323C21.2757 19.8802 21.5309 19.8229 21.8434 19.7656C23.1611 19.901 24.6299 19.9375 25.7757 19.9375C27.3018 19.9375 29.4111 19.875 30.958 19.5938C31.8747 19.6927 32.5465 19.8177 32.9476 19.9323C32.1038 20.1771 30.1143 20.4688 27.0153 20.4688Z" fill="#F7F7F7"/>
</g>
</svg>
