<svg width="43" height="48" viewBox="0 0 43 48" fill="none" xmlns="http://www.w3.org/2000/svg">
<path d="M12.6406 33.4297H15.3958V36.2109H12.6406V33.4297Z" fill="#0F1738"/>
<path d="M12.6406 26.2812H15.3958V29.0625H12.6406V26.2812Z" fill="#0F1738"/>
<path d="M12.6406 40.5781H15.3958V43.3594H12.6406V40.5781Z" fill="#0F1738"/>
<path d="M5.37012 33.4297H8.12533V36.2109H5.37012V33.4297Z" fill="#0F1738"/>
<path d="M5.37012 26.2812H8.12533V29.0625H5.37012V26.2812Z" fill="#0F1738"/>
<mask id="mask0_705_12859" style="mask-type:luminance" maskUnits="userSpaceOnUse" x="14" y="0" width="29" height="28">
<path d="M14.667 0.132812H42.667V27.8776H14.667V0.132812Z" fill="white"/>
</mask>
<g mask="url(#mask0_705_12859)">
<path d="M28.9638 0.132812C21.6461 0.132812 15.6877 6.01823 15.5471 13.2995H24.7034C26.4013 13.2995 27.7867 14.6849 27.7867 16.3828V26.9349C28.1721 26.9661 28.5627 26.9922 28.9638 26.9922C36.3648 26.9922 42.3857 20.9661 42.3857 13.5599C42.3857 6.15885 36.3648 0.132812 28.9638 0.132812ZM36.5888 17.1068C36.5263 17.2422 36.3909 17.3255 36.2502 17.3255C36.193 17.3255 36.1409 17.3099 36.0888 17.2891L28.8023 13.9036C28.7867 13.8984 28.7711 13.8828 28.7555 13.8724C28.7346 13.8568 28.7086 13.8411 28.6877 13.8203C28.6721 13.8047 28.6617 13.7839 28.6513 13.763C28.6357 13.7422 28.62 13.7214 28.6096 13.7005C28.5992 13.6745 28.5992 13.6484 28.594 13.6224C28.594 13.6016 28.5836 13.5859 28.5836 13.5651V4.23177C28.5836 4.02344 28.7502 3.85677 28.9586 3.85677C29.1669 3.85677 29.3388 4.02344 29.3388 4.23177V13.3203L36.4065 16.6068C36.594 16.6901 36.6773 16.9141 36.5888 17.1068Z" fill="#0F1738"/>
</g>
<path d="M19.917 40.5781H22.667V43.3594H19.917V40.5781Z" fill="#0F1738"/>
<path d="M5.37012 40.5781H8.12533V43.3594H5.37012V40.5781Z" fill="#0F1738"/>
<path d="M5.37012 17.5547H22.667V21.9193H5.37012V17.5547Z" fill="#0F1738"/>
<mask id="mask1_705_12859" style="mask-type:luminance" maskUnits="userSpaceOnUse" x="0" y="13" width="28" height="35">
<path d="M0.926758 13.2109H27.9997V47.0547H0.926758V13.2109Z" fill="white"/>
</mask>
<g mask="url(#mask1_705_12859)">
<path d="M27.0361 16.3828C27.0361 15.0964 25.9893 14.0547 24.7028 14.0547H3.33822C2.05176 14.0547 1.00488 15.0964 1.00488 16.3828V44.5234C1.00488 45.8099 2.05176 46.8516 3.33822 46.8516H24.7028C25.9893 46.8516 27.0361 45.8099 27.0361 44.5234V16.3828ZM8.87467 43.737C8.87467 43.9401 8.70801 44.112 8.49967 44.112H4.99447C4.78613 44.112 4.61426 43.9401 4.61426 43.737V40.1953C4.61426 39.987 4.78613 39.8203 4.99447 39.8203H8.49967C8.70801 39.8203 8.87467 39.987 8.87467 40.1953V43.737ZM8.87467 36.5807C8.87467 36.7891 8.70801 36.9609 8.49967 36.9609H4.99447C4.78613 36.9609 4.61426 36.7891 4.61426 36.5807V33.0495C4.61426 32.8411 4.78613 32.6693 4.99447 32.6693H8.49967C8.70801 32.6693 8.87467 32.8411 8.87467 33.0495V36.5807ZM8.87467 29.4401C8.87467 29.6432 8.70801 29.8151 8.49967 29.8151H4.99447C4.78613 29.8151 4.61426 29.6432 4.61426 29.4401V25.9036C4.61426 25.6953 4.78613 25.5234 4.99447 25.5234H8.49967C8.70801 25.5234 8.87467 25.6953 8.87467 25.9036V29.4401ZM16.1507 43.737C16.1507 43.9401 15.984 44.112 15.7757 44.112H12.2653C12.057 44.112 11.8903 43.9401 11.8903 43.737V40.1953C11.8903 39.987 12.057 39.8203 12.2653 39.8203H15.7757C15.984 39.8203 16.1507 39.987 16.1507 40.1953V43.737ZM16.1507 36.5807C16.1507 36.7891 15.984 36.9609 15.7757 36.9609H12.2653C12.057 36.9609 11.8903 36.7891 11.8903 36.5807V33.0495C11.8903 32.8411 12.057 32.6693 12.2653 32.6693H15.7757C15.984 32.6693 16.1507 32.8411 16.1507 33.0495V36.5807ZM16.1507 29.4349C16.1507 29.6432 15.984 29.8151 15.7757 29.8151H12.2653C12.057 29.8151 11.8903 29.6432 11.8903 29.4349V25.9036C11.8903 25.6953 12.057 25.5234 12.2653 25.5234H15.7757C15.984 25.5234 16.1507 25.6953 16.1507 25.9036V29.4349ZM23.4216 43.737C23.4216 43.9401 23.2549 44.112 23.0466 44.112H19.5413C19.333 44.112 19.1663 43.9401 19.1663 43.737V40.1953C19.1663 39.987 19.333 39.8203 19.5413 39.8203H23.0466C23.2549 39.8203 23.4216 39.987 23.4216 40.1953V43.737ZM23.4216 36.5807C23.4216 36.7891 23.2549 36.9609 23.0466 36.9609H19.5413C19.333 36.9609 19.1663 36.7891 19.1663 36.5807V33.0495C19.1663 32.8411 19.333 32.6693 19.5413 32.6693H23.0466C23.2549 32.6693 23.4216 32.8411 23.4216 33.0495V36.5807ZM23.4216 29.4349C23.4216 29.6432 23.2549 29.8151 23.0466 29.8151H19.5413C19.333 29.8151 19.1663 29.6432 19.1663 29.4349V25.9036C19.1663 25.6953 19.333 25.5234 19.5413 25.5234H23.0466C23.2549 25.5234 23.4216 25.6953 23.4216 25.9036V29.4349ZM23.4216 22.2891C23.4216 22.4974 23.2549 22.6693 23.0466 22.6693H4.99447C4.78613 22.6693 4.61426 22.4974 4.61426 22.2891V17.1745C4.61426 16.9661 4.78613 16.7943 4.99447 16.7943H23.0466C23.2549 16.7943 23.4216 16.9661 23.4216 17.1745V22.2891Z" fill="#0F1738"/>
</g>
<path d="M19.917 26.2812H22.667V29.0625H19.917V26.2812Z" fill="#0F1738"/>
<path d="M19.917 33.4297H22.667V36.2109H19.917V33.4297Z" fill="#0F1738"/>
</svg>
