<svg width="38" height="51" viewBox="0 0 38 51" fill="none" xmlns="http://www.w3.org/2000/svg">
<mask id="mask0_781_7605" style="mask-type:luminance" maskUnits="userSpaceOnUse" x="12" y="12" width="26" height="39">
<path d="M12.647 12.8906H37.7824V50.9792H12.647V12.8906Z" fill="white"/>
</mask>
<g mask="url(#mask0_781_7605)">
<path fill-rule="evenodd" clip-rule="evenodd" d="M21.9178 50.9505C21.9178 48.44 19.3761 46.2265 17.4282 45.039C16.2198 44.315 15.2459 43.4921 14.5323 42.6015C13.9542 41.8671 13.5376 41.0911 13.3136 40.2786C13.2876 40.1692 13.2563 40.0598 13.2355 39.9557H26.074C28.6209 39.9557 30.6886 37.888 30.6886 35.3463V25.0859C30.6886 23.94 29.7563 23.0077 28.6105 23.0077C28.1261 23.0077 27.6782 23.1744 27.324 23.4557C26.699 21.8411 26.3553 20.3932 26.3032 19.1171C26.2198 16.9973 27.4803 13.7265 30.0271 14.1744C30.4178 14.2421 30.699 14.4609 30.7928 14.7682L32.8969 21.6379C33.2771 21.9817 34.3344 23.1067 35.0948 25.414C35.6209 27.0182 35.8969 28.8827 35.923 30.9609C35.949 33.4713 35.6001 36.2994 34.8813 39.3775L37.4907 43.3775C37.6469 43.6171 37.5792 43.94 37.3344 44.0963C36.2563 47.565 21.9178 50.9505 21.9178 50.9505Z" fill="#0F1738"/>
</g>
<mask id="mask1_781_7605" style="mask-type:luminance" maskUnits="userSpaceOnUse" x="0" y="8" width="6" height="9">
<path d="M0.839844 8.89062H5.98047V16.8906H0.839844V8.89062Z" fill="white"/>
</mask>
<g mask="url(#mask1_781_7605)">
<path fill-rule="evenodd" clip-rule="evenodd" d="M5.29819 15.9914L3.32423 15.1008C2.87631 14.8977 2.56381 14.7674 2.19402 14.3872C0.803396 12.981 1.32423 10.6477 3.14194 9.96536C3.89194 9.68411 4.58465 9.75182 5.29819 10.0799V15.9914Z" fill="#0F1738"/>
</g>
<path fill-rule="evenodd" clip-rule="evenodd" d="M4.77697 23.2578L3.78218 22.8047C3.13635 22.513 2.64155 21.9818 2.39155 21.3151C1.86551 19.9245 2.56343 18.388 3.95405 17.8672C4.22489 17.763 4.50093 17.7057 4.77697 17.6953V23.2578Z" fill="#0F1738"/>
<path fill-rule="evenodd" clip-rule="evenodd" d="M2.76162 26.6562C2.65224 26.4896 2.55849 26.3073 2.48558 26.1146C2.23558 25.4427 2.25641 24.7135 2.54808 24.0677C2.64183 23.8646 2.75641 23.6719 2.89183 23.5C3.03766 23.5938 3.1887 23.6771 3.35016 23.75L4.77724 24.401V26.0781C4.05849 26.0781 3.36058 26.2812 2.76162 26.6562Z" fill="#0F1738"/>
<path fill-rule="evenodd" clip-rule="evenodd" d="M5.29807 32.9902L3.89703 32.3652C2.62619 31.8027 1.83453 30.6412 2.08974 29.3183C2.1939 28.7662 2.44911 28.287 2.85536 27.8912C3.49599 27.2662 4.40744 26.9902 5.29807 27.1725V32.9902Z" fill="#0F1738"/>
<mask id="mask2_781_7605" style="mask-type:luminance" maskUnits="userSpaceOnUse" x="4" y="0" width="26" height="40">
<path d="M4.64697 0.0625H29.9803V39.5573H4.64697V0.0625Z" fill="white"/>
</mask>
<g mask="url(#mask2_781_7605)">
<path fill-rule="evenodd" clip-rule="evenodd" d="M27.5688 6.38281H7.89172V32.6172H27.5688V25.0859C27.5688 24.513 28.0376 24.0443 28.6105 24.0443C29.1834 24.0443 29.6469 24.513 29.6469 25.0859V35.3464C29.6469 37.3151 28.0428 38.9193 26.074 38.9193H9.41777C8.46464 38.9193 7.56881 38.5443 6.88652 37.8776C6.20422 37.2057 5.8136 36.3047 5.8136 35.3464C5.8136 24.7839 5.8136 14.2161 5.8136 3.65365C5.8136 2.69531 6.19901 1.79948 6.88652 1.1276C7.5636 0.460938 8.46985 0.0859375 9.41777 0.0859375H26.074C28.0428 0.0859375 29.6469 1.6849 29.6469 3.65365V13.0964C28.8501 13.0703 28.1521 13.3151 27.5688 13.7318V6.38281ZM20.8813 35.9297H14.5844C14.298 35.9297 14.0636 35.6953 14.0636 35.4089C14.0636 35.1224 14.298 34.8932 14.5844 34.8932H20.8813C21.1678 34.8932 21.4021 35.1224 21.4021 35.4089C21.4021 35.6953 21.1678 35.9297 20.8813 35.9297ZM20.8813 4.01302H14.5844C14.298 4.01302 14.0636 3.77865 14.0636 3.49219C14.0636 3.20573 14.298 2.97135 14.5844 2.97135H20.8813C21.1678 2.97135 21.4021 3.20573 21.4021 3.49219C21.4021 3.77865 21.1678 4.01302 20.8813 4.01302ZM22.9021 4.1901C22.5167 4.1901 22.1938 3.86719 22.1938 3.48698C22.1938 3.29427 22.2719 3.11198 22.4021 2.97656C22.5376 2.84115 22.7199 2.76302 22.9021 2.76302C23.3032 2.76302 23.6261 3.08594 23.6261 3.48698C23.6261 3.66927 23.548 3.85156 23.4126 3.98177C23.2719 4.11719 23.0949 4.1901 22.9021 4.1901Z" fill="#0F1738"/>
</g>
</svg>
