<svg width="12" height="13" viewBox="0 0 12 13" fill="none" xmlns="http://www.w3.org/2000/svg">
<mask id="mask0_818_18678" style="mask-type:luminance" maskUnits="userSpaceOnUse" x="0" y="0" width="12" height="13">
<path d="M0 0.734375H11.9844V12.7135H0V0.734375Z" fill="white"/>
</mask>
<g mask="url(#mask0_818_18678)">
<path d="M11.9167 6.69271C11.9167 9.98438 9.25 12.651 5.95833 12.651C2.66667 12.651 0 9.98438 0 6.69271C0 3.40104 2.66667 0.734375 5.95833 0.734375C9.25 0.734375 11.9167 3.40104 11.9167 6.69271Z" fill="#0F1738"/>
</g>
<path d="M2.79168 4.81887C2.76043 4.81887 2.72397 4.80845 2.69272 4.78762C2.60418 4.73033 2.57814 4.61574 2.63543 4.5272C2.69793 4.43866 2.76043 4.35012 2.82293 4.26158C2.88543 4.17825 3.00522 4.16783 3.08855 4.23033C3.16668 4.29283 3.1823 4.40741 3.1198 4.49075C3.06251 4.56887 3.00522 4.647 2.94793 4.73033C2.91147 4.78762 2.85418 4.81887 2.79168 4.81887ZM3.52084 4.05325C3.59376 3.98554 3.67189 3.91783 3.75001 3.85533C3.82814 3.79283 3.84376 3.67825 3.78126 3.59491C3.71876 3.51679 3.59897 3.50116 3.52084 3.56366C3.4323 3.63137 3.34897 3.70429 3.27084 3.7772C3.19272 3.84491 3.18751 3.9647 3.26043 4.04283C3.29689 4.07929 3.34376 4.10012 3.39584 4.10012C3.44272 4.10012 3.48439 4.0845 3.52084 4.05325ZM4.2448 3.53241C4.33334 3.48554 4.42189 3.43866 4.51564 3.397C4.60939 3.35533 4.65105 3.24595 4.60939 3.1522C4.56772 3.05845 4.45834 3.01679 4.36459 3.05845C4.26564 3.10012 4.16668 3.1522 4.06772 3.20429C3.97918 3.25116 3.94272 3.36575 3.9948 3.45429C4.02605 3.51679 4.09376 3.55325 4.15626 3.55325C4.18751 3.55325 4.21876 3.54804 4.2448 3.53241ZM5.07814 3.20429C5.17189 3.17825 5.27084 3.15741 5.3698 3.14179C5.46876 3.12616 5.53647 3.0272 5.52084 2.92825C5.50522 2.82408 5.40626 2.75637 5.3073 2.7772C5.19793 2.79283 5.08855 2.81887 4.98439 2.84491C4.88543 2.87095 4.82814 2.96991 4.84897 3.06887C4.87501 3.1522 4.94793 3.2095 5.03126 3.2095C5.04689 3.2095 5.06251 3.2095 5.07814 3.20429Z" fill="white"/>
<path d="M5.38522 3.13535C5.28105 3.15618 5.1873 3.1093 5.15605 3.00514C5.1248 2.9166 5.1873 2.7968 5.28626 2.77597C5.3748 2.76035 5.46855 2.74993 5.55709 2.73951C6.20813 2.6718 6.88001 2.77076 7.48417 3.02076C7.95813 3.21868 8.39042 3.50514 8.76022 3.86972C9.10397 4.20826 9.38522 4.61972 9.58313 5.06243C9.78626 5.52076 9.90605 6.01035 9.93209 6.51555C9.95292 7.02076 9.8748 7.53118 9.70813 8.00514C9.67168 8.1041 9.58313 8.16139 9.47897 8.13535C9.38522 8.11451 9.3123 7.99993 9.34876 7.90618C9.36959 7.84889 9.38522 7.7916 9.40605 7.7291C9.44251 7.61451 9.46855 7.49472 9.49459 7.37493C9.50501 7.31764 9.51543 7.26035 9.52584 7.20305C9.52584 7.18743 9.53105 7.1666 9.53105 7.15097C9.53105 7.15097 9.52584 7.19785 9.53105 7.1666C9.53105 7.16139 9.53105 7.15618 9.53105 7.14576C9.53626 7.11972 9.54147 7.08847 9.54147 7.06243C9.56751 6.82805 9.56751 6.58847 9.54667 6.3541C9.54667 6.32805 9.54147 6.2968 9.53626 6.26555C9.53626 6.25514 9.53626 6.23951 9.53105 6.22389C9.53105 6.21868 9.53105 6.20826 9.53105 6.19785C9.52584 6.17701 9.53626 6.24472 9.53105 6.21868C9.52584 6.16139 9.51542 6.1041 9.50501 6.05201C9.48417 5.93743 9.45813 5.82285 9.42688 5.70826C9.39563 5.59889 9.35917 5.48951 9.31751 5.38014C9.30709 5.3541 9.29147 5.32285 9.28105 5.2968C9.28105 5.2916 9.27584 5.28118 9.27584 5.27597C9.26543 5.25514 9.29147 5.31243 9.28105 5.2916C9.27584 5.28118 9.27063 5.26555 9.26542 5.25514C9.23938 5.20305 9.21855 5.15097 9.19251 5.09889C9.08834 4.89055 8.96334 4.69264 8.82792 4.50514C8.82272 4.49993 8.79147 4.45826 8.80709 4.4843C8.82792 4.51035 8.79667 4.47389 8.79667 4.46868C8.77584 4.44785 8.76022 4.4218 8.74459 4.40097C8.70813 4.3593 8.66647 4.31243 8.63001 4.27076C8.55188 4.18222 8.46855 4.1041 8.38001 4.02597C8.33834 3.9843 8.29147 3.94785 8.2498 3.90618C8.22376 3.88535 8.19772 3.86972 8.17688 3.84889C8.16647 3.84368 8.16126 3.83847 8.15605 3.83326C8.16126 3.83847 8.19251 3.86451 8.17167 3.84368C8.16126 3.83847 8.15084 3.82805 8.13522 3.81764C8.04147 3.74993 7.94251 3.68222 7.84355 3.61972C7.73938 3.55722 7.63522 3.49993 7.52584 3.44785C7.47376 3.4218 7.41647 3.40097 7.35917 3.36972C7.41126 3.39576 7.35397 3.36972 7.34355 3.36451C7.32792 3.3593 7.31751 3.3541 7.30188 3.34889C7.27584 3.33847 7.24459 3.32805 7.21855 3.31764C7.06751 3.26035 6.90605 3.21347 6.74459 3.17701C6.67168 3.16139 6.58834 3.14576 6.51022 3.13014C6.48938 3.13014 6.46855 3.12493 6.44772 3.12493C6.41126 3.11451 6.44772 3.11972 6.45292 3.12493C6.44772 3.11972 6.43209 3.11972 6.42688 3.11972C6.38522 3.11451 6.34355 3.1093 6.30188 3.1093C6.14563 3.09368 5.98417 3.08847 5.82792 3.09368C5.74459 3.09889 5.66647 3.1041 5.58834 3.1093C5.5623 3.11451 5.54147 3.11451 5.51542 3.11972C5.50501 3.11972 5.44772 3.12493 5.49459 3.11972C5.45813 3.12493 5.42168 3.13014 5.38522 3.13535Z" fill="white"/>
<path d="M10.9372 7.48759C10.8799 7.51363 10.8278 7.53967 10.7705 7.56571C10.5362 7.68029 10.3018 7.80009 10.0674 7.91467C9.92158 7.98238 9.77054 8.05529 9.62471 8.12821C9.57262 8.15946 9.51533 8.15946 9.46325 8.13863C9.432 8.12821 9.40596 8.10738 9.38512 8.08134C9.37992 8.07613 9.37471 8.07092 9.3695 8.0605C9.33304 8.00842 9.29658 7.95113 9.26012 7.89905C9.09866 7.65946 8.93721 7.42509 8.77575 7.1855C8.67679 7.03967 8.57783 6.88863 8.47367 6.7428C8.41637 6.65425 8.46325 6.53967 8.54137 6.48759C8.62992 6.43029 8.7445 6.47196 8.79658 6.55009C8.83304 6.60738 8.87471 6.65946 8.91117 6.71675C9.07262 6.95634 9.22887 7.19071 9.39033 7.4303C9.45804 7.52925 9.52575 7.62821 9.59346 7.72717C9.59866 7.72717 9.59867 7.72717 9.59867 7.72717C9.83304 7.61259 10.0674 7.498 10.307 7.38342C10.4528 7.3105 10.5987 7.23759 10.7445 7.16467C10.8382 7.1178 10.9424 7.14384 10.9997 7.23238C11.0518 7.3105 11.0205 7.44592 10.9372 7.48759Z" fill="white"/>
<path d="M8.94755 9.21819C8.91109 9.21819 8.86943 9.20778 8.83297 9.18174C8.75484 9.11924 8.73922 8.99944 8.80172 8.91611C8.85901 8.84319 8.9163 8.75986 8.97359 8.67653C9.02567 8.59319 9.14547 8.56715 9.2288 8.62444C9.31734 8.67653 9.34338 8.79111 9.28609 8.87965C9.2288 8.9734 9.16109 9.06194 9.09859 9.14528C9.06213 9.19215 9.00484 9.21819 8.94755 9.21819ZM7.55692 10.3484C7.65588 10.3067 7.75484 10.2599 7.8538 10.2078C7.94234 10.1557 7.9788 10.0411 7.92672 9.95257C7.87984 9.86403 7.76526 9.82757 7.67672 9.87965C7.58818 9.92653 7.49963 9.96819 7.40588 10.0099C7.31213 10.0515 7.27047 10.1609 7.31213 10.2547C7.34338 10.3224 7.41109 10.364 7.48401 10.364C7.50484 10.364 7.53088 10.364 7.55692 10.3484ZM8.40067 9.84319C8.48922 9.77549 8.57255 9.70778 8.65067 9.62965C8.7288 9.56195 8.73401 9.44215 8.66109 9.36924C8.59338 9.29111 8.47359 9.2859 8.40067 9.35882C8.32776 9.42653 8.24963 9.48903 8.17151 9.55153C8.09338 9.61403 8.07776 9.73382 8.14026 9.81194C8.17672 9.85882 8.23401 9.88486 8.28609 9.88486C8.32776 9.88486 8.36943 9.86924 8.40067 9.84319ZM6.61942 10.6349C6.72359 10.614 6.83297 10.5932 6.93713 10.5672C7.03609 10.5411 7.09859 10.4369 7.07255 10.338C7.04651 10.239 6.94234 10.1765 6.84338 10.2026C6.74963 10.2286 6.65067 10.2494 6.55692 10.2651C6.45276 10.2807 6.38505 10.3797 6.40067 10.4786C6.4163 10.5724 6.49442 10.6349 6.58817 10.6349C6.59859 10.6349 6.60901 10.6349 6.61942 10.6349Z" fill="white"/>
<path d="M6.5365 10.2719C6.64067 10.2563 6.73442 10.2979 6.76567 10.4021C6.79692 10.4906 6.73442 10.6156 6.63546 10.6313C6.54692 10.6469 6.45317 10.6573 6.36463 10.6677C5.71359 10.7406 5.04171 10.6417 4.44275 10.3865C3.96359 10.1886 3.5313 9.90731 3.1615 9.54273C2.81775 9.19898 2.5365 8.79273 2.33859 8.34481C2.13546 7.88648 2.01567 7.3969 1.98963 6.89169C1.9688 6.38648 2.04692 5.87606 2.21359 5.40211C2.25005 5.30315 2.33859 5.24586 2.44275 5.2719C2.53651 5.29273 2.60942 5.40731 2.57296 5.50106C2.55213 5.55836 2.5365 5.62086 2.51567 5.67815C2.47921 5.79273 2.45317 5.91252 2.42713 6.03231C2.41671 6.08961 2.4063 6.1469 2.39588 6.20419C2.39588 6.22502 2.39067 6.24065 2.39067 6.25627C2.39067 6.25627 2.39588 6.2094 2.39067 6.24065C2.39067 6.24586 2.39067 6.25627 2.39067 6.26148C2.38546 6.28752 2.38025 6.31877 2.38025 6.34481C2.35421 6.57919 2.35421 6.81877 2.37505 7.05315C2.38026 7.0844 2.38026 7.11044 2.38546 7.14169C2.38546 7.15731 2.38546 7.16773 2.39067 7.18336C2.39067 7.19377 2.39067 7.19898 2.39067 7.2094C2.39588 7.23544 2.38546 7.16773 2.39067 7.18856C2.39588 7.24586 2.4063 7.30315 2.41671 7.36044C2.43755 7.47502 2.46359 7.58961 2.49484 7.69898C2.5313 7.80836 2.56255 7.91773 2.60421 8.02711C2.61984 8.05836 2.63026 8.0844 2.64067 8.11565C2.64067 8.12086 2.64588 8.12607 2.64588 8.13127C2.6563 8.15211 2.63026 8.09481 2.64067 8.11565C2.64588 8.12607 2.65109 8.14169 2.6563 8.15211C2.68234 8.2094 2.70838 8.26148 2.72921 8.31356C2.83338 8.51669 2.95838 8.71461 3.0938 8.90211C3.099 8.90731 3.13026 8.94898 3.11463 8.92294C3.0938 8.8969 3.12505 8.93857 3.12505 8.94377C3.14588 8.96461 3.1615 8.98544 3.17713 9.00627C3.21359 9.05315 3.25526 9.09481 3.29171 9.13648C3.36984 9.22502 3.45317 9.30836 3.54171 9.38648C3.58338 9.42294 3.63025 9.46461 3.67192 9.50106C3.69796 9.5219 3.72401 9.54273 3.75005 9.56356C3.75526 9.56356 3.76046 9.56877 3.76567 9.57398C3.76046 9.57398 3.72921 9.54794 3.75005 9.56356C3.76046 9.57398 3.77609 9.57919 3.7865 9.58961C3.88026 9.66252 3.97921 9.72502 4.07817 9.78752C4.18234 9.85002 4.28651 9.90731 4.39588 9.9594C4.44796 9.98544 4.51046 10.0115 4.56255 10.0375C4.51046 10.0115 4.56775 10.0375 4.57817 10.0427C4.5938 10.0479 4.60421 10.0531 4.61984 10.0584C4.64588 10.0688 4.67713 10.0792 4.70317 10.0896C4.85942 10.1469 5.01567 10.1938 5.17713 10.2302C5.25526 10.2511 5.33338 10.2667 5.4115 10.2771C5.43234 10.2823 5.45317 10.2823 5.474 10.2875C5.51046 10.2927 5.474 10.2875 5.4688 10.2875C5.474 10.2875 5.48963 10.2875 5.49484 10.2875C5.5365 10.2927 5.57817 10.2979 5.61984 10.3031C5.77609 10.3188 5.93755 10.3188 6.0938 10.3136C6.17713 10.3136 6.25526 10.3084 6.33338 10.2979C6.35942 10.2979 6.38026 10.2927 6.4063 10.2927C6.41671 10.2875 6.474 10.2823 6.42713 10.2875C6.46359 10.2875 6.50005 10.2771 6.5365 10.2719Z" fill="white"/>
<mask id="mask1_818_18678" style="mask-type:luminance" maskUnits="userSpaceOnUse" x="0" y="4" width="4" height="4">
<path d="M0 4.40625H3.84896V7.07292H0V4.40625Z" fill="white"/>
</mask>
<g mask="url(#mask1_818_18678)">
<path d="M3.38028 6.92858C3.29174 6.98587 3.17716 6.939 3.12507 6.86087C3.08862 6.80358 3.05216 6.7515 3.01049 6.69421C2.85424 6.45983 2.69278 6.22025 2.53132 5.98587C2.46361 5.88171 2.39591 5.78275 2.3282 5.68379H2.32299C2.08861 5.79837 1.85424 5.91817 1.61986 6.03275C1.46882 6.10046 1.32299 6.17337 1.17716 6.24629C1.08341 6.29317 0.979238 6.27233 0.921948 6.17858C0.869864 6.10046 0.901114 5.96504 0.984448 5.92337C1.04174 5.89733 1.09382 5.87129 1.15111 5.84525C1.38549 5.73067 1.61986 5.61608 1.85424 5.5015C2.00007 5.42858 2.15111 5.35567 2.29695 5.28275C2.34903 5.2515 2.40632 5.2515 2.45841 5.27233C2.48966 5.28275 2.5157 5.30358 2.53653 5.32962C2.54174 5.34004 2.54695 5.34525 2.55216 5.35046C2.58861 5.40775 2.62507 5.45983 2.66153 5.51712C2.82299 5.7515 2.98445 5.99108 3.14591 6.22546C3.24486 6.3765 3.34382 6.52233 3.44799 6.67337C3.50528 6.75671 3.45841 6.8765 3.38028 6.92858Z" fill="white"/>
</g>
</svg>
