<svg width="45" height="55" viewBox="0 0 45 55" fill="none" xmlns="http://www.w3.org/2000/svg">
<path d="M39.0877 15.3937C38.963 14.9388 38.6549 14.5574 38.222 14.3299C38.3174 13.3029 38.178 12.0484 37.9359 11.014C37.7305 10.1557 37.415 9.20197 36.9235 8.21159C36.4027 7.22854 35.7644 6.18681 34.8694 5.22577C34.0184 4.22806 32.9253 3.32571 31.6928 2.52607C20.9087 -4.31123 6.02362 3.77321 7.1754 14.3373C6.74257 14.5647 6.44178 14.9388 6.31707 15.3864C3.76409 15.4304 1.70996 17.3304 1.70996 19.6707C1.70996 22.0182 3.76409 23.9183 6.31707 23.9623C6.51515 24.6959 7.21208 25.2608 8.08508 25.2608C9.11948 25.2608 9.9558 24.4979 9.9558 23.5515V15.7972C9.9558 15.2616 9.66969 14.7995 9.2442 14.4913C9.71371 11.821 11.1002 8.99656 13.0443 7.25055C15.8981 4.46281 20.8573 2.85619 26.3008 4.074C28.3989 4.69757 30.4604 5.74664 32.177 7.42662C34.0918 9.14328 35.647 11.7256 36.1532 14.4913C35.0528 15.3057 35.449 16.0173 35.449 23.5515C35.449 24.1384 35.7938 24.6372 36.2926 24.938V25.5983C36.2926 26.0164 36.1752 26.4199 35.9478 26.7721C33.5122 30.5722 33.3508 30.961 29.6681 32.1421C28.5089 32.5089 27.2031 32.6703 25.8826 32.9931C24.6648 31.79 22.5153 32.5823 22.5153 34.1889C22.5153 36.221 25.6919 36.6906 26.3008 34.6584C27.1958 34.4384 28.1128 34.3136 28.9785 34.0495C33.725 32.6043 35.2802 31.746 37.7965 26.9481C38.0313 26.4933 38.156 25.9871 38.156 25.4736V25.0554C38.6255 24.828 38.9556 24.4392 39.0877 23.955C41.6407 23.911 43.6875 22.0182 43.6875 19.6707C43.6875 17.3304 41.6407 15.4377 39.0877 15.3937Z" fill=""/>
<mask id="mask0_605_4046" style="mask-type:luminance" maskUnits="userSpaceOnUse" x="0" y="34" width="45" height="21">
<path d="M0 34.5625H45V54.7369H0V34.5625Z" fill="white"/>
</mask>
<g mask="url(#mask0_605_4046)">
<path d="M22.7055 43.0983C24.2314 40.9635 25.5593 39.1221 26.8578 37.266C28.3837 35.0872 29.9169 34.3829 32.3305 35.1972C35.3897 36.2316 38.4195 37.3834 41.3834 38.6746C43.9217 39.7823 45.3522 41.7631 45.1982 44.6976C45.1175 46.1428 45.1982 47.588 45.1762 49.0406C45.1248 53.0241 43.3054 54.8802 39.3586 54.9022C34.2526 54.9315 29.154 54.9168 24.0553 54.9168C18.1277 54.9168 12.2001 54.9315 6.2725 54.9022C2.0322 54.8875 0.242177 53.0755 0.220168 48.8572C0.212832 47.478 0.293529 46.0988 0.205496 44.7269C0.0147545 41.6677 1.59203 39.709 4.18169 38.5865C7.15284 37.3027 10.1973 36.1876 13.2639 35.1752C15.8755 34.3096 16.6825 34.6984 18.3038 36.9653C19.6977 38.9167 21.1062 40.8681 22.7055 43.0983Z" fill=""/>
</g>
<path d="M33.5118 17.6567C33.2257 21.2514 32.096 25.8512 28.3178 29.3872C25.1193 32.3877 20.2407 32.4684 17.0935 29.3946C12.7358 25.1323 11.3566 19.7182 12.0316 13.8713C12.3837 10.8121 14.2544 8.40581 17.387 7.37875C22.0381 5.85283 26.5498 5.7061 30.6507 8.96336C33.0423 10.8634 33.5925 13.4678 33.5118 17.6567Z" fill=""/>
</svg>
