<svg width="35" height="36" viewBox="0 0 35 36" fill="none" xmlns="http://www.w3.org/2000/svg">
<path d="M18.2371 6.50695C18.2371 6.36378 18.2872 6.24209 18.3874 6.14186C18.4876 6.03449 18.6165 5.98438 18.7596 5.98438C19.4755 5.98438 20.1842 6.05596 20.8858 6.19913C21.5945 6.33515 22.2745 6.54275 22.9403 6.82193C23.5989 7.09396 24.2288 7.43042 24.823 7.8313C25.4243 8.23218 25.9755 8.68317 26.4766 9.19144C26.9849 9.69254 27.443 10.2509 27.8368 10.8451C28.2377 11.4392 28.5741 12.0692 28.8461 12.735C29.1253 13.3935 29.3329 14.0736 29.4689 14.7823C29.6121 15.4839 29.6837 16.1926 29.6837 16.9084C29.6837 17.0516 29.6336 17.1805 29.5334 17.2807C29.426 17.3809 29.3043 17.431 29.1611 17.431C29.0179 17.431 28.8962 17.3809 28.7889 17.2807C28.6886 17.1805 28.6385 17.0516 28.6385 16.9084C28.6385 16.2642 28.5741 15.6199 28.4453 14.9828C28.3236 14.3456 28.1303 13.73 27.8869 13.1287C27.6363 12.5345 27.3285 11.9618 26.9706 11.4249C26.6126 10.888 26.1974 10.3869 25.7393 9.92878C25.2811 9.47062 24.7872 9.05542 24.2431 8.69749C23.7062 8.33956 23.1336 8.03174 22.5394 7.78119C21.9381 7.53779 21.3224 7.35167 20.6853 7.22282C20.0482 7.09396 19.4039 7.02953 18.7596 7.02953C18.6165 7.02953 18.4876 6.97942 18.3874 6.8792C18.2872 6.77182 18.2371 6.65013 18.2371 6.50695Z" fill="#0F1738"/>
<mask id="mask0_961_4189" style="mask-type:luminance" maskUnits="userSpaceOnUse" x="18" y="0" width="17" height="19">
<path d="M18.1799 0.734375H34.6949V18.6667H18.1799V0.734375Z" fill="white"/>
</mask>
<g mask="url(#mask0_961_4189)">
<path d="M34.9526 16.9116C34.9526 17.0547 34.8953 17.1836 34.7951 17.2838C34.6949 17.384 34.5732 17.4341 34.43 17.4341C34.2797 17.4341 34.158 17.384 34.0577 17.2838C33.9575 17.1836 33.9074 17.0547 33.9074 16.9116C33.9074 15.9165 33.8072 14.9358 33.6139 13.9622C33.4206 12.9815 33.1271 12.0365 32.7477 11.1202C32.3683 10.1968 31.903 9.33057 31.3518 8.50017C30.7934 7.66977 30.1706 6.91096 29.4619 6.20225C28.7604 5.50071 27.9944 4.87075 27.1711 4.31954C26.3407 3.76832 25.4745 3.30301 24.5511 2.91645C23.6348 2.53704 22.6898 2.25069 21.7091 2.05741C20.7355 1.86413 19.7548 1.76391 18.7598 1.76391C18.6166 1.76391 18.4877 1.7138 18.3875 1.60642C18.2873 1.5062 18.2372 1.3845 18.2372 1.24133C18.2372 1.09816 18.2873 0.969303 18.3875 0.869081C18.4877 0.768861 18.6166 0.71875 18.7598 0.71875C19.8192 0.71875 20.8716 0.82613 21.9167 1.03373C22.9547 1.24133 23.9712 1.54915 24.952 1.95719C25.9327 2.36523 26.8633 2.86634 27.751 3.45334C28.6315 4.04751 29.4476 4.71326 30.1992 5.46492C30.9509 6.21657 31.6238 7.03981 32.218 7.92032C32.805 8.80799 33.3061 9.73861 33.7141 10.7193C34.1222 11.7001 34.43 12.7166 34.6376 13.7546C34.8452 14.7998 34.9454 15.8521 34.9526 16.9116Z" fill="#0F1738"/>
</g>
<path d="M18.2371 11.7804C18.2371 11.6301 18.2872 11.5084 18.3874 11.4081C18.4876 11.3079 18.6165 11.2578 18.7596 11.2578C19.5041 11.2578 20.2272 11.401 20.9144 11.6945C21.6088 11.9808 22.2173 12.3889 22.747 12.9186C23.2767 13.4484 23.6776 14.064 23.964 14.7512C24.2503 15.4456 24.3935 16.1686 24.3935 16.9131C24.3935 17.0635 24.3434 17.1851 24.2431 17.2854C24.1429 17.3856 24.0212 17.4429 23.8709 17.4357C23.5416 17.4214 23.3698 17.2424 23.3483 16.9131C23.3483 16.3046 23.2338 15.7176 22.9975 15.1521C22.7685 14.5866 22.432 14.0855 22.0025 13.656C21.5658 13.2193 21.0719 12.89 20.5063 12.6537C19.9408 12.4175 19.3538 12.303 18.7382 12.303C18.6021 12.2958 18.4805 12.2457 18.3802 12.1383C18.2872 12.0381 18.2371 11.9164 18.2371 11.7804Z" fill="#0F1738"/>
<mask id="mask1_961_4189" style="mask-type:luminance" maskUnits="userSpaceOnUse" x="0" y="0" width="35" height="36">
<path d="M0.390625 0.734375H34.6733V35.0385H0.390625V0.734375Z" fill="white"/>
</mask>
<g mask="url(#mask1_961_4189)">
<path d="M33.1628 28.0659V29.0824C33.1557 29.8985 32.8622 30.6 32.2823 31.187L29.5477 33.893C28.975 34.4657 28.2878 34.752 27.4789 34.7592H27.3572C25.6176 34.6804 23.8996 34.4442 22.203 34.0505C20.4992 33.6568 18.8599 33.1055 17.2635 32.404C15.6671 31.7025 14.1495 30.8649 12.7106 29.877C11.2718 28.8963 9.94025 27.7867 8.70897 26.5554C7.47768 25.3241 6.3681 23.9855 5.38737 22.5537C4.39948 21.1149 3.56192 19.5972 2.86037 18.0009C2.15883 16.4045 1.60761 14.758 1.21389 13.0614C0.820168 11.3648 0.583935 9.64675 0.512347 7.9072C0.469397 7.04101 0.748581 6.29652 1.36422 5.68087L4.07734 2.98207C4.65719 2.39507 5.35873 2.10872 6.18197 2.10156H7.17702C7.79266 2.10156 8.35819 2.28053 8.86646 2.6313C9.36756 2.97491 9.73265 3.44023 9.95457 4.02007L12.3527 10.3912C12.5531 10.9281 12.5889 11.465 12.4816 12.0234C12.367 12.5746 12.1165 13.0614 11.7299 13.4695L10.7349 14.5218C10.427 14.8511 10.2552 15.2376 10.2194 15.6886C10.1836 16.1396 10.2982 16.5548 10.5559 16.9271C12.6748 20.0053 15.2663 22.611 18.3302 24.7443C18.7024 24.9877 19.1104 25.0879 19.5543 25.0521C19.991 25.0091 20.3775 24.8373 20.6997 24.5295L21.7591 23.5202C22.1743 23.1336 22.6611 22.883 23.2123 22.7685C23.7635 22.6611 24.3076 22.7041 24.8373 22.8974L31.2157 25.2955C31.7955 25.5103 32.268 25.8753 32.6188 26.3764C32.9767 26.8847 33.1557 27.4502 33.1628 28.0659Z" fill="#0F1738"/>
</g>
</svg>
