<svg width="32" height="24" viewBox="0 0 32 24" fill="none" xmlns="http://www.w3.org/2000/svg">
<path d="M31.7563 1.96875L21.2617 10.2799L31.9996 18.8058V2.9638C32.0068 2.61303 31.9209 2.27657 31.7563 1.96875Z" fill="#0F1738"/>
<path d="M0.337265 1.96875C0.172616 2.27657 0.0938721 2.61303 0.0938721 2.9638V18.8058L10.8318 10.2799L0.337265 1.96875Z" fill="#0F1738"/>
<path d="M17.5466 13.2245C17.1314 13.611 16.6374 13.8043 16.0648 13.79C15.4634 13.79 14.9337 13.5896 14.4899 13.1887L12.0488 11.3131L0.0938721 20.7339V21.1992C0.0938721 21.4998 0.151142 21.7933 0.272838 22.0654C0.387376 22.3446 0.552024 22.5951 0.759624 22.8027C0.974383 23.0175 1.21778 23.1821 1.49696 23.2967C1.77615 23.4112 2.06249 23.4685 2.37031 23.4685H29.7306C30.0312 23.4685 30.3176 23.4112 30.5968 23.2967C30.8759 23.1821 31.1193 23.0175 31.3341 22.8027C31.5489 22.5951 31.7063 22.3446 31.828 22.0654C31.9426 21.7933 31.9998 21.4998 31.9998 21.1992V20.7339L20.0449 11.2344L17.5466 13.2245Z" fill="#0F1738"/>
<path d="M13.23 10.2859L15.4492 12.054C15.5995 12.2044 15.7785 12.276 15.9932 12.276C16.2008 12.276 16.3869 12.2044 16.5373 12.054L18.7851 10.1785L20.0092 9.21923L30.6254 0.793538C30.3319 0.657523 30.017 0.593097 29.6877 0.585938H2.37036C2.04822 0.585938 1.7404 0.657523 1.4469 0.793538L12.0488 9.2765L13.23 10.2859Z" fill="#0F1738"/>
</svg>
