<svg width="46" height="50" viewBox="0 0 46 50" fill="none" xmlns="http://www.w3.org/2000/svg">
<path d="M16.6307 34.9612L14.948 36.6381C14.7418 36.8413 14.4094 36.8413 14.2046 36.6381L13.2363 35.6726C12.747 35.1862 13.4903 34.4458 13.9796 34.9321L14.5763 35.5274L15.8873 34.2207C16.3766 33.7344 17.1199 34.4748 16.6307 34.9612ZM34.7162 15.1726H22.0199C21.3346 15.1726 21.3259 16.2252 22.0199 16.2252H34.7162C35.4015 16.2252 35.4102 15.1726 34.7162 15.1726ZM15.8873 24.3512L14.5763 25.6564L13.9796 25.0626C13.4903 24.5747 12.747 25.3152 13.2363 25.803L14.2046 26.767C14.4094 26.9717 14.7418 26.9717 14.948 26.767L16.6307 25.0916C17.1199 24.6052 16.3766 23.8633 15.8873 24.3512ZM34.7162 27.5278H22.0199C21.3346 27.5278 21.3259 28.5804 22.0199 28.5804H34.7162C35.4015 28.5804 35.4102 27.5379 34.7162 27.5278ZM44.9473 36.7063C44.9473 36.7063 38.6783 40.0383 38.6783 40.0281V43.6824C38.6783 44.7146 37.8362 45.5523 36.7996 45.5523H28.2802L20.7379 49.5565C20.4548 49.7031 20.1615 49.7714 19.8683 49.7714C19.2033 49.7714 18.5471 49.4113 18.2146 48.787L16.484 45.5625H9.3918C8.36535 45.5625 7.52329 44.7248 7.52329 43.6911V28.7851L0.490592 15.6314C0.00132295 14.7545 0.36283 13.5553 1.26297 13.1081L7.52329 9.78488V6.13205C7.52329 5.10851 8.36535 4.2708 9.3918 4.2708H17.9315L25.4723 0.266633C25.9123 0.0314355 26.4218 -0.0164749 26.901 0.130161C27.3801 0.275344 27.7721 0.597652 28.0058 1.03611L29.7277 4.26064H36.8199C37.8565 4.26064 38.6971 5.09835 38.6971 6.12189V21.0294L45.7298 34.1728C46.2002 35.0788 45.8576 36.2083 44.9473 36.7063ZM7.51313 10.9841L1.75224 14.0431C1.36169 14.2377 1.2049 14.7632 1.4096 15.1436L7.51313 26.5536V10.9841ZM20.1717 4.2708H28.5241L27.0665 1.53263C26.8719 1.14354 26.3435 0.986744 25.9616 1.19145L20.1717 4.2708ZM26.0299 45.5523H17.6774L19.1438 48.2905C19.3587 48.6898 19.8479 48.8364 20.2501 48.6317L26.0299 45.5523ZM37.6315 6.13205C37.6315 5.68344 37.2598 5.32338 36.8097 5.32338H9.38164C8.93157 5.32338 8.57006 5.68344 8.57006 6.13205V43.6824C8.57006 44.1295 8.93157 44.4997 9.38164 44.4997H36.8097C37.2598 44.4997 37.6315 44.1295 37.6315 43.6824V6.13205ZM44.7818 34.6694L38.6884 23.2695V38.839L44.4493 35.78C44.8399 35.5651 44.9967 35.0686 44.7818 34.6694ZM22.0199 13.731H28.1524C28.4457 13.731 28.6809 13.4972 28.6809 13.2054C28.6809 12.9121 28.4457 12.6784 28.1524 12.6784H22.0199C21.3259 12.6784 21.3259 13.731 22.0199 13.731ZM22.0199 23.5918H28.1524C28.4457 23.5918 28.6809 23.3581 28.6809 23.0648C28.6809 22.773 28.4457 22.5393 28.1524 22.5393H22.0199C21.3259 22.5393 21.3259 23.5918 22.0199 23.5918ZM18.8113 35.4287C18.6255 40.5348 11.24 40.5348 11.0643 35.4287C11.0643 33.3046 12.8051 31.5711 14.9378 31.5711C17.0706 31.5711 18.8113 33.2959 18.8113 35.4287ZM14.9378 32.6136C11.211 32.7297 11.211 38.1088 14.9378 38.2249C18.6545 38.1189 18.6545 32.7297 14.9378 32.6136ZM18.8113 15.6997C18.6255 20.8043 11.24 20.8043 11.0643 15.6997C11.0643 13.5756 12.8051 11.8407 14.9378 11.8407C17.0706 11.8407 18.8113 13.5756 18.8113 15.6997ZM14.9378 12.8933C11.211 13.0094 11.211 18.3885 14.9378 18.5046C18.6545 18.3885 18.6545 13.0094 14.9378 12.8933ZM34.7162 37.3974H22.0199C21.3346 37.3974 21.3259 38.4499 22.0199 38.4499H34.7162C35.4015 38.4398 35.4102 37.3974 34.7162 37.3974ZM22.0199 33.4513H28.1524C28.4457 33.4513 28.6809 33.2175 28.6809 32.9257C28.6809 32.6324 28.4457 32.3987 28.1524 32.3987H22.0199C21.3259 32.4088 21.3259 33.4513 22.0199 33.4513ZM34.7162 34.9031H22.0199C21.3346 34.9031 21.3259 35.9557 22.0199 35.9557H34.7162C35.4015 35.9455 35.4102 34.9031 34.7162 34.9031ZM34.7162 17.6669H22.0199C21.3346 17.6669 21.3259 18.7195 22.0199 18.7195H34.7162C35.4015 18.7195 35.4102 17.6669 34.7162 17.6669ZM18.8113 25.5591C18.6255 30.6652 11.24 30.6652 11.0643 25.5591C11.0643 23.435 12.8051 21.7016 14.9378 21.7016C17.0706 21.7016 18.8113 23.435 18.8113 25.5591ZM14.9378 22.7527C11.211 22.8703 11.211 28.2479 14.9378 28.3655C18.6545 28.2479 18.6545 22.8703 14.9378 22.7527ZM34.7162 25.0335H22.0199C21.3346 25.0335 21.3259 26.0861 22.0199 26.0861H34.7162C35.4015 26.0861 35.4102 25.0437 34.7162 25.0335ZM15.8873 14.4917L14.5763 15.7969L13.9796 15.2017C13.4903 14.7153 12.747 15.4558 13.2363 15.9421L14.2046 16.9076C14.4006 17.1123 14.752 17.1123 14.948 16.9076L16.6307 15.2322C17.1199 14.7444 16.3766 14.0039 15.8873 14.4917Z" fill="#0F1738"/>
</svg>
