<svg width="11" height="10" viewBox="0 0 11 10" fill="none" xmlns="http://www.w3.org/2000/svg">
<mask id="mask0_1014_3719" style="mask-type:luminance" maskUnits="userSpaceOnUse" x="6" y="8" width="5" height="2">
<path d="M6.51562 8.07031H10.8229V9.38802H6.51562V8.07031Z" fill="white"/>
</mask>
<g mask="url(#mask0_1014_3719)">
<path d="M10.7137 8.35156C10.5054 8.63281 9.8335 8.89323 8.93245 8.89323C8.03662 8.89323 7.36475 8.63802 7.15641 8.35156C7.01058 8.26823 6.88558 8.17969 6.78141 8.08594C6.771 8.11719 6.771 8.14323 6.771 8.17448C6.771 8.76823 7.69808 9.21615 8.93245 9.21615C10.1668 9.21615 11.0991 8.76823 11.0991 8.17448C11.0991 8.14323 11.0991 8.11719 11.0887 8.08594C10.9845 8.1901 10.8595 8.27865 10.7137 8.35156Z" fill="#0F1738"/>
</g>
<mask id="mask1_1014_3719" style="mask-type:luminance" maskUnits="userSpaceOnUse" x="6" y="6" width="5" height="4">
<path d="M6.51562 6.73438H10.8229V9.38542H6.51562V6.73438Z" fill="white"/>
</mask>
<g mask="url(#mask1_1014_3719)">
<path d="M10.7137 7.54688C10.5054 7.82812 9.8335 8.09375 8.93245 8.09375C8.03662 8.09375 7.36475 7.83333 7.15641 7.54688C7.01058 7.46875 6.88558 7.38021 6.78141 7.28125C6.771 7.3125 6.771 7.33854 6.771 7.36979C6.771 7.96354 7.69808 8.41146 8.93245 8.41146C10.1668 8.41146 11.0991 7.96354 11.0991 7.36979C11.0991 7.33854 11.0991 7.3125 11.0887 7.28125C10.9845 7.38542 10.8595 7.47396 10.7137 7.54688Z" fill="#0F1738"/>
</g>
<path d="M4.98958 6.25521C5.07812 6.25521 5.15104 6.18229 5.15104 6.09375V5.96354C5.20833 5.94271 5.25521 5.91146 5.29688 5.85938C5.36979 5.78125 5.40104 5.67708 5.40104 5.57292C5.40104 5.36458 5.25521 5.14583 4.97396 5.14583H4.86458C4.76562 5.14583 4.76042 5.06771 4.76042 5.03646C4.76042 4.97396 4.80208 4.93229 4.86458 4.93229H5.16667C5.25521 4.93229 5.32812 4.85937 5.32812 4.77083C5.32812 4.68229 5.25521 4.60938 5.16667 4.60938H5.14583V4.48958C5.14583 4.40104 5.07292 4.32812 4.98438 4.32812C4.89583 4.32812 4.82292 4.40104 4.82292 4.48958V4.60938C4.56771 4.625 4.4375 4.83333 4.4375 5.03646C4.4375 5.24479 4.59375 5.46875 4.86458 5.46875H4.97396C5.07292 5.46875 5.07812 5.53125 5.07812 5.57292C5.07812 5.63542 5.04167 5.68229 4.97396 5.68229H4.67188C4.58333 5.68229 4.51042 5.75521 4.51042 5.84375C4.51042 5.93229 4.58333 6.00521 4.67188 6.00521H4.83333V6.09375C4.83333 6.18229 4.90625 6.25521 4.98958 6.25521Z" fill="#0F1738"/>
<mask id="mask2_1014_3719" style="mask-type:luminance" maskUnits="userSpaceOnUse" x="6" y="5" width="5" height="4">
<path d="M6.51562 5.40625H10.8229V8.07292H6.51562V5.40625Z" fill="white"/>
</mask>
<g mask="url(#mask2_1014_3719)">
<path d="M10.7137 6.75C10.5054 7.03125 9.8335 7.29688 8.93245 7.29688C8.03662 7.29688 7.36475 7.03646 7.15641 6.75C7.01058 6.67188 6.88558 6.58333 6.78141 6.48438C6.771 6.51562 6.771 6.54167 6.771 6.57292C6.771 7.16667 7.69808 7.61458 8.93245 7.61458C10.1668 7.61458 11.0991 7.16667 11.0991 6.57292C11.0991 6.54167 11.0991 6.51562 11.0887 6.48438C10.9845 6.58854 10.8595 6.67708 10.7137 6.75Z" fill="#0F1738"/>
<path d="M10.7137 5.94531C10.5054 6.22656 9.8335 6.49219 8.93245 6.49219C8.03662 6.49219 7.36475 6.23698 7.15641 5.94531C7.01058 5.86719 6.88558 5.77865 6.78141 5.67969C6.771 5.71615 6.771 5.73698 6.771 5.76823C6.771 6.36198 7.69808 6.8099 8.93245 6.8099C10.1668 6.8099 11.0991 6.36198 11.0991 5.76823C11.0991 5.73698 11.0991 5.71615 11.0887 5.67969C10.9845 5.78385 10.8595 5.8724 10.7137 5.94531Z" fill="#0F1738"/>
</g>
<mask id="mask3_1014_3719" style="mask-type:luminance" maskUnits="userSpaceOnUse" x="6" y="4" width="5" height="3">
<path d="M6.51562 4.07031H10.8229V6.73698H6.51562V4.07031Z" fill="white"/>
</mask>
<g mask="url(#mask3_1014_3719)">
<path d="M10.7137 5.14323C10.5054 5.42448 9.8335 5.6901 8.93245 5.6901C8.03662 5.6901 7.36475 5.4349 7.15641 5.14323C7.01058 5.0651 6.88558 4.97656 6.78141 4.88281C6.771 4.91406 6.771 4.9349 6.771 4.97135C6.771 5.5599 7.69808 6.01302 8.93245 6.01302C10.1668 6.01302 11.0991 5.5599 11.0991 4.97135C11.0991 4.9349 11.0991 4.91406 11.0887 4.88281C10.9845 4.98698 10.8595 5.07552 10.7137 5.14323Z" fill="#0F1738"/>
</g>
<mask id="mask4_1014_3719" style="mask-type:luminance" maskUnits="userSpaceOnUse" x="6" y="4" width="5" height="2">
<path d="M6.51562 4.07031H10.8229V5.40365H6.51562V4.07031Z" fill="white"/>
</mask>
<g mask="url(#mask4_1014_3719)">
<path d="M10.7137 4.34375C10.5054 4.61979 9.8335 4.88542 8.93245 4.88542C8.03662 4.88542 7.36475 4.63021 7.15641 4.34375C7.01058 4.26042 6.88558 4.17188 6.78141 4.07812C6.771 4.10938 6.771 4.13542 6.771 4.16667C6.771 4.76042 7.69808 5.20833 8.93245 5.20833C10.1668 5.20833 11.0991 4.76042 11.0991 4.16667C11.0991 4.13542 11.0991 4.10938 11.0887 4.07812C10.9845 4.18229 10.8595 4.27083 10.7137 4.34375Z" fill="#0F1738"/>
</g>
<mask id="mask5_1014_3719" style="mask-type:luminance" maskUnits="userSpaceOnUse" x="6" y="2" width="5" height="4">
<path d="M6.51562 2.73438H10.8229V5.40104H6.51562V2.73438Z" fill="white"/>
</mask>
<g mask="url(#mask5_1014_3719)">
<path d="M10.7137 3.53906C10.5054 3.82031 9.8335 4.08073 8.93245 4.08073C8.03662 4.08073 7.36475 3.82552 7.15641 3.53906C7.01058 3.45573 6.88558 3.36719 6.78141 3.27344C6.771 3.30469 6.771 3.33073 6.771 3.36198C6.771 3.95573 7.69808 4.40365 8.93245 4.40365C10.1668 4.40365 11.0991 3.95573 11.0991 3.36198C11.0991 3.33073 11.0991 3.30469 11.0887 3.27344C10.9845 3.3776 10.8595 3.46615 10.7137 3.53906Z" fill="#0F1738"/>
</g>
<mask id="mask6_1014_3719" style="mask-type:luminance" maskUnits="userSpaceOnUse" x="6" y="1" width="5" height="4">
<path d="M6.51562 1.40625H10.8229V4.07292H6.51562V1.40625Z" fill="white"/>
</mask>
<g mask="url(#mask6_1014_3719)">
<path d="M8.93245 1.52344C7.69808 1.52344 6.771 1.97135 6.771 2.5651C6.771 3.15885 7.69808 3.60677 8.93245 3.60677C10.1668 3.60677 11.0991 3.15885 11.0991 2.5651C11.0991 1.97135 10.1668 1.52344 8.93245 1.52344Z" fill="#0F1738"/>
</g>
<mask id="mask7_1014_3719" style="mask-type:luminance" maskUnits="userSpaceOnUse" x="0" y="2" width="8" height="7">
<path d="M0.838379 2.73438H7.8488V8.06771H0.838379V2.73438Z" fill="white"/>
</mask>
<g mask="url(#mask7_1014_3719)">
<path d="M6.57812 3.02619C6.55208 2.97931 6.53125 2.93244 6.51562 2.89077H1.14583C0.979167 2.88556 0.84375 3.02098 0.84375 3.18765V7.38556C0.84375 7.55223 0.979167 7.69285 1.14583 7.69285H6.50521C6.46875 7.58869 6.44271 7.48452 6.44271 7.36994C6.44271 7.32306 6.44271 7.28139 6.44792 7.23452C6.46875 7.15639 6.50521 7.08348 6.5625 7.0314C6.5 6.89077 6.44792 6.73973 6.44792 6.56785C6.44792 6.52098 6.44792 6.47931 6.45833 6.43244C6.47396 6.35431 6.51562 6.28139 6.57292 6.23452C6.48958 6.09389 6.44792 5.94285 6.44271 5.77619C6.23958 6.42723 5.64062 6.89077 4.92708 6.89077C4.04688 6.89077 3.32292 6.16681 3.32292 5.2866C3.32292 4.4064 4.04688 3.68244 4.92708 3.68244C5.65104 3.68244 6.26563 4.16681 6.45833 4.82306C6.47396 4.73973 6.51562 4.67202 6.57292 4.61994C6.5 4.48452 6.44792 4.33348 6.44792 4.16681C6.44792 4.11473 6.44792 4.07827 6.45833 4.0314C6.47396 3.94806 6.51562 3.87515 6.57292 3.82827C6.5 3.68244 6.44792 3.5314 6.44792 3.36473C6.44792 3.31785 6.44792 3.27619 6.45833 3.22931C6.47396 3.14598 6.51562 3.07306 6.57812 3.02619ZM1.16146 7.36994V6.52098C1.55208 6.65119 1.875 6.9689 2.01042 7.36994H1.16146ZM1.16146 4.05223V3.20327H2.01042C1.875 3.61473 1.55208 3.93244 1.16146 4.05223Z" fill="#0F1738"/>
</g>
<path d="M2.18734 1.6875C2.02067 1.6875 1.88525 1.82292 1.88525 1.98958V2.56771H2.20296V2.00521H3.05192C2.979 2.22396 2.854 2.41667 2.69255 2.56771H6.44775C6.44775 2.26562 6.604 1.98958 6.86442 1.77604C6.90088 1.74479 6.88525 1.6875 6.83317 1.6875H2.18734Z" fill="#0F1738"/>
<mask id="mask8_1014_3719" style="mask-type:luminance" maskUnits="userSpaceOnUse" x="2" y="0" width="9" height="3">
<path d="M2.51562 0.40625H10.8229V2.73958H2.51562V0.40625Z" fill="white"/>
</mask>
<g mask="url(#mask8_1014_3719)">
<path d="M10.7918 0.40625H3.22933C3.06266 0.40625 2.92725 0.541667 2.92725 0.708333V1.36458H3.24495V0.723958H4.09391C4.021 0.958333 3.896 1.21354 3.73454 1.36458H6.97933C7.09912 1.36458 7.20329 1.43229 7.26058 1.52604C7.69287 1.31771 8.271 1.20312 8.93245 1.20312C9.47933 1.20312 9.9585 1.28646 10.3543 1.42188C10.1616 1.26042 10.0106 0.989584 9.92725 0.723958H10.7762V1.61458C10.896 1.6875 11.0106 1.76562 11.0991 1.85417V0.708333C11.0991 0.541667 10.9637 0.40625 10.7918 0.40625Z" fill="#0F1738"/>
</g>
</svg>
