<svg width="46" height="46" viewBox="0 0 46 46" fill="none" xmlns="http://www.w3.org/2000/svg">
<mask id="mask0_705_12838" style="mask-type:luminance" maskUnits="userSpaceOnUse" x="0" y="0" width="46" height="46">
<path d="M0.484375 0.445312H45.4115V45.3724H0.484375V0.445312Z" fill="white"/>
</mask>
<g mask="url(#mask0_705_12838)">
<path d="M31.3958 37.0417C31.0052 37.0417 30.6875 37.3594 30.6875 37.75V37.9688C30.6875 38.6198 30.1563 39.1458 29.5052 39.1458H3.07812C2.43229 39.1458 1.90104 38.6198 1.90104 37.9688V3.98958C1.90104 3.33854 2.43229 2.8125 3.07812 2.8125H9.92188V5.17188H4.96875C4.57813 5.17188 4.26042 5.48958 4.26042 5.88021V36.0781C4.26042 36.4688 4.57813 36.7865 4.96875 36.7865H16.2344C16.6302 36.7865 16.9427 36.4688 16.9427 36.0781C16.9427 35.6875 16.6302 35.3698 16.2344 35.3698H5.67708V6.58333H10.0885C10.3542 7.14062 10.9167 7.53125 11.5729 7.53125H21.0104C21.6667 7.53125 22.2344 7.14062 22.5 6.58333H26.9115V11.125C26.9115 11.5156 27.2292 11.8333 27.6198 11.8333C28.0104 11.8333 28.3281 11.5156 28.3281 11.125V5.88021C28.3281 5.48958 28.0104 5.17188 27.6198 5.17188H22.6667V2.8125H29.5052C30.1563 2.8125 30.6875 3.33854 30.6875 3.98958V12.3698C30.6875 12.7604 31.0052 13.0781 31.3958 13.0781C31.7865 13.0781 32.1042 12.7604 32.1042 12.3698V3.98958C32.1042 2.55729 30.9375 1.39583 29.5052 1.39583H22.5C22.2344 0.838541 21.6667 0.453125 21.0104 0.453125H11.5729C10.9167 0.453125 10.3542 0.838541 10.0885 1.39583H3.07812C1.65104 1.39583 0.484375 2.55729 0.484375 3.98958V37.9688C0.484375 39.401 1.65104 40.5625 3.07812 40.5625H29.5052C30.9375 40.5625 32.1042 39.401 32.1042 37.9688V37.75C32.1042 37.3594 31.7865 37.0417 31.3958 37.0417ZM11.5729 1.86458H21.0104C21.1406 1.86458 21.25 1.97396 21.25 2.10417V5.88021C21.25 6.01042 21.1406 6.11458 21.0104 6.11458H11.5729C11.4427 6.11458 11.3385 6.01042 11.3385 5.88021V2.10417C11.3385 1.97396 11.4427 1.86458 11.5729 1.86458ZM15.1146 14.3802V11.776H8.97917V17.9115H12.5C12.8906 17.9115 13.2083 18.2292 13.2083 18.6198C13.2083 19.0104 12.8906 19.3281 12.5 19.3281H8.27083C7.88021 19.3281 7.5625 19.0104 7.5625 18.6198V11.0677C7.5625 10.6771 7.88021 10.3594 8.27083 10.3594H15.8229C16.2135 10.3594 16.5312 10.6771 16.5312 11.0677V14.3802C16.5312 14.7708 16.2135 15.0885 15.8229 15.0885C15.4323 15.0885 15.1146 14.7708 15.1146 14.3802ZM8.97917 24.0469V30.1823H12.2083C12.599 30.1823 12.9167 30.5 12.9167 30.8906C12.9167 31.2813 12.599 31.599 12.2083 31.599H8.27083C7.88021 31.599 7.5625 31.2813 7.5625 30.8906V23.3385C7.5625 22.9479 7.88021 22.6302 8.27083 22.6302H11.0573C11.4479 22.6302 11.7656 22.9479 11.7656 23.3385C11.7656 23.7292 11.4479 24.0469 11.0573 24.0469H8.97917ZM22.9115 10.3594C23.3021 10.3594 23.6198 10.6771 23.6198 11.0677C23.6198 11.4583 23.3021 11.776 22.9115 11.776H19.599C19.2083 11.776 18.8906 11.4583 18.8906 11.0677C18.8906 10.6771 19.2083 10.3594 19.599 10.3594H22.9115ZM30.9531 19.2188C27.7292 16 22.4896 16 19.2708 19.2188C16.0521 22.4375 16.0521 27.6771 19.2708 30.8958C20.8802 32.5104 22.9948 33.3125 25.1094 33.3125C27.224 33.3125 29.3438 32.5104 30.9531 30.8958C34.1719 27.6771 34.1719 22.4375 30.9531 19.2188ZM29.9479 29.8958C27.2812 32.5625 22.9427 32.5677 20.2708 29.8958C17.6042 27.2292 17.6042 22.8854 20.2708 20.2188C21.6094 18.8854 23.3594 18.2188 25.1094 18.2188C26.8646 18.2188 28.6146 18.8854 29.9479 20.2188C32.6198 22.8854 32.6198 27.2292 29.9479 29.8958ZM28.4427 22.6719C28.7188 22.9479 28.7188 23.3958 28.4427 23.6719L24.6667 27.4479C24.5313 27.5833 24.349 27.651 24.1667 27.651C23.9844 27.651 23.8073 27.5833 23.6667 27.4479L21.7812 25.5573C21.5052 25.2813 21.5052 24.8333 21.7812 24.5573C22.0573 24.2813 22.5052 24.2813 22.7812 24.5573L24.1667 25.9427L27.4427 22.6719C27.7188 22.3958 28.1667 22.3958 28.4427 22.6719ZM44.2969 39.2396L38.2917 33.2344C38.026 32.9688 37.5573 32.9688 37.2917 33.2344L37.125 33.401L35.25 31.526C38.2188 26.875 37.6823 20.6094 33.6198 16.5469C31.349 14.276 28.3281 13.026 25.1094 13.026C21.8958 13.026 18.875 14.276 16.6042 16.5469C11.9115 21.2396 11.9115 28.875 16.6042 33.5677C18.875 35.8385 21.8958 37.0938 25.1094 37.0938C27.4427 37.0938 29.6667 36.4271 31.5833 35.1979L33.4531 37.0729L33.2865 37.2396C33.1562 37.3698 33.0781 37.5521 33.0781 37.7396C33.0781 37.9271 33.1562 38.1042 33.2865 38.2396L39.2917 44.2448C39.9635 44.9115 40.849 45.2812 41.7969 45.2812C42.7396 45.2812 43.6302 44.9115 44.2969 44.2448C44.9688 43.5781 45.3333 42.6875 45.3333 41.7448C45.3333 40.7969 44.9688 39.9062 44.2969 39.2396ZM17.6042 32.5677C13.4635 28.4271 13.4635 21.6927 17.6042 17.5521C19.6094 15.5469 22.276 14.4427 25.1094 14.4427C27.9479 14.4427 30.6146 15.5469 32.6198 17.5521C36.7604 21.6927 36.7604 28.4271 32.6198 32.5677C30.6146 34.5729 27.9479 35.6771 25.1094 35.6771C22.276 35.6771 19.6094 34.5729 17.6042 32.5677ZM33.6198 33.5677C33.901 33.2865 34.1667 32.9896 34.4115 32.6927L36.125 34.401L34.4531 36.0677L32.7448 34.3594C33.0469 34.1094 33.3385 33.849 33.6198 33.5677ZM43.2969 43.2448C42.4948 44.0469 41.0938 44.0469 40.2917 43.2448L34.7865 37.7396L37.7917 34.7344L43.2969 40.2396C43.6979 40.6406 43.9167 41.1771 43.9167 41.7448C43.9167 42.3125 43.6979 42.8438 43.2969 43.2448Z" fill="#0F1738"/>
</g>
</svg>
