<svg width="32" height="42" viewBox="0 0 32 42" fill="none" xmlns="http://www.w3.org/2000/svg">
<mask id="mask0_705_12884" style="mask-type:luminance" maskUnits="userSpaceOnUse" x="0" y="0" width="32" height="42">
<path d="M0.484375 0.945312H31.4375V41.8776H0.484375V0.945312Z" fill="white"/>
</mask>
<g mask="url(#mask0_705_12884)">
<path d="M8.33325 39.9609L11.0208 41.6901C11.1145 41.7526 11.2447 41.7839 11.3749 41.7839C11.4999 41.7839 11.6301 41.7526 11.7239 41.6901L14.0885 40.1536L16.4583 41.6901C16.6822 41.8151 16.9374 41.8151 17.1614 41.6901L19.526 40.1536L21.8958 41.6901C22.1197 41.8151 22.3749 41.8151 22.5989 41.6901L24.9635 40.1536L27.3333 41.6901C27.5572 41.8151 27.8124 41.8151 28.0364 41.6901L30.7551 39.9609C31.1041 39.9609 31.3905 39.6745 31.3905 39.3255V5.58073C31.3905 3.02344 29.3801 0.945312 26.9166 0.945312C26.8489 0.945312 26.8176 0.945312 26.7551 0.976562C26.6926 0.945312 26.6614 0.945312 26.5937 0.945312H4.81762H4.78637H4.74992H4.71867C3.41138 1.13802 2.32283 1.7474 1.58846 2.70573C0.786375 3.79427 0.531167 5.26302 0.817624 6.95573C0.848875 7.11719 0.916583 7.21615 1.01033 7.3099C1.10408 7.5026 1.32804 7.6276 1.552 7.6276H7.69262V39.2891C7.69262 39.6745 7.98429 39.9609 8.33325 39.9609ZM30.1145 5.58073V38.8776H30.0833L27.7135 40.4089L25.3489 38.8776C25.1249 38.7474 24.8697 38.7474 24.6458 38.8776L22.276 40.4089L19.9114 38.8776C19.6874 38.7474 19.4322 38.7474 19.2083 38.8776L16.8437 40.4089L14.4739 38.8776C14.2499 38.7474 13.9947 38.7474 13.7708 38.8776L11.4062 40.4089L9.03638 38.8776H9.00513V5.58073C8.97388 4.24219 8.46346 3.09115 7.50512 2.22656H26.5937C26.6614 2.22656 26.6926 2.22656 26.7551 2.19531C26.8176 2.22656 26.8489 2.22656 26.9166 2.22656C28.6718 2.22656 30.1145 3.72656 30.1145 5.58073ZM2.03637 6.38281C1.87492 5.23177 2.09887 4.20573 2.60929 3.47135C3.11971 2.79948 3.85929 2.35156 4.81762 2.22656C5.26554 2.32031 7.66138 2.99219 7.72908 5.58073V6.38281H2.03637Z" fill="#0F1738"/>
</g>
<path d="M12.458 10.862V8.29948H12.4893C12.5257 8.29948 12.5257 8.29948 12.557 8.29948C12.682 8.29948 12.7809 8.33594 12.8747 8.39844C12.9736 8.46094 13.0049 8.59115 13.0049 8.71615C13.0049 8.77865 13.0049 8.8776 12.9736 8.9401C12.9372 9.0026 12.9059 9.07031 12.8747 9.13281C12.8434 9.19531 12.8122 9.22656 12.7497 9.29427C12.682 9.35677 12.6507 9.35677 12.6195 9.38802L12.5882 9.41927L13.2288 10.8932C13.2913 10.8932 13.3538 10.9245 13.4528 10.9245C13.5465 10.9245 13.609 10.9245 13.6768 10.9245C13.7393 10.9245 13.833 10.9245 13.9007 10.9245C13.9632 10.9245 14.057 10.9245 14.1247 10.8932L13.4163 9.51823C13.4528 9.48698 13.5153 9.45052 13.5778 9.38802C13.6403 9.32552 13.6768 9.29427 13.708 9.19531C13.7393 9.13281 13.7705 9.03906 13.8018 8.97135C13.833 8.8776 13.833 8.77865 13.833 8.6849C13.833 8.49219 13.8018 8.29948 13.708 8.17448C13.609 8.04427 13.5153 7.91927 13.3851 7.85156C13.2601 7.78906 13.0986 7.72656 12.9372 7.69531C12.7809 7.66406 12.6195 7.66406 12.458 7.66406C12.333 7.66406 12.2028 7.66406 12.0778 7.69531C11.9476 7.72656 11.8174 7.72656 11.6611 7.72656V10.9245C11.8174 10.9557 11.9476 10.9557 12.0413 10.9557C12.1715 10.8932 12.3018 10.862 12.458 10.862Z" fill="#0F1738"/>
<path d="M16.359 10.513C16.359 10.4193 16.359 10.2891 16.3278 10.1641H15.208V9.52344H16.0726C16.1038 9.39323 16.1038 9.26823 16.1038 9.16927C16.1038 9.07552 16.1038 8.94531 16.0726 8.82031H15.208V8.34115H16.2965C16.3278 8.21094 16.3278 8.08073 16.3278 7.98698C16.3278 7.92448 16.3278 7.89323 16.3278 7.82552C16.3278 7.76302 16.3278 7.70052 16.2965 7.63281H14.4111V10.8672H16.3278C16.359 10.737 16.359 10.6068 16.359 10.513Z" fill="#0F1738"/>
<path d="M16.9691 10.4505C17.0993 10.6068 17.2555 10.7057 17.4482 10.7995C17.641 10.8984 17.8649 10.9297 18.1201 10.9297C18.1826 10.9297 18.2503 10.9297 18.3441 10.9297C18.4066 10.9297 18.4743 10.9297 18.5368 10.8984C18.5993 10.8984 18.667 10.8672 18.7607 10.8672C18.8232 10.8307 18.9222 10.8307 19.016 10.7682C18.9847 10.5443 18.9222 10.3203 18.8232 10.0964C18.6982 10.1276 18.5993 10.1641 18.5055 10.1953C18.4066 10.2266 18.3441 10.2266 18.2503 10.2266C17.7035 10.2266 17.4482 9.90365 17.4482 9.26823C17.4482 8.94531 17.5107 8.6901 17.641 8.52865C17.7712 8.3724 17.9587 8.27344 18.2191 8.27344C18.2816 8.27344 18.3128 8.27344 18.3441 8.27344C18.3753 8.27344 18.443 8.27344 18.4743 8.30469C18.5055 8.30469 18.568 8.34115 18.5993 8.34115C18.667 8.34115 18.6982 8.3724 18.7607 8.40365C18.792 8.30469 18.8545 8.21094 18.8857 8.11719C18.9222 7.98698 18.9535 7.89323 18.9535 7.76302C18.792 7.70052 18.667 7.66927 18.5368 7.63281C18.4066 7.60156 18.2816 7.60156 18.1201 7.60156C17.8649 7.60156 17.6722 7.63281 17.4795 7.73177C17.2868 7.82552 17.1305 7.92448 17.0003 8.08073C16.8753 8.24219 16.7764 8.40365 16.7139 8.6276C16.6514 8.85156 16.6201 9.04427 16.6201 9.29948C16.6201 9.52344 16.6514 9.7474 16.7139 9.97135C16.7451 10.1276 16.8441 10.2891 16.9691 10.4505Z" fill="#0F1738"/>
<path d="M21.3493 10.513C21.3493 10.4193 21.3493 10.2891 21.318 10.1641H20.1982V9.52344H21.0628C21.0941 9.39323 21.0941 9.26823 21.0941 9.16927C21.0941 9.07552 21.0941 8.94531 21.0628 8.82031H20.1982V8.34115H21.2868C21.318 8.21094 21.318 8.08073 21.318 7.98698C21.318 7.92448 21.318 7.89323 21.318 7.82552C21.318 7.76302 21.318 7.70052 21.2868 7.63281H19.4014V10.8672H21.318C21.3493 10.737 21.3493 10.6068 21.3493 10.513Z" fill="#0F1738"/>
<path d="M22.5677 10.8672V7.66927C22.5 7.66927 22.4063 7.63281 22.3438 7.63281C22.276 7.63281 22.2135 7.63281 22.151 7.63281C22.0885 7.63281 22.0521 7.63281 21.9896 7.63281C21.9271 7.63281 21.8646 7.63281 21.7656 7.66927V10.8672C21.9271 10.8984 22.0521 10.8984 22.151 10.8984C22.2448 10.8984 22.4063 10.8672 22.5677 10.8672Z" fill="#0F1738"/>
<path d="M23.651 10.8984C23.7187 10.8984 23.7813 10.8672 23.875 10.8672V9.8099C23.9115 9.8099 23.9427 9.8099 24.0052 9.8099C24.0677 9.8099 24.1354 9.8099 24.1667 9.8099C24.2917 9.8099 24.4531 9.77865 24.5781 9.7474C24.7083 9.71615 24.8385 9.64844 24.9323 9.55469C25.026 9.45573 25.125 9.36198 25.1875 9.23177C25.25 9.10677 25.2865 8.91406 25.2865 8.6901C25.2865 8.46615 25.25 8.24219 25.1562 8.11719C25.0625 7.95573 24.9635 7.85677 24.8385 7.76302C24.7083 7.66927 24.5469 7.63281 24.3906 7.60156C24.2292 7.57031 24.0677 7.57031 23.9115 7.57031C23.6875 7.57031 23.526 7.57031 23.3646 7.60156C23.2396 7.63281 23.1094 7.63281 23.0469 7.63281V10.8307C23.2031 10.8672 23.3333 10.8672 23.4271 10.8672C23.526 10.8984 23.5885 10.8984 23.651 10.8984ZM23.875 8.27344C23.9115 8.27344 23.9115 8.27344 23.9427 8.27344C23.974 8.27344 23.974 8.27344 24.0052 8.27344C24.0677 8.27344 24.1354 8.27344 24.1979 8.30469C24.2604 8.30469 24.3229 8.34115 24.3542 8.3724C24.3906 8.40365 24.4531 8.46615 24.4531 8.52865C24.4531 8.59635 24.4844 8.65885 24.4844 8.7526C24.4844 8.91406 24.4531 9.00781 24.3542 9.10677C24.2604 9.16927 24.1667 9.20052 24.0365 9.20052C24.0052 9.20052 23.974 9.20052 23.9427 9.20052C23.9115 9.20052 23.875 9.20052 23.875 9.20052V8.27344Z" fill="#0F1738"/>
<path d="M25.5101 7.98177C25.5101 8.07552 25.5101 8.20573 25.5413 8.33594H26.2757V10.862C26.4372 10.8932 26.5622 10.8932 26.6611 10.8932C26.7549 10.8932 26.8851 10.8932 27.0413 10.862V8.36719H27.7809C27.8122 8.23698 27.8122 8.11198 27.8122 8.01302C27.8122 7.95052 27.8122 7.91927 27.8122 7.85156C27.8122 7.78906 27.8122 7.72656 27.7809 7.66406H25.4736C25.5101 7.75781 25.5101 7.88802 25.5101 7.98177Z" fill="#0F1738"/>
<path d="M12.2031 12.1406C11.8542 12.1406 11.5625 12.4271 11.5625 12.7812C11.5625 13.1354 11.8542 13.4219 12.2031 13.4219H27.5573C27.9062 13.4219 28.1927 13.1354 28.1927 12.7812C28.1927 12.4271 27.9062 12.1406 27.5573 12.1406H12.2031Z" fill="#0F1738"/>
<path d="M12.2031 19.8203H23.7188C24.0677 19.8203 24.3542 19.5339 24.3542 19.1797C24.3542 18.8307 24.0677 18.5391 23.7188 18.5391H12.2031C11.8542 18.5391 11.5625 18.8307 11.5625 19.1797C11.5625 19.5339 11.8542 19.8203 12.2031 19.8203Z" fill="#0F1738"/>
<path d="M21.1562 22.375H12.2031C11.8542 22.375 11.5625 22.6615 11.5625 23.0156C11.5625 23.3646 11.8542 23.6562 12.2031 23.6562H21.1562C21.5104 23.6562 21.7969 23.3646 21.7969 23.0156C21.7969 22.6615 21.5104 22.375 21.1562 22.375Z" fill="#0F1738"/>
<path d="M16.5205 33.6016C16.458 33.5391 16.359 33.4766 16.2653 33.4141C16.1715 33.3464 16.0726 33.3151 15.9476 33.2839L15.6872 33.1901C15.6247 33.1536 15.5309 33.1224 15.4632 33.0599C15.4007 33.0286 15.3695 32.9297 15.3695 32.8672C15.3695 32.8047 15.3695 32.7734 15.4007 32.7422C15.432 32.7057 15.432 32.6745 15.4997 32.6745C15.5309 32.6432 15.5622 32.6432 15.5934 32.6432C15.6247 32.6432 15.6872 32.6432 15.7236 32.6432C15.8799 32.6432 16.0101 32.6432 16.1351 32.6745C16.234 32.7057 16.359 32.7422 16.458 32.8047C16.5518 32.5807 16.6195 32.3255 16.6507 32.1328C16.5205 32.1016 16.3955 32.0391 16.2965 32.0391C16.1715 32.0026 16.0726 31.9714 15.9476 31.9714V31.5547C15.9111 31.5547 15.8486 31.5234 15.7861 31.5234C15.7236 31.5234 15.6872 31.5234 15.6559 31.5234C15.6247 31.5234 15.5934 31.5234 15.5309 31.5234C15.4632 31.5234 15.432 31.5234 15.3695 31.5547V31.9714C15.1143 32.0026 14.8903 32.1328 14.7288 32.2943C14.5726 32.4505 14.5049 32.6745 14.5049 32.9661C14.5049 33.0911 14.5361 33.2214 14.5726 33.3151C14.6038 33.4141 14.6663 33.5078 14.7288 33.5703C14.7965 33.638 14.859 33.7005 14.9528 33.763C15.0518 33.8255 15.1455 33.862 15.2393 33.8932L15.4997 33.987C15.5934 34.0182 15.6872 34.0807 15.7861 34.1484C15.8486 34.2109 15.9111 34.2734 15.9111 34.3724C15.9111 34.4661 15.8799 34.5651 15.7861 34.6276C15.6872 34.6901 15.5622 34.6901 15.432 34.6901C15.3382 34.6901 15.208 34.6901 15.083 34.6589C14.9528 34.6276 14.8278 34.5964 14.6663 34.5286C14.6351 34.6589 14.5726 34.7891 14.5361 34.9141C14.5049 35.0443 14.4736 35.138 14.4736 35.2682C14.5726 35.2995 14.6351 35.3307 14.6976 35.362C14.7601 35.3932 14.859 35.3932 14.9215 35.4245C14.984 35.4245 15.083 35.4609 15.1455 35.4609C15.208 35.4609 15.307 35.4609 15.4007 35.4609V35.9714C15.4632 35.9714 15.4997 36.0026 15.5622 36.0026C15.6247 36.0026 15.6559 36.0026 15.6872 36.0026C15.7236 36.0026 15.7549 36.0026 15.8174 36.0026C15.8799 36.0026 15.9111 36.0026 15.9788 35.9714V35.3932C16.234 35.3307 16.4268 35.2005 16.583 35.013C16.7132 34.8203 16.7757 34.5964 16.7757 34.3411C16.7757 34.1797 16.7445 34.0495 16.7132 33.9245C16.6507 33.763 16.6195 33.6693 16.5205 33.6016Z" fill="#0F1738"/>
<path d="M20.5205 34.8516H19.2393C18.8851 34.8516 18.5986 35.138 18.5986 35.4922C18.5986 35.8411 18.8851 36.1276 19.2393 36.1276H20.5205C20.8695 36.1276 21.1559 35.8411 21.1559 35.4922C21.1559 35.138 20.8695 34.8516 20.5205 34.8516Z" fill="#0F1738"/>
<path d="M24.0986 34.8516H22.6611C22.3122 34.8516 22.0205 35.138 22.0205 35.4922C22.0205 35.8411 22.3122 36.1276 22.6611 36.1276H24.0986C24.4528 36.1276 24.7393 35.8411 24.7393 35.4922C24.7393 35.138 24.4528 34.8516 24.0986 34.8516Z" fill="#0F1738"/>
<path d="M27.5576 34.8516H26.2764C25.9222 34.8516 25.6357 35.138 25.6357 35.4922C25.6357 35.8411 25.9222 36.1276 26.2764 36.1276H27.5576C27.9066 36.1276 28.193 35.8411 28.193 35.4922C28.193 35.138 27.9066 34.8516 27.5576 34.8516Z" fill="#0F1738"/>
</svg>
