<svg width="58" height="37" viewBox="0 0 58 37" fill="none" xmlns="http://www.w3.org/2000/svg">
<mask id="mask0_605_3939" style="mask-type:luminance" maskUnits="userSpaceOnUse" x="0" y="0" width="58" height="37">
<path d="M0 0H57.7969V36.124H0V0Z" fill="white"/>
</mask>
<g mask="url(#mask0_605_3939)">
<path d="M9.27271 26.1119L15.1979 32.0371L15.3336 32.1878C15.4391 32.3235 15.4768 32.3612 15.5673 32.512C16.502 34.0272 15.3562 36.447 13.3661 36.447C12.6876 36.447 12.0468 36.153 11.5418 35.6856L1.20663 25.358C1.08602 25.2224 1.04832 25.1997 0.942786 25.049C-0.0673585 23.6544 0.776942 21.2722 2.63139 20.9782C2.81231 20.9556 2.85754 20.9556 3.03846 20.9481H44.3639C44.4318 20.9556 44.4921 20.9556 44.5599 20.9556C44.7409 20.9782 44.7861 20.9782 44.9595 21.0235C46.7084 21.4381 47.5602 23.9861 46.1882 25.358C45.7058 25.833 45.0424 26.0893 44.3639 26.1119H9.27271ZM54.6915 15.7843H13.3661C13.1851 15.7767 13.1399 15.7843 12.9665 15.7541C11.3835 15.5054 10.2904 13.5454 11.0669 12.0302C11.4965 11.1859 12.4011 10.6582 13.3661 10.6205H48.4573L42.5321 4.69531L42.3964 4.54454C42.2833 4.40885 42.2532 4.37116 42.1627 4.22039C41.2883 2.80317 42.1853 0.601957 43.9569 0.315499C44.3413 0.255191 44.4393 0.292883 44.5599 0.292883C44.7409 0.315499 44.7861 0.315499 44.9595 0.360729C45.4269 0.466265 45.8339 0.715034 46.1882 1.04672L56.5158 11.3743C56.6365 11.51 56.6741 11.5402 56.7797 11.6834C57.6089 12.8217 57.2848 14.646 56.0409 15.4074C55.7545 15.5807 55.4303 15.7014 55.0986 15.7541C54.9177 15.7843 54.8725 15.7767 54.6915 15.7843Z" fill=""/>
</g>
</svg>
