<svg width="11" height="12" viewBox="0 0 11 12" fill="none" xmlns="http://www.w3.org/2000/svg">
<mask id="mask0_818_18795" style="mask-type:luminance" maskUnits="userSpaceOnUse" x="0" y="0" width="8" height="10">
<path d="M0.838379 0H7.8488V9.40625H0.838379V0Z" fill="white"/>
</mask>
<g mask="url(#mask0_818_18795)">
<path d="M1.73927 5.33333C1.91635 4.19792 2.52573 3.20312 3.45281 2.52604C4.14552 2.02083 4.95281 1.73958 5.78614 1.70312L5.22364 2.26562L5.73406 2.77604L7.11948 1.38542L5.73406 0L5.22364 0.510417L5.70281 0.984375C4.74448 1.03646 3.8226 1.36458 3.03093 1.94271C1.9476 2.72917 1.23406 3.89583 1.02573 5.22396C0.838227 6.41146 1.08302 7.63542 1.72364 8.65625L2.33302 8.27604C1.78614 7.40104 1.57781 6.35417 1.73927 5.33333Z" fill="#0F1738"/>
</g>
<path d="M2.78646 8.875L2.25 9.35938C2.52083 9.66667 2.83333 9.9375 3.17188 10.1667L3.57812 9.56771C3.28646 9.375 3.02083 9.14063 2.78646 8.875Z" fill="#0F1738"/>
<mask id="mask1_818_18795" style="mask-type:luminance" maskUnits="userSpaceOnUse" x="3" y="2" width="8" height="10">
<path d="M3.84863 2.73438H10.8226V11.974H3.84863V2.73438Z" fill="white"/>
</mask>
<g mask="url(#mask1_818_18795)">
<path d="M10.3537 3.35156L9.7443 3.73177C10.286 4.60677 10.4995 5.65365 10.3381 6.67448C10.161 7.8099 9.5516 8.80469 8.6193 9.48177C7.9318 9.98698 7.12451 10.2682 6.29118 10.3047L6.85368 9.74219L6.34326 9.23177L4.95264 10.6224L6.34326 12.0078L6.84847 11.4974L6.37451 11.0234C7.33285 10.9714 8.25472 10.6432 9.04639 10.0651C10.1297 9.27344 10.8433 8.11198 11.0516 6.78385C11.2391 5.59635 10.9891 4.37239 10.3537 3.35156Z" fill="#0F1738"/>
</g>
<path d="M8.81217 6.01042C8.81217 4.45312 7.54655 3.1875 5.98926 3.1875C4.42676 3.1875 3.16113 4.45312 3.16113 6.01042C3.16113 7.57292 4.42676 8.83854 5.98926 8.83854C7.54655 8.83854 8.81217 7.57292 8.81217 6.01042ZM4.58301 7.125L4.96322 6.56771C5.18717 6.81771 5.69759 7 6.05176 7.01042C6.34342 7.01562 6.61947 6.85938 6.61947 6.63021C6.61947 6.41667 6.44238 6.32292 5.99447 6.30208C5.40072 6.25521 4.69238 6.03646 4.69238 5.32292C4.69238 4.74479 5.16634 4.46354 5.64551 4.375V3.9375H6.3278V4.35417C6.67155 4.39062 6.96322 4.50521 7.24447 4.75521L6.81217 5.26562C6.58822 5.05208 6.33301 4.98438 6.03092 4.98438C5.66113 4.98438 5.45801 5.09896 5.45801 5.29688C5.45801 5.5 5.6403 5.61458 6.04655 5.64062C6.6403 5.68229 7.3903 5.8125 7.3903 6.65104C7.3903 7.14583 7.03613 7.57813 6.3278 7.66667V8.08854H5.64551V7.66146C5.28093 7.61458 4.92155 7.47917 4.58301 7.125Z" fill="#0F1738"/>
</svg>
