<svg id="Capa_1" enable-background="new 0 0 512 512" height="512" viewBox="0 0 512 512" width="512" xmlns="http://www.w3.org/2000/svg"><g><path d="m80 196h120v40h-120z"/><path d="m80 276h120v40h-120z"/><path d="m80 356h120v40h-120z"/><path d="m452 152h-160c-33.084 0-60 26.916-60 60v240c0 33.084 26.916 60 60 60h160c33.084 0 60-26.916 60-60v-240c0-33.084-26.916-60-60-60zm20 300c0 11.028-8.972 20-20 20h-160c-11.028 0-20-8.972-20-20v-240c0-11.028 8.972-20 20-20h160c11.028 0 20 8.972 20 20z"/><path d="m312 232h120v40h-120z"/><circle cx="332" cy="332" r="20"/><circle cx="412" cy="332" r="20"/><circle cx="412" cy="412" r="20"/><circle cx="332" cy="412" r="20"/><path d="m40 452v-332h80v-80h212c11.028 0 20 8.972 20 20v60h40v-60c0-33.084-26.916-60-60-60h-232c-55.141 0-100 44.86-100 100v352c0 33.084 26.916 60 60 60h140v-40h-140c-11.028 0-20-8.972-20-20zm40-408.56v36.56h-36.56c6.036-17.018 19.542-30.524 36.56-36.56z"/></g></svg>