<svg id="Capa_1" enable-background="new 0 0 512 512" height="512" viewBox="0 0 512 512" width="512" xmlns="http://www.w3.org/2000/svg"><g><path d="m496 182h-105v-65c0-8.284-6.716-15-15-15h-50.372c7.818-19.833 6.852-42.286-3.394-61.896-12.641-24.194-37.771-39.68-65.065-40.095-28.88-.439-54.993 15.411-67.939 41.141-9.741 19.36-10.538 41.37-2.859 60.851h-50.371c-8.284 0-15 6.716-15 15v65h-105c-8.284 0-15 6.716-15 15v300c0 8.284 6.716 15 15 15h480c8.284 0 15-6.716 15-15v-300.001c0-8.284-6.716-15-15-15zm-375 300h-90v-270h90zm95.028-427.366c7.762-15.425 22.704-24.634 39.972-24.634s32.21 9.209 39.972 24.634c7.761 15.425 6.251 32.913-4.039 46.779l-35.933 48.417-35.932-48.417c-10.291-13.866-11.801-31.353-4.04-46.779zm64.972 427.366h-50v-50h50zm80 0h-50v-65c0-8.284-6.716-15-15-15h-80c-8.284 0-15 6.716-15 15v65h-50v-350h54.408l38.546 51.939c5.997 8.081 18.093 8.081 24.091 0l38.546-51.939h54.409zm120 0h-90v-270h90z"/><circle cx="436" cy="257" r="15"/><circle cx="436" cy="317" r="15"/><circle cx="436" cy="377" r="15"/><circle cx="436" cy="437" r="15"/><circle cx="316" cy="237" r="15"/><circle cx="316" cy="297" r="15"/><circle cx="316" cy="357" r="15"/><circle cx="196" cy="237" r="15"/><circle cx="196" cy="297" r="15"/><circle cx="196" cy="357" r="15"/><circle cx="256" cy="237" r="15"/><circle cx="316" cy="177" r="15"/><circle cx="196" cy="177" r="15"/><circle cx="256" cy="297" r="15"/><circle cx="256" cy="357" r="15"/><circle cx="76" cy="257" r="15"/><circle cx="76" cy="317" r="15"/><circle cx="76" cy="377" r="15"/><circle cx="76" cy="437" r="15"/><circle cx="256" cy="75" r="15"/></g></svg>