<?xml version="1.0" encoding="iso-8859-1"?>
<!-- Generator: Adobe Illustrator 19.0.0, SVG Export Plug-In . SVG Version: 6.00 Build 0)  -->
<svg version="1.1" id="Capa_1" xmlns="http://www.w3.org/2000/svg" xmlns:xlink="http://www.w3.org/1999/xlink" x="0px" y="0px"
	 viewBox="0 0 58.184 58.184" style="enable-background:new 0 0 58.184 58.184;" xml:space="preserve">
<g>
	<g>
		<path d="M51.717,30.062c-1.622,0-3.1,0.601-4.235,1.588l-1.811-1.243c1.381-2.612,2.167-5.587,2.167-8.749
			c0-10.354-8.392-18.747-18.747-18.747s-18.747,8.394-18.747,18.747c0,3.295,0.852,6.39,2.345,9.08l-1.706,1.169
			c-1.165-1.14-2.758-1.845-4.517-1.845C2.894,30.062,0,32.956,0,36.526c0,3.57,2.894,6.465,6.465,6.465
			c3.571,0,6.465-2.894,6.465-6.465c0-0.643-0.097-1.263-0.272-1.85l1.837-1.259c3.119,3.867,7.741,6.466,12.98,6.913v2.225
			c-2.787,0.718-4.848,3.241-4.848,6.253c0,3.57,2.894,6.465,6.465,6.465c3.57,0,6.465-2.894,6.465-6.465
			c0-3.011-2.062-5.534-4.848-6.253v-2.224c5.371-0.459,10.092-3.179,13.212-7.207l1.731,1.189
			c-0.252,0.691-0.398,1.435-0.398,2.214c0,3.57,2.894,6.465,6.465,6.465s6.465-2.894,6.465-6.465S55.288,30.062,51.717,30.062z
			 M29.091,35.88c-7.842,0-14.222-6.38-14.222-14.222c0-7.842,6.38-14.222,14.222-14.222s14.222,6.38,14.222,14.222
			C43.313,29.5,36.933,35.88,29.091,35.88z"/>
	</g>
</g>
<g>
	<g>
		<circle cx="29.09" cy="15.839" r="4.525"/>
	</g>
</g>
<g>
	<g>
		<path d="M38.13,25.092c-0.118-1.899-2.972-3.434-6.453-3.434h-5.172c-3.481,0-6.335,1.535-6.453,3.435l-0.012,3.676h18.101
			L38.13,25.092z"/>
	</g>
</g>
<g>
</g>
<g>
</g>
<g>
</g>
<g>
</g>
<g>
</g>
<g>
</g>
<g>
</g>
<g>
</g>
<g>
</g>
<g>
</g>
<g>
</g>
<g>
</g>
<g>
</g>
<g>
</g>
<g>
</g>
</svg>
