<svg id="Capa_1" enable-background="new 0 0 587.926 587.926" height="512" viewBox="0 0 587.926 587.926" width="512" xmlns="http://www.w3.org/2000/svg"><g><g><path d="m486.837.573c-3.754-1.36-7.958-.222-10.514 2.845l-24.323 29.182-24.334-29.182c-3.353-4.023-9.333-4.565-13.355-1.212-.44.367-.846.772-1.212 1.212l-24.323 29.182-24.334-29.182c-3.353-4.023-9.333-4.565-13.355-1.212-.44.367-.846.772-1.212 1.212l-24.323 29.182-24.323-29.182c-3.353-4.023-9.333-4.565-13.355-1.212-.44.367-.845.772-1.212 1.212l-24.323 29.182-24.323-29.182c-3.353-4.023-9.333-4.565-13.355-1.212-.44.367-.845.772-1.212 1.212l-24.323 29.182-24.311-29.182c-3.355-4.026-9.339-4.57-13.365-1.214-.441.367-.847.774-1.214 1.214l-24.323 29.182-24.311-29.182c-3.349-4.026-9.328-4.575-13.354-1.225-2.167 1.803-3.419 4.476-3.418 7.294v568.951c-.002 5.237 4.241 9.484 9.478 9.487 2.818.001 5.491-1.251 7.294-3.418l24.323-29.182 24.335 29.182c3.353 4.023 9.333 4.565 13.355 1.212.44-.367.845-.772 1.212-1.212l24.323-29.182 24.335 29.182c3.353 4.023 9.333 4.565 13.355 1.212.44-.367.845-.772 1.212-1.212l24.323-29.182 24.323 29.182c3.353 4.023 9.333 4.565 13.355 1.212.44-.367.845-.772 1.212-1.212l24.323-29.182 24.323 29.182c3.353 4.023 9.333 4.565 13.355 1.212.44-.367.845-.772 1.212-1.212l24.323-29.182 24.311 29.182c3.355 4.026 9.339 4.57 13.365 1.214.441-.367.847-.773 1.214-1.214l24.323-29.182 24.311 29.182c3.349 4.026 9.328 4.575 13.354 1.225 2.167-1.802 3.419-4.476 3.418-7.294v-568.951c.001-3.994-2.502-7.56-6.26-8.914zm-12.706 551.67-14.84-17.803c-3.353-4.023-9.333-4.565-13.355-1.212-.44.367-.845.772-1.212 1.212l-24.324 29.182-24.323-29.182c-3.353-4.023-9.333-4.565-13.355-1.212-.44.367-.846.772-1.212 1.212l-24.323 29.182-24.311-29.182c-3.353-4.023-9.333-4.565-13.355-1.212-.44.367-.845.772-1.212 1.212l-24.323 29.182-24.335-29.182c-3.353-4.023-9.333-4.565-13.355-1.212-.44.367-.845.772-1.212 1.212l-24.323 29.182-24.323-29.182c-3.353-4.023-9.333-4.565-13.355-1.212-.44.367-.845.772-1.212 1.212l-24.335 29.182-24.323-29.182c-3.353-4.023-9.333-4.565-13.355-1.212-.44.367-.845.772-1.212 1.212l-14.852 17.815v-516.572l14.84 17.803c3.353 4.023 9.333 4.565 13.355 1.212.44-.367.845-.772 1.212-1.212l24.323-29.182 24.323 29.182c3.353 4.023 9.333 4.565 13.355 1.212.44-.367.845-.772 1.212-1.212l24.323-29.182 24.311 29.182c3.353 4.023 9.333 4.565 13.355 1.212.44-.367.845-.772 1.212-1.212l24.323-29.182 24.335 29.182c3.353 4.023 9.333 4.565 13.355 1.212.44-.367.845-.772 1.212-1.212l24.323-29.182 24.323 29.182c3.353 4.023 9.333 4.565 13.355 1.212.44-.367.846-.772 1.212-1.212l24.335-29.182 24.323 29.182c3.353 4.023 9.333 4.565 13.355 1.212.44-.367.846-.772 1.212-1.212l14.852-17.815v516.572z"/><path d="m227.585 227.585h132.755c5.237 0 9.483-4.245 9.483-9.483 0-5.237-4.245-9.483-9.483-9.483h-132.755c-5.237 0-9.483 4.245-9.483 9.483.001 5.238 4.246 9.483 9.483 9.483z"/><path d="m170.69 274.998h142.238c5.237 0 9.483-4.245 9.483-9.483 0-5.237-4.245-9.483-9.483-9.483h-142.238c-5.237 0-9.483 4.245-9.483 9.483 0 5.237 4.246 9.483 9.483 9.483z"/><path d="m350.858 246.55c-5.237 0-9.483 4.245-9.483 9.483v132.755c0 5.237 4.245 9.483 9.483 9.483 5.237 0 9.483-4.245 9.483-9.483v-132.755c-.001-5.237-4.246-9.483-9.483-9.483z"/><path d="m388.788 274.998h28.448c5.237 0 9.483-4.245 9.483-9.483 0-5.237-4.245-9.483-9.483-9.483h-28.448c-5.237 0-9.483 4.245-9.483 9.483.001 5.237 4.246 9.483 9.483 9.483z"/><path d="m170.69 312.928h142.238c5.237 0 9.483-4.245 9.483-9.483s-4.245-9.483-9.483-9.483h-142.238c-5.237 0-9.483 4.245-9.483 9.483s4.246 9.483 9.483 9.483z"/><path d="m388.788 312.928h28.448c5.237 0 9.483-4.245 9.483-9.483s-4.245-9.483-9.483-9.483h-28.448c-5.237 0-9.483 4.245-9.483 9.483s4.246 9.483 9.483 9.483z"/><path d="m170.69 350.858h142.238c5.237 0 9.483-4.245 9.483-9.483 0-5.237-4.245-9.483-9.483-9.483h-142.238c-5.237 0-9.483 4.245-9.483 9.483 0 5.237 4.246 9.483 9.483 9.483z"/><path d="m388.788 350.858h28.448c5.237 0 9.483-4.245 9.483-9.483 0-5.237-4.245-9.483-9.483-9.483h-28.448c-5.237 0-9.483 4.245-9.483 9.483.001 5.237 4.246 9.483 9.483 9.483z"/><path d="m170.69 388.788h142.238c5.237 0 9.483-4.245 9.483-9.483s-4.245-9.483-9.483-9.483h-142.238c-5.237 0-9.483 4.245-9.483 9.483s4.246 9.483 9.483 9.483z"/><path d="m388.788 388.788h28.448c5.237 0 9.483-4.245 9.483-9.483s-4.245-9.483-9.483-9.483h-28.448c-5.237 0-9.483 4.245-9.483 9.483s4.246 9.483 9.483 9.483z"/><path d="m455.166 455.166h-104.308c-5.237 0-9.483 4.245-9.483 9.483v37.93c0 5.237 4.245 9.483 9.483 9.483h104.308c5.237 0 9.483-4.245 9.483-9.483v-37.93c-.001-5.238-4.246-9.483-9.483-9.483zm-9.483 37.93h-85.343v-18.965h85.343z"/><path d="m132.76 132.76h104.308c5.237 0 9.483-4.245 9.483-9.483v-28.447c0-5.237-4.245-9.483-9.483-9.483h-104.308c-5.237 0-9.483 4.245-9.483 9.483v28.448c0 5.236 4.246 9.482 9.483 9.482zm9.482-28.448h85.343v9.483h-85.343z"/><path d="m455.166 161.207h-322.406c-5.237 0-9.483 4.245-9.483 9.483v246.546c0 5.237 4.245 9.483 9.483 9.483h322.406c5.237 0 9.483-4.245 9.483-9.483v-246.546c-.001-5.237-4.246-9.483-9.483-9.483zm-9.483 246.546h-303.441v-227.581h303.441z"/><path d="m265.515 104.312h142.238c5.237 0 9.483-4.245 9.483-9.483s-4.245-9.483-9.483-9.483h-142.238c-5.237 0-9.483 4.245-9.483 9.483s4.246 9.483 9.483 9.483z"/><path d="m265.515 132.76h85.343c5.237 0 9.483-4.245 9.483-9.483s-4.245-9.483-9.483-9.483h-85.343c-5.237 0-9.483 4.245-9.483 9.483s4.246 9.483 9.483 9.483z"/></g></g></svg>