<?xml version="1.0" standalone="no"?>
<!DOCTYPE svg PUBLIC "-//W3C//DTD SVG 20010904//EN"
 "http://www.w3.org/TR/2001/REC-SVG-20010904/DTD/svg10.dtd">
<svg version="1.0" xmlns="http://www.w3.org/2000/svg"
 viewBox="0 0 82.000000 80.000000"
 preserveAspectRatio="xMidYMid meet">

<g transform="translate(0.000000,80.000000) scale(0.100000,-0.100000)" stroke="none">
<path d="M312 717 c-6 -7 -12 -30 -14 -52 -2 -34 -7 -41 -27 -43 -15 -2 -28 3
-33 12 -12 20 -67 21 -74 1 -4 -8 -14 -15 -23 -15 -28 0 -41 -21 -41 -67 l0
-42 350 -3 350 -3 0 42 c0 45 -19 73 -51 73 -10 0 -19 7 -19 15 0 10 -11 15
-35 15 -24 0 -35 -5 -35 -15 0 -10 -10 -15 -30 -15 -28 0 -30 2 -30 39 0 65
-14 71 -154 71 -87 0 -127 -4 -134 -13z m248 -62 l0 -35 -115 0 -115 0 0 28
c0 16 3 32 7 35 3 4 55 7 115 7 l108 0 0 -35z"/>
<path d="M100 280 c0 -167 1 -180 19 -190 13 -6 137 -10 335 -10 273 0 317 2
330 16 13 13 16 45 16 190 l0 174 -350 0 -350 0 0 -180z"/>
</g>
</svg>
