<?xml version="1.0" standalone="no"?>
<!DOCTYPE svg PUBLIC "-//W3C//DTD SVG 20010904//EN"
 "http://www.w3.org/TR/2001/REC-SVG-20010904/DTD/svg10.dtd">
<svg version="1.0" xmlns="http://www.w3.org/2000/svg" viewBox="0 0 80.000000 88.000000"
 preserveAspectRatio="xMidYMid meet">

<g transform="translate(0.000000,88.000000) scale(0.100000,-0.100000)"
stroke="none">
<path d="M208 759 c-17 -9 -18 -35 -18 -303 0 -308 -3 -326 -44 -310 -14 5
-16 35 -16 260 l0 254 -23 0 c-13 0 -28 -5 -35 -12 -17 -17 -17 -549 0 -566
17 -17 659 -17 676 0 9 9 12 97 12 334 0 280 -2 325 -16 338 -13 14 -51 16
-267 16 -153 0 -259 -5 -269 -11z m256 -105 c12 -32 -13 -44 -89 -44 -85 0
-105 6 -105 29 0 28 9 31 101 31 71 0 88 -3 93 -16z m191 -149 c0 -19 -8 -20
-192 -23 l-193 -2 0 25 0 25 193 -2 c184 -3 192 -4 192 -23z m-90 -121 c12
-13 13 -19 4 -30 -9 -12 -41 -14 -153 -12 -129 3 -141 5 -144 22 -2 10 2 22
10 27 7 5 70 9 140 9 103 0 130 -3 143 -16z m85 -139 c10 -12 10 -18 0 -30
-10 -12 -43 -15 -180 -15 -93 0 -175 3 -184 6 -16 6 -22 35 -9 47 3 4 86 7
183 7 146 0 180 -3 190 -15z"/>
</g>
</svg>
