<?xml version="1.0" standalone="no"?>
<!DOCTYPE svg PUBLIC "-//W3C//DTD SVG 20010904//EN"
 "http://www.w3.org/TR/2001/REC-SVG-20010904/DTD/svg10.dtd">
<svg version="1.0" xmlns="http://www.w3.org/2000/svg" viewBox="0 0 92.000000 70.000000"
 preserveAspectRatio="xMidYMid meet">

<g transform="translate(0.000000,70.000000) scale(0.100000,-0.100000)" stroke="none">
<path d="M110 630 c-18 -18 -20 -33 -20 -183 0 -131 3 -167 16 -185 l15 -22
353 0 c260 0 355 3 364 12 8 8 12 65 12 189 0 148 -3 180 -16 193 -13 14 -60
16 -360 16 -331 0 -345 -1 -364 -20z m134 -33 c11 -8 15 -19 10 -30 -8 -23
-102 -25 -110 -2 -15 38 59 62 100 32z m540 7 c9 -3 16 -17 16 -31 0 -23 -3
-24 -52 -21 -42 2 -54 7 -56 22 -2 10 2 22 10 27 15 10 60 12 82 3z m-237 -44
c42 -25 63 -68 63 -126 0 -40 -5 -51 -38 -85 -21 -21 -50 -41 -65 -44 -99 -25
-197 73 -172 172 3 15 23 44 44 65 34 34 44 38 87 38 31 0 61 -7 81 -20z
m-298 -234 c23 -27 2 -46 -50 -46 -51 0 -68 13 -55 45 7 20 89 21 105 1z m546
-16 c0 -23 -4 -25 -48 -28 -49 -3 -66 10 -53 44 4 11 18 14 53 12 44 -3 48 -5
48 -28z"/>
<path d="M412 497 c-25 -27 -29 -82 -8 -110 7 -9 27 -22 44 -28 83 -29 145 78
82 141 -29 29 -90 27 -118 -3z"/>
<path d="M95 170 c-17 -27 18 -30 381 -30 352 0 375 1 372 17 -3 17 -30 18
-375 21 -243 1 -374 -1 -378 -8z"/>
<path d="M457 92 c-288 -2 -368 -5 -364 -15 3 -9 92 -13 380 -15 318 -2 377 0
377 12 0 8 -6 15 -12 17 -7 2 -179 3 -381 1z"/>
</g>
</svg>
