<?xml version="1.0" standalone="no"?>
<!DOCTYPE svg PUBLIC "-//W3C//DTD SVG 20010904//EN"
 "http://www.w3.org/TR/2001/REC-SVG-20010904/DTD/svg10.dtd">
<svg version="1.0" xmlns="http://www.w3.org/2000/svg"
 width="1280.000000pt" height="1280.000000pt" viewBox="0 0 1280.000000 1280.000000">

<g transform="translate(0.000000,1280.000000) scale(0.100000,-0.100000)"
stroke="none">
<path d="M1375 12789 c-355 -28 -685 -181 -940 -438 -205 -206 -333 -439 -408
-740 l-21 -86 -3 -1857 -3 -1858 500 0 500 0 0 1723 c0 1047 4 1755 10 1806
26 226 203 410 425 441 96 13 9834 13 9930 0 222 -31 399 -215 425 -441 6 -51
10 -759 10 -1806 l0 -1723 500 0 500 0 -3 1858 -3 1857 -21 86 c-115 463 -397
824 -798 1024 -189 94 -351 138 -569 155 -147 12 -9884 11 -10031 -1z"/>
<path d="M5900 5828 l0 -3893 -950 950 -950 950 -355 -355 c-195 -195 -355
-359 -355 -365 0 -5 700 -710 1555 -1565 l1555 -1555 1555 1555 c855 855 1555
1560 1555 1565 0 6 -160 170 -355 365 l-355 355 -950 -950 -950 -950 0 3893 0
3892 -500 0 -500 0 0 -3892z"/>
</g>
</svg>
