<?xml version="1.0" standalone="no"?>
<!DOCTYPE svg PUBLIC "-//W3C//DTD SVG 20010904//EN"
 "http://www.w3.org/TR/2001/REC-SVG-20010904/DTD/svg10.dtd">
<svg version="1.0" xmlns="http://www.w3.org/2000/svg"
 width="128.000000pt" height="108.000000pt" viewBox="0 0 128.000000 108.000000"
 preserveAspectRatio="xMidYMid meet">

<g transform="translate(0.000000,108.000000) scale(0.100000,-0.100000)" stroke="none">
<path d="M142 1003 c-34 -16 -65 -53 -75 -88 -6 -17 35 -47 293 -213 191 -124
304 -191 312 -186 24 14 583 376 587 379 2 2 -7 23 -20 46 -46 81 -29 79 -579
79 -426 0 -489 -2 -518 -17z"/>
<path d="M62 478 c3 -316 3 -324 25 -354 47 -66 39 -65 585 -62 492 3 493 3
524 25 63 45 65 58 62 401 l-3 309 -290 -188 c-159 -104 -296 -189 -303 -189
-7 0 -122 70 -255 157 -133 86 -266 171 -295 190 l-53 34 3 -323z"/>
</g>
</svg>
