<?xml version="1.0" encoding="iso-8859-1"?>
<!-- Generator: Adobe Illustrator 18.1.1, SVG Export Plug-In . SVG Version: 6.00 Build 0)  -->
<svg version="1.1" id="Capa_1" xmlns="http://www.w3.org/2000/svg" xmlns:xlink="http://www.w3.org/1999/xlink" x="0px" y="0px"
	 viewBox="0 0 453.94 453.94" style="enable-background:new 0 0 453.94 453.94;" xml:space="preserve">
<g>
	<g>
		<path style="fill:#010002;" d="M226.966,162.063c-35.79,0-64.915,29.125-64.915,64.915c0,35.798,29.125,64.915,64.915,64.915
			c35.798,0,64.923-29.117,64.923-64.915S262.764,162.063,226.966,162.063z M226.966,275.628c-26.832,0-48.658-21.833-48.658-48.658
			c0-26.832,21.825-48.658,48.658-48.658s48.666,21.825,48.666,48.658S253.807,275.628,226.966,275.628z"/>
		<path style="fill:#010002;" d="M226.974,123.664c-56.965,0-103.314,46.349-103.314,103.306
			c0,56.965,46.349,103.306,103.314,103.306s103.314-46.341,103.314-103.306C330.288,170.013,283.939,123.664,226.974,123.664z
			 M226.974,314.027c-47.999,0-87.057-39.058-87.057-87.049c0-47.999,39.058-87.049,87.057-87.049s87.057,39.05,87.057,87.049
			C314.031,274.969,274.973,314.027,226.974,314.027z"/>
		<path style="fill:#010002;" d="M450.949,225.751c-0.008-0.049-0.016-0.089-0.024-0.138c-0.049-0.195-0.065-0.39-0.114-0.585
			c0-0.008-0.008-0.008-0.008-0.016C432.619,150.992,338.49,97.271,226.966,97.271S21.297,151,3.121,225.036
			c-0.049,0.187-0.057,0.382-0.106,0.569c-0.008,0.049-0.016,0.098-0.024,0.146C1.032,233.969,0,242.268,0,250.437
			c0,4.495,3.642,8.129,8.129,8.129c2.195,0,4.17-0.886,5.625-2.3c31.978,59.542,115.97,100.404,213.213,100.404
			c97.25,0,181.243-40.862,213.212-100.404c1.463,1.414,3.438,2.3,5.633,2.3c4.495,0,8.129-3.633,8.129-8.129
			C453.948,242.26,452.908,233.953,450.949,225.751z M226.966,340.412c-101.436,0-190.005-48.633-207.441-113.434
			c17.428-64.793,106.005-113.442,207.441-113.442s190.005,48.65,207.441,113.442C416.98,291.779,328.403,340.412,226.966,340.412z"
			/>
	</g>
</g>
<g>
</g>
<g>
</g>
<g>
</g>
<g>
</g>
<g>
</g>
<g>
</g>
<g>
</g>
<g>
</g>
<g>
</g>
<g>
</g>
<g>
</g>
<g>
</g>
<g>
</g>
<g>
</g>
<g>
</g>
</svg>
