<svg id="Capa_1" enable-background="new 0 0 512 512" height="512" viewBox="0 0 512 512" width="512" xmlns="http://www.w3.org/2000/svg"><g><path d="m228.467 297.082-21.072 21.354 40.744 40.207 56.536-56.537-21.213-21.212-35.463 35.463z"/><path d="m156.509 238.253v80.818c0 27.982 9.554 55.484 26.903 77.44 17.348 21.956 41.895 37.611 69.119 44.082l3.469.825 3.469-.825c27.224-6.471 51.771-22.126 69.119-44.082 17.349-21.956 26.903-49.458 26.903-77.44v-80.818l-99.491-52.191zm168.982 80.818c0 42.955-28.397 80.058-69.491 91.443-41.094-11.385-69.491-48.488-69.491-91.443v-62.679l69.491-36.454 69.491 36.454z"/><path d="m350.034 0h-282.708v512h377.348v-417.36zm-5.367 37.06 62.947 62.947h-62.947zm-247.341 444.94v-452h217.34v100.007h100.007v351.993z"/><path d="m143.5 56.5h126.5v30h-126.5z"/><path d="m143.5 118h126.5v30h-126.5z"/></g></svg>