<?xml version="1.0" standalone="no"?>
<!DOCTYPE svg PUBLIC "-//W3C//DTD SVG 20010904//EN"
 "http://www.w3.org/TR/2001/REC-SVG-20010904/DTD/svg10.dtd">
<svg version="1.0" xmlns="http://www.w3.org/2000/svg"
 viewBox="0 0 62.000000 81.000000"
 preserveAspectRatio="xMidYMid meet">

<g transform="translate(0.000000,81.000000) scale(0.100000,-0.100000)" stroke="none">
<path d="M268 734 c-2 -21 -12 -29 -56 -43 -61 -21 -98 -52 -119 -101 -17 -41
-11 -108 13 -145 18 -28 107 -75 141 -75 23 0 23 -2 23 -109 l0 -110 -30 11
c-37 12 -70 53 -70 84 0 23 -4 24 -59 24 l-59 0 8 -36 c14 -61 56 -113 113
-140 29 -13 62 -24 75 -24 18 0 22 -6 22 -29 0 -28 2 -29 50 -33 48 -3 49 -2
52 27 3 26 8 30 47 37 133 22 207 144 155 253 -20 42 -50 62 -133 89 l-66 21
-3 93 c-2 60 1 92 8 92 22 0 63 -35 75 -65 12 -28 17 -30 64 -31 44 -1 51 1
51 18 0 31 -30 86 -58 108 -13 11 -51 30 -84 42 -53 19 -59 24 -55 45 4 22 1
23 -49 23 -49 0 -53 -2 -56 -26z m2 -194 c0 -44 -3 -80 -6 -80 -12 0 -50 24
-61 39 -22 29 -16 78 13 100 47 37 54 29 54 -59z m169 -225 c16 -8 31 -22 35
-30 8 -22 7 -78 -2 -91 -14 -20 -57 -44 -79 -44 -22 0 -23 3 -23 90 0 84 1 90
20 90 12 0 34 -7 49 -15z"/>
</g>
</svg>
