<?xml version="1.0" standalone="no"?>
<!DOCTYPE svg PUBLIC "-//W3C//DTD SVG 20010904//EN"
 "http://www.w3.org/TR/2001/REC-SVG-20010904/DTD/svg10.dtd">
<svg version="1.0" xmlns="http://www.w3.org/2000/svg" viewBox="0 0 186.000000 206.000000"
 preserveAspectRatio="xMidYMid meet">

<g transform="translate(0.000000,206.000000) scale(0.100000,-0.100000)" stroke="none">
<path d="M913 1836 l-28 -24 0 -475 0 -475 24 -26 c34 -36 88 -36 122 0 l24
26 0 475 0 475 -28 24 c-16 13 -41 24 -57 24 -16 0 -41 -11 -57 -24z"/>
<path d="M585 1572 c-31 -7 -131 -79 -190 -137 -177 -177 -267 -437 -235 -675
45 -332 275 -600 597 -692 112 -32 314 -32 426 0 322 92 552 360 597 692 39
290 -102 602 -348 769 -78 53 -124 57 -159 16 -44 -50 -31 -92 46 -144 131
-90 238 -238 276 -386 21 -81 21 -233 0 -315 -46 -180 -172 -338 -335 -417
-141 -69 -272 -87 -418 -57 -240 48 -436 236 -497 474 -21 82 -21 234 0 315
38 148 145 296 276 386 31 21 59 45 63 54 25 66 -30 131 -99 117z"/>
</g>
</svg>
