<svg xmlns="http://www.w3.org/2000/svg" viewBox="0 0 64 64"><path d="m53.25 3-4.76-2-4.75 2-4.75-2-4.75 2-4.74-2-4.75 2L20 1v20H10c-2.21 0-4 1.79-4 4v26h6v7c0 1.32.52 2.58 1.47 3.54.95.94 2.21 1.46 3.53 1.46h37c2.21 0 4-1.79 4-4V1l-4.75 2ZM20 58a3.005 3.005 0 0 1-5.12 2.13A3.03 3.03 0 0 1 14 58V25c0-.73-.21-1.41-.55-2H20v35Zm14-2h-8a1 1 0 1 1 0-2h8a1 1 0 1 1 0 2Zm8-4H26a1 1 0 1 1 0-2h16a1 1 0 1 1 0 2Zm-17-7a1 1 0 0 1 1-1h8a1 1 0 1 1 0 2h-8a1 1 0 0 1-1-1Zm17-3H26a1 1 0 1 1 0-2h16a1 1 0 1 1 0 2Zm-17-7a1 1 0 0 1 1-1h8a1 1 0 1 1 0 2h-8a1 1 0 0 1-1-1Zm17-3H26a1 1 0 1 1 0-2h16a1 1 0 1 1 0 2Zm-17-7a1 1 0 0 1 1-1h8a1 1 0 1 1 0 2h-8a1 1 0 0 1-1-1Zm17-3H26a1 1 0 1 1 0-2h16a1 1 0 1 1 0 2Zm6-8H30a1 1 0 1 1 0-2h18a1 1 0 1 1 0 2Zm4 38h-2a1 1 0 1 1 0-2h2a1 1 0 1 1 0 2Zm0-10h-2a1 1 0 1 1 0-2h2a1 1 0 1 1 0 2Zm0-10h-2a1 1 0 1 1 0-2h2a1 1 0 1 1 0 2Zm0-10h-2a1 1 0 1 1 0-2h2a1 1 0 1 1 0 2Z"/></svg>