<svg id="Capa_1" enable-background="new 0 0 512 512" height="512" viewBox="0 0 512 512" width="512" xmlns="http://www.w3.org/2000/svg"><g><path d="m391.561 331.25c24.881 0 45.125-20.242 45.126-45.122l.001-13.998c.278-19.105-13.644-38.558-33.336-43.571 2.064-5.165 3.211-10.792 3.211-16.685v-31.188c0-49.798-40.514-90.312-90.312-90.312h-67.499c-19.164.491-36.296-12.998-44.476-30.125-54.077-3.552-98.374 36.906-98.838 90.312v61.312c0 5.897 1.149 11.528 3.215 16.696-19.184 5.197-33.34 22.749-33.34 43.554v13.999c0 24.882 20.243 45.125 45.125 45.125h15.125v.062c0 66.41 54.028 120.438 120.438 120.438s120.438-54.028 120.438-120.438v-.062h15.122zm15.126-45.124c-.001 8.339-6.786 15.124-15.126 15.124h-15.123v-44.25h15.125c7.052-.042 15.138 6.095 15.125 15.127zm-286.249 15.124c-8.34 0-15.125-6.785-15.125-15.125v-13.999c0-8.34 6.785-15.125 15.125-15.125h15.125v44.25h-15.125zm15-89.375v-61.312c0-30.697 23.052-56.111 52.753-59.841 14.404 18.487 36.846 29.654 60.561 29.654h67.499c33.257 0 60.312 27.056 60.312 60.312v31.188c0 8.34-6.785 15.125-15.125 15.125-24.951 0-45.25-20.299-45.25-45.25h-30c0 24.951-20.299 45.25-45.25 45.25h-90.375c-8.34-.001-15.125-6.786-15.125-15.126zm211 119.437c0 49.867-40.57 90.438-90.438 90.438s-90.438-40.57-90.438-90.438v-74.312h75.375c24.619 0 46.513-11.882 60.25-30.214 10.871 14.508 26.854 24.976 45.25 28.712v75.814z"/><path d="m30 30h105.5v-30h-135.5v135.5h30z"/><path d="m60.25 60.25h30v30h-30z"/><path d="m376.5 0v30h105.5v105.5h30v-135.5z"/><path d="m421.75 60.25h30v30h-30z"/><path d="m30 376.5h-30v135.5h135.5v-30h-105.5z"/><path d="m60.25 421.75h30v30h-30z"/><path d="m482 482h-105.5v30h135.5v-135.5h-30z"/><path d="m421.75 421.75h30v30h-30z"/></g></svg>