<svg xmlns="http://www.w3.org/2000/svg" shape-rendering="geometricPrecision" text-rendering="geometricPrecision" image-rendering="optimizeQuality" fill-rule="evenodd" clip-rule="evenodd" viewBox="0 0 504 512.08"><path fill-rule="nonzero" d="m13.49 173.45 23.38 3.69c12.5-47.72 39.52-89.77 76.2-120.89C152.09 23.15 202.1 2.35 257.25.19c65.47-2.58 125.83 21.67 170.47 62.93 44.62 41.26 73.52 99.53 76.09 164.99.96 24.59-1.81 48.38-7.8 70.78a235.194 235.194 0 0 1-18.85 48.3l-.58-.94a60.454 60.454 0 0 0-23.62-21.56 62.33 62.33 0 0 0-13.7-5.07c4.95-10.41 9-21.33 12.03-32.68a191.43 191.43 0 0 0 6.36-57.02c-2.07-52.79-25.33-99.74-61.25-132.95-35.92-33.2-84.54-52.7-137.34-50.62-44.38 1.74-84.66 18.51-116.12 45.2-28.42 24.11-49.63 56.31-60.17 92.84l18.78 2.96c6.38.99 10.76 6.97 9.77 13.35-.43 2.79-1.82 5.21-3.78 6.95l-52.48 46.73c-4.83 4.3-12.25 3.87-16.56-.97-.73-.81-1.32-1.71-1.78-2.64L1.61 190.93c-3.27-5.57-1.4-12.74 4.17-16.01 2.42-1.42 5.14-1.86 7.71-1.47zm233.7 131c-2.56-.19-4.14-.45-6.03-.75l-10.58-1.52-6.53-1.1c-2.12-.37-4.23-.8-6.32-1.26-2.22-.49-4.27-1-6.11-1.49l-2.48-.66v-40.88l11.56.95 8.48.5 8.91.39 9.01.29 8.77.16 8.14.04c2.48 0 4.65-.08 6.51-.25 1.91-.17 3.62-.43 5.14-.78 1.38-.3 2.59-.72 3.61-1.21.88-.42 1.61-.93 2.18-1.5.48-.48.85-1.05 1.09-1.7.26-.75.4-1.65.4-2.68v-2.7c0-2.16-.69-3.73-2.07-4.71-.85-.6-1.8-1.07-2.81-1.37-1.03-.32-2.19-.47-3.47-.47h-11.92c-8.99 0-16.95-1.01-23.89-3.02-7.06-2.05-13.02-5.14-17.88-9.26-4.96-4.23-8.67-9.84-11.11-16.81-2.39-6.79-3.58-14.86-3.58-24.22v-7.42c0-8.67 1.33-16.3 3.97-22.88 2.68-6.69 6.72-12.27 12.1-16.71 3.9-3.22 7.59-5.85 11.96-7.9 3.7-1.74 7.84-3.04 12.95-3.89v-18.13h37.69v17.4c6.24.49 11.07 1.36 17.17 2.47l3.17.55c2.64.47 5.28.98 7.89 1.52 2.45.5 4.81 1.03 7.05 1.57l2.56.62v40.93l-3.63-.33c-3.6-.3-7.25-.58-10.91-.81-3.98-.24-8.07-.47-12.24-.64-4.36-.19-8.46-.34-12.25-.43-3.5-.08-7.21-.12-11.12-.12-4.51 0-13.13.11-16.54 3.52-2.13 2.13-2.21 8.78-1.09 11.41 1.68 3.98 6.9 4.47 10.65 4.47h14.85c5.46 0 10.52.53 15.16 1.59 4.7 1.06 8.94 2.68 12.71 4.82 7.55 4.31 13.25 10.17 17.07 17.58 1.88 3.64 3.31 7.56 4.25 11.74.94 4.15 1.42 8.52 1.42 13.07v7.43c0 7.33-.66 13.86-1.95 19.58-1.33 5.82-3.35 10.79-6.05 14.88-2.7 4.1-5.98 7.54-9.84 10.3-3.84 2.77-8.25 4.87-13.18 6.27l-1.26.36c-4.8 1.38-8.29 2.39-13.89 3v19.62h-37.69v-19.43zm-136.6 160.02V327.33c67.65 0 79.15-3.05 140.13 35.33h47.92c21.69 1.29 33.05 23.29 11.96 37.73-16.79 12.33-38.96 11.63-61.69 9.59-15.68-.78-16.35 20.28 0 20.35 5.68.45 11.84-.89 17.22-.89 28.35-.04 51.71-5.46 66.01-27.86l7.17-16.75 71.28-35.32c35.66-11.74 61.03 25.56 34.73 51.52-51.63 37.55-104.56 68.45-158.71 93.41-39.34 23.93-78.67 23.1-117.97 0l-58.05-29.97zM4.95 314.15h87.06v164.1H4.95v-164.1z"/></svg>