<svg id="Capa_1" enable-background="new 0 0 512 512" height="512" viewBox="0 0 512 512" width="512" xmlns="http://www.w3.org/2000/svg"><g><path d="m384.5 323.625h-257c-4.143 0-7.5 3.358-7.5 7.5s3.357 7.5 7.5 7.5h257c4.143 0 7.5-3.358 7.5-7.5s-3.357-7.5-7.5-7.5zm45 43.682c4.143 0 7.5-3.358 7.5-7.5v-322.307c0-20.678-16.822-37.5-37.5-37.5h-287c-20.678 0-37.5 16.822-37.5 37.5v437c0 20.678 16.822 37.5 37.5 37.5h287c20.678 0 37.5-16.822 37.5-37.5v-79.693c0-4.142-3.357-7.5-7.5-7.5s-7.5 3.358-7.5 7.5v79.693c0 12.407-10.094 22.5-22.5 22.5h-287c-12.406 0-22.5-10.093-22.5-22.5v-437c0-12.407 10.094-22.5 22.5-22.5h287c12.406 0 22.5 10.093 22.5 22.5v322.307c0 4.142 3.357 7.5 7.5 7.5zm-45-1.682h-257c-4.143 0-7.5 3.358-7.5 7.5s3.357 7.5 7.5 7.5h257c4.143 0 7.5-3.358 7.5-7.5s-3.357-7.5-7.5-7.5zm0-84h-257c-4.143 0-7.5 3.358-7.5 7.5s3.357 7.5 7.5 7.5h257c4.143 0 7.5-3.358 7.5-7.5s-3.357-7.5-7.5-7.5zm-257 168c-4.143 0-7.5 3.358-7.5 7.5s3.357 7.5 7.5 7.5h182c4.143 0 7.5-3.358 7.5-7.5s-3.357-7.5-7.5-7.5zm264.5-34.5c0-4.142-3.357-7.5-7.5-7.5h-257c-4.143 0-7.5 3.358-7.5 7.5s3.357 7.5 7.5 7.5h257c4.143 0 7.5-3.358 7.5-7.5zm-7.5-325.125h-75.099c-4.143 0-7.5 3.358-7.5 7.5s3.357 7.5 7.5 7.5h75.099c4.143 0 7.5-3.358 7.5-7.5s-3.357-7.5-7.5-7.5zm0-45h-75.099c-4.143 0-7.5 3.358-7.5 7.5s3.357 7.5 7.5 7.5h75.099c4.143 0 7.5-3.358 7.5-7.5s-3.357-7.5-7.5-7.5zm-30 105c4.143 0 7.5-3.358 7.5-7.5s-3.357-7.5-7.5-7.5h-45.099c-4.143 0-7.5 3.358-7.5 7.5s3.357 7.5 7.5 7.5zm-197-90h30.924c4.143 0 7.5-3.358 7.5-7.5s-3.357-7.5-7.5-7.5h-30.924c-20.678 0-37.5 16.822-37.5 37.5v89.625c0 17.187 11.627 31.701 27.425 36.114.016.004.031.009.047.013 3.194.888 6.554 1.372 10.028 1.372h89.624c20.678 0 37.5-16.822 37.5-37.5v-89.624c0-20.678-16.822-37.5-37.5-37.5h-23.7c-4.143 0-7.5 3.358-7.5 7.5s3.357 7.5 7.5 7.5h23.7c12.406 0 22.5 10.093 22.5 22.5v89.625c0 7.375-3.567 13.932-9.066 18.038-4.995-15.863-16.31-29.053-31.217-36.412 2.212-4.222 3.471-9.018 3.471-14.106v-15c0-16.818-13.683-30.5-30.5-30.5s-30.5 13.682-30.5 30.5v15c0 5.087 1.259 9.884 3.471 14.105-14.902 7.359-26.218 20.549-31.218 36.412-5.499-4.106-9.065-10.663-9.065-18.038v-89.624c0-12.407 10.094-22.5 22.5-22.5zm29.312 64.645c0-8.547 6.953-15.5 15.5-15.5s15.5 6.953 15.5 15.5v15c0 8.547-6.953 15.5-15.5 15.5s-15.5-6.953-15.5-15.5zm-.784 40.77c4.716 2.991 10.299 4.73 16.284 4.73s11.568-1.74 16.283-4.73c13.251 4.998 23.424 15.845 27.644 29.209h-87.857c4.227-13.365 14.401-24.211 27.646-29.209zm198.472 74.21h-257c-4.143 0-7.5 3.358-7.5 7.5s3.357 7.5 7.5 7.5h257c4.143 0 7.5-3.358 7.5-7.5s-3.357-7.5-7.5-7.5z"/></g></svg>