<?xml version="1.0" standalone="no"?>
<!DOCTYPE svg PUBLIC "-//W3C//DTD SVG 20010904//EN"
 "http://www.w3.org/TR/2001/REC-SVG-20010904/DTD/svg10.dtd">
<svg version="1.0" xmlns="http://www.w3.org/2000/svg"
 viewBox="0 0 78.000000 74.000000"
 preserveAspectRatio="xMidYMid meet">

<g transform="translate(0.000000,74.000000) scale(0.100000,-0.100000)"
 stroke="none">
<path d="M567 673 c-4 -3 -7 -12 -7 -20 0 -9 18 -13 67 -13 l67 0 -49 -50
c-38 -39 -46 -53 -37 -62 9 -9 20 -4 49 23 21 18 39 37 41 42 11 22 22 1 22
-42 0 -59 7 -81 26 -81 22 0 20 196 -2 204 -21 8 -169 8 -177 -1z"/>
<path d="M82 524 c-22 -15 -22 -19 -22 -239 0 -190 2 -226 16 -239 13 -14 51
-16 263 -16 229 0 249 1 265 19 14 16 16 43 14 231 l-3 212 -118 -117 c-98
-97 -120 -115 -132 -105 -8 7 -15 17 -15 24 0 6 53 64 117 128 l118 118 -240
0 c-202 0 -244 -3 -263 -16z"/>
</g>
</svg>
